G75*
%MOIN*%
%OFA0B0*%
%FSLAX25Y25*%
%IPPOS*%
%LPD*%
%AMOC8*
5,1,8,0,0,1.08239X$1,22.5*
%
%ADD10R,0.07874X3.93701*%
%ADD11C,0.01000*%
%ADD12C,0.00600*%
%ADD13C,0.00400*%
%ADD14C,0.00500*%
%ADD15C,0.00700*%
D10*
X0005737Y0306571D03*
X0202587Y0306571D03*
X0241957Y0306571D03*
X0348257Y0306571D03*
D11*
X0339202Y0158933D02*
X0255343Y0158933D01*
X0255343Y0114445D01*
X0339202Y0114445D01*
X0339202Y0158933D01*
X0339202Y0158736D02*
X0255343Y0158736D01*
X0255343Y0114248D01*
X0339202Y0114248D01*
X0339202Y0158736D01*
D12*
X0314492Y0138079D02*
X0312357Y0138079D01*
X0314492Y0138079D02*
X0314492Y0131674D01*
X0312357Y0131674D01*
X0310195Y0131674D02*
X0305925Y0131674D01*
X0303750Y0132742D02*
X0302682Y0131674D01*
X0300547Y0131674D01*
X0299479Y0132742D01*
X0299479Y0137012D01*
X0300547Y0138079D01*
X0302682Y0138079D01*
X0303750Y0137012D01*
X0303750Y0132742D01*
X0297304Y0132742D02*
X0296237Y0131674D01*
X0294101Y0131674D01*
X0293034Y0132742D01*
X0293034Y0134877D01*
X0295169Y0134877D01*
X0297304Y0137012D02*
X0296237Y0138079D01*
X0294101Y0138079D01*
X0293034Y0137012D01*
X0290859Y0137012D02*
X0289791Y0138079D01*
X0287656Y0138079D01*
X0286588Y0137012D01*
X0286588Y0132742D01*
X0287656Y0131674D01*
X0289791Y0131674D01*
X0290859Y0132742D01*
X0290859Y0137012D01*
X0284413Y0138079D02*
X0282278Y0138079D01*
X0282278Y0131674D01*
X0284413Y0131674D01*
X0297304Y0132742D02*
X0297304Y0137012D01*
X0310195Y0138079D02*
X0310195Y0131674D01*
D13*
X0250031Y0228207D02*
X0250031Y0229742D01*
X0250799Y0230509D01*
X0254635Y0230509D01*
X0254635Y0232044D02*
X0250031Y0232044D01*
X0251566Y0232044D02*
X0254635Y0235113D01*
X0257531Y0235113D02*
X0262135Y0235113D01*
X0261368Y0236648D02*
X0258299Y0236648D01*
X0257531Y0237415D01*
X0257531Y0238950D01*
X0258299Y0239717D01*
X0261368Y0239717D02*
X0262135Y0238950D01*
X0262135Y0237415D01*
X0261368Y0236648D01*
X0259066Y0233579D02*
X0257531Y0235113D01*
X0259066Y0233579D02*
X0257531Y0232044D01*
X0262135Y0232044D01*
X0261368Y0230509D02*
X0262135Y0229742D01*
X0262135Y0228207D01*
X0261368Y0227440D01*
X0258299Y0227440D01*
X0257531Y0228207D01*
X0257531Y0229742D01*
X0258299Y0230509D01*
X0259833Y0230509D01*
X0259833Y0228975D01*
X0254635Y0227440D02*
X0250799Y0227440D01*
X0250031Y0228207D01*
X0252333Y0232811D02*
X0250031Y0235113D01*
X0258299Y0245856D02*
X0257531Y0246623D01*
X0257531Y0248158D01*
X0258299Y0248925D01*
X0257531Y0250460D02*
X0260601Y0250460D01*
X0262135Y0251994D01*
X0260601Y0253529D01*
X0257531Y0253529D01*
X0257531Y0255064D02*
X0262135Y0255064D01*
X0257531Y0258133D01*
X0262135Y0258133D01*
X0261368Y0259668D02*
X0260601Y0259668D01*
X0259833Y0260435D01*
X0259833Y0261970D01*
X0259066Y0262737D01*
X0258299Y0262737D01*
X0257531Y0261970D01*
X0257531Y0260435D01*
X0258299Y0259668D01*
X0261368Y0259668D02*
X0262135Y0260435D01*
X0262135Y0261970D01*
X0261368Y0262737D01*
X0260601Y0264272D02*
X0262135Y0265806D01*
X0260601Y0267341D01*
X0257531Y0267341D01*
X0259833Y0267341D02*
X0259833Y0264272D01*
X0260601Y0264272D02*
X0257531Y0264272D01*
X0254635Y0264272D02*
X0252333Y0264272D01*
X0253101Y0265806D01*
X0253101Y0266574D01*
X0252333Y0267341D01*
X0250799Y0267341D01*
X0250031Y0266574D01*
X0250031Y0265039D01*
X0250799Y0264272D01*
X0251566Y0262737D02*
X0254635Y0262737D01*
X0254635Y0264272D02*
X0254635Y0267341D01*
X0257531Y0270410D02*
X0262135Y0270410D01*
X0262135Y0268875D02*
X0262135Y0271945D01*
X0251566Y0262737D02*
X0250031Y0261202D01*
X0251566Y0259668D01*
X0254635Y0259668D01*
X0259833Y0253529D02*
X0259833Y0250460D01*
X0261368Y0248925D02*
X0262135Y0248158D01*
X0262135Y0246623D01*
X0261368Y0245856D01*
X0258299Y0245856D01*
D14*
X0178532Y0408539D02*
X0178532Y0495154D01*
X0045540Y0495154D01*
X0045540Y0408539D01*
X0178532Y0408539D01*
X0043217Y0486965D02*
X0031800Y0486965D01*
X0031800Y0489327D01*
X0043217Y0489327D01*
X0017233Y0496413D02*
X0017233Y0479484D01*
X0012902Y0479484D01*
X0012902Y0496413D02*
X0012902Y0496807D01*
X0012902Y0496413D02*
X0017233Y0496413D01*
D15*
X0012964Y0493679D02*
X0012964Y0490409D01*
X0011330Y0492044D02*
X0014599Y0492044D01*
X0013752Y0486139D02*
X0013752Y0482870D01*
M02*
