G75*
%MOIN*%
%OFA0B0*%
%FSLAX25Y25*%
%IPPOS*%
%LPD*%
%AMOC8*
5,1,8,0,0,1.08239X$1,22.5*
%
%ADD10C,0.13398*%
%ADD11C,0.25800*%
%ADD12R,0.13398X0.13398*%
%ADD13C,0.00500*%
%ADD14C,0.06400*%
%ADD15R,0.06312X0.07099*%
%ADD16R,0.03556X0.04343*%
%ADD17R,0.07099X0.06312*%
%ADD18R,0.05918X0.06706*%
%ADD19R,0.10643X0.05524*%
%ADD20C,0.10800*%
%ADD21R,0.06587X0.05800*%
%ADD22R,0.03950X0.04737*%
%ADD23C,0.06800*%
%ADD24OC8,0.06800*%
%ADD25R,0.22454X0.09265*%
%ADD26R,0.03950X0.03950*%
%ADD27R,0.05524X0.05524*%
%ADD28C,0.07400*%
%ADD29OC8,0.09300*%
%ADD30R,0.03950X0.04343*%
%ADD31R,0.04737X0.06312*%
%ADD32R,0.04343X0.03556*%
%ADD33R,0.05131X0.06312*%
%ADD34R,0.06312X0.05131*%
%ADD35R,0.03300X0.05800*%
%ADD36C,0.06350*%
%ADD37R,0.04737X0.08674*%
%ADD38R,0.08674X0.04737*%
%ADD39C,0.06350*%
%ADD40R,0.06350X0.06350*%
%ADD41OC8,0.06350*%
%ADD42R,0.04146X0.09461*%
%ADD43R,0.04737X0.04934*%
%ADD44C,0.12611*%
%ADD45R,0.02965X0.05524*%
%ADD46R,0.05524X0.02965*%
%ADD47C,0.05162*%
D10*
X0190776Y0495547D03*
D11*
X0273847Y0314799D03*
D12*
X0273847Y0282416D03*
X0273847Y0347183D03*
D13*
X0273847Y0339799D02*
X0270834Y0339617D01*
X0267864Y0339073D01*
X0264982Y0338175D01*
X0262229Y0336936D01*
X0259646Y0335374D01*
X0257269Y0333512D01*
X0255134Y0331377D01*
X0253273Y0329001D01*
X0251711Y0326417D01*
X0250472Y0323664D01*
X0249574Y0320782D01*
X0249030Y0317813D01*
X0248847Y0314799D01*
X0249030Y0311786D01*
X0249574Y0308816D01*
X0250472Y0305934D01*
X0251711Y0303181D01*
X0253273Y0300598D01*
X0255134Y0298221D01*
X0257269Y0296086D01*
X0259646Y0294225D01*
X0262229Y0292663D01*
X0264982Y0291424D01*
X0267864Y0290526D01*
X0270834Y0289981D01*
X0273847Y0289799D01*
X0276861Y0289981D01*
X0279830Y0290526D01*
X0282712Y0291424D01*
X0285465Y0292663D01*
X0288049Y0294225D01*
X0290425Y0296086D01*
X0292560Y0298221D01*
X0294422Y0300598D01*
X0295984Y0303181D01*
X0297223Y0305934D01*
X0298121Y0308816D01*
X0298665Y0311786D01*
X0298847Y0314799D01*
X0298665Y0317813D01*
X0298121Y0320782D01*
X0297223Y0323664D01*
X0295984Y0326417D01*
X0294422Y0329001D01*
X0292560Y0331377D01*
X0290425Y0333512D01*
X0288049Y0335374D01*
X0285465Y0336936D01*
X0282712Y0338175D01*
X0279830Y0339073D01*
X0276861Y0339617D01*
X0273847Y0339799D01*
X0270382Y0339534D02*
X0277312Y0339534D01*
X0279949Y0339036D02*
X0267745Y0339036D01*
X0266146Y0338537D02*
X0281549Y0338537D01*
X0283014Y0338039D02*
X0264680Y0338039D01*
X0263572Y0337540D02*
X0284122Y0337540D01*
X0285230Y0337042D02*
X0262465Y0337042D01*
X0261580Y0336543D02*
X0286115Y0336543D01*
X0286939Y0336045D02*
X0260755Y0336045D01*
X0259931Y0335546D02*
X0287764Y0335546D01*
X0288465Y0335048D02*
X0259229Y0335048D01*
X0258593Y0334549D02*
X0289102Y0334549D01*
X0289738Y0334051D02*
X0257957Y0334051D01*
X0257320Y0333552D02*
X0290374Y0333552D01*
X0290884Y0333054D02*
X0256811Y0333054D01*
X0256312Y0332555D02*
X0291382Y0332555D01*
X0291881Y0332057D02*
X0255814Y0332057D01*
X0255315Y0331558D02*
X0292379Y0331558D01*
X0292809Y0331059D02*
X0254886Y0331059D01*
X0254495Y0330561D02*
X0293200Y0330561D01*
X0293590Y0330062D02*
X0254104Y0330062D01*
X0253714Y0329564D02*
X0293981Y0329564D01*
X0294371Y0329065D02*
X0253323Y0329065D01*
X0253010Y0328567D02*
X0294684Y0328567D01*
X0294985Y0328068D02*
X0252709Y0328068D01*
X0252408Y0327570D02*
X0295287Y0327570D01*
X0295588Y0327071D02*
X0252106Y0327071D01*
X0251805Y0326573D02*
X0295890Y0326573D01*
X0296138Y0326074D02*
X0251557Y0326074D01*
X0251332Y0325576D02*
X0296362Y0325576D01*
X0296587Y0325077D02*
X0251108Y0325077D01*
X0250883Y0324579D02*
X0296811Y0324579D01*
X0297035Y0324080D02*
X0250659Y0324080D01*
X0250446Y0323582D02*
X0297248Y0323582D01*
X0297404Y0323083D02*
X0250291Y0323083D01*
X0250135Y0322585D02*
X0297559Y0322585D01*
X0297714Y0322086D02*
X0249980Y0322086D01*
X0249825Y0321588D02*
X0297870Y0321588D01*
X0298025Y0321089D02*
X0249669Y0321089D01*
X0249539Y0320591D02*
X0298156Y0320591D01*
X0298247Y0320092D02*
X0249447Y0320092D01*
X0249356Y0319594D02*
X0298339Y0319594D01*
X0298430Y0319095D02*
X0249265Y0319095D01*
X0249173Y0318597D02*
X0298521Y0318597D01*
X0298613Y0318098D02*
X0249082Y0318098D01*
X0249017Y0317600D02*
X0298678Y0317600D01*
X0298708Y0317101D02*
X0248986Y0317101D01*
X0248956Y0316603D02*
X0298738Y0316603D01*
X0298768Y0316104D02*
X0248926Y0316104D01*
X0248896Y0315606D02*
X0298798Y0315606D01*
X0298829Y0315107D02*
X0248866Y0315107D01*
X0248859Y0314609D02*
X0298836Y0314609D01*
X0298806Y0314110D02*
X0248889Y0314110D01*
X0248919Y0313612D02*
X0298775Y0313612D01*
X0298745Y0313113D02*
X0248949Y0313113D01*
X0248979Y0312615D02*
X0298715Y0312615D01*
X0298685Y0312116D02*
X0249010Y0312116D01*
X0249060Y0311618D02*
X0298634Y0311618D01*
X0298543Y0311119D02*
X0249152Y0311119D01*
X0249243Y0310621D02*
X0298451Y0310621D01*
X0298360Y0310122D02*
X0249334Y0310122D01*
X0249426Y0309624D02*
X0298269Y0309624D01*
X0298177Y0309125D02*
X0249517Y0309125D01*
X0249633Y0308626D02*
X0298062Y0308626D01*
X0297906Y0308128D02*
X0249788Y0308128D01*
X0249944Y0307629D02*
X0297751Y0307629D01*
X0297596Y0307131D02*
X0250099Y0307131D01*
X0250254Y0306632D02*
X0297440Y0306632D01*
X0297285Y0306134D02*
X0250410Y0306134D01*
X0250606Y0305635D02*
X0297088Y0305635D01*
X0296864Y0305137D02*
X0250831Y0305137D01*
X0251055Y0304638D02*
X0296640Y0304638D01*
X0296415Y0304140D02*
X0251279Y0304140D01*
X0251504Y0303641D02*
X0296191Y0303641D01*
X0295961Y0303143D02*
X0251734Y0303143D01*
X0252035Y0302644D02*
X0295659Y0302644D01*
X0295358Y0302146D02*
X0252337Y0302146D01*
X0252638Y0301647D02*
X0295056Y0301647D01*
X0294755Y0301149D02*
X0252939Y0301149D01*
X0253241Y0300650D02*
X0294454Y0300650D01*
X0294073Y0300152D02*
X0253622Y0300152D01*
X0254012Y0299653D02*
X0293682Y0299653D01*
X0293291Y0299155D02*
X0254403Y0299155D01*
X0254794Y0298656D02*
X0292901Y0298656D01*
X0292497Y0298158D02*
X0255198Y0298158D01*
X0255696Y0297659D02*
X0291998Y0297659D01*
X0291500Y0297161D02*
X0256195Y0297161D01*
X0256693Y0296662D02*
X0291001Y0296662D01*
X0290503Y0296164D02*
X0257192Y0296164D01*
X0257807Y0295665D02*
X0289888Y0295665D01*
X0289251Y0295167D02*
X0258443Y0295167D01*
X0259079Y0294668D02*
X0288615Y0294668D01*
X0287958Y0294170D02*
X0259737Y0294170D01*
X0260561Y0293671D02*
X0287133Y0293671D01*
X0286309Y0293173D02*
X0261386Y0293173D01*
X0262210Y0292674D02*
X0285484Y0292674D01*
X0284383Y0292176D02*
X0263312Y0292176D01*
X0264419Y0291677D02*
X0283275Y0291677D01*
X0281925Y0291179D02*
X0265769Y0291179D01*
X0267369Y0290680D02*
X0280326Y0290680D01*
X0277952Y0290182D02*
X0269742Y0290182D01*
D14*
X0018414Y0484209D03*
X0018414Y0492083D03*
D15*
X0169517Y0464051D03*
X0180540Y0464051D03*
D16*
X0173650Y0475862D03*
X0168532Y0475862D03*
X0172469Y0483736D03*
X0177587Y0483736D03*
X0142154Y0436492D03*
X0137036Y0436492D03*
X0172469Y0408933D03*
X0177587Y0408933D03*
X0177587Y0401059D03*
X0172469Y0401059D03*
X0126406Y0483736D03*
X0121288Y0483736D03*
D17*
X0155343Y0461689D03*
X0155343Y0450665D03*
X0080540Y0462476D03*
X0080540Y0473500D03*
D18*
X0296603Y0386374D03*
X0304083Y0386374D03*
X0306800Y0364563D03*
X0299320Y0364563D03*
X0297784Y0350193D03*
X0305265Y0350193D03*
X0301721Y0337752D03*
X0309202Y0337752D03*
X0311643Y0322004D03*
X0304162Y0322004D03*
X0329635Y0329130D03*
X0337115Y0329130D03*
X0340698Y0319445D03*
X0333217Y0319445D03*
D19*
X0078178Y0418185D03*
X0078178Y0431177D03*
D20*
X0019910Y0429130D03*
X0019910Y0454720D03*
D21*
X0112036Y0452831D03*
X0112036Y0435902D03*
D22*
X0332076Y0440154D03*
X0332076Y0448028D03*
D23*
X0036721Y0465776D02*
X0036721Y0471776D01*
X0026721Y0471776D02*
X0026721Y0465776D01*
D24*
X0044320Y0395508D03*
X0054320Y0395508D03*
X0064320Y0395508D03*
X0074320Y0395508D03*
X0084320Y0395508D03*
X0084320Y0385508D03*
X0074320Y0385508D03*
X0064320Y0385508D03*
X0054320Y0385508D03*
X0044320Y0385508D03*
D25*
X0100225Y0460429D03*
X0100225Y0475547D03*
D26*
X0131721Y0447319D03*
X0131721Y0441413D03*
X0136643Y0483736D03*
X0142548Y0483736D03*
X0160658Y0483736D03*
X0166564Y0483736D03*
X0183887Y0401059D03*
X0189792Y0401059D03*
D27*
X0293729Y0404760D03*
X0293729Y0396492D03*
D28*
X0060737Y0442791D03*
X0060737Y0452791D03*
X0060737Y0462791D03*
D29*
X0116643Y0390272D03*
X0116682Y0372870D03*
X0116209Y0354839D03*
X0116406Y0337122D03*
X0144044Y0356492D03*
X0160737Y0368618D03*
X0148217Y0384051D03*
X0163611Y0344681D03*
X0288296Y0270193D03*
X0303847Y0289563D03*
X0310737Y0247358D03*
X0334359Y0233579D03*
X0331682Y0494917D03*
X0304556Y0494917D03*
X0281367Y0494917D03*
X0255540Y0494602D03*
D30*
X0175028Y0425075D03*
X0171288Y0416807D03*
X0178769Y0416807D03*
X0143335Y0428618D03*
X0135855Y0428618D03*
X0139595Y0420350D03*
D31*
X0061328Y0415035D03*
X0053847Y0415035D03*
X0057587Y0406374D03*
X0036406Y0426059D03*
X0032666Y0434720D03*
X0040146Y0434720D03*
D32*
X0131721Y0465429D03*
X0131721Y0470547D03*
X0159280Y0427240D03*
X0159280Y0422122D03*
X0178965Y0429996D03*
X0178965Y0435114D03*
D33*
X0042509Y0446728D03*
X0034635Y0446728D03*
X0031013Y0414445D03*
X0023139Y0414445D03*
X0023454Y0403421D03*
X0031328Y0403421D03*
D34*
X0051406Y0423028D03*
X0051406Y0430902D03*
D35*
X0105540Y0418776D03*
X0109083Y0418776D03*
D36*
X0080953Y0372437D02*
X0075403Y0372437D01*
X0075403Y0362437D02*
X0080953Y0362437D01*
X0080953Y0352437D02*
X0075403Y0352437D01*
X0075403Y0342437D02*
X0080953Y0342437D01*
X0080953Y0332437D02*
X0075403Y0332437D01*
X0075403Y0322437D02*
X0080953Y0322437D01*
X0080953Y0312437D02*
X0075403Y0312437D01*
X0075403Y0302437D02*
X0080953Y0302437D01*
X0080953Y0292437D02*
X0075403Y0292437D01*
X0075403Y0282437D02*
X0080953Y0282437D01*
X0080953Y0272437D02*
X0075403Y0272437D01*
X0075403Y0262437D02*
X0080953Y0262437D01*
X0073178Y0255212D02*
X0073178Y0249662D01*
X0063178Y0249662D02*
X0063178Y0255212D01*
X0053178Y0255212D02*
X0053178Y0249662D01*
X0043178Y0249662D02*
X0043178Y0255212D01*
X0033178Y0255212D02*
X0033178Y0249662D01*
X0023178Y0249662D02*
X0023178Y0255212D01*
X0020953Y0262437D02*
X0015403Y0262437D01*
X0015403Y0272437D02*
X0020953Y0272437D01*
X0020953Y0282437D02*
X0015403Y0282437D01*
X0015403Y0292437D02*
X0020953Y0292437D01*
X0020953Y0302437D02*
X0015403Y0302437D01*
X0015403Y0312437D02*
X0020953Y0312437D01*
X0020953Y0322437D02*
X0015403Y0322437D01*
X0015403Y0332437D02*
X0020953Y0332437D01*
X0020953Y0342437D02*
X0015403Y0342437D01*
X0015403Y0352437D02*
X0020953Y0352437D01*
X0020953Y0362437D02*
X0015403Y0362437D01*
X0015403Y0372437D02*
X0020953Y0372437D01*
X0030403Y0347437D02*
X0035953Y0347437D01*
X0035953Y0337437D02*
X0030403Y0337437D01*
X0030403Y0307437D02*
X0035953Y0307437D01*
X0035953Y0297437D02*
X0030403Y0297437D01*
X0334576Y0290783D02*
X0340126Y0290783D01*
X0340126Y0280783D02*
X0334576Y0280783D01*
X0334576Y0270783D02*
X0340126Y0270783D01*
X0340126Y0260783D02*
X0334576Y0260783D01*
D37*
X0322745Y0414484D03*
X0316839Y0414484D03*
X0310934Y0414484D03*
X0305028Y0414484D03*
X0299123Y0414484D03*
X0293217Y0414484D03*
X0287312Y0414484D03*
X0281406Y0414484D03*
X0275501Y0414484D03*
X0269595Y0414484D03*
X0269595Y0473539D03*
X0275501Y0473539D03*
X0281406Y0473539D03*
X0287312Y0473539D03*
X0293217Y0473539D03*
X0299123Y0473539D03*
X0305028Y0473539D03*
X0310934Y0473539D03*
X0316839Y0473539D03*
X0322745Y0473539D03*
X0178099Y0233579D03*
X0168099Y0233579D03*
X0158099Y0233579D03*
X0148099Y0233579D03*
X0138099Y0233579D03*
X0128099Y0233579D03*
X0118099Y0233579D03*
X0108099Y0233579D03*
X0098099Y0233579D03*
X0088099Y0233579D03*
X0078099Y0233579D03*
X0068099Y0233579D03*
X0058099Y0233579D03*
X0048099Y0233579D03*
X0038099Y0233579D03*
X0028099Y0233579D03*
D38*
X0014517Y0127280D03*
X0014517Y0221768D03*
X0193650Y0127280D03*
D39*
X0275973Y0222004D03*
X0295973Y0222004D03*
X0305973Y0222004D03*
X0315973Y0222004D03*
X0192784Y0249917D03*
X0182784Y0249917D03*
X0172784Y0249917D03*
X0162784Y0249917D03*
X0152784Y0249917D03*
X0142784Y0249917D03*
X0132784Y0249917D03*
X0122784Y0249917D03*
X0112784Y0249917D03*
X0180265Y0346689D03*
X0180265Y0356689D03*
X0180265Y0366689D03*
X0180265Y0376689D03*
X0180265Y0386689D03*
X0100265Y0386689D03*
X0100265Y0396689D03*
X0100265Y0376689D03*
X0100265Y0366689D03*
X0100265Y0356689D03*
D40*
X0100265Y0346689D03*
X0180265Y0336689D03*
X0102784Y0249917D03*
X0325973Y0222004D03*
D41*
X0285973Y0222004D03*
X0265973Y0222004D03*
D42*
X0326662Y0384406D03*
X0337489Y0384406D03*
D43*
X0332076Y0390409D03*
X0332076Y0378402D03*
D44*
X0292824Y0445980D03*
D45*
X0320894Y0358933D03*
X0328375Y0358933D03*
X0328375Y0348696D03*
X0324635Y0348696D03*
X0320894Y0348696D03*
X0100028Y0431374D03*
X0096288Y0431374D03*
X0092548Y0431374D03*
X0092548Y0441611D03*
X0100028Y0441611D03*
D46*
X0173847Y0444563D03*
X0173847Y0448303D03*
X0173847Y0452043D03*
X0184084Y0452043D03*
X0184084Y0444563D03*
D47*
X0167548Y0455587D03*
X0162036Y0466020D03*
X0161249Y0475469D03*
X0147469Y0483736D03*
X0131721Y0477043D03*
X0124831Y0476453D03*
X0119517Y0466020D03*
X0099044Y0451453D03*
X0106131Y0442004D03*
X0124241Y0442791D03*
X0133690Y0419169D03*
X0149438Y0432555D03*
X0152587Y0426650D03*
X0168335Y0429799D03*
X0164792Y0443579D03*
X0147469Y0443185D03*
X0147076Y0458539D03*
X0114398Y0418776D03*
X0100225Y0419169D03*
X0092154Y0419366D03*
X0086446Y0419760D03*
X0086446Y0431374D03*
X0079359Y0446335D03*
X0084477Y0452634D03*
X0068335Y0442004D03*
X0061249Y0425075D03*
X0069910Y0419957D03*
X0049398Y0441965D03*
X0041957Y0454209D03*
X0022076Y0442791D03*
X0044713Y0417988D03*
X0042745Y0411689D03*
X0043926Y0402240D03*
X0028965Y0393185D03*
X0020304Y0384524D03*
X0035265Y0356965D03*
X0049438Y0360902D03*
X0059280Y0367594D03*
X0054162Y0377831D03*
X0064792Y0350469D03*
X0064398Y0325862D03*
X0053769Y0304602D03*
X0042745Y0280193D03*
X0048257Y0262476D03*
X0054556Y0262476D03*
X0060068Y0268382D03*
X0067942Y0260508D03*
X0085265Y0244760D03*
X0109280Y0257752D03*
X0111643Y0266020D03*
X0121879Y0263264D03*
X0138020Y0262476D03*
X0137627Y0272319D03*
X0157902Y0245154D03*
X0143139Y0240823D03*
X0135265Y0240626D03*
X0097469Y0277437D03*
X0102981Y0282949D03*
X0097469Y0295154D03*
X0086839Y0287280D03*
X0086446Y0277437D03*
X0086446Y0307358D03*
X0087233Y0332555D03*
X0097076Y0332161D03*
X0086839Y0377043D03*
X0125422Y0392398D03*
X0127391Y0373500D03*
X0167154Y0394760D03*
X0195107Y0401059D03*
X0257706Y0347909D03*
X0276997Y0373106D03*
X0264792Y0381768D03*
X0275028Y0399091D03*
X0284083Y0396335D03*
X0306918Y0374287D03*
X0320698Y0373894D03*
X0319517Y0392004D03*
X0314398Y0401846D03*
X0315973Y0340823D03*
X0319517Y0331374D03*
X0323060Y0323500D03*
X0340383Y0340429D03*
X0262036Y0273894D03*
X0178178Y0242398D03*
X0038020Y0244366D03*
X0069123Y0467201D03*
X0081721Y0481768D03*
X0087627Y0484524D03*
X0065186Y0494366D03*
X0322666Y0482949D03*
X0336839Y0468382D03*
M02*
