%
M48
M72
T01C0.02362
T02C0.03150
T03C0.03543
T04C0.03600
T05C0.04000
T06C0.05118
T07C0.11811
T08C0.12598
%
T01
X38020Y244366
X48257Y262476
X54556Y262476
X60068Y268382
X67942Y260508
X85265Y244760
X109280Y257752
X111643Y266020
X121879Y263264
X138020Y262476
X137627Y272319
X157902Y245154
X143139Y240823
X135265Y240626
X97469Y277437
X102981Y282949
X97469Y295154
X86839Y287280
X86446Y277437
X86446Y307358
X87233Y332555
X97076Y332161
X64398Y325862
X53769Y304602
X42745Y280193
X64792Y350469
X49438Y360902
X59280Y367594
X54162Y377831
X43926Y402240
X42745Y411689
X44713Y417988
X61249Y425075
X69910Y419957
X86446Y419760
X92154Y419366
X100225Y419169
X114398Y418776
X133690Y419169
X149438Y432555
X152587Y426650
X168335Y429799
X164792Y443579
X167548Y455587
X162036Y466020
X161249Y475469
X147469Y483736
X131721Y477043
X124831Y476453
X119517Y466020
X99044Y451453
X106131Y442004
X124241Y442791
X147469Y443185
X147076Y458539
X195107Y401059
X167154Y394760
X127391Y373500
X125422Y392398
X86839Y377043
X86446Y431374
X79359Y446335
X84477Y452634
X68335Y442004
X49398Y441965
X41957Y454209
X22076Y442791
X28965Y393185
X20304Y384524
X35265Y356965
X69123Y467201
X81721Y481768
X87627Y484524
X65186Y494366
X257706Y347909
X276997Y373106
X264792Y381768
X275028Y399091
X284083Y396335
X306918Y374287
X320698Y373894
X319517Y392004
X314398Y401846
X315973Y340823
X319517Y331374
X323060Y323500
X340383Y340429
X262036Y273894
X178178Y242398
X336839Y468382
X322666Y482949
T02
X180265Y386689
X180265Y376689
X180265Y366689
X180265Y356689
X180265Y346689
X180265Y336689
X100265Y346689
X100265Y356689
X100265Y366689
X100265Y376689
X100265Y386689
X100265Y396689
X78178Y372437
X78178Y362437
X78178Y352437
X78178Y342437
X78178Y332437
X78178Y322437
X78178Y312437
X78178Y302437
X78178Y292437
X78178Y282437
X78178Y272437
X78178Y262437
X73178Y252437
X63178Y252437
X53178Y252437
X43178Y252437
X33178Y252437
X23178Y252437
X18178Y262437
X18178Y272437
X18178Y282437
X18178Y292437
X18178Y302437
X18178Y312437
X18178Y322437
X18178Y332437
X18178Y342437
X18178Y352437
X18178Y362437
X18178Y372437
X33178Y347437
X33178Y337437
X33178Y307437
X33178Y297437
X102784Y249917
X112784Y249917
X122784Y249917
X132784Y249917
X142784Y249917
X152784Y249917
X162784Y249917
X172784Y249917
X182784Y249917
X192784Y249917
X265973Y222004
X275973Y222004
X285973Y222004
X295973Y222004
X305973Y222004
X315973Y222004
X325973Y222004
X337351Y260783
X337351Y270783
X337351Y280783
X337351Y290783
X18414Y484209
X18414Y492083
T03
X60737Y462791
X60737Y452791
X60737Y442791
T04
X36721Y468776
X26721Y468776
X44320Y395508
X54320Y395508
X64320Y395508
X74320Y395508
X84320Y395508
X84320Y385508
X74320Y385508
X64320Y385508
X54320Y385508
X44320Y385508
T05
X116643Y390272
X116682Y372870
X116209Y354839
X116406Y337122
X144044Y356492
X160737Y368618
X148217Y384051
X163611Y344681
X288296Y270193
X303847Y289563
X310737Y247358
X334359Y233579
X331682Y494917
X304556Y494917
X281367Y494917
X255540Y494602
T06
X19910Y454720
X19910Y429130
T07
X292824Y445980
T08
X190776Y495547
M30
