G75*
%MOIN*%
%OFA0B0*%
%FSLAX25Y25*%
%IPPOS*%
%LPD*%
%AMOC8*
5,1,8,0,0,1.08239X$1,22.5*
%
%ADD10C,0.01600*%
%ADD11C,0.00000*%
%ADD12C,0.00600*%
%ADD13C,0.00394*%
%ADD14C,0.00300*%
%ADD15C,0.02400*%
%ADD16C,0.01000*%
%ADD17C,0.05150*%
%ADD18C,0.07677*%
%ADD19C,0.05600*%
%ADD20C,0.05543*%
%ADD21C,0.06000*%
%ADD22C,0.04362*%
D10*
X0001800Y0109720D02*
X0001800Y0503421D01*
X0206524Y0503421D01*
X0238020Y0503421D01*
X0352194Y0503421D01*
X0352194Y0109720D01*
X0238020Y0109720D01*
X0206524Y0109720D01*
X0206524Y0503421D01*
X0238020Y0503421D02*
X0238020Y0109720D01*
X0206524Y0109720D02*
X0001800Y0109720D01*
X0080146Y0240429D02*
X0084674Y0244957D01*
X0085068Y0244957D01*
X0076209Y0379406D02*
X0060422Y0379406D01*
X0076209Y0379406D02*
X0079359Y0382555D01*
X0079359Y0387280D01*
X0082509Y0390429D01*
X0089202Y0390429D01*
X0091170Y0388461D01*
X0091170Y0384917D01*
X0094320Y0381768D01*
X0147115Y0381768D01*
X0148217Y0384051D01*
D11*
X0184477Y0495547D02*
X0184479Y0495705D01*
X0184485Y0495863D01*
X0184495Y0496021D01*
X0184509Y0496179D01*
X0184527Y0496336D01*
X0184548Y0496493D01*
X0184574Y0496649D01*
X0184604Y0496805D01*
X0184637Y0496960D01*
X0184675Y0497113D01*
X0184716Y0497266D01*
X0184761Y0497418D01*
X0184810Y0497569D01*
X0184863Y0497718D01*
X0184919Y0497866D01*
X0184979Y0498012D01*
X0185043Y0498157D01*
X0185111Y0498300D01*
X0185182Y0498442D01*
X0185256Y0498582D01*
X0185334Y0498719D01*
X0185416Y0498855D01*
X0185500Y0498989D01*
X0185589Y0499120D01*
X0185680Y0499249D01*
X0185775Y0499376D01*
X0185872Y0499501D01*
X0185973Y0499623D01*
X0186077Y0499742D01*
X0186184Y0499859D01*
X0186294Y0499973D01*
X0186407Y0500084D01*
X0186522Y0500193D01*
X0186640Y0500298D01*
X0186761Y0500400D01*
X0186884Y0500500D01*
X0187010Y0500596D01*
X0187138Y0500689D01*
X0187268Y0500779D01*
X0187401Y0500865D01*
X0187536Y0500949D01*
X0187672Y0501028D01*
X0187811Y0501105D01*
X0187952Y0501177D01*
X0188094Y0501247D01*
X0188238Y0501312D01*
X0188384Y0501374D01*
X0188531Y0501432D01*
X0188680Y0501487D01*
X0188830Y0501538D01*
X0188981Y0501585D01*
X0189133Y0501628D01*
X0189286Y0501667D01*
X0189441Y0501703D01*
X0189596Y0501734D01*
X0189752Y0501762D01*
X0189908Y0501786D01*
X0190065Y0501806D01*
X0190223Y0501822D01*
X0190380Y0501834D01*
X0190539Y0501842D01*
X0190697Y0501846D01*
X0190855Y0501846D01*
X0191013Y0501842D01*
X0191172Y0501834D01*
X0191329Y0501822D01*
X0191487Y0501806D01*
X0191644Y0501786D01*
X0191800Y0501762D01*
X0191956Y0501734D01*
X0192111Y0501703D01*
X0192266Y0501667D01*
X0192419Y0501628D01*
X0192571Y0501585D01*
X0192722Y0501538D01*
X0192872Y0501487D01*
X0193021Y0501432D01*
X0193168Y0501374D01*
X0193314Y0501312D01*
X0193458Y0501247D01*
X0193600Y0501177D01*
X0193741Y0501105D01*
X0193880Y0501028D01*
X0194016Y0500949D01*
X0194151Y0500865D01*
X0194284Y0500779D01*
X0194414Y0500689D01*
X0194542Y0500596D01*
X0194668Y0500500D01*
X0194791Y0500400D01*
X0194912Y0500298D01*
X0195030Y0500193D01*
X0195145Y0500084D01*
X0195258Y0499973D01*
X0195368Y0499859D01*
X0195475Y0499742D01*
X0195579Y0499623D01*
X0195680Y0499501D01*
X0195777Y0499376D01*
X0195872Y0499249D01*
X0195963Y0499120D01*
X0196052Y0498989D01*
X0196136Y0498855D01*
X0196218Y0498719D01*
X0196296Y0498582D01*
X0196370Y0498442D01*
X0196441Y0498300D01*
X0196509Y0498157D01*
X0196573Y0498012D01*
X0196633Y0497866D01*
X0196689Y0497718D01*
X0196742Y0497569D01*
X0196791Y0497418D01*
X0196836Y0497266D01*
X0196877Y0497113D01*
X0196915Y0496960D01*
X0196948Y0496805D01*
X0196978Y0496649D01*
X0197004Y0496493D01*
X0197025Y0496336D01*
X0197043Y0496179D01*
X0197057Y0496021D01*
X0197067Y0495863D01*
X0197073Y0495705D01*
X0197075Y0495547D01*
X0197073Y0495389D01*
X0197067Y0495231D01*
X0197057Y0495073D01*
X0197043Y0494915D01*
X0197025Y0494758D01*
X0197004Y0494601D01*
X0196978Y0494445D01*
X0196948Y0494289D01*
X0196915Y0494134D01*
X0196877Y0493981D01*
X0196836Y0493828D01*
X0196791Y0493676D01*
X0196742Y0493525D01*
X0196689Y0493376D01*
X0196633Y0493228D01*
X0196573Y0493082D01*
X0196509Y0492937D01*
X0196441Y0492794D01*
X0196370Y0492652D01*
X0196296Y0492512D01*
X0196218Y0492375D01*
X0196136Y0492239D01*
X0196052Y0492105D01*
X0195963Y0491974D01*
X0195872Y0491845D01*
X0195777Y0491718D01*
X0195680Y0491593D01*
X0195579Y0491471D01*
X0195475Y0491352D01*
X0195368Y0491235D01*
X0195258Y0491121D01*
X0195145Y0491010D01*
X0195030Y0490901D01*
X0194912Y0490796D01*
X0194791Y0490694D01*
X0194668Y0490594D01*
X0194542Y0490498D01*
X0194414Y0490405D01*
X0194284Y0490315D01*
X0194151Y0490229D01*
X0194016Y0490145D01*
X0193880Y0490066D01*
X0193741Y0489989D01*
X0193600Y0489917D01*
X0193458Y0489847D01*
X0193314Y0489782D01*
X0193168Y0489720D01*
X0193021Y0489662D01*
X0192872Y0489607D01*
X0192722Y0489556D01*
X0192571Y0489509D01*
X0192419Y0489466D01*
X0192266Y0489427D01*
X0192111Y0489391D01*
X0191956Y0489360D01*
X0191800Y0489332D01*
X0191644Y0489308D01*
X0191487Y0489288D01*
X0191329Y0489272D01*
X0191172Y0489260D01*
X0191013Y0489252D01*
X0190855Y0489248D01*
X0190697Y0489248D01*
X0190539Y0489252D01*
X0190380Y0489260D01*
X0190223Y0489272D01*
X0190065Y0489288D01*
X0189908Y0489308D01*
X0189752Y0489332D01*
X0189596Y0489360D01*
X0189441Y0489391D01*
X0189286Y0489427D01*
X0189133Y0489466D01*
X0188981Y0489509D01*
X0188830Y0489556D01*
X0188680Y0489607D01*
X0188531Y0489662D01*
X0188384Y0489720D01*
X0188238Y0489782D01*
X0188094Y0489847D01*
X0187952Y0489917D01*
X0187811Y0489989D01*
X0187672Y0490066D01*
X0187536Y0490145D01*
X0187401Y0490229D01*
X0187268Y0490315D01*
X0187138Y0490405D01*
X0187010Y0490498D01*
X0186884Y0490594D01*
X0186761Y0490694D01*
X0186640Y0490796D01*
X0186522Y0490901D01*
X0186407Y0491010D01*
X0186294Y0491121D01*
X0186184Y0491235D01*
X0186077Y0491352D01*
X0185973Y0491471D01*
X0185872Y0491593D01*
X0185775Y0491718D01*
X0185680Y0491845D01*
X0185589Y0491974D01*
X0185500Y0492105D01*
X0185416Y0492239D01*
X0185334Y0492375D01*
X0185256Y0492512D01*
X0185182Y0492652D01*
X0185111Y0492794D01*
X0185043Y0492937D01*
X0184979Y0493082D01*
X0184919Y0493228D01*
X0184863Y0493376D01*
X0184810Y0493525D01*
X0184761Y0493676D01*
X0184716Y0493828D01*
X0184675Y0493981D01*
X0184637Y0494134D01*
X0184604Y0494289D01*
X0184574Y0494445D01*
X0184548Y0494601D01*
X0184527Y0494758D01*
X0184509Y0494915D01*
X0184495Y0495073D01*
X0184485Y0495231D01*
X0184479Y0495389D01*
X0184477Y0495547D01*
X0286918Y0445980D02*
X0286920Y0446133D01*
X0286926Y0446287D01*
X0286936Y0446440D01*
X0286950Y0446592D01*
X0286968Y0446745D01*
X0286990Y0446896D01*
X0287015Y0447047D01*
X0287045Y0447198D01*
X0287079Y0447348D01*
X0287116Y0447496D01*
X0287157Y0447644D01*
X0287202Y0447790D01*
X0287251Y0447936D01*
X0287304Y0448080D01*
X0287360Y0448222D01*
X0287420Y0448363D01*
X0287484Y0448503D01*
X0287551Y0448641D01*
X0287622Y0448777D01*
X0287697Y0448911D01*
X0287774Y0449043D01*
X0287856Y0449173D01*
X0287940Y0449301D01*
X0288028Y0449427D01*
X0288119Y0449550D01*
X0288213Y0449671D01*
X0288311Y0449789D01*
X0288411Y0449905D01*
X0288515Y0450018D01*
X0288621Y0450129D01*
X0288730Y0450237D01*
X0288842Y0450342D01*
X0288956Y0450443D01*
X0289074Y0450542D01*
X0289193Y0450638D01*
X0289315Y0450731D01*
X0289440Y0450820D01*
X0289567Y0450907D01*
X0289696Y0450989D01*
X0289827Y0451069D01*
X0289960Y0451145D01*
X0290095Y0451218D01*
X0290232Y0451287D01*
X0290371Y0451352D01*
X0290511Y0451414D01*
X0290653Y0451472D01*
X0290796Y0451527D01*
X0290941Y0451578D01*
X0291087Y0451625D01*
X0291234Y0451668D01*
X0291382Y0451707D01*
X0291531Y0451743D01*
X0291681Y0451774D01*
X0291832Y0451802D01*
X0291983Y0451826D01*
X0292136Y0451846D01*
X0292288Y0451862D01*
X0292441Y0451874D01*
X0292594Y0451882D01*
X0292747Y0451886D01*
X0292901Y0451886D01*
X0293054Y0451882D01*
X0293207Y0451874D01*
X0293360Y0451862D01*
X0293512Y0451846D01*
X0293665Y0451826D01*
X0293816Y0451802D01*
X0293967Y0451774D01*
X0294117Y0451743D01*
X0294266Y0451707D01*
X0294414Y0451668D01*
X0294561Y0451625D01*
X0294707Y0451578D01*
X0294852Y0451527D01*
X0294995Y0451472D01*
X0295137Y0451414D01*
X0295277Y0451352D01*
X0295416Y0451287D01*
X0295553Y0451218D01*
X0295688Y0451145D01*
X0295821Y0451069D01*
X0295952Y0450989D01*
X0296081Y0450907D01*
X0296208Y0450820D01*
X0296333Y0450731D01*
X0296455Y0450638D01*
X0296574Y0450542D01*
X0296692Y0450443D01*
X0296806Y0450342D01*
X0296918Y0450237D01*
X0297027Y0450129D01*
X0297133Y0450018D01*
X0297237Y0449905D01*
X0297337Y0449789D01*
X0297435Y0449671D01*
X0297529Y0449550D01*
X0297620Y0449427D01*
X0297708Y0449301D01*
X0297792Y0449173D01*
X0297874Y0449043D01*
X0297951Y0448911D01*
X0298026Y0448777D01*
X0298097Y0448641D01*
X0298164Y0448503D01*
X0298228Y0448363D01*
X0298288Y0448222D01*
X0298344Y0448080D01*
X0298397Y0447936D01*
X0298446Y0447790D01*
X0298491Y0447644D01*
X0298532Y0447496D01*
X0298569Y0447348D01*
X0298603Y0447198D01*
X0298633Y0447047D01*
X0298658Y0446896D01*
X0298680Y0446745D01*
X0298698Y0446592D01*
X0298712Y0446440D01*
X0298722Y0446287D01*
X0298728Y0446133D01*
X0298730Y0445980D01*
X0298728Y0445827D01*
X0298722Y0445673D01*
X0298712Y0445520D01*
X0298698Y0445368D01*
X0298680Y0445215D01*
X0298658Y0445064D01*
X0298633Y0444913D01*
X0298603Y0444762D01*
X0298569Y0444612D01*
X0298532Y0444464D01*
X0298491Y0444316D01*
X0298446Y0444170D01*
X0298397Y0444024D01*
X0298344Y0443880D01*
X0298288Y0443738D01*
X0298228Y0443597D01*
X0298164Y0443457D01*
X0298097Y0443319D01*
X0298026Y0443183D01*
X0297951Y0443049D01*
X0297874Y0442917D01*
X0297792Y0442787D01*
X0297708Y0442659D01*
X0297620Y0442533D01*
X0297529Y0442410D01*
X0297435Y0442289D01*
X0297337Y0442171D01*
X0297237Y0442055D01*
X0297133Y0441942D01*
X0297027Y0441831D01*
X0296918Y0441723D01*
X0296806Y0441618D01*
X0296692Y0441517D01*
X0296574Y0441418D01*
X0296455Y0441322D01*
X0296333Y0441229D01*
X0296208Y0441140D01*
X0296081Y0441053D01*
X0295952Y0440971D01*
X0295821Y0440891D01*
X0295688Y0440815D01*
X0295553Y0440742D01*
X0295416Y0440673D01*
X0295277Y0440608D01*
X0295137Y0440546D01*
X0294995Y0440488D01*
X0294852Y0440433D01*
X0294707Y0440382D01*
X0294561Y0440335D01*
X0294414Y0440292D01*
X0294266Y0440253D01*
X0294117Y0440217D01*
X0293967Y0440186D01*
X0293816Y0440158D01*
X0293665Y0440134D01*
X0293512Y0440114D01*
X0293360Y0440098D01*
X0293207Y0440086D01*
X0293054Y0440078D01*
X0292901Y0440074D01*
X0292747Y0440074D01*
X0292594Y0440078D01*
X0292441Y0440086D01*
X0292288Y0440098D01*
X0292136Y0440114D01*
X0291983Y0440134D01*
X0291832Y0440158D01*
X0291681Y0440186D01*
X0291531Y0440217D01*
X0291382Y0440253D01*
X0291234Y0440292D01*
X0291087Y0440335D01*
X0290941Y0440382D01*
X0290796Y0440433D01*
X0290653Y0440488D01*
X0290511Y0440546D01*
X0290371Y0440608D01*
X0290232Y0440673D01*
X0290095Y0440742D01*
X0289960Y0440815D01*
X0289827Y0440891D01*
X0289696Y0440971D01*
X0289567Y0441053D01*
X0289440Y0441140D01*
X0289315Y0441229D01*
X0289193Y0441322D01*
X0289074Y0441418D01*
X0288956Y0441517D01*
X0288842Y0441618D01*
X0288730Y0441723D01*
X0288621Y0441831D01*
X0288515Y0441942D01*
X0288411Y0442055D01*
X0288311Y0442171D01*
X0288213Y0442289D01*
X0288119Y0442410D01*
X0288028Y0442533D01*
X0287940Y0442659D01*
X0287856Y0442787D01*
X0287774Y0442917D01*
X0287697Y0443049D01*
X0287622Y0443183D01*
X0287551Y0443319D01*
X0287484Y0443457D01*
X0287420Y0443597D01*
X0287360Y0443738D01*
X0287304Y0443880D01*
X0287251Y0444024D01*
X0287202Y0444170D01*
X0287157Y0444316D01*
X0287116Y0444464D01*
X0287079Y0444612D01*
X0287045Y0444762D01*
X0287015Y0444913D01*
X0286990Y0445064D01*
X0286968Y0445215D01*
X0286950Y0445368D01*
X0286936Y0445520D01*
X0286926Y0445673D01*
X0286920Y0445827D01*
X0286918Y0445980D01*
X0188729Y0225705D02*
X0019438Y0225705D01*
X0019438Y0123343D01*
X0188729Y0123343D01*
X0188729Y0225705D01*
D12*
X0144661Y0188473D02*
X0140391Y0188473D01*
X0142526Y0188473D02*
X0142526Y0182068D01*
X0138216Y0183135D02*
X0138216Y0188473D01*
X0133945Y0188473D02*
X0133945Y0183135D01*
X0135013Y0182068D01*
X0137148Y0182068D01*
X0138216Y0183135D01*
X0131770Y0183135D02*
X0131770Y0187406D01*
X0130702Y0188473D01*
X0128567Y0188473D01*
X0127500Y0187406D01*
X0127500Y0183135D01*
X0128567Y0182068D01*
X0130702Y0182068D01*
X0131770Y0183135D01*
X0125325Y0188473D02*
X0121054Y0188473D01*
X0123189Y0188473D02*
X0123189Y0182068D01*
X0118879Y0183135D02*
X0118879Y0188473D01*
X0114609Y0188473D02*
X0114609Y0183135D01*
X0115676Y0182068D01*
X0117811Y0182068D01*
X0118879Y0183135D01*
X0112434Y0183135D02*
X0111366Y0182068D01*
X0109231Y0182068D01*
X0108163Y0183135D01*
X0108163Y0187406D01*
X0109231Y0188473D01*
X0111366Y0188473D01*
X0112434Y0187406D01*
X0099543Y0187406D02*
X0099543Y0185270D01*
X0098475Y0184203D01*
X0095272Y0184203D01*
X0095272Y0182068D02*
X0095272Y0188473D01*
X0098475Y0188473D01*
X0099543Y0187406D01*
X0093110Y0188473D02*
X0090975Y0188473D01*
X0092043Y0188473D02*
X0092043Y0182068D01*
X0093110Y0182068D02*
X0090975Y0182068D01*
X0088800Y0182068D02*
X0088800Y0188473D01*
X0088800Y0185270D02*
X0084530Y0185270D01*
X0082355Y0183135D02*
X0081287Y0182068D01*
X0079152Y0182068D01*
X0078084Y0183135D01*
X0078084Y0187406D01*
X0079152Y0188473D01*
X0081287Y0188473D01*
X0082355Y0187406D01*
X0084530Y0188473D02*
X0084530Y0182068D01*
D13*
X0207312Y0181720D02*
X0237233Y0181720D01*
X0237233Y0180720D02*
X0207312Y0180720D01*
X0207312Y0179720D02*
X0237233Y0179720D01*
X0237233Y0178720D02*
X0207312Y0178720D01*
X0207312Y0177720D02*
X0237233Y0177720D01*
X0237233Y0176720D02*
X0207312Y0176720D01*
X0207312Y0175720D02*
X0237233Y0175720D01*
X0237233Y0174720D02*
X0207312Y0174720D01*
X0207312Y0173720D02*
X0237233Y0173720D01*
X0237233Y0172720D02*
X0207312Y0172720D01*
X0207312Y0171720D02*
X0237233Y0171720D01*
X0237233Y0170720D02*
X0207312Y0170720D01*
X0207312Y0169720D02*
X0237233Y0169720D01*
X0237233Y0168720D02*
X0207312Y0168720D01*
X0207312Y0167720D02*
X0237233Y0167720D01*
X0237233Y0166720D02*
X0207312Y0166720D01*
X0207312Y0165720D02*
X0237233Y0165720D01*
X0237233Y0164720D02*
X0207312Y0164720D01*
X0207312Y0163720D02*
X0237233Y0163720D01*
X0237233Y0162720D02*
X0207312Y0162720D01*
X0207312Y0161720D02*
X0237233Y0161720D01*
X0237233Y0160720D02*
X0207312Y0160720D01*
X0207312Y0159720D02*
X0237233Y0159720D01*
X0237233Y0158720D02*
X0207312Y0158720D01*
X0207312Y0157720D02*
X0237233Y0157720D01*
X0237233Y0156720D02*
X0207312Y0156720D01*
X0207312Y0155720D02*
X0237233Y0155720D01*
X0237233Y0154720D02*
X0207312Y0154720D01*
X0207312Y0153720D02*
X0237233Y0153720D01*
X0237233Y0152720D02*
X0207312Y0152720D01*
X0207312Y0151720D02*
X0237233Y0151720D01*
X0237233Y0150720D02*
X0207312Y0150720D01*
X0207312Y0149720D02*
X0237233Y0149720D01*
X0237233Y0148720D02*
X0207312Y0148720D01*
X0207312Y0147720D02*
X0237233Y0147720D01*
X0237233Y0146720D02*
X0207312Y0146720D01*
X0207312Y0145720D02*
X0237233Y0145720D01*
X0237233Y0144720D02*
X0207312Y0144720D01*
X0207312Y0143720D02*
X0237233Y0143720D01*
X0237233Y0142720D02*
X0207312Y0142720D01*
X0207312Y0141720D02*
X0237233Y0141720D01*
X0237233Y0140720D02*
X0207312Y0140720D01*
X0207312Y0139720D02*
X0237233Y0139720D01*
X0237233Y0138720D02*
X0207312Y0138720D01*
X0207312Y0137720D02*
X0237233Y0137720D01*
X0237233Y0136720D02*
X0207312Y0136720D01*
X0207312Y0135720D02*
X0237233Y0135720D01*
X0237233Y0134720D02*
X0207312Y0134720D01*
X0207312Y0133720D02*
X0237233Y0133720D01*
X0237233Y0132720D02*
X0207312Y0132720D01*
X0207312Y0131720D02*
X0237233Y0131720D01*
X0237233Y0130720D02*
X0207312Y0130720D01*
X0207312Y0129720D02*
X0237233Y0129720D01*
X0237233Y0128720D02*
X0207312Y0128720D01*
X0207312Y0127720D02*
X0237233Y0127720D01*
X0237233Y0126720D02*
X0207312Y0126720D01*
X0207312Y0125720D02*
X0237233Y0125720D01*
X0237233Y0124720D02*
X0207312Y0124720D01*
X0207312Y0123720D02*
X0237233Y0123720D01*
X0237233Y0122720D02*
X0207312Y0122720D01*
X0207312Y0121720D02*
X0237233Y0121720D01*
X0237233Y0120720D02*
X0207312Y0120720D01*
X0207312Y0119720D02*
X0237233Y0119720D01*
X0237233Y0118720D02*
X0207312Y0118720D01*
X0207312Y0117720D02*
X0237233Y0117720D01*
X0237233Y0116720D02*
X0207312Y0116720D01*
X0207312Y0115720D02*
X0237233Y0115720D01*
X0237233Y0114720D02*
X0207312Y0114720D01*
X0207312Y0113720D02*
X0237233Y0113720D01*
X0237233Y0112720D02*
X0207312Y0112720D01*
X0207312Y0111720D02*
X0237233Y0111720D01*
X0237233Y0110720D02*
X0207312Y0110720D01*
X0207312Y0110508D02*
X0207312Y0502634D01*
X0207312Y0508146D01*
X0207312Y0502634D02*
X0237233Y0502634D01*
X0237233Y0110508D01*
X0207312Y0110508D01*
X0207800Y0110508D02*
X0207800Y0502634D01*
X0208800Y0502634D02*
X0208800Y0110508D01*
X0209800Y0110508D02*
X0209800Y0502634D01*
X0210800Y0502634D02*
X0210800Y0110508D01*
X0211800Y0110508D02*
X0211800Y0502634D01*
X0212800Y0502634D02*
X0212800Y0110508D01*
X0213800Y0110508D02*
X0213800Y0502634D01*
X0214800Y0502634D02*
X0214800Y0110508D01*
X0215800Y0110508D02*
X0215800Y0502634D01*
X0216800Y0502634D02*
X0216800Y0110508D01*
X0217800Y0110508D02*
X0217800Y0502634D01*
X0218800Y0502634D02*
X0218800Y0110508D01*
X0219800Y0110508D02*
X0219800Y0502634D01*
X0220800Y0502634D02*
X0220800Y0110508D01*
X0221800Y0110508D02*
X0221800Y0502634D01*
X0222800Y0502634D02*
X0222800Y0110508D01*
X0223800Y0110508D02*
X0223800Y0502634D01*
X0224800Y0502634D02*
X0224800Y0110508D01*
X0225800Y0110508D02*
X0225800Y0502634D01*
X0226800Y0502634D02*
X0226800Y0110508D01*
X0227800Y0110508D02*
X0227800Y0502634D01*
X0228800Y0502634D02*
X0228800Y0110508D01*
X0229800Y0110508D02*
X0229800Y0502634D01*
X0230800Y0502634D02*
X0230800Y0110508D01*
X0231800Y0110508D02*
X0231800Y0502634D01*
X0232800Y0502634D02*
X0232800Y0110508D01*
X0233800Y0110508D02*
X0233800Y0502634D01*
X0234800Y0502634D02*
X0234800Y0110508D01*
X0235800Y0110508D02*
X0235800Y0502634D01*
X0236800Y0502634D02*
X0236800Y0110508D01*
X0237233Y0182720D02*
X0207312Y0182720D01*
X0207312Y0183720D02*
X0237233Y0183720D01*
X0237233Y0184720D02*
X0207312Y0184720D01*
X0207312Y0185720D02*
X0237233Y0185720D01*
X0237233Y0186720D02*
X0207312Y0186720D01*
X0207312Y0187720D02*
X0237233Y0187720D01*
X0237233Y0188720D02*
X0207312Y0188720D01*
X0207312Y0189720D02*
X0237233Y0189720D01*
X0237233Y0190720D02*
X0207312Y0190720D01*
X0207312Y0191720D02*
X0237233Y0191720D01*
X0237233Y0192720D02*
X0207312Y0192720D01*
X0207312Y0193720D02*
X0237233Y0193720D01*
X0237233Y0194720D02*
X0207312Y0194720D01*
X0207312Y0195720D02*
X0237233Y0195720D01*
X0237233Y0196720D02*
X0207312Y0196720D01*
X0207312Y0197720D02*
X0237233Y0197720D01*
X0237233Y0198720D02*
X0207312Y0198720D01*
X0207312Y0199720D02*
X0237233Y0199720D01*
X0237233Y0200720D02*
X0207312Y0200720D01*
X0207312Y0201720D02*
X0237233Y0201720D01*
X0237233Y0202720D02*
X0207312Y0202720D01*
X0207312Y0203720D02*
X0237233Y0203720D01*
X0237233Y0204720D02*
X0207312Y0204720D01*
X0207312Y0205720D02*
X0237233Y0205720D01*
X0237233Y0206720D02*
X0207312Y0206720D01*
X0207312Y0207720D02*
X0237233Y0207720D01*
X0237233Y0208720D02*
X0207312Y0208720D01*
X0207312Y0209720D02*
X0237233Y0209720D01*
X0237233Y0210720D02*
X0207312Y0210720D01*
X0207312Y0211720D02*
X0237233Y0211720D01*
X0237233Y0212720D02*
X0207312Y0212720D01*
X0207312Y0213720D02*
X0237233Y0213720D01*
X0237233Y0214720D02*
X0207312Y0214720D01*
X0207312Y0215720D02*
X0237233Y0215720D01*
X0237233Y0216720D02*
X0207312Y0216720D01*
X0207312Y0217720D02*
X0237233Y0217720D01*
X0237233Y0218720D02*
X0207312Y0218720D01*
X0207312Y0219720D02*
X0237233Y0219720D01*
X0237233Y0220720D02*
X0207312Y0220720D01*
X0207312Y0221720D02*
X0237233Y0221720D01*
X0237233Y0222720D02*
X0207312Y0222720D01*
X0207312Y0223720D02*
X0237233Y0223720D01*
X0237233Y0224720D02*
X0207312Y0224720D01*
X0207312Y0225720D02*
X0237233Y0225720D01*
X0237233Y0226720D02*
X0207312Y0226720D01*
X0207312Y0227720D02*
X0237233Y0227720D01*
X0237233Y0228720D02*
X0207312Y0228720D01*
X0207312Y0229720D02*
X0237233Y0229720D01*
X0237233Y0230720D02*
X0207312Y0230720D01*
X0207312Y0231720D02*
X0237233Y0231720D01*
X0237233Y0232720D02*
X0207312Y0232720D01*
X0207312Y0233720D02*
X0237233Y0233720D01*
X0237233Y0234720D02*
X0207312Y0234720D01*
X0207312Y0235720D02*
X0237233Y0235720D01*
X0237233Y0236720D02*
X0207312Y0236720D01*
X0207312Y0237720D02*
X0237233Y0237720D01*
X0237233Y0238720D02*
X0207312Y0238720D01*
X0207312Y0239720D02*
X0237233Y0239720D01*
X0237233Y0240720D02*
X0207312Y0240720D01*
X0207312Y0241720D02*
X0237233Y0241720D01*
X0237233Y0242720D02*
X0207312Y0242720D01*
X0207312Y0243720D02*
X0237233Y0243720D01*
X0237233Y0244720D02*
X0207312Y0244720D01*
X0207312Y0245720D02*
X0237233Y0245720D01*
X0237233Y0246720D02*
X0207312Y0246720D01*
X0207312Y0247720D02*
X0237233Y0247720D01*
X0237233Y0248720D02*
X0207312Y0248720D01*
X0207312Y0249720D02*
X0237233Y0249720D01*
X0237233Y0250720D02*
X0207312Y0250720D01*
X0207312Y0251720D02*
X0237233Y0251720D01*
X0237233Y0252720D02*
X0207312Y0252720D01*
X0207312Y0253720D02*
X0237233Y0253720D01*
X0237233Y0254720D02*
X0207312Y0254720D01*
X0207312Y0255720D02*
X0237233Y0255720D01*
X0237233Y0256720D02*
X0207312Y0256720D01*
X0207312Y0257720D02*
X0237233Y0257720D01*
X0237233Y0258720D02*
X0207312Y0258720D01*
X0207312Y0259720D02*
X0237233Y0259720D01*
X0237233Y0260720D02*
X0207312Y0260720D01*
X0207312Y0261720D02*
X0237233Y0261720D01*
X0237233Y0262720D02*
X0207312Y0262720D01*
X0207312Y0263720D02*
X0237233Y0263720D01*
X0237233Y0264720D02*
X0207312Y0264720D01*
X0207312Y0265720D02*
X0237233Y0265720D01*
X0237233Y0266720D02*
X0207312Y0266720D01*
X0207312Y0267720D02*
X0237233Y0267720D01*
X0237233Y0268720D02*
X0207312Y0268720D01*
X0207312Y0269720D02*
X0237233Y0269720D01*
X0237233Y0270720D02*
X0207312Y0270720D01*
X0207312Y0271720D02*
X0237233Y0271720D01*
X0237233Y0272720D02*
X0207312Y0272720D01*
X0207312Y0273720D02*
X0237233Y0273720D01*
X0237233Y0274720D02*
X0207312Y0274720D01*
X0207312Y0275720D02*
X0237233Y0275720D01*
X0237233Y0276720D02*
X0207312Y0276720D01*
X0207312Y0277720D02*
X0237233Y0277720D01*
X0237233Y0278720D02*
X0207312Y0278720D01*
X0207312Y0279720D02*
X0237233Y0279720D01*
X0237233Y0280720D02*
X0207312Y0280720D01*
X0207312Y0281720D02*
X0237233Y0281720D01*
X0237233Y0282720D02*
X0207312Y0282720D01*
X0207312Y0283720D02*
X0237233Y0283720D01*
X0237233Y0284720D02*
X0207312Y0284720D01*
X0207312Y0285720D02*
X0237233Y0285720D01*
X0237233Y0286720D02*
X0207312Y0286720D01*
X0207312Y0287720D02*
X0237233Y0287720D01*
X0237233Y0288720D02*
X0207312Y0288720D01*
X0207312Y0289720D02*
X0237233Y0289720D01*
X0237233Y0290720D02*
X0207312Y0290720D01*
X0207312Y0291720D02*
X0237233Y0291720D01*
X0237233Y0292720D02*
X0207312Y0292720D01*
X0207312Y0293720D02*
X0237233Y0293720D01*
X0237233Y0294720D02*
X0207312Y0294720D01*
X0207312Y0295720D02*
X0237233Y0295720D01*
X0237233Y0296720D02*
X0207312Y0296720D01*
X0207312Y0297720D02*
X0237233Y0297720D01*
X0237233Y0298720D02*
X0207312Y0298720D01*
X0207312Y0299720D02*
X0237233Y0299720D01*
X0237233Y0300720D02*
X0207312Y0300720D01*
X0207312Y0301720D02*
X0237233Y0301720D01*
X0237233Y0302720D02*
X0207312Y0302720D01*
X0207312Y0303720D02*
X0237233Y0303720D01*
X0237233Y0304720D02*
X0207312Y0304720D01*
X0207312Y0305720D02*
X0237233Y0305720D01*
X0237233Y0306720D02*
X0207312Y0306720D01*
X0207312Y0307720D02*
X0237233Y0307720D01*
X0237233Y0308720D02*
X0207312Y0308720D01*
X0207312Y0309720D02*
X0237233Y0309720D01*
X0237233Y0310720D02*
X0207312Y0310720D01*
X0207312Y0311720D02*
X0237233Y0311720D01*
X0237233Y0312720D02*
X0207312Y0312720D01*
X0207312Y0313720D02*
X0237233Y0313720D01*
X0237233Y0314720D02*
X0207312Y0314720D01*
X0207312Y0315720D02*
X0237233Y0315720D01*
X0237233Y0316720D02*
X0207312Y0316720D01*
X0207312Y0317720D02*
X0237233Y0317720D01*
X0237233Y0318720D02*
X0207312Y0318720D01*
X0207312Y0319720D02*
X0237233Y0319720D01*
X0237233Y0320720D02*
X0207312Y0320720D01*
X0207312Y0321720D02*
X0237233Y0321720D01*
X0237233Y0322720D02*
X0207312Y0322720D01*
X0207312Y0323720D02*
X0237233Y0323720D01*
X0237233Y0324720D02*
X0207312Y0324720D01*
X0207312Y0325720D02*
X0237233Y0325720D01*
X0237233Y0326720D02*
X0207312Y0326720D01*
X0207312Y0327720D02*
X0237233Y0327720D01*
X0237233Y0328720D02*
X0207312Y0328720D01*
X0207312Y0329720D02*
X0237233Y0329720D01*
X0237233Y0330720D02*
X0207312Y0330720D01*
X0207312Y0331720D02*
X0237233Y0331720D01*
X0237233Y0332720D02*
X0207312Y0332720D01*
X0207312Y0333720D02*
X0237233Y0333720D01*
X0237233Y0334720D02*
X0207312Y0334720D01*
X0207312Y0335720D02*
X0237233Y0335720D01*
X0237233Y0336720D02*
X0207312Y0336720D01*
X0207312Y0337720D02*
X0237233Y0337720D01*
X0237233Y0338720D02*
X0207312Y0338720D01*
X0207312Y0339720D02*
X0237233Y0339720D01*
X0237233Y0340720D02*
X0207312Y0340720D01*
X0207312Y0341720D02*
X0237233Y0341720D01*
X0237233Y0342720D02*
X0207312Y0342720D01*
X0207312Y0343720D02*
X0237233Y0343720D01*
X0237233Y0344720D02*
X0207312Y0344720D01*
X0207312Y0345720D02*
X0237233Y0345720D01*
X0237233Y0346720D02*
X0207312Y0346720D01*
X0207312Y0347720D02*
X0237233Y0347720D01*
X0237233Y0348720D02*
X0207312Y0348720D01*
X0207312Y0349720D02*
X0237233Y0349720D01*
X0237233Y0350720D02*
X0207312Y0350720D01*
X0207312Y0351720D02*
X0237233Y0351720D01*
X0237233Y0352720D02*
X0207312Y0352720D01*
X0207312Y0353720D02*
X0237233Y0353720D01*
X0237233Y0354720D02*
X0207312Y0354720D01*
X0207312Y0355720D02*
X0237233Y0355720D01*
X0237233Y0356720D02*
X0207312Y0356720D01*
X0207312Y0357720D02*
X0237233Y0357720D01*
X0237233Y0358720D02*
X0207312Y0358720D01*
X0207312Y0359720D02*
X0237233Y0359720D01*
X0237233Y0360720D02*
X0207312Y0360720D01*
X0207312Y0361720D02*
X0237233Y0361720D01*
X0237233Y0362720D02*
X0207312Y0362720D01*
X0207312Y0363720D02*
X0237233Y0363720D01*
X0237233Y0364720D02*
X0207312Y0364720D01*
X0207312Y0365720D02*
X0237233Y0365720D01*
X0237233Y0366720D02*
X0207312Y0366720D01*
X0207312Y0367720D02*
X0237233Y0367720D01*
X0237233Y0368720D02*
X0207312Y0368720D01*
X0207312Y0369720D02*
X0237233Y0369720D01*
X0237233Y0370720D02*
X0207312Y0370720D01*
X0207312Y0371720D02*
X0237233Y0371720D01*
X0237233Y0372720D02*
X0207312Y0372720D01*
X0207312Y0373720D02*
X0237233Y0373720D01*
X0237233Y0374720D02*
X0207312Y0374720D01*
X0207312Y0375720D02*
X0237233Y0375720D01*
X0237233Y0376720D02*
X0207312Y0376720D01*
X0207312Y0377720D02*
X0237233Y0377720D01*
X0237233Y0378720D02*
X0207312Y0378720D01*
X0207312Y0379720D02*
X0237233Y0379720D01*
X0237233Y0380720D02*
X0207312Y0380720D01*
X0207312Y0381720D02*
X0237233Y0381720D01*
X0237233Y0382720D02*
X0207312Y0382720D01*
X0207312Y0383720D02*
X0237233Y0383720D01*
X0237233Y0384720D02*
X0207312Y0384720D01*
X0207312Y0385720D02*
X0237233Y0385720D01*
X0237233Y0386720D02*
X0207312Y0386720D01*
X0207312Y0387720D02*
X0237233Y0387720D01*
X0237233Y0388720D02*
X0207312Y0388720D01*
X0207312Y0389720D02*
X0237233Y0389720D01*
X0237233Y0390720D02*
X0207312Y0390720D01*
X0207312Y0391720D02*
X0237233Y0391720D01*
X0237233Y0392720D02*
X0207312Y0392720D01*
X0207312Y0393720D02*
X0237233Y0393720D01*
X0237233Y0394720D02*
X0207312Y0394720D01*
X0207312Y0395720D02*
X0237233Y0395720D01*
X0237233Y0396720D02*
X0207312Y0396720D01*
X0207312Y0397720D02*
X0237233Y0397720D01*
X0237233Y0398720D02*
X0207312Y0398720D01*
X0207312Y0399720D02*
X0237233Y0399720D01*
X0237233Y0400720D02*
X0207312Y0400720D01*
X0207312Y0401720D02*
X0237233Y0401720D01*
X0237233Y0402720D02*
X0207312Y0402720D01*
X0207312Y0403720D02*
X0237233Y0403720D01*
X0237233Y0404720D02*
X0207312Y0404720D01*
X0207312Y0405720D02*
X0237233Y0405720D01*
X0237233Y0406720D02*
X0207312Y0406720D01*
X0207312Y0407720D02*
X0237233Y0407720D01*
X0237233Y0408720D02*
X0207312Y0408720D01*
X0207312Y0409720D02*
X0237233Y0409720D01*
X0237233Y0410720D02*
X0207312Y0410720D01*
X0207312Y0411720D02*
X0237233Y0411720D01*
X0237233Y0412720D02*
X0207312Y0412720D01*
X0207312Y0413720D02*
X0237233Y0413720D01*
X0237233Y0414720D02*
X0207312Y0414720D01*
X0207312Y0415720D02*
X0237233Y0415720D01*
X0237233Y0416720D02*
X0207312Y0416720D01*
X0207312Y0417720D02*
X0237233Y0417720D01*
X0237233Y0418720D02*
X0207312Y0418720D01*
X0207312Y0419720D02*
X0237233Y0419720D01*
X0237233Y0420720D02*
X0207312Y0420720D01*
X0207312Y0421720D02*
X0237233Y0421720D01*
X0237233Y0422720D02*
X0207312Y0422720D01*
X0207312Y0423720D02*
X0237233Y0423720D01*
X0237233Y0424720D02*
X0207312Y0424720D01*
X0207312Y0425720D02*
X0237233Y0425720D01*
X0237233Y0426720D02*
X0207312Y0426720D01*
X0207312Y0427720D02*
X0237233Y0427720D01*
X0237233Y0428720D02*
X0207312Y0428720D01*
X0207312Y0429720D02*
X0237233Y0429720D01*
X0237233Y0430720D02*
X0207312Y0430720D01*
X0207312Y0431720D02*
X0237233Y0431720D01*
X0237233Y0432720D02*
X0207312Y0432720D01*
X0207312Y0433720D02*
X0237233Y0433720D01*
X0237233Y0434720D02*
X0207312Y0434720D01*
X0207312Y0435720D02*
X0237233Y0435720D01*
X0237233Y0436720D02*
X0207312Y0436720D01*
X0207312Y0437720D02*
X0237233Y0437720D01*
X0237233Y0438720D02*
X0207312Y0438720D01*
X0207312Y0439720D02*
X0237233Y0439720D01*
X0237233Y0440720D02*
X0207312Y0440720D01*
X0207312Y0441720D02*
X0237233Y0441720D01*
X0237233Y0442720D02*
X0207312Y0442720D01*
X0207312Y0443720D02*
X0237233Y0443720D01*
X0237233Y0444720D02*
X0207312Y0444720D01*
X0207312Y0445720D02*
X0237233Y0445720D01*
X0237233Y0446720D02*
X0207312Y0446720D01*
X0207312Y0447720D02*
X0237233Y0447720D01*
X0237233Y0448720D02*
X0207312Y0448720D01*
X0207312Y0449720D02*
X0237233Y0449720D01*
X0237233Y0450720D02*
X0207312Y0450720D01*
X0207312Y0451720D02*
X0237233Y0451720D01*
X0237233Y0452720D02*
X0207312Y0452720D01*
X0207312Y0453720D02*
X0237233Y0453720D01*
X0237233Y0454720D02*
X0207312Y0454720D01*
X0207312Y0455720D02*
X0237233Y0455720D01*
X0237233Y0456720D02*
X0207312Y0456720D01*
X0207312Y0457720D02*
X0237233Y0457720D01*
X0237233Y0458720D02*
X0207312Y0458720D01*
X0207312Y0459720D02*
X0237233Y0459720D01*
X0237233Y0460720D02*
X0207312Y0460720D01*
X0207312Y0461720D02*
X0237233Y0461720D01*
X0237233Y0462720D02*
X0207312Y0462720D01*
X0207312Y0463720D02*
X0237233Y0463720D01*
X0237233Y0464720D02*
X0207312Y0464720D01*
X0207312Y0465720D02*
X0237233Y0465720D01*
X0237233Y0466720D02*
X0207312Y0466720D01*
X0207312Y0467720D02*
X0237233Y0467720D01*
X0237233Y0468720D02*
X0207312Y0468720D01*
X0207312Y0469720D02*
X0237233Y0469720D01*
X0237233Y0470720D02*
X0207312Y0470720D01*
X0207312Y0471720D02*
X0237233Y0471720D01*
X0237233Y0472720D02*
X0207312Y0472720D01*
X0207312Y0473720D02*
X0237233Y0473720D01*
X0237233Y0474720D02*
X0207312Y0474720D01*
X0207312Y0475720D02*
X0237233Y0475720D01*
X0237233Y0476720D02*
X0207312Y0476720D01*
X0207312Y0477720D02*
X0237233Y0477720D01*
X0237233Y0478720D02*
X0207312Y0478720D01*
X0207312Y0479720D02*
X0237233Y0479720D01*
X0237233Y0480720D02*
X0207312Y0480720D01*
X0207312Y0481720D02*
X0237233Y0481720D01*
X0237233Y0482720D02*
X0207312Y0482720D01*
X0207312Y0483720D02*
X0237233Y0483720D01*
X0237233Y0484720D02*
X0207312Y0484720D01*
X0207312Y0485720D02*
X0237233Y0485720D01*
X0237233Y0486720D02*
X0207312Y0486720D01*
X0207312Y0487720D02*
X0237233Y0487720D01*
X0237233Y0488720D02*
X0207312Y0488720D01*
X0207312Y0489720D02*
X0237233Y0489720D01*
X0237233Y0490720D02*
X0207312Y0490720D01*
X0207312Y0491720D02*
X0237233Y0491720D01*
X0237233Y0492720D02*
X0207312Y0492720D01*
X0207312Y0493720D02*
X0237233Y0493720D01*
X0237233Y0494720D02*
X0207312Y0494720D01*
X0207312Y0495720D02*
X0237233Y0495720D01*
X0237233Y0496720D02*
X0207312Y0496720D01*
X0207312Y0497720D02*
X0237233Y0497720D01*
X0237233Y0498720D02*
X0207312Y0498720D01*
X0207312Y0499720D02*
X0237233Y0499720D01*
X0237233Y0500720D02*
X0207312Y0500720D01*
X0207312Y0501720D02*
X0237233Y0501720D01*
X0237233Y0504209D02*
X0237233Y0508146D01*
D14*
X0236512Y0507655D02*
X0234577Y0507655D01*
X0235545Y0507655D02*
X0235545Y0504752D01*
X0233566Y0505236D02*
X0233082Y0504752D01*
X0232114Y0504752D01*
X0231631Y0505236D01*
X0231631Y0507655D01*
X0230619Y0507171D02*
X0230135Y0507655D01*
X0229168Y0507655D01*
X0228684Y0507171D01*
X0228684Y0505236D01*
X0229168Y0504752D01*
X0230135Y0504752D01*
X0230619Y0505236D01*
X0233566Y0505236D02*
X0233566Y0507655D01*
X0224726Y0507171D02*
X0224242Y0507655D01*
X0222791Y0507655D01*
X0222791Y0504752D01*
X0224242Y0504752D01*
X0224726Y0505236D01*
X0224726Y0507171D01*
X0221780Y0507171D02*
X0221780Y0506204D01*
X0221296Y0505720D01*
X0219845Y0505720D01*
X0220812Y0505720D02*
X0221780Y0504752D01*
X0219845Y0504752D02*
X0219845Y0507655D01*
X0221296Y0507655D01*
X0221780Y0507171D01*
X0218833Y0506687D02*
X0218833Y0504752D01*
X0218833Y0506204D02*
X0216898Y0506204D01*
X0216898Y0506687D02*
X0217866Y0507655D01*
X0218833Y0506687D01*
X0216898Y0506687D02*
X0216898Y0504752D01*
X0215887Y0505236D02*
X0215887Y0507171D01*
X0215403Y0507655D01*
X0214435Y0507655D01*
X0213952Y0507171D01*
X0213952Y0505236D01*
X0214435Y0504752D01*
X0215403Y0504752D01*
X0215887Y0505236D01*
X0212940Y0505236D02*
X0212456Y0504752D01*
X0211005Y0504752D01*
X0211005Y0507655D01*
X0212456Y0507655D01*
X0212940Y0507171D01*
X0212940Y0506687D01*
X0212456Y0506204D01*
X0211005Y0506204D01*
X0212456Y0506204D02*
X0212940Y0505720D01*
X0212940Y0505236D01*
D15*
X0203724Y0500621D02*
X0203724Y0112520D01*
X0004600Y0112520D01*
X0004600Y0500621D01*
X0184114Y0500621D01*
X0183741Y0500248D01*
X0182477Y0497198D01*
X0182477Y0493896D01*
X0183741Y0490846D01*
X0186075Y0488512D01*
X0189126Y0487248D01*
X0192427Y0487248D01*
X0195477Y0488512D01*
X0197812Y0490846D01*
X0199076Y0493896D01*
X0199076Y0497198D01*
X0197812Y0500248D01*
X0197439Y0500621D01*
X0203724Y0500621D01*
X0203724Y0498279D02*
X0198628Y0498279D01*
X0199076Y0495881D02*
X0203724Y0495881D01*
X0203724Y0493482D02*
X0198904Y0493482D01*
X0197911Y0491084D02*
X0203724Y0491084D01*
X0203724Y0488685D02*
X0195651Y0488685D01*
X0203724Y0486287D02*
X0150832Y0486287D01*
X0151014Y0486105D02*
X0149838Y0487281D01*
X0148301Y0487917D01*
X0146638Y0487917D01*
X0145101Y0487281D01*
X0143925Y0486105D01*
X0143288Y0484568D01*
X0143288Y0482905D01*
X0143925Y0481368D01*
X0145101Y0480192D01*
X0146638Y0479555D01*
X0148301Y0479555D01*
X0149838Y0480192D01*
X0151014Y0481368D01*
X0151650Y0482905D01*
X0151650Y0484568D01*
X0151014Y0486105D01*
X0151650Y0483888D02*
X0203724Y0483888D01*
X0203724Y0481490D02*
X0151064Y0481490D01*
X0157704Y0477837D02*
X0157068Y0476300D01*
X0157068Y0474637D01*
X0157704Y0473100D01*
X0158880Y0471924D01*
X0160417Y0471287D01*
X0162080Y0471287D01*
X0163617Y0471924D01*
X0164793Y0473100D01*
X0165430Y0474637D01*
X0165430Y0476300D01*
X0164793Y0477837D01*
X0163617Y0479013D01*
X0162080Y0479650D01*
X0160417Y0479650D01*
X0158880Y0479013D01*
X0157704Y0477837D01*
X0157230Y0476693D02*
X0135902Y0476693D01*
X0135902Y0476212D02*
X0135902Y0477875D01*
X0135266Y0479412D01*
X0134090Y0480588D01*
X0132553Y0481224D01*
X0130890Y0481224D01*
X0129353Y0480588D01*
X0129008Y0480243D01*
X0126606Y0480243D01*
X0125663Y0480634D01*
X0124000Y0480634D01*
X0123057Y0480243D01*
X0087771Y0480243D01*
X0087672Y0480343D01*
X0088458Y0480343D01*
X0089995Y0480979D01*
X0091171Y0482155D01*
X0091808Y0483692D01*
X0091808Y0485355D01*
X0091171Y0486892D01*
X0089995Y0488068D01*
X0088458Y0488705D01*
X0086795Y0488705D01*
X0085258Y0488068D01*
X0084082Y0486892D01*
X0083525Y0485546D01*
X0082553Y0485949D01*
X0080890Y0485949D01*
X0079353Y0485312D01*
X0078177Y0484136D01*
X0077540Y0482599D01*
X0077540Y0480936D01*
X0078177Y0479399D01*
X0079353Y0478223D01*
X0080890Y0477587D01*
X0081377Y0477587D01*
X0083246Y0475718D01*
X0083246Y0461046D01*
X0082758Y0460558D01*
X0078723Y0460558D01*
X0077546Y0460071D01*
X0072822Y0455347D01*
X0071922Y0454447D01*
X0071435Y0453270D01*
X0071435Y0444818D01*
X0070704Y0445548D01*
X0069167Y0446185D01*
X0067504Y0446185D01*
X0065967Y0445548D01*
X0065113Y0444695D01*
X0064782Y0445494D01*
X0063440Y0446837D01*
X0061686Y0447563D01*
X0059788Y0447563D01*
X0058034Y0446837D01*
X0056692Y0445494D01*
X0055965Y0443740D01*
X0055965Y0441842D01*
X0056692Y0440088D01*
X0058034Y0438746D01*
X0059788Y0438020D01*
X0061686Y0438020D01*
X0063440Y0438746D01*
X0064656Y0439962D01*
X0064791Y0439636D01*
X0065967Y0438459D01*
X0067504Y0437823D01*
X0069167Y0437823D01*
X0070704Y0438459D01*
X0071435Y0439190D01*
X0071435Y0435062D01*
X0068098Y0431725D01*
X0067197Y0430824D01*
X0066710Y0429648D01*
X0066710Y0422670D01*
X0066366Y0422325D01*
X0065729Y0420788D01*
X0065729Y0419125D01*
X0066366Y0417588D01*
X0067542Y0416412D01*
X0069079Y0415776D01*
X0070742Y0415776D01*
X0072279Y0416412D01*
X0073455Y0417588D01*
X0074091Y0419125D01*
X0074091Y0420788D01*
X0073455Y0422325D01*
X0073110Y0422670D01*
X0073110Y0427686D01*
X0077347Y0431924D01*
X0077835Y0433100D01*
X0077835Y0440184D01*
X0083589Y0434430D01*
X0082901Y0433742D01*
X0082265Y0432206D01*
X0082265Y0431718D01*
X0079199Y0428652D01*
X0078847Y0428376D01*
X0078752Y0428206D01*
X0078615Y0428069D01*
X0078444Y0427655D01*
X0078225Y0427265D01*
X0078202Y0427072D01*
X0078128Y0426892D01*
X0078128Y0426445D01*
X0078075Y0426001D01*
X0078128Y0425814D01*
X0078128Y0425619D01*
X0078299Y0425206D01*
X0078420Y0424775D01*
X0078540Y0424623D01*
X0078615Y0424443D01*
X0078931Y0424127D01*
X0082265Y0419896D01*
X0082265Y0418928D01*
X0082901Y0417391D01*
X0084077Y0416215D01*
X0085614Y0415579D01*
X0087277Y0415579D01*
X0088814Y0416215D01*
X0089103Y0416504D01*
X0089786Y0415822D01*
X0091323Y0415185D01*
X0092986Y0415185D01*
X0094523Y0415822D01*
X0095699Y0416998D01*
X0096149Y0418084D01*
X0096681Y0416801D01*
X0097857Y0415625D01*
X0099394Y0414988D01*
X0101057Y0414988D01*
X0102594Y0415625D01*
X0103770Y0416801D01*
X0104406Y0418338D01*
X0104406Y0420001D01*
X0103770Y0421538D01*
X0102594Y0422714D01*
X0101768Y0423056D01*
X0102830Y0423056D01*
X0104006Y0423543D01*
X0104907Y0424443D01*
X0104907Y0424443D01*
X0107156Y0426693D01*
X0108056Y0427593D01*
X0108543Y0428769D01*
X0108543Y0434373D01*
X0108056Y0435549D01*
X0105782Y0437823D01*
X0106962Y0437823D01*
X0108499Y0438459D01*
X0109675Y0439636D01*
X0110312Y0441172D01*
X0110312Y0442836D01*
X0109675Y0444372D01*
X0108499Y0445548D01*
X0106962Y0446185D01*
X0105299Y0446185D01*
X0103762Y0445548D01*
X0102586Y0444372D01*
X0101950Y0442836D01*
X0101950Y0441172D01*
X0102400Y0440086D01*
X0086984Y0440086D01*
X0082962Y0444107D01*
X0083540Y0445503D01*
X0083540Y0447166D01*
X0082904Y0448703D01*
X0082806Y0448800D01*
X0083645Y0448453D01*
X0085309Y0448453D01*
X0086846Y0449089D01*
X0088022Y0450265D01*
X0088658Y0451802D01*
X0088658Y0453466D01*
X0088022Y0455002D01*
X0087137Y0455887D01*
X0089158Y0457908D01*
X0089646Y0459084D01*
X0089646Y0473843D01*
X0121528Y0473843D01*
X0122463Y0472908D01*
X0124000Y0472272D01*
X0125663Y0472272D01*
X0127200Y0472908D01*
X0128135Y0473843D01*
X0129008Y0473843D01*
X0129353Y0473499D01*
X0130890Y0472862D01*
X0132553Y0472862D01*
X0134090Y0473499D01*
X0135266Y0474675D01*
X0135902Y0476212D01*
X0134885Y0474294D02*
X0157210Y0474294D01*
X0158949Y0471896D02*
X0089646Y0471896D01*
X0089646Y0469497D02*
X0117081Y0469497D01*
X0117148Y0469564D02*
X0115972Y0468388D01*
X0115335Y0466851D01*
X0115335Y0465188D01*
X0115972Y0463651D01*
X0117148Y0462475D01*
X0118685Y0461839D01*
X0120348Y0461839D01*
X0121885Y0462475D01*
X0123061Y0463651D01*
X0123698Y0465188D01*
X0123698Y0466851D01*
X0123061Y0468388D01*
X0121885Y0469564D01*
X0120348Y0470201D01*
X0118685Y0470201D01*
X0117148Y0469564D01*
X0115438Y0467099D02*
X0089646Y0467099D01*
X0089646Y0464700D02*
X0115537Y0464700D01*
X0117567Y0462302D02*
X0089646Y0462302D01*
X0089646Y0459903D02*
X0143115Y0459903D01*
X0142894Y0459371D02*
X0142894Y0457708D01*
X0143531Y0456171D01*
X0144707Y0454995D01*
X0146244Y0454358D01*
X0147907Y0454358D01*
X0149444Y0454995D01*
X0150620Y0456171D01*
X0151257Y0457708D01*
X0151257Y0459371D01*
X0150620Y0460908D01*
X0149444Y0462084D01*
X0147907Y0462720D01*
X0146244Y0462720D01*
X0144707Y0462084D01*
X0143531Y0460908D01*
X0142894Y0459371D01*
X0142979Y0457505D02*
X0088755Y0457505D01*
X0087918Y0455106D02*
X0096938Y0455106D01*
X0096676Y0454997D02*
X0095500Y0453821D01*
X0094863Y0452284D01*
X0094863Y0450621D01*
X0095500Y0449084D01*
X0096676Y0447908D01*
X0098212Y0447272D01*
X0099876Y0447272D01*
X0101412Y0447908D01*
X0102589Y0449084D01*
X0103225Y0450621D01*
X0103225Y0452284D01*
X0102589Y0453821D01*
X0101412Y0454997D01*
X0099876Y0455634D01*
X0098212Y0455634D01*
X0096676Y0454997D01*
X0095038Y0452708D02*
X0088658Y0452708D01*
X0088040Y0450309D02*
X0094992Y0450309D01*
X0096673Y0447911D02*
X0083232Y0447911D01*
X0083540Y0445512D02*
X0103726Y0445512D01*
X0102065Y0443114D02*
X0083956Y0443114D01*
X0086355Y0440715D02*
X0102139Y0440715D01*
X0102194Y0436886D02*
X0085658Y0436886D01*
X0079359Y0443185D01*
X0079359Y0446335D01*
X0074635Y0452634D02*
X0074635Y0433736D01*
X0069910Y0429012D01*
X0069910Y0419957D01*
X0066035Y0421527D02*
X0063609Y0421527D01*
X0063617Y0421530D02*
X0064793Y0422706D01*
X0065430Y0424243D01*
X0065430Y0425906D01*
X0064793Y0427443D01*
X0063617Y0428619D01*
X0062080Y0429256D01*
X0060417Y0429256D01*
X0058880Y0428619D01*
X0057704Y0427443D01*
X0057068Y0425906D01*
X0057068Y0424243D01*
X0057704Y0422706D01*
X0058880Y0421530D01*
X0060417Y0420894D01*
X0062080Y0420894D01*
X0063617Y0421530D01*
X0065298Y0423925D02*
X0066710Y0423925D01*
X0066710Y0426324D02*
X0065257Y0426324D01*
X0066710Y0428722D02*
X0063368Y0428722D01*
X0059129Y0428722D02*
X0025749Y0428722D01*
X0025749Y0427969D02*
X0025749Y0430291D01*
X0024860Y0432437D01*
X0023218Y0434080D01*
X0021072Y0434968D01*
X0018749Y0434968D01*
X0016603Y0434080D01*
X0014961Y0432437D01*
X0014449Y0431202D01*
X0014449Y0441072D01*
X0018527Y0445151D01*
X0017894Y0443623D01*
X0017894Y0441960D01*
X0018531Y0440423D01*
X0019707Y0439247D01*
X0021244Y0438610D01*
X0022907Y0438610D01*
X0024444Y0439247D01*
X0025620Y0440423D01*
X0026257Y0441960D01*
X0026257Y0443623D01*
X0025620Y0445160D01*
X0024444Y0446336D01*
X0022907Y0446972D01*
X0021244Y0446972D01*
X0019716Y0446340D01*
X0021723Y0448346D01*
X0022623Y0449246D01*
X0022762Y0449582D01*
X0023218Y0449771D01*
X0024860Y0451413D01*
X0025749Y0453559D01*
X0025749Y0455882D01*
X0024860Y0458028D01*
X0023218Y0459670D01*
X0021072Y0460559D01*
X0018749Y0460559D01*
X0016603Y0459670D01*
X0014961Y0458028D01*
X0014072Y0455882D01*
X0014072Y0453559D01*
X0014961Y0451413D01*
X0015350Y0451024D01*
X0008536Y0444210D01*
X0008049Y0443034D01*
X0008049Y0392942D01*
X0008536Y0391766D01*
X0009436Y0390866D01*
X0016123Y0384179D01*
X0016123Y0383692D01*
X0016759Y0382155D01*
X0017936Y0380979D01*
X0019472Y0380343D01*
X0021136Y0380343D01*
X0022672Y0380979D01*
X0023848Y0382155D01*
X0024485Y0383692D01*
X0024485Y0385355D01*
X0023848Y0386892D01*
X0022672Y0388068D01*
X0021136Y0388705D01*
X0020648Y0388705D01*
X0014449Y0394904D01*
X0014449Y0427058D01*
X0014961Y0425823D01*
X0016603Y0424180D01*
X0018749Y0423291D01*
X0021072Y0423291D01*
X0023218Y0424180D01*
X0024860Y0425823D01*
X0025749Y0427969D01*
X0025068Y0426324D02*
X0057241Y0426324D01*
X0057199Y0423925D02*
X0022602Y0423925D01*
X0017218Y0423925D02*
X0014449Y0423925D01*
X0014449Y0421527D02*
X0042339Y0421527D01*
X0042345Y0421533D02*
X0041169Y0420357D01*
X0040532Y0418820D01*
X0040532Y0417157D01*
X0041169Y0415620D01*
X0041210Y0415579D01*
X0040376Y0415234D01*
X0039200Y0414057D01*
X0038564Y0412521D01*
X0038564Y0410857D01*
X0039200Y0409321D01*
X0040376Y0408144D01*
X0041913Y0407508D01*
X0043577Y0407508D01*
X0045113Y0408144D01*
X0045844Y0408875D01*
X0045844Y0405971D01*
X0044758Y0406421D01*
X0043094Y0406421D01*
X0041558Y0405785D01*
X0040381Y0404609D01*
X0039745Y0403072D01*
X0039745Y0401408D01*
X0040381Y0399872D01*
X0041138Y0399115D01*
X0040250Y0398227D01*
X0039792Y0397120D01*
X0033452Y0390780D01*
X0032552Y0389880D01*
X0032065Y0388703D01*
X0032065Y0363808D01*
X0032552Y0362632D01*
X0034154Y0361030D01*
X0032896Y0360509D01*
X0031720Y0359333D01*
X0031083Y0357796D01*
X0031083Y0356133D01*
X0031720Y0354596D01*
X0032896Y0353420D01*
X0034433Y0352783D01*
X0036096Y0352783D01*
X0037633Y0353420D01*
X0038809Y0354596D01*
X0039151Y0355422D01*
X0039151Y0305928D01*
X0034899Y0301676D01*
X0034088Y0302012D01*
X0032268Y0302012D01*
X0030587Y0301315D01*
X0029300Y0300028D01*
X0028603Y0298347D01*
X0028603Y0296527D01*
X0029300Y0294846D01*
X0030587Y0293559D01*
X0032268Y0292862D01*
X0034088Y0292862D01*
X0035769Y0293559D01*
X0036890Y0294679D01*
X0036998Y0294724D01*
X0045064Y0302790D01*
X0045551Y0303966D01*
X0045551Y0357995D01*
X0045064Y0359171D01*
X0044164Y0360071D01*
X0038465Y0365770D01*
X0038465Y0386741D01*
X0042705Y0390981D01*
X0043365Y0390708D01*
X0045274Y0390708D01*
X0047039Y0391439D01*
X0048389Y0392789D01*
X0049120Y0394553D01*
X0049120Y0396463D01*
X0048521Y0397908D01*
X0049589Y0397465D01*
X0049935Y0397465D01*
X0049520Y0396463D01*
X0049520Y0394553D01*
X0050250Y0392789D01*
X0051601Y0391439D01*
X0053365Y0390708D01*
X0055274Y0390708D01*
X0057039Y0391439D01*
X0058389Y0392789D01*
X0059120Y0394553D01*
X0059120Y0396463D01*
X0058704Y0397465D01*
X0059935Y0397465D01*
X0059520Y0396463D01*
X0059520Y0394553D01*
X0060250Y0392789D01*
X0061601Y0391439D01*
X0063365Y0390708D01*
X0065274Y0390708D01*
X0067039Y0391439D01*
X0068389Y0392789D01*
X0069120Y0394553D01*
X0069120Y0396463D01*
X0068389Y0398227D01*
X0068363Y0398253D01*
X0070276Y0398253D01*
X0070250Y0398227D01*
X0069520Y0396463D01*
X0069520Y0394553D01*
X0070250Y0392789D01*
X0071601Y0391439D01*
X0073365Y0390708D01*
X0075274Y0390708D01*
X0077039Y0391439D01*
X0078389Y0392789D01*
X0079120Y0394553D01*
X0079120Y0396463D01*
X0078389Y0398227D01*
X0078363Y0398253D01*
X0080276Y0398253D01*
X0080250Y0398227D01*
X0079520Y0396463D01*
X0079520Y0394553D01*
X0080250Y0392789D01*
X0080580Y0392460D01*
X0077773Y0389653D01*
X0077368Y0389248D01*
X0077039Y0389577D01*
X0075274Y0390308D01*
X0073365Y0390308D01*
X0071601Y0389577D01*
X0070250Y0388227D01*
X0069520Y0386463D01*
X0069520Y0384553D01*
X0070250Y0382789D01*
X0070834Y0382205D01*
X0067806Y0382205D01*
X0068389Y0382789D01*
X0069120Y0384553D01*
X0069120Y0386463D01*
X0068389Y0388227D01*
X0067039Y0389577D01*
X0065274Y0390308D01*
X0063365Y0390308D01*
X0061601Y0389577D01*
X0060250Y0388227D01*
X0059520Y0386463D01*
X0059520Y0384833D01*
X0059120Y0385233D01*
X0059120Y0386463D01*
X0058389Y0388227D01*
X0057039Y0389577D01*
X0055274Y0390308D01*
X0053365Y0390308D01*
X0051601Y0389577D01*
X0050250Y0388227D01*
X0049520Y0386463D01*
X0049520Y0384553D01*
X0050250Y0382789D01*
X0051601Y0381439D01*
X0051782Y0381364D01*
X0050618Y0380199D01*
X0049981Y0378662D01*
X0049981Y0376999D01*
X0050618Y0375462D01*
X0051794Y0374286D01*
X0053331Y0373650D01*
X0054994Y0373650D01*
X0056531Y0374286D01*
X0057707Y0375462D01*
X0058332Y0376971D01*
X0058609Y0376693D01*
X0059786Y0376206D01*
X0061059Y0376206D01*
X0062024Y0376606D01*
X0076287Y0376606D01*
X0075587Y0376315D01*
X0074300Y0375028D01*
X0073603Y0373347D01*
X0073603Y0371527D01*
X0073907Y0370794D01*
X0071636Y0370794D01*
X0070460Y0370307D01*
X0069560Y0369407D01*
X0056174Y0356021D01*
X0055687Y0354845D01*
X0055687Y0321682D01*
X0056174Y0320506D01*
X0057074Y0319606D01*
X0062380Y0314300D01*
X0062380Y0298841D01*
X0051843Y0288305D01*
X0051356Y0287129D01*
X0051356Y0265290D01*
X0050625Y0266021D01*
X0049088Y0266657D01*
X0047425Y0266657D01*
X0045888Y0266021D01*
X0044712Y0264845D01*
X0044076Y0263308D01*
X0044076Y0261645D01*
X0044712Y0260108D01*
X0045888Y0258932D01*
X0047425Y0258295D01*
X0049088Y0258295D01*
X0050625Y0258932D01*
X0051406Y0259713D01*
X0052187Y0258932D01*
X0053724Y0258295D01*
X0055388Y0258295D01*
X0056924Y0258932D01*
X0058100Y0260108D01*
X0058737Y0261645D01*
X0058737Y0263308D01*
X0058100Y0264845D01*
X0057756Y0265189D01*
X0057756Y0285167D01*
X0063561Y0290971D01*
X0063561Y0268920D01*
X0061405Y0266764D01*
X0061405Y0266764D01*
X0060504Y0265864D01*
X0060017Y0264688D01*
X0060017Y0255746D01*
X0059300Y0255028D01*
X0058603Y0253347D01*
X0058603Y0251527D01*
X0059300Y0249846D01*
X0060587Y0248559D01*
X0062268Y0247862D01*
X0064088Y0247862D01*
X0064742Y0248133D01*
X0064742Y0242942D01*
X0065229Y0241766D01*
X0068379Y0238616D01*
X0069279Y0237716D01*
X0070455Y0237229D01*
X0080783Y0237229D01*
X0081959Y0237716D01*
X0082859Y0238616D01*
X0083259Y0239582D01*
X0084308Y0240631D01*
X0084433Y0240579D01*
X0086096Y0240579D01*
X0087633Y0241215D01*
X0088174Y0241757D01*
X0131207Y0241757D01*
X0131083Y0241458D01*
X0131083Y0239794D01*
X0131720Y0238258D01*
X0132896Y0237081D01*
X0134433Y0236445D01*
X0136096Y0236445D01*
X0137633Y0237081D01*
X0138809Y0238258D01*
X0139446Y0239794D01*
X0139446Y0241458D01*
X0139170Y0242124D01*
X0139386Y0242209D01*
X0139410Y0242232D01*
X0139439Y0242244D01*
X0139868Y0242672D01*
X0142644Y0245343D01*
X0143694Y0245343D01*
X0145376Y0246039D01*
X0146663Y0247326D01*
X0147359Y0249007D01*
X0147359Y0250827D01*
X0146663Y0252509D01*
X0145376Y0253796D01*
X0143694Y0254492D01*
X0141874Y0254492D01*
X0140193Y0253796D01*
X0138906Y0252509D01*
X0138209Y0250827D01*
X0138209Y0249957D01*
X0137359Y0249139D01*
X0137359Y0250827D01*
X0136663Y0252509D01*
X0135376Y0253796D01*
X0133694Y0254492D01*
X0131874Y0254492D01*
X0130193Y0253796D01*
X0128906Y0252509D01*
X0128209Y0250827D01*
X0128209Y0249007D01*
X0128562Y0248157D01*
X0127007Y0248157D01*
X0127359Y0249007D01*
X0127359Y0250827D01*
X0126663Y0252509D01*
X0125984Y0253187D01*
X0125984Y0253546D01*
X0125497Y0254722D01*
X0121136Y0259083D01*
X0122710Y0259083D01*
X0124247Y0259719D01*
X0125423Y0260895D01*
X0126060Y0262432D01*
X0126060Y0264095D01*
X0125423Y0265632D01*
X0124247Y0266808D01*
X0122710Y0267445D01*
X0121047Y0267445D01*
X0119510Y0266808D01*
X0118334Y0265632D01*
X0117723Y0264156D01*
X0117505Y0264683D01*
X0115824Y0266364D01*
X0115824Y0266851D01*
X0115187Y0268388D01*
X0114011Y0269564D01*
X0112474Y0270201D01*
X0111688Y0270201D01*
X0119267Y0277780D01*
X0139051Y0277780D01*
X0140227Y0278267D01*
X0167786Y0305827D01*
X0168686Y0306727D01*
X0169173Y0307903D01*
X0169173Y0342955D01*
X0168686Y0344132D01*
X0168611Y0344207D01*
X0168611Y0345676D01*
X0167850Y0347513D01*
X0166443Y0348920D01*
X0164606Y0349681D01*
X0162616Y0349681D01*
X0160779Y0348920D01*
X0159372Y0347513D01*
X0158611Y0345676D01*
X0158611Y0343687D01*
X0159372Y0341849D01*
X0160779Y0340442D01*
X0162616Y0339681D01*
X0162773Y0339681D01*
X0162773Y0309865D01*
X0137089Y0284180D01*
X0117305Y0284180D01*
X0116129Y0283693D01*
X0115229Y0282793D01*
X0100071Y0267635D01*
X0099584Y0266459D01*
X0099584Y0253187D01*
X0098906Y0252509D01*
X0098209Y0250827D01*
X0098209Y0249007D01*
X0098562Y0248157D01*
X0087781Y0248157D01*
X0087633Y0248304D01*
X0086096Y0248941D01*
X0084433Y0248941D01*
X0082896Y0248304D01*
X0081720Y0247128D01*
X0081083Y0245592D01*
X0081083Y0245326D01*
X0079387Y0243629D01*
X0072417Y0243629D01*
X0071142Y0244904D01*
X0071142Y0248329D01*
X0072268Y0247862D01*
X0074088Y0247862D01*
X0075769Y0248559D01*
X0077056Y0249846D01*
X0077753Y0251527D01*
X0077753Y0253347D01*
X0077056Y0255028D01*
X0075769Y0256315D01*
X0074088Y0257012D01*
X0072268Y0257012D01*
X0071142Y0256545D01*
X0071142Y0257795D01*
X0071486Y0258139D01*
X0072123Y0259676D01*
X0072123Y0261340D01*
X0071486Y0262876D01*
X0070310Y0264052D01*
X0068773Y0264689D01*
X0068381Y0264689D01*
X0069473Y0265782D01*
X0069961Y0266958D01*
X0069961Y0290678D01*
X0073204Y0293922D01*
X0073841Y0293922D01*
X0073603Y0293347D01*
X0073603Y0291527D01*
X0074300Y0289846D01*
X0075587Y0288559D01*
X0077268Y0287862D01*
X0079088Y0287862D01*
X0080769Y0288559D01*
X0082056Y0289846D01*
X0082753Y0291527D01*
X0082753Y0293347D01*
X0082515Y0293922D01*
X0084333Y0293922D01*
X0085814Y0292441D01*
X0086990Y0291954D01*
X0094756Y0291954D01*
X0095101Y0291609D01*
X0096638Y0290972D01*
X0098301Y0290972D01*
X0099838Y0291609D01*
X0101014Y0292785D01*
X0101650Y0294322D01*
X0101650Y0295985D01*
X0101014Y0297522D01*
X0099838Y0298698D01*
X0098301Y0299335D01*
X0096638Y0299335D01*
X0095101Y0298698D01*
X0094756Y0298354D01*
X0088952Y0298354D01*
X0088371Y0298935D01*
X0087471Y0299835D01*
X0086295Y0300322D01*
X0082254Y0300322D01*
X0082753Y0301527D01*
X0082753Y0303347D01*
X0082056Y0305028D01*
X0080769Y0306315D01*
X0079088Y0307012D01*
X0077268Y0307012D01*
X0075587Y0306315D01*
X0074300Y0305028D01*
X0073603Y0303347D01*
X0073603Y0301527D01*
X0074102Y0300322D01*
X0071242Y0300322D01*
X0070066Y0299835D01*
X0068780Y0298548D01*
X0068780Y0316263D01*
X0068292Y0317439D01*
X0064050Y0321681D01*
X0065230Y0321681D01*
X0066767Y0322318D01*
X0067943Y0323494D01*
X0068580Y0325031D01*
X0068580Y0325817D01*
X0074122Y0320275D01*
X0074300Y0319846D01*
X0075587Y0318559D01*
X0077268Y0317862D01*
X0079088Y0317862D01*
X0080769Y0318559D01*
X0082056Y0319846D01*
X0082753Y0321527D01*
X0082753Y0323347D01*
X0082056Y0325028D01*
X0080769Y0326315D01*
X0079088Y0327012D01*
X0077268Y0327012D01*
X0076679Y0326768D01*
X0071483Y0331965D01*
X0073992Y0334473D01*
X0074070Y0334473D01*
X0073603Y0333347D01*
X0073603Y0331527D01*
X0074300Y0329846D01*
X0075587Y0328559D01*
X0077268Y0327862D01*
X0079088Y0327862D01*
X0080769Y0328559D01*
X0082056Y0329846D01*
X0082753Y0331527D01*
X0082753Y0333347D01*
X0082286Y0334473D01*
X0083502Y0334473D01*
X0083052Y0333387D01*
X0083052Y0331723D01*
X0083688Y0330187D01*
X0084865Y0329011D01*
X0086401Y0328374D01*
X0088065Y0328374D01*
X0089601Y0329011D01*
X0090778Y0330187D01*
X0091414Y0331723D01*
X0091414Y0333387D01*
X0090778Y0334924D01*
X0089601Y0336100D01*
X0088065Y0336736D01*
X0086885Y0336736D01*
X0088258Y0338110D01*
X0088258Y0338110D01*
X0089158Y0339010D01*
X0089646Y0340186D01*
X0089646Y0350521D01*
X0095690Y0356565D01*
X0095690Y0355779D01*
X0096386Y0354098D01*
X0097673Y0352811D01*
X0099355Y0352114D01*
X0101175Y0352114D01*
X0102856Y0352811D01*
X0104143Y0354098D01*
X0104839Y0355779D01*
X0104839Y0357599D01*
X0104471Y0358489D01*
X0107161Y0358489D01*
X0108337Y0358976D01*
X0111393Y0362032D01*
X0119759Y0362032D01*
X0120935Y0362519D01*
X0127735Y0369319D01*
X0128222Y0369319D01*
X0129759Y0369955D01*
X0130935Y0371132D01*
X0131572Y0372668D01*
X0131572Y0374332D01*
X0130935Y0375868D01*
X0129759Y0377045D01*
X0128222Y0377681D01*
X0126559Y0377681D01*
X0125022Y0377045D01*
X0123846Y0375868D01*
X0123209Y0374332D01*
X0123209Y0373844D01*
X0121682Y0372317D01*
X0121682Y0373865D01*
X0120921Y0375702D01*
X0119514Y0377109D01*
X0117676Y0377870D01*
X0115687Y0377870D01*
X0113850Y0377109D01*
X0112443Y0375702D01*
X0111682Y0373865D01*
X0111682Y0371876D01*
X0112443Y0370038D01*
X0113850Y0368631D01*
X0114330Y0368432D01*
X0109431Y0368432D01*
X0108255Y0367945D01*
X0105199Y0364889D01*
X0104471Y0364889D01*
X0104839Y0365779D01*
X0104839Y0367599D01*
X0104143Y0369280D01*
X0102856Y0370567D01*
X0101175Y0371264D01*
X0099355Y0371264D01*
X0097673Y0370567D01*
X0096386Y0369280D01*
X0095690Y0367599D01*
X0095690Y0365779D01*
X0096058Y0364889D01*
X0095652Y0364889D01*
X0094476Y0364402D01*
X0083733Y0353659D01*
X0083246Y0352483D01*
X0083246Y0342148D01*
X0082753Y0341655D01*
X0082753Y0343347D01*
X0082056Y0345028D01*
X0080769Y0346315D01*
X0079088Y0347012D01*
X0077268Y0347012D01*
X0075587Y0346315D01*
X0074300Y0345028D01*
X0073603Y0343347D01*
X0073603Y0341527D01*
X0073874Y0340873D01*
X0072030Y0340873D01*
X0070853Y0340386D01*
X0065229Y0334761D01*
X0064742Y0333585D01*
X0064742Y0330344D01*
X0064866Y0330043D01*
X0063567Y0330043D01*
X0062087Y0329430D01*
X0062087Y0347261D01*
X0062424Y0346924D01*
X0063960Y0346287D01*
X0065624Y0346287D01*
X0067161Y0346924D01*
X0068337Y0348100D01*
X0068973Y0349637D01*
X0068973Y0351300D01*
X0068337Y0352837D01*
X0067161Y0354013D01*
X0065624Y0354650D01*
X0063960Y0354650D01*
X0063777Y0354574D01*
X0073598Y0364394D01*
X0074037Y0364394D01*
X0073603Y0363347D01*
X0073603Y0361527D01*
X0074300Y0359846D01*
X0075587Y0358559D01*
X0077268Y0357862D01*
X0079088Y0357862D01*
X0080769Y0358559D01*
X0082056Y0359846D01*
X0082753Y0361527D01*
X0082753Y0363347D01*
X0082319Y0364394D01*
X0087082Y0364394D01*
X0088258Y0364882D01*
X0093770Y0370393D01*
X0094670Y0371294D01*
X0095157Y0372470D01*
X0095157Y0378968D01*
X0096257Y0378968D01*
X0095690Y0377599D01*
X0095690Y0375779D01*
X0096386Y0374098D01*
X0097673Y0372811D01*
X0099355Y0372114D01*
X0101175Y0372114D01*
X0102856Y0372811D01*
X0104143Y0374098D01*
X0104839Y0375779D01*
X0104839Y0377599D01*
X0104272Y0378968D01*
X0147035Y0378968D01*
X0147511Y0378941D01*
X0147589Y0378968D01*
X0147672Y0378968D01*
X0147873Y0379051D01*
X0149212Y0379051D01*
X0151050Y0379812D01*
X0152456Y0381219D01*
X0153217Y0383057D01*
X0153217Y0385046D01*
X0152456Y0386883D01*
X0151050Y0388290D01*
X0150759Y0388410D01*
X0151656Y0388410D01*
X0176090Y0363976D01*
X0176803Y0363681D01*
X0177673Y0362811D01*
X0179355Y0362114D01*
X0181175Y0362114D01*
X0182856Y0362811D01*
X0184143Y0364098D01*
X0184839Y0365779D01*
X0184839Y0367599D01*
X0184143Y0369280D01*
X0182856Y0370567D01*
X0181175Y0371264D01*
X0179355Y0371264D01*
X0178293Y0370824D01*
X0175628Y0373489D01*
X0176995Y0373489D01*
X0177673Y0372811D01*
X0179355Y0372114D01*
X0181175Y0372114D01*
X0182856Y0372811D01*
X0184143Y0374098D01*
X0184839Y0375779D01*
X0184839Y0377599D01*
X0184143Y0379280D01*
X0182856Y0380567D01*
X0181175Y0381264D01*
X0179355Y0381264D01*
X0177673Y0380567D01*
X0177245Y0380139D01*
X0166806Y0390579D01*
X0167986Y0390579D01*
X0169523Y0391215D01*
X0170699Y0392391D01*
X0171335Y0393928D01*
X0171335Y0395592D01*
X0170699Y0397128D01*
X0169523Y0398304D01*
X0167986Y0398941D01*
X0166323Y0398941D01*
X0164786Y0398304D01*
X0163610Y0397128D01*
X0162973Y0395592D01*
X0162973Y0394411D01*
X0157550Y0399835D01*
X0156374Y0400322D01*
X0116118Y0400322D01*
X0112274Y0404166D01*
X0111098Y0404653D01*
X0064549Y0404653D01*
X0063373Y0404166D01*
X0063073Y0403865D01*
X0052244Y0403865D01*
X0052244Y0412737D01*
X0052286Y0413239D01*
X0052244Y0413369D01*
X0052244Y0413507D01*
X0052051Y0413972D01*
X0051898Y0414451D01*
X0051809Y0414556D01*
X0051757Y0414683D01*
X0051401Y0415039D01*
X0048894Y0418001D01*
X0048894Y0418820D01*
X0048258Y0420357D01*
X0047082Y0421533D01*
X0045545Y0422169D01*
X0043882Y0422169D01*
X0042345Y0421533D01*
X0040660Y0419128D02*
X0014449Y0419128D01*
X0014449Y0416730D02*
X0040709Y0416730D01*
X0039474Y0414331D02*
X0014449Y0414331D01*
X0014449Y0411933D02*
X0038564Y0411933D01*
X0039112Y0409534D02*
X0014449Y0409534D01*
X0014449Y0407136D02*
X0045844Y0407136D01*
X0040510Y0404737D02*
X0014449Y0404737D01*
X0014449Y0402339D02*
X0039745Y0402339D01*
X0040353Y0399940D02*
X0014449Y0399940D01*
X0014449Y0397542D02*
X0039967Y0397542D01*
X0037815Y0395143D02*
X0032680Y0395143D01*
X0032510Y0395553D02*
X0031334Y0396730D01*
X0029797Y0397366D01*
X0028134Y0397366D01*
X0026597Y0396730D01*
X0025421Y0395553D01*
X0024784Y0394017D01*
X0024784Y0392353D01*
X0025421Y0390817D01*
X0026597Y0389640D01*
X0028134Y0389004D01*
X0029797Y0389004D01*
X0031334Y0389640D01*
X0032510Y0390817D01*
X0033146Y0392353D01*
X0033146Y0394017D01*
X0032510Y0395553D01*
X0033146Y0392745D02*
X0035417Y0392745D01*
X0033018Y0390346D02*
X0032040Y0390346D01*
X0032065Y0387948D02*
X0022793Y0387948D01*
X0024405Y0385549D02*
X0032065Y0385549D01*
X0032065Y0383151D02*
X0024261Y0383151D01*
X0022125Y0380752D02*
X0032065Y0380752D01*
X0032065Y0378354D02*
X0004600Y0378354D01*
X0004600Y0380752D02*
X0018483Y0380752D01*
X0016347Y0383151D02*
X0004600Y0383151D01*
X0004600Y0385549D02*
X0014753Y0385549D01*
X0012354Y0387948D02*
X0004600Y0387948D01*
X0004600Y0390346D02*
X0009956Y0390346D01*
X0008131Y0392745D02*
X0004600Y0392745D01*
X0004600Y0395143D02*
X0008049Y0395143D01*
X0008049Y0397542D02*
X0004600Y0397542D01*
X0004600Y0399940D02*
X0008049Y0399940D01*
X0008049Y0402339D02*
X0004600Y0402339D01*
X0004600Y0404737D02*
X0008049Y0404737D01*
X0008049Y0407136D02*
X0004600Y0407136D01*
X0004600Y0409534D02*
X0008049Y0409534D01*
X0008049Y0411933D02*
X0004600Y0411933D01*
X0004600Y0414331D02*
X0008049Y0414331D01*
X0008049Y0416730D02*
X0004600Y0416730D01*
X0004600Y0419128D02*
X0008049Y0419128D01*
X0008049Y0421527D02*
X0004600Y0421527D01*
X0004600Y0423925D02*
X0008049Y0423925D01*
X0008049Y0426324D02*
X0004600Y0426324D01*
X0004600Y0428722D02*
X0008049Y0428722D01*
X0008049Y0431121D02*
X0004600Y0431121D01*
X0004600Y0433520D02*
X0008049Y0433520D01*
X0008049Y0435918D02*
X0004600Y0435918D01*
X0004600Y0438317D02*
X0008049Y0438317D01*
X0008049Y0440715D02*
X0004600Y0440715D01*
X0004600Y0443114D02*
X0008082Y0443114D01*
X0009838Y0445512D02*
X0004600Y0445512D01*
X0004600Y0447911D02*
X0012236Y0447911D01*
X0014635Y0450309D02*
X0004600Y0450309D01*
X0004600Y0452708D02*
X0014424Y0452708D01*
X0014072Y0455106D02*
X0004600Y0455106D01*
X0004600Y0457505D02*
X0014744Y0457505D01*
X0017165Y0459903D02*
X0004600Y0459903D01*
X0004600Y0462302D02*
X0055965Y0462302D01*
X0055965Y0461842D02*
X0056692Y0460088D01*
X0058034Y0458746D01*
X0059788Y0458020D01*
X0061686Y0458020D01*
X0063440Y0458746D01*
X0064782Y0460088D01*
X0065509Y0461842D01*
X0065509Y0463740D01*
X0064782Y0465494D01*
X0063440Y0466837D01*
X0061686Y0467563D01*
X0059788Y0467563D01*
X0058034Y0466837D01*
X0056692Y0465494D01*
X0055965Y0463740D01*
X0055965Y0461842D01*
X0056877Y0459903D02*
X0022655Y0459903D01*
X0025077Y0457505D02*
X0039340Y0457505D01*
X0039589Y0457753D02*
X0038413Y0456577D01*
X0037776Y0455040D01*
X0037776Y0453377D01*
X0038413Y0451840D01*
X0039589Y0450664D01*
X0041126Y0450028D01*
X0042789Y0450028D01*
X0044326Y0450664D01*
X0045502Y0451840D01*
X0046139Y0453377D01*
X0046139Y0455040D01*
X0045502Y0456577D01*
X0044326Y0457753D01*
X0042789Y0458390D01*
X0041126Y0458390D01*
X0039589Y0457753D01*
X0037804Y0455106D02*
X0025749Y0455106D01*
X0025396Y0452708D02*
X0038054Y0452708D01*
X0040446Y0450309D02*
X0023756Y0450309D01*
X0021287Y0447911D02*
X0071435Y0447911D01*
X0071435Y0450309D02*
X0064874Y0450309D01*
X0064782Y0450088D02*
X0065509Y0451842D01*
X0065509Y0453740D01*
X0064782Y0455494D01*
X0063440Y0456837D01*
X0061686Y0457563D01*
X0059788Y0457563D01*
X0058034Y0456837D01*
X0056692Y0455494D01*
X0055965Y0453740D01*
X0055965Y0451842D01*
X0056692Y0450088D01*
X0058034Y0448746D01*
X0059788Y0448020D01*
X0061686Y0448020D01*
X0063440Y0448746D01*
X0064782Y0450088D01*
X0065509Y0452708D02*
X0071435Y0452708D01*
X0072581Y0455106D02*
X0064943Y0455106D01*
X0061827Y0457505D02*
X0074980Y0457505D01*
X0077378Y0459903D02*
X0064597Y0459903D01*
X0065509Y0462302D02*
X0083246Y0462302D01*
X0083246Y0464700D02*
X0072535Y0464700D01*
X0072667Y0464832D02*
X0073304Y0466369D01*
X0073304Y0468032D01*
X0072667Y0469569D01*
X0071491Y0470745D01*
X0069955Y0471382D01*
X0068291Y0471382D01*
X0066754Y0470745D01*
X0065578Y0469569D01*
X0064942Y0468032D01*
X0064942Y0466369D01*
X0065578Y0464832D01*
X0066754Y0463656D01*
X0068291Y0463020D01*
X0069955Y0463020D01*
X0071491Y0463656D01*
X0072667Y0464832D01*
X0073304Y0467099D02*
X0083246Y0467099D01*
X0083246Y0469497D02*
X0072697Y0469497D01*
X0078485Y0479091D02*
X0004600Y0479091D01*
X0004600Y0476693D02*
X0082271Y0476693D01*
X0083246Y0474294D02*
X0004600Y0474294D01*
X0004600Y0471896D02*
X0023053Y0471896D01*
X0022652Y0471495D02*
X0021921Y0469730D01*
X0021921Y0467821D01*
X0022652Y0466057D01*
X0024002Y0464706D01*
X0025766Y0463976D01*
X0027676Y0463976D01*
X0029440Y0464706D01*
X0030790Y0466057D01*
X0031521Y0467821D01*
X0031521Y0469730D01*
X0030790Y0471495D01*
X0029440Y0472845D01*
X0027676Y0473576D01*
X0025766Y0473576D01*
X0024002Y0472845D01*
X0022652Y0471495D01*
X0021921Y0469497D02*
X0004600Y0469497D01*
X0004600Y0467099D02*
X0022220Y0467099D01*
X0024017Y0464700D02*
X0004600Y0464700D01*
X0004600Y0481490D02*
X0014663Y0481490D01*
X0014536Y0481617D02*
X0015823Y0480330D01*
X0017504Y0479634D01*
X0019324Y0479634D01*
X0021006Y0480330D01*
X0022292Y0481617D01*
X0022989Y0483299D01*
X0022989Y0485119D01*
X0022292Y0486800D01*
X0021006Y0488087D01*
X0020864Y0488146D01*
X0021006Y0488204D01*
X0022292Y0489491D01*
X0022989Y0491173D01*
X0022989Y0492993D01*
X0022292Y0494674D01*
X0021006Y0495961D01*
X0019324Y0496657D01*
X0017504Y0496657D01*
X0015823Y0495961D01*
X0014536Y0494674D01*
X0013839Y0492993D01*
X0013839Y0491173D01*
X0014536Y0489491D01*
X0015823Y0488204D01*
X0015964Y0488146D01*
X0015823Y0488087D01*
X0014536Y0486800D01*
X0013839Y0485119D01*
X0013839Y0483299D01*
X0014536Y0481617D01*
X0013839Y0483888D02*
X0004600Y0483888D01*
X0004600Y0486287D02*
X0014323Y0486287D01*
X0015342Y0488685D02*
X0004600Y0488685D01*
X0004600Y0491084D02*
X0013876Y0491084D01*
X0014042Y0493482D02*
X0004600Y0493482D01*
X0004600Y0495881D02*
X0015743Y0495881D01*
X0021086Y0495881D02*
X0061288Y0495881D01*
X0061005Y0495198D02*
X0061641Y0496735D01*
X0062817Y0497911D01*
X0064354Y0498547D01*
X0066017Y0498547D01*
X0067554Y0497911D01*
X0068730Y0496735D01*
X0069367Y0495198D01*
X0069367Y0493534D01*
X0068730Y0491998D01*
X0067554Y0490822D01*
X0066017Y0490185D01*
X0064354Y0490185D01*
X0062817Y0490822D01*
X0061641Y0491998D01*
X0061005Y0493534D01*
X0061005Y0495198D01*
X0061026Y0493482D02*
X0022786Y0493482D01*
X0022952Y0491084D02*
X0062555Y0491084D01*
X0067816Y0491084D02*
X0183642Y0491084D01*
X0182649Y0493482D02*
X0069345Y0493482D01*
X0069084Y0495881D02*
X0182477Y0495881D01*
X0182925Y0498279D02*
X0066664Y0498279D01*
X0063707Y0498279D02*
X0004600Y0498279D01*
X0021487Y0488685D02*
X0086748Y0488685D01*
X0088505Y0488685D02*
X0185901Y0488685D01*
X0203724Y0479091D02*
X0163429Y0479091D01*
X0165267Y0476693D02*
X0203724Y0476693D01*
X0203724Y0474294D02*
X0165288Y0474294D01*
X0163549Y0471896D02*
X0203724Y0471896D01*
X0203724Y0469497D02*
X0164472Y0469497D01*
X0164405Y0469564D02*
X0162868Y0470201D01*
X0161205Y0470201D01*
X0159668Y0469564D01*
X0158492Y0468388D01*
X0157855Y0466851D01*
X0157855Y0465188D01*
X0158492Y0463651D01*
X0159668Y0462475D01*
X0161205Y0461839D01*
X0162868Y0461839D01*
X0164405Y0462475D01*
X0165581Y0463651D01*
X0166217Y0465188D01*
X0166217Y0466851D01*
X0165581Y0468388D01*
X0164405Y0469564D01*
X0166115Y0467099D02*
X0203724Y0467099D01*
X0203724Y0464700D02*
X0166015Y0464700D01*
X0163986Y0462302D02*
X0203724Y0462302D01*
X0203724Y0459903D02*
X0151036Y0459903D01*
X0151173Y0457505D02*
X0163817Y0457505D01*
X0164003Y0457955D02*
X0163367Y0456418D01*
X0163367Y0454755D01*
X0164003Y0453218D01*
X0165180Y0452042D01*
X0166716Y0451406D01*
X0168380Y0451406D01*
X0169916Y0452042D01*
X0171093Y0453218D01*
X0171729Y0454755D01*
X0171729Y0456418D01*
X0171093Y0457955D01*
X0169916Y0459131D01*
X0168380Y0459768D01*
X0166716Y0459768D01*
X0165180Y0459131D01*
X0164003Y0457955D01*
X0163367Y0455106D02*
X0149555Y0455106D01*
X0144596Y0455106D02*
X0101150Y0455106D01*
X0103050Y0452708D02*
X0164514Y0452708D01*
X0163960Y0447760D02*
X0162424Y0447123D01*
X0161248Y0445947D01*
X0160611Y0444410D01*
X0160611Y0442747D01*
X0161248Y0441210D01*
X0162424Y0440034D01*
X0163960Y0439398D01*
X0165624Y0439398D01*
X0167161Y0440034D01*
X0168337Y0441210D01*
X0168973Y0442747D01*
X0168973Y0444410D01*
X0168337Y0445947D01*
X0167161Y0447123D01*
X0165624Y0447760D01*
X0163960Y0447760D01*
X0161067Y0445512D02*
X0151031Y0445512D01*
X0151014Y0445553D02*
X0149838Y0446730D01*
X0148301Y0447366D01*
X0146638Y0447366D01*
X0145101Y0446730D01*
X0143925Y0445553D01*
X0143288Y0444017D01*
X0143288Y0442353D01*
X0143925Y0440817D01*
X0145101Y0439640D01*
X0146638Y0439004D01*
X0148301Y0439004D01*
X0149838Y0439640D01*
X0151014Y0440817D01*
X0151650Y0442353D01*
X0151650Y0444017D01*
X0151014Y0445553D01*
X0151650Y0443114D02*
X0160611Y0443114D01*
X0161743Y0440715D02*
X0150912Y0440715D01*
X0150269Y0436736D02*
X0148606Y0436736D01*
X0147069Y0436100D01*
X0145893Y0434924D01*
X0145257Y0433387D01*
X0145257Y0431723D01*
X0145893Y0430187D01*
X0147069Y0429011D01*
X0148606Y0428374D01*
X0148776Y0428374D01*
X0148406Y0427481D01*
X0148406Y0425818D01*
X0149043Y0424281D01*
X0150219Y0423105D01*
X0151756Y0422469D01*
X0153419Y0422469D01*
X0154956Y0423105D01*
X0156132Y0424281D01*
X0156768Y0425818D01*
X0156768Y0427481D01*
X0156132Y0429018D01*
X0154956Y0430194D01*
X0153419Y0430831D01*
X0153249Y0430831D01*
X0153619Y0431723D01*
X0153619Y0433387D01*
X0152982Y0434924D01*
X0151806Y0436100D01*
X0150269Y0436736D01*
X0151988Y0435918D02*
X0203724Y0435918D01*
X0203724Y0433520D02*
X0170280Y0433520D01*
X0170704Y0433344D02*
X0169167Y0433980D01*
X0167504Y0433980D01*
X0165967Y0433344D01*
X0164791Y0432168D01*
X0164154Y0430631D01*
X0164154Y0428968D01*
X0164791Y0427431D01*
X0165967Y0426255D01*
X0167504Y0425618D01*
X0169167Y0425618D01*
X0170704Y0426255D01*
X0171880Y0427431D01*
X0172517Y0428968D01*
X0172517Y0430631D01*
X0171880Y0432168D01*
X0170704Y0433344D01*
X0172314Y0431121D02*
X0203724Y0431121D01*
X0203724Y0428722D02*
X0172415Y0428722D01*
X0170773Y0426324D02*
X0203724Y0426324D01*
X0203724Y0423925D02*
X0155776Y0423925D01*
X0156768Y0426324D02*
X0165898Y0426324D01*
X0164256Y0428722D02*
X0156254Y0428722D01*
X0153369Y0431121D02*
X0164357Y0431121D01*
X0166391Y0433520D02*
X0153564Y0433520D01*
X0146888Y0435918D02*
X0107687Y0435918D01*
X0108154Y0438317D02*
X0203724Y0438317D01*
X0203724Y0440715D02*
X0167841Y0440715D01*
X0168973Y0443114D02*
X0203724Y0443114D01*
X0203724Y0445512D02*
X0168517Y0445512D01*
X0170582Y0452708D02*
X0203724Y0452708D01*
X0203724Y0455106D02*
X0171729Y0455106D01*
X0171279Y0457505D02*
X0203724Y0457505D01*
X0203724Y0450309D02*
X0103096Y0450309D01*
X0101415Y0447911D02*
X0203724Y0447911D01*
X0203724Y0421527D02*
X0137239Y0421527D01*
X0137234Y0421538D02*
X0136058Y0422714D01*
X0134521Y0423350D01*
X0132858Y0423350D01*
X0131321Y0422714D01*
X0130145Y0421538D01*
X0129509Y0420001D01*
X0129509Y0418338D01*
X0130145Y0416801D01*
X0131321Y0415625D01*
X0132858Y0414988D01*
X0134521Y0414988D01*
X0136058Y0415625D01*
X0137234Y0416801D01*
X0137871Y0418338D01*
X0137871Y0420001D01*
X0137234Y0421538D01*
X0137871Y0419128D02*
X0203724Y0419128D01*
X0203724Y0416730D02*
X0137163Y0416730D01*
X0130216Y0416730D02*
X0118077Y0416730D01*
X0117943Y0416407D02*
X0118580Y0417944D01*
X0118580Y0419607D01*
X0117943Y0421144D01*
X0116767Y0422320D01*
X0115230Y0422957D01*
X0113567Y0422957D01*
X0112030Y0422320D01*
X0110854Y0421144D01*
X0110217Y0419607D01*
X0110217Y0417944D01*
X0110854Y0416407D01*
X0112030Y0415231D01*
X0113567Y0414594D01*
X0115230Y0414594D01*
X0116767Y0415231D01*
X0117943Y0416407D01*
X0118580Y0419128D02*
X0129509Y0419128D01*
X0130141Y0421527D02*
X0117560Y0421527D01*
X0111237Y0421527D02*
X0103774Y0421527D01*
X0104389Y0423925D02*
X0149399Y0423925D01*
X0148406Y0426324D02*
X0106787Y0426324D01*
X0107156Y0426693D02*
X0107156Y0426693D01*
X0108524Y0428722D02*
X0147765Y0428722D01*
X0145506Y0431121D02*
X0108543Y0431121D01*
X0108543Y0433520D02*
X0145312Y0433520D01*
X0144026Y0440715D02*
X0127906Y0440715D01*
X0127786Y0440423D02*
X0128422Y0441960D01*
X0128422Y0443623D01*
X0127786Y0445160D01*
X0126609Y0446336D01*
X0125073Y0446972D01*
X0123409Y0446972D01*
X0121873Y0446336D01*
X0120696Y0445160D01*
X0120060Y0443623D01*
X0120060Y0441960D01*
X0120696Y0440423D01*
X0121873Y0439247D01*
X0123409Y0438610D01*
X0125073Y0438610D01*
X0126609Y0439247D01*
X0127786Y0440423D01*
X0128422Y0443114D02*
X0143288Y0443114D01*
X0143908Y0445512D02*
X0127433Y0445512D01*
X0121049Y0445512D02*
X0108536Y0445512D01*
X0110197Y0443114D02*
X0120060Y0443114D01*
X0120575Y0440715D02*
X0110122Y0440715D01*
X0105343Y0433736D02*
X0102194Y0436886D01*
X0105343Y0433736D02*
X0105343Y0429406D01*
X0102194Y0426256D01*
X0093532Y0426256D01*
X0092154Y0419366D01*
X0095431Y0416730D02*
X0096752Y0416730D01*
X0103699Y0416730D02*
X0110720Y0416730D01*
X0110217Y0419128D02*
X0104406Y0419128D01*
X0086446Y0419760D02*
X0081328Y0426256D01*
X0086446Y0431374D01*
X0082809Y0433520D02*
X0077835Y0433520D01*
X0077835Y0435918D02*
X0082101Y0435918D01*
X0079702Y0438317D02*
X0077835Y0438317D01*
X0071435Y0438317D02*
X0070359Y0438317D01*
X0071435Y0435918D02*
X0014449Y0435918D01*
X0014449Y0433520D02*
X0016043Y0433520D01*
X0014449Y0438317D02*
X0047280Y0438317D01*
X0047030Y0438420D02*
X0048567Y0437783D01*
X0050230Y0437783D01*
X0051767Y0438420D01*
X0052943Y0439596D01*
X0053580Y0441133D01*
X0053580Y0442796D01*
X0052943Y0444333D01*
X0051767Y0445509D01*
X0050230Y0446146D01*
X0048567Y0446146D01*
X0047030Y0445509D01*
X0045854Y0444333D01*
X0045217Y0442796D01*
X0045217Y0441133D01*
X0045854Y0439596D01*
X0047030Y0438420D01*
X0045390Y0440715D02*
X0025741Y0440715D01*
X0026257Y0443114D02*
X0045349Y0443114D01*
X0047037Y0445512D02*
X0025268Y0445512D01*
X0019910Y0451059D02*
X0019910Y0454720D01*
X0019910Y0451059D02*
X0011249Y0442398D01*
X0011249Y0393579D01*
X0020304Y0384524D01*
X0019007Y0390346D02*
X0025891Y0390346D01*
X0024784Y0392745D02*
X0016608Y0392745D01*
X0014449Y0395143D02*
X0025251Y0395143D01*
X0035265Y0388067D02*
X0035265Y0364445D01*
X0042351Y0357358D01*
X0042351Y0304602D01*
X0035186Y0297437D01*
X0033178Y0297437D01*
X0028958Y0299203D02*
X0021414Y0299203D01*
X0022056Y0299846D02*
X0022753Y0301527D01*
X0022753Y0303347D01*
X0022056Y0305028D01*
X0020769Y0306315D01*
X0019088Y0307012D01*
X0017268Y0307012D01*
X0015587Y0306315D01*
X0014300Y0305028D01*
X0013603Y0303347D01*
X0013603Y0301527D01*
X0014300Y0299846D01*
X0015587Y0298559D01*
X0017268Y0297862D01*
X0019088Y0297862D01*
X0020769Y0298559D01*
X0022056Y0299846D01*
X0022753Y0301601D02*
X0031277Y0301601D01*
X0032268Y0302862D02*
X0034088Y0302862D01*
X0035769Y0303559D01*
X0037056Y0304846D01*
X0037753Y0306527D01*
X0037753Y0308347D01*
X0037056Y0310028D01*
X0035769Y0311315D01*
X0034088Y0312012D01*
X0032268Y0312012D01*
X0030587Y0311315D01*
X0029300Y0310028D01*
X0028603Y0308347D01*
X0028603Y0306527D01*
X0029300Y0304846D01*
X0030587Y0303559D01*
X0032268Y0302862D01*
X0030145Y0304000D02*
X0022482Y0304000D01*
X0020569Y0306398D02*
X0028656Y0306398D01*
X0028790Y0308797D02*
X0021008Y0308797D01*
X0020769Y0308559D02*
X0022056Y0309846D01*
X0022753Y0311527D01*
X0022753Y0313347D01*
X0022056Y0315028D01*
X0020769Y0316315D01*
X0019088Y0317012D01*
X0017268Y0317012D01*
X0015587Y0316315D01*
X0014300Y0315028D01*
X0013603Y0313347D01*
X0013603Y0311527D01*
X0014300Y0309846D01*
X0015587Y0308559D01*
X0017268Y0307862D01*
X0019088Y0307862D01*
X0020769Y0308559D01*
X0022615Y0311195D02*
X0030467Y0311195D01*
X0035889Y0311195D02*
X0039151Y0311195D01*
X0039151Y0308797D02*
X0037566Y0308797D01*
X0037699Y0306398D02*
X0039151Y0306398D01*
X0037223Y0304000D02*
X0036211Y0304000D01*
X0041477Y0299203D02*
X0062380Y0299203D01*
X0062380Y0301601D02*
X0056680Y0301601D01*
X0056137Y0301058D02*
X0057313Y0302234D01*
X0057950Y0303771D01*
X0057950Y0305434D01*
X0057313Y0306971D01*
X0056137Y0308147D01*
X0054600Y0308783D01*
X0052937Y0308783D01*
X0051400Y0308147D01*
X0050224Y0306971D01*
X0049587Y0305434D01*
X0049587Y0303771D01*
X0050224Y0302234D01*
X0051400Y0301058D01*
X0052937Y0300421D01*
X0054600Y0300421D01*
X0056137Y0301058D01*
X0057950Y0304000D02*
X0062380Y0304000D01*
X0062380Y0306398D02*
X0057550Y0306398D01*
X0062380Y0308797D02*
X0045551Y0308797D01*
X0045551Y0311195D02*
X0062380Y0311195D01*
X0062380Y0313594D02*
X0045551Y0313594D01*
X0045551Y0315992D02*
X0060688Y0315992D01*
X0058289Y0318391D02*
X0045551Y0318391D01*
X0045551Y0320789D02*
X0056056Y0320789D01*
X0055687Y0323188D02*
X0045551Y0323188D01*
X0045551Y0325586D02*
X0055687Y0325586D01*
X0055687Y0327985D02*
X0045551Y0327985D01*
X0045551Y0330384D02*
X0055687Y0330384D01*
X0055687Y0332782D02*
X0045551Y0332782D01*
X0045551Y0335181D02*
X0055687Y0335181D01*
X0055687Y0337579D02*
X0045551Y0337579D01*
X0045551Y0339978D02*
X0055687Y0339978D01*
X0055687Y0342376D02*
X0045551Y0342376D01*
X0045551Y0344775D02*
X0055687Y0344775D01*
X0055687Y0347173D02*
X0045551Y0347173D01*
X0045551Y0349572D02*
X0055687Y0349572D01*
X0055687Y0351970D02*
X0045551Y0351970D01*
X0045551Y0354369D02*
X0055687Y0354369D01*
X0056920Y0356767D02*
X0050382Y0356767D01*
X0050269Y0356720D02*
X0051806Y0357357D01*
X0052982Y0358533D01*
X0053619Y0360070D01*
X0053619Y0361733D01*
X0052982Y0363270D01*
X0051806Y0364446D01*
X0050269Y0365083D01*
X0048606Y0365083D01*
X0047069Y0364446D01*
X0045893Y0363270D01*
X0045257Y0361733D01*
X0045257Y0360070D01*
X0045893Y0358533D01*
X0047069Y0357357D01*
X0048606Y0356720D01*
X0050269Y0356720D01*
X0048493Y0356767D02*
X0045551Y0356767D01*
X0045631Y0359166D02*
X0045066Y0359166D01*
X0045257Y0361564D02*
X0042671Y0361564D01*
X0040272Y0363963D02*
X0046586Y0363963D01*
X0038465Y0366361D02*
X0055266Y0366361D01*
X0055099Y0366763D02*
X0055736Y0365226D01*
X0056912Y0364050D01*
X0058449Y0363413D01*
X0060112Y0363413D01*
X0061649Y0364050D01*
X0062825Y0365226D01*
X0063461Y0366763D01*
X0063461Y0368426D01*
X0062825Y0369963D01*
X0061649Y0371139D01*
X0060112Y0371776D01*
X0058449Y0371776D01*
X0056912Y0371139D01*
X0055736Y0369963D01*
X0055099Y0368426D01*
X0055099Y0366763D01*
X0055237Y0368760D02*
X0038465Y0368760D01*
X0038465Y0371158D02*
X0056958Y0371158D01*
X0061602Y0371158D02*
X0073756Y0371158D01*
X0073690Y0373557D02*
X0038465Y0373557D01*
X0038465Y0375955D02*
X0050413Y0375955D01*
X0049981Y0378354D02*
X0038465Y0378354D01*
X0038465Y0380752D02*
X0043258Y0380752D01*
X0043365Y0380708D02*
X0045274Y0380708D01*
X0047039Y0381439D01*
X0048389Y0382789D01*
X0049120Y0384553D01*
X0049120Y0386463D01*
X0048389Y0388227D01*
X0047039Y0389577D01*
X0045274Y0390308D01*
X0043365Y0390308D01*
X0041601Y0389577D01*
X0040250Y0388227D01*
X0039520Y0386463D01*
X0039520Y0384553D01*
X0040250Y0382789D01*
X0041601Y0381439D01*
X0043365Y0380708D01*
X0045382Y0380752D02*
X0051171Y0380752D01*
X0050101Y0383151D02*
X0048539Y0383151D01*
X0049120Y0385549D02*
X0049520Y0385549D01*
X0050135Y0387948D02*
X0048505Y0387948D01*
X0048345Y0392745D02*
X0050295Y0392745D01*
X0049520Y0395143D02*
X0049120Y0395143D01*
X0049404Y0397542D02*
X0048673Y0397542D01*
X0050225Y0400665D02*
X0064398Y0400665D01*
X0065186Y0401453D01*
X0110461Y0401453D01*
X0114792Y0397122D01*
X0155737Y0397122D01*
X0176170Y0376689D01*
X0180265Y0376689D01*
X0184527Y0378354D02*
X0203724Y0378354D01*
X0203724Y0380752D02*
X0182409Y0380752D01*
X0181175Y0382114D02*
X0182856Y0382811D01*
X0184143Y0384098D01*
X0184839Y0385779D01*
X0184839Y0387599D01*
X0184143Y0389280D01*
X0182856Y0390567D01*
X0181175Y0391264D01*
X0179355Y0391264D01*
X0177673Y0390567D01*
X0176386Y0389280D01*
X0175690Y0387599D01*
X0175690Y0385779D01*
X0176386Y0384098D01*
X0177673Y0382811D01*
X0179355Y0382114D01*
X0181175Y0382114D01*
X0183196Y0383151D02*
X0203724Y0383151D01*
X0203724Y0385549D02*
X0184744Y0385549D01*
X0184695Y0387948D02*
X0203724Y0387948D01*
X0203724Y0390346D02*
X0183077Y0390346D01*
X0177452Y0390346D02*
X0167038Y0390346D01*
X0169437Y0387948D02*
X0175834Y0387948D01*
X0175785Y0385549D02*
X0171835Y0385549D01*
X0174234Y0383151D02*
X0177333Y0383151D01*
X0176632Y0380752D02*
X0178120Y0380752D01*
X0183602Y0373557D02*
X0203724Y0373557D01*
X0203724Y0375955D02*
X0184839Y0375955D01*
X0181429Y0371158D02*
X0203724Y0371158D01*
X0203724Y0368760D02*
X0184359Y0368760D01*
X0184839Y0366361D02*
X0203724Y0366361D01*
X0203724Y0363963D02*
X0184008Y0363963D01*
X0182856Y0360567D02*
X0181175Y0361264D01*
X0179355Y0361264D01*
X0177673Y0360567D01*
X0176386Y0359280D01*
X0175690Y0357599D01*
X0175690Y0355779D01*
X0176386Y0354098D01*
X0177673Y0352811D01*
X0179355Y0352114D01*
X0181175Y0352114D01*
X0182856Y0352811D01*
X0184143Y0354098D01*
X0184839Y0355779D01*
X0184839Y0357599D01*
X0184143Y0359280D01*
X0182856Y0360567D01*
X0184190Y0359166D02*
X0203724Y0359166D01*
X0203724Y0361564D02*
X0110925Y0361564D01*
X0108527Y0359166D02*
X0113590Y0359166D01*
X0113377Y0359077D02*
X0111971Y0357671D01*
X0111209Y0355833D01*
X0111209Y0353844D01*
X0111971Y0352006D01*
X0113377Y0350600D01*
X0115215Y0349839D01*
X0117204Y0349839D01*
X0119042Y0350600D01*
X0120448Y0352006D01*
X0121209Y0353844D01*
X0121209Y0355833D01*
X0120448Y0357671D01*
X0119042Y0359077D01*
X0117204Y0359839D01*
X0115215Y0359839D01*
X0113377Y0359077D01*
X0111596Y0356767D02*
X0104839Y0356767D01*
X0104255Y0354369D02*
X0111209Y0354369D01*
X0112007Y0351970D02*
X0091095Y0351970D01*
X0089646Y0349572D02*
X0096677Y0349572D01*
X0096386Y0349280D02*
X0095690Y0347599D01*
X0095690Y0345779D01*
X0096386Y0344098D01*
X0097673Y0342811D01*
X0099355Y0342114D01*
X0101175Y0342114D01*
X0102856Y0342811D01*
X0104143Y0344098D01*
X0104839Y0345779D01*
X0104839Y0347599D01*
X0104143Y0349280D01*
X0102856Y0350567D01*
X0101175Y0351264D01*
X0099355Y0351264D01*
X0097673Y0350567D01*
X0096386Y0349280D01*
X0095690Y0347173D02*
X0089646Y0347173D01*
X0089646Y0344775D02*
X0096106Y0344775D01*
X0098722Y0342376D02*
X0089646Y0342376D01*
X0089559Y0339978D02*
X0112191Y0339978D01*
X0112168Y0339954D02*
X0111406Y0338117D01*
X0111406Y0336127D01*
X0112168Y0334290D01*
X0113574Y0332883D01*
X0115412Y0332122D01*
X0117401Y0332122D01*
X0119239Y0332883D01*
X0120645Y0334290D01*
X0121406Y0336127D01*
X0121406Y0338117D01*
X0120645Y0339954D01*
X0119239Y0341361D01*
X0117401Y0342122D01*
X0115412Y0342122D01*
X0113574Y0341361D01*
X0112168Y0339954D01*
X0111406Y0337579D02*
X0087727Y0337579D01*
X0086446Y0340823D02*
X0086446Y0351846D01*
X0096288Y0361689D01*
X0106524Y0361689D01*
X0110068Y0365232D01*
X0119123Y0365232D01*
X0127391Y0373500D01*
X0131572Y0373557D02*
X0159594Y0373557D01*
X0159742Y0373618D02*
X0157905Y0372857D01*
X0156498Y0371450D01*
X0155737Y0369613D01*
X0155737Y0367624D01*
X0156498Y0365786D01*
X0157905Y0364379D01*
X0159742Y0363618D01*
X0161732Y0363618D01*
X0163569Y0364379D01*
X0164976Y0365786D01*
X0165737Y0367624D01*
X0165737Y0369613D01*
X0164976Y0371450D01*
X0163569Y0372857D01*
X0161732Y0373618D01*
X0159742Y0373618D01*
X0161880Y0373557D02*
X0166509Y0373557D01*
X0165097Y0371158D02*
X0168908Y0371158D01*
X0171306Y0368760D02*
X0165737Y0368760D01*
X0165214Y0366361D02*
X0173705Y0366361D01*
X0176122Y0363963D02*
X0162563Y0363963D01*
X0158911Y0363963D02*
X0122379Y0363963D01*
X0124777Y0366361D02*
X0156260Y0366361D01*
X0155737Y0368760D02*
X0127176Y0368760D01*
X0130946Y0371158D02*
X0156377Y0371158D01*
X0164111Y0375955D02*
X0130848Y0375955D01*
X0123933Y0375955D02*
X0120668Y0375955D01*
X0121682Y0373557D02*
X0122922Y0373557D01*
X0113721Y0368760D02*
X0104359Y0368760D01*
X0104839Y0366361D02*
X0106671Y0366361D01*
X0101429Y0371158D02*
X0111979Y0371158D01*
X0111682Y0373557D02*
X0103602Y0373557D01*
X0104839Y0375955D02*
X0112696Y0375955D01*
X0104527Y0378354D02*
X0161712Y0378354D01*
X0159314Y0380752D02*
X0151989Y0380752D01*
X0153217Y0383151D02*
X0156915Y0383151D01*
X0154517Y0385549D02*
X0153009Y0385549D01*
X0152118Y0387948D02*
X0151392Y0387948D01*
X0152981Y0391610D02*
X0126209Y0391610D01*
X0125422Y0392398D01*
X0114101Y0402339D02*
X0191112Y0402339D01*
X0190926Y0401891D02*
X0190926Y0400227D01*
X0191563Y0398691D01*
X0192739Y0397514D01*
X0194275Y0396878D01*
X0195939Y0396878D01*
X0197475Y0397514D01*
X0198652Y0398691D01*
X0199288Y0400227D01*
X0199288Y0401891D01*
X0198652Y0403427D01*
X0197475Y0404604D01*
X0195939Y0405240D01*
X0194275Y0405240D01*
X0192739Y0404604D01*
X0191563Y0403427D01*
X0190926Y0401891D01*
X0191045Y0399940D02*
X0157295Y0399940D01*
X0159843Y0397542D02*
X0164023Y0397542D01*
X0162973Y0395143D02*
X0162241Y0395143D01*
X0170285Y0397542D02*
X0192711Y0397542D01*
X0197503Y0397542D02*
X0203724Y0397542D01*
X0203724Y0399940D02*
X0199169Y0399940D01*
X0199103Y0402339D02*
X0203724Y0402339D01*
X0203724Y0404737D02*
X0197153Y0404737D01*
X0193062Y0404737D02*
X0052244Y0404737D01*
X0052244Y0407136D02*
X0203724Y0407136D01*
X0203724Y0409534D02*
X0052244Y0409534D01*
X0052244Y0411933D02*
X0203724Y0411933D01*
X0203724Y0414331D02*
X0051936Y0414331D01*
X0049970Y0416730D02*
X0067224Y0416730D01*
X0065729Y0419128D02*
X0048767Y0419128D01*
X0047088Y0421527D02*
X0058888Y0421527D01*
X0067494Y0431121D02*
X0025405Y0431121D01*
X0023778Y0433520D02*
X0069892Y0433520D01*
X0066312Y0438317D02*
X0062403Y0438317D01*
X0059071Y0438317D02*
X0051517Y0438317D01*
X0053406Y0440715D02*
X0056432Y0440715D01*
X0055965Y0443114D02*
X0053448Y0443114D01*
X0051760Y0445512D02*
X0056710Y0445512D01*
X0056600Y0450309D02*
X0043469Y0450309D01*
X0045861Y0452708D02*
X0055965Y0452708D01*
X0056531Y0455106D02*
X0046111Y0455106D01*
X0044574Y0457505D02*
X0059647Y0457505D01*
X0056363Y0464700D02*
X0039425Y0464700D01*
X0039440Y0464706D02*
X0040790Y0466057D01*
X0041521Y0467821D01*
X0041521Y0469730D01*
X0040790Y0471495D01*
X0039440Y0472845D01*
X0037676Y0473576D01*
X0035766Y0473576D01*
X0034002Y0472845D01*
X0032652Y0471495D01*
X0031921Y0469730D01*
X0031921Y0467821D01*
X0032652Y0466057D01*
X0034002Y0464706D01*
X0035766Y0463976D01*
X0037676Y0463976D01*
X0039440Y0464706D01*
X0041222Y0467099D02*
X0058667Y0467099D01*
X0062807Y0467099D02*
X0064942Y0467099D01*
X0065111Y0464700D02*
X0065710Y0464700D01*
X0065548Y0469497D02*
X0041521Y0469497D01*
X0040389Y0471896D02*
X0083246Y0471896D01*
X0086446Y0477043D02*
X0086446Y0459720D01*
X0084083Y0457358D01*
X0079359Y0457358D01*
X0074635Y0452634D01*
X0071435Y0445512D02*
X0070740Y0445512D01*
X0065931Y0445512D02*
X0064764Y0445512D01*
X0076545Y0431121D02*
X0081667Y0431121D01*
X0079269Y0428722D02*
X0074146Y0428722D01*
X0073110Y0426324D02*
X0078113Y0426324D01*
X0079090Y0423925D02*
X0073110Y0423925D01*
X0073785Y0421527D02*
X0080980Y0421527D01*
X0082265Y0419128D02*
X0074091Y0419128D01*
X0072596Y0416730D02*
X0083563Y0416730D01*
X0079967Y0397542D02*
X0078673Y0397542D01*
X0079120Y0395143D02*
X0079520Y0395143D01*
X0080295Y0392745D02*
X0078345Y0392745D01*
X0078466Y0390346D02*
X0042069Y0390346D01*
X0040135Y0387948D02*
X0039671Y0387948D01*
X0039520Y0385549D02*
X0038465Y0385549D01*
X0038465Y0383151D02*
X0040101Y0383151D01*
X0035265Y0388067D02*
X0042706Y0395508D01*
X0044320Y0395508D01*
X0050225Y0400665D02*
X0049044Y0401846D01*
X0049044Y0412870D01*
X0044713Y0417988D01*
X0059120Y0395143D02*
X0059520Y0395143D01*
X0060295Y0392745D02*
X0058345Y0392745D01*
X0058505Y0387948D02*
X0060135Y0387948D01*
X0059520Y0385549D02*
X0059120Y0385549D01*
X0054320Y0385508D02*
X0060422Y0379406D01*
X0057911Y0375955D02*
X0075226Y0375955D01*
X0072272Y0367594D02*
X0086446Y0367594D01*
X0091957Y0373106D01*
X0091957Y0379012D01*
X0088020Y0382949D01*
X0086879Y0382949D01*
X0084320Y0385508D01*
X0077773Y0389653D02*
X0077773Y0389653D01*
X0070135Y0387948D02*
X0068505Y0387948D01*
X0069120Y0385549D02*
X0069520Y0385549D01*
X0070101Y0383151D02*
X0068539Y0383151D01*
X0068345Y0392745D02*
X0070295Y0392745D01*
X0069520Y0395143D02*
X0069120Y0395143D01*
X0068673Y0397542D02*
X0069967Y0397542D01*
X0068912Y0368760D02*
X0063323Y0368760D01*
X0063295Y0366361D02*
X0066514Y0366361D01*
X0064115Y0363963D02*
X0061438Y0363963D01*
X0061717Y0361564D02*
X0053619Y0361564D01*
X0053244Y0359166D02*
X0059318Y0359166D01*
X0058887Y0354209D02*
X0072272Y0367594D01*
X0073166Y0363963D02*
X0073858Y0363963D01*
X0073603Y0361564D02*
X0070768Y0361564D01*
X0068369Y0359166D02*
X0074980Y0359166D01*
X0075587Y0356315D02*
X0074300Y0355028D01*
X0073603Y0353347D01*
X0073603Y0351527D01*
X0074300Y0349846D01*
X0075587Y0348559D01*
X0077268Y0347862D01*
X0079088Y0347862D01*
X0080769Y0348559D01*
X0082056Y0349846D01*
X0082753Y0351527D01*
X0082753Y0353347D01*
X0082056Y0355028D01*
X0080769Y0356315D01*
X0079088Y0357012D01*
X0077268Y0357012D01*
X0075587Y0356315D01*
X0076677Y0356767D02*
X0065971Y0356767D01*
X0066302Y0354369D02*
X0074026Y0354369D01*
X0073603Y0351970D02*
X0068696Y0351970D01*
X0068946Y0349572D02*
X0074574Y0349572D01*
X0074194Y0344775D02*
X0062087Y0344775D01*
X0062087Y0347173D02*
X0062175Y0347173D01*
X0062087Y0342376D02*
X0073603Y0342376D01*
X0070445Y0339978D02*
X0062087Y0339978D01*
X0062087Y0337579D02*
X0068046Y0337579D01*
X0065648Y0335181D02*
X0062087Y0335181D01*
X0062087Y0332782D02*
X0064742Y0332782D01*
X0064742Y0330384D02*
X0062087Y0330384D01*
X0067942Y0330980D02*
X0067942Y0332949D01*
X0072666Y0337673D01*
X0083296Y0337673D01*
X0086446Y0340823D01*
X0083246Y0342376D02*
X0082753Y0342376D01*
X0083246Y0344775D02*
X0082161Y0344775D01*
X0083246Y0347173D02*
X0067410Y0347173D01*
X0058887Y0354209D02*
X0058887Y0322319D01*
X0065580Y0315626D01*
X0065580Y0297516D01*
X0054556Y0286492D01*
X0054556Y0262476D01*
X0058398Y0260827D02*
X0060017Y0260827D01*
X0060017Y0263225D02*
X0058737Y0263225D01*
X0057756Y0265624D02*
X0060405Y0265624D01*
X0063217Y0264051D02*
X0063217Y0252476D01*
X0063178Y0252437D01*
X0060311Y0248834D02*
X0056045Y0248834D01*
X0055769Y0248559D02*
X0057056Y0249846D01*
X0057753Y0251527D01*
X0057753Y0253347D01*
X0057056Y0255028D01*
X0055769Y0256315D01*
X0054088Y0257012D01*
X0052268Y0257012D01*
X0050587Y0256315D01*
X0049300Y0255028D01*
X0048603Y0253347D01*
X0048603Y0251527D01*
X0049300Y0249846D01*
X0050587Y0248559D01*
X0052268Y0247862D01*
X0054088Y0247862D01*
X0055769Y0248559D01*
X0057631Y0251233D02*
X0058725Y0251233D01*
X0058721Y0253631D02*
X0057635Y0253631D01*
X0056055Y0256030D02*
X0060017Y0256030D01*
X0060017Y0258428D02*
X0055708Y0258428D01*
X0053403Y0258428D02*
X0049409Y0258428D01*
X0047104Y0258428D02*
X0020454Y0258428D01*
X0020769Y0258559D02*
X0022056Y0259846D01*
X0022753Y0261527D01*
X0022753Y0263347D01*
X0022056Y0265028D01*
X0020769Y0266315D01*
X0019088Y0267012D01*
X0017268Y0267012D01*
X0015587Y0266315D01*
X0014300Y0265028D01*
X0013603Y0263347D01*
X0013603Y0261527D01*
X0014300Y0259846D01*
X0015587Y0258559D01*
X0017268Y0257862D01*
X0019088Y0257862D01*
X0020769Y0258559D01*
X0022268Y0257012D02*
X0020587Y0256315D01*
X0019300Y0255028D01*
X0018603Y0253347D01*
X0018603Y0251527D01*
X0019300Y0249846D01*
X0020587Y0248559D01*
X0022268Y0247862D01*
X0024088Y0247862D01*
X0025769Y0248559D01*
X0027056Y0249846D01*
X0027753Y0251527D01*
X0027753Y0253347D01*
X0027056Y0255028D01*
X0025769Y0256315D01*
X0024088Y0257012D01*
X0022268Y0257012D01*
X0020301Y0256030D02*
X0004600Y0256030D01*
X0004600Y0258428D02*
X0015902Y0258428D01*
X0013893Y0260827D02*
X0004600Y0260827D01*
X0004600Y0263225D02*
X0013603Y0263225D01*
X0014895Y0265624D02*
X0004600Y0265624D01*
X0004600Y0268022D02*
X0016882Y0268022D01*
X0017268Y0267862D02*
X0019088Y0267862D01*
X0020769Y0268559D01*
X0022056Y0269846D01*
X0022753Y0271527D01*
X0022753Y0273347D01*
X0022056Y0275028D01*
X0020769Y0276315D01*
X0019088Y0277012D01*
X0017268Y0277012D01*
X0015587Y0276315D01*
X0014300Y0275028D01*
X0013603Y0273347D01*
X0013603Y0271527D01*
X0014300Y0269846D01*
X0015587Y0268559D01*
X0017268Y0267862D01*
X0019474Y0268022D02*
X0051356Y0268022D01*
X0051356Y0265624D02*
X0051022Y0265624D01*
X0051356Y0270421D02*
X0022295Y0270421D01*
X0022753Y0272819D02*
X0051356Y0272819D01*
X0051356Y0275218D02*
X0021867Y0275218D01*
X0020769Y0278559D02*
X0022056Y0279846D01*
X0022753Y0281527D01*
X0022753Y0283347D01*
X0022056Y0285028D01*
X0020769Y0286315D01*
X0019088Y0287012D01*
X0017268Y0287012D01*
X0015587Y0286315D01*
X0014300Y0285028D01*
X0013603Y0283347D01*
X0013603Y0281527D01*
X0014300Y0279846D01*
X0015587Y0278559D01*
X0017268Y0277862D01*
X0019088Y0277862D01*
X0020769Y0278559D01*
X0022126Y0280015D02*
X0038564Y0280015D01*
X0038564Y0279361D02*
X0039200Y0277825D01*
X0040376Y0276648D01*
X0041913Y0276012D01*
X0043577Y0276012D01*
X0045113Y0276648D01*
X0046289Y0277825D01*
X0046926Y0279361D01*
X0046926Y0281025D01*
X0046289Y0282561D01*
X0045113Y0283737D01*
X0043577Y0284374D01*
X0041913Y0284374D01*
X0040376Y0283737D01*
X0039200Y0282561D01*
X0038564Y0281025D01*
X0038564Y0279361D01*
X0039409Y0277616D02*
X0004600Y0277616D01*
X0004600Y0275218D02*
X0014489Y0275218D01*
X0013603Y0272819D02*
X0004600Y0272819D01*
X0004600Y0270421D02*
X0014061Y0270421D01*
X0014230Y0280015D02*
X0004600Y0280015D01*
X0004600Y0282413D02*
X0013603Y0282413D01*
X0014210Y0284812D02*
X0004600Y0284812D01*
X0004600Y0287210D02*
X0051390Y0287210D01*
X0051356Y0284812D02*
X0022146Y0284812D01*
X0022753Y0282413D02*
X0039139Y0282413D01*
X0046351Y0282413D02*
X0051356Y0282413D01*
X0051356Y0280015D02*
X0046926Y0280015D01*
X0046081Y0277616D02*
X0051356Y0277616D01*
X0057756Y0277616D02*
X0063561Y0277616D01*
X0063561Y0275218D02*
X0057756Y0275218D01*
X0057756Y0272819D02*
X0063561Y0272819D01*
X0063561Y0270421D02*
X0057756Y0270421D01*
X0057756Y0268022D02*
X0062663Y0268022D01*
X0063217Y0264051D02*
X0066761Y0267594D01*
X0066761Y0292004D01*
X0071879Y0297122D01*
X0085658Y0297122D01*
X0087627Y0295154D01*
X0097469Y0295154D01*
X0101311Y0296804D02*
X0149713Y0296804D01*
X0147314Y0294406D02*
X0101650Y0294406D01*
X0100236Y0292007D02*
X0144916Y0292007D01*
X0142517Y0289609D02*
X0081820Y0289609D01*
X0082753Y0292007D02*
X0086860Y0292007D01*
X0088103Y0299203D02*
X0096320Y0299203D01*
X0098619Y0299203D02*
X0152111Y0299203D01*
X0154510Y0301601D02*
X0082753Y0301601D01*
X0082482Y0304000D02*
X0083891Y0304000D01*
X0084077Y0303814D02*
X0085614Y0303177D01*
X0087277Y0303177D01*
X0088814Y0303814D01*
X0089990Y0304990D01*
X0090627Y0306527D01*
X0090627Y0308190D01*
X0089990Y0309727D01*
X0088814Y0310903D01*
X0087277Y0311539D01*
X0085614Y0311539D01*
X0084077Y0310903D01*
X0082901Y0309727D01*
X0082265Y0308190D01*
X0082265Y0306527D01*
X0082901Y0304990D01*
X0084077Y0303814D01*
X0082318Y0306398D02*
X0080569Y0306398D01*
X0079088Y0307862D02*
X0080769Y0308559D01*
X0082056Y0309846D01*
X0082753Y0311527D01*
X0082753Y0313347D01*
X0082056Y0315028D01*
X0080769Y0316315D01*
X0079088Y0317012D01*
X0077268Y0317012D01*
X0075587Y0316315D01*
X0074300Y0315028D01*
X0073603Y0313347D01*
X0073603Y0311527D01*
X0074300Y0309846D01*
X0075587Y0308559D01*
X0077268Y0307862D01*
X0079088Y0307862D01*
X0081008Y0308797D02*
X0082516Y0308797D01*
X0082615Y0311195D02*
X0084784Y0311195D01*
X0082650Y0313594D02*
X0162773Y0313594D01*
X0162773Y0315992D02*
X0081092Y0315992D01*
X0080364Y0318391D02*
X0162773Y0318391D01*
X0162773Y0320789D02*
X0082447Y0320789D01*
X0082753Y0323188D02*
X0162773Y0323188D01*
X0162773Y0325586D02*
X0081498Y0325586D01*
X0079384Y0327985D02*
X0096233Y0327985D01*
X0096244Y0327980D02*
X0097907Y0327980D01*
X0099444Y0328617D01*
X0100620Y0329793D01*
X0101257Y0331330D01*
X0101257Y0332993D01*
X0100620Y0334530D01*
X0099444Y0335706D01*
X0097907Y0336343D01*
X0096244Y0336343D01*
X0094707Y0335706D01*
X0093531Y0334530D01*
X0092894Y0332993D01*
X0092894Y0331330D01*
X0093531Y0329793D01*
X0094707Y0328617D01*
X0096244Y0327980D01*
X0097919Y0327985D02*
X0162773Y0327985D01*
X0162773Y0330384D02*
X0100865Y0330384D01*
X0101257Y0332782D02*
X0113818Y0332782D01*
X0111799Y0335181D02*
X0099969Y0335181D01*
X0094182Y0335181D02*
X0090521Y0335181D01*
X0091414Y0332782D02*
X0092894Y0332782D01*
X0093286Y0330384D02*
X0090859Y0330384D01*
X0083607Y0330384D02*
X0082279Y0330384D01*
X0082753Y0332782D02*
X0083052Y0332782D01*
X0076971Y0327985D02*
X0075463Y0327985D01*
X0074077Y0330384D02*
X0073064Y0330384D01*
X0073603Y0332782D02*
X0072300Y0332782D01*
X0067942Y0330980D02*
X0076485Y0322437D01*
X0078178Y0322437D01*
X0075991Y0318391D02*
X0067340Y0318391D01*
X0068780Y0315992D02*
X0075264Y0315992D01*
X0073705Y0313594D02*
X0068780Y0313594D01*
X0068780Y0311195D02*
X0073740Y0311195D01*
X0075348Y0308797D02*
X0068780Y0308797D01*
X0068780Y0306398D02*
X0075787Y0306398D01*
X0073874Y0304000D02*
X0068780Y0304000D01*
X0068780Y0301601D02*
X0073603Y0301601D01*
X0069434Y0299203D02*
X0068780Y0299203D01*
X0071290Y0292007D02*
X0073603Y0292007D01*
X0074536Y0289609D02*
X0069961Y0289609D01*
X0069961Y0287210D02*
X0140119Y0287210D01*
X0137720Y0284812D02*
X0106735Y0284812D01*
X0106526Y0285317D02*
X0105349Y0286493D01*
X0103813Y0287130D01*
X0102149Y0287130D01*
X0100613Y0286493D01*
X0099437Y0285317D01*
X0098800Y0283780D01*
X0098800Y0282117D01*
X0099153Y0281265D01*
X0098301Y0281618D01*
X0096638Y0281618D01*
X0095101Y0280982D01*
X0093925Y0279805D01*
X0093288Y0278269D01*
X0093288Y0276605D01*
X0093925Y0275069D01*
X0095101Y0273892D01*
X0096638Y0273256D01*
X0098301Y0273256D01*
X0099838Y0273892D01*
X0101014Y0275069D01*
X0101650Y0276605D01*
X0101650Y0278269D01*
X0101298Y0279121D01*
X0102149Y0278768D01*
X0103813Y0278768D01*
X0105349Y0279404D01*
X0106526Y0280580D01*
X0107162Y0282117D01*
X0107162Y0283780D01*
X0106526Y0285317D01*
X0107162Y0282413D02*
X0114849Y0282413D01*
X0112451Y0280015D02*
X0105960Y0280015D01*
X0110052Y0277616D02*
X0101650Y0277616D01*
X0101076Y0275218D02*
X0107654Y0275218D01*
X0105255Y0272819D02*
X0082753Y0272819D01*
X0082753Y0273347D02*
X0082056Y0275028D01*
X0080769Y0276315D01*
X0079088Y0277012D01*
X0077268Y0277012D01*
X0075587Y0276315D01*
X0074300Y0275028D01*
X0073603Y0273347D01*
X0073603Y0271527D01*
X0074300Y0269846D01*
X0075587Y0268559D01*
X0077268Y0267862D01*
X0079088Y0267862D01*
X0080769Y0268559D01*
X0082056Y0269846D01*
X0082753Y0271527D01*
X0082753Y0273347D01*
X0084077Y0273892D02*
X0085614Y0273256D01*
X0087277Y0273256D01*
X0088814Y0273892D01*
X0089990Y0275069D01*
X0090627Y0276605D01*
X0090627Y0278269D01*
X0089990Y0279805D01*
X0088814Y0280982D01*
X0087277Y0281618D01*
X0085614Y0281618D01*
X0084077Y0280982D01*
X0082901Y0279805D01*
X0082265Y0278269D01*
X0082265Y0276605D01*
X0082901Y0275069D01*
X0084077Y0273892D01*
X0082839Y0275218D02*
X0081867Y0275218D01*
X0082265Y0277616D02*
X0069961Y0277616D01*
X0069961Y0275218D02*
X0074489Y0275218D01*
X0073603Y0272819D02*
X0069961Y0272819D01*
X0069961Y0270421D02*
X0074061Y0270421D01*
X0076882Y0268022D02*
X0069961Y0268022D01*
X0069315Y0265624D02*
X0074895Y0265624D01*
X0074300Y0265028D02*
X0073603Y0263347D01*
X0073603Y0261527D01*
X0074300Y0259846D01*
X0075587Y0258559D01*
X0077268Y0257862D01*
X0079088Y0257862D01*
X0080769Y0258559D01*
X0082056Y0259846D01*
X0082753Y0261527D01*
X0082753Y0263347D01*
X0082056Y0265028D01*
X0080769Y0266315D01*
X0079088Y0267012D01*
X0077268Y0267012D01*
X0075587Y0266315D01*
X0074300Y0265028D01*
X0073603Y0263225D02*
X0071137Y0263225D01*
X0072123Y0260827D02*
X0073893Y0260827D01*
X0075902Y0258428D02*
X0071606Y0258428D01*
X0067942Y0260508D02*
X0067942Y0243579D01*
X0071091Y0240429D01*
X0080146Y0240429D01*
X0083118Y0239240D02*
X0131313Y0239240D01*
X0131158Y0241639D02*
X0088056Y0241639D01*
X0085265Y0244760D02*
X0085461Y0244957D01*
X0137627Y0244957D01*
X0142784Y0249917D01*
X0145772Y0246436D02*
X0149796Y0246436D01*
X0150193Y0246039D02*
X0151874Y0245343D01*
X0153694Y0245343D01*
X0153721Y0245354D01*
X0153721Y0244322D01*
X0154358Y0242785D01*
X0155534Y0241609D01*
X0157071Y0240972D01*
X0158734Y0240972D01*
X0160271Y0241609D01*
X0161447Y0242785D01*
X0162083Y0244322D01*
X0162083Y0245343D01*
X0163694Y0245343D01*
X0165376Y0246039D01*
X0166663Y0247326D01*
X0167359Y0249007D01*
X0167359Y0250827D01*
X0166663Y0252509D01*
X0165376Y0253796D01*
X0163694Y0254492D01*
X0161874Y0254492D01*
X0160193Y0253796D01*
X0158906Y0252509D01*
X0158209Y0250827D01*
X0158209Y0249335D01*
X0157359Y0249335D01*
X0157359Y0250827D01*
X0156663Y0252509D01*
X0155376Y0253796D01*
X0153694Y0254492D01*
X0151874Y0254492D01*
X0150193Y0253796D01*
X0148906Y0252509D01*
X0148209Y0250827D01*
X0148209Y0249007D01*
X0148906Y0247326D01*
X0150193Y0246039D01*
X0148281Y0248834D02*
X0147287Y0248834D01*
X0147191Y0251233D02*
X0148377Y0251233D01*
X0150028Y0253631D02*
X0145540Y0253631D01*
X0140028Y0253631D02*
X0135540Y0253631D01*
X0137191Y0251233D02*
X0138377Y0251233D01*
X0138852Y0258295D02*
X0140389Y0258932D01*
X0141565Y0260108D01*
X0142202Y0261645D01*
X0142202Y0263308D01*
X0141565Y0264845D01*
X0140389Y0266021D01*
X0138852Y0266657D01*
X0137189Y0266657D01*
X0135652Y0266021D01*
X0134476Y0264845D01*
X0133839Y0263308D01*
X0133839Y0261645D01*
X0134476Y0260108D01*
X0135652Y0258932D01*
X0137189Y0258295D01*
X0138852Y0258295D01*
X0139173Y0258428D02*
X0203724Y0258428D01*
X0203724Y0256030D02*
X0124190Y0256030D01*
X0125949Y0253631D02*
X0130028Y0253631D01*
X0128377Y0251233D02*
X0127191Y0251233D01*
X0127287Y0248834D02*
X0128281Y0248834D01*
X0122784Y0249917D02*
X0122784Y0252909D01*
X0114792Y0260902D01*
X0114792Y0262870D01*
X0111643Y0266020D01*
X0115339Y0268022D02*
X0203724Y0268022D01*
X0203724Y0265624D02*
X0140786Y0265624D01*
X0142202Y0263225D02*
X0203724Y0263225D01*
X0203724Y0260827D02*
X0141863Y0260827D01*
X0136868Y0258428D02*
X0121791Y0258428D01*
X0125355Y0260827D02*
X0134178Y0260827D01*
X0133839Y0263225D02*
X0126060Y0263225D01*
X0125427Y0265624D02*
X0135255Y0265624D01*
X0136795Y0268138D02*
X0135258Y0268774D01*
X0134082Y0269950D01*
X0133446Y0271487D01*
X0133446Y0273151D01*
X0134082Y0274687D01*
X0135258Y0275863D01*
X0136795Y0276500D01*
X0138458Y0276500D01*
X0139995Y0275863D01*
X0141171Y0274687D01*
X0141808Y0273151D01*
X0141808Y0271487D01*
X0141171Y0269950D01*
X0139995Y0268774D01*
X0138458Y0268138D01*
X0136795Y0268138D01*
X0133887Y0270421D02*
X0111908Y0270421D01*
X0114306Y0272819D02*
X0133446Y0272819D01*
X0134613Y0275218D02*
X0116705Y0275218D01*
X0119103Y0277616D02*
X0203724Y0277616D01*
X0203724Y0275218D02*
X0140641Y0275218D01*
X0141808Y0272819D02*
X0203724Y0272819D01*
X0203724Y0270421D02*
X0141366Y0270421D01*
X0141974Y0280015D02*
X0203724Y0280015D01*
X0203724Y0282413D02*
X0144373Y0282413D01*
X0146771Y0284812D02*
X0203724Y0284812D01*
X0203724Y0287210D02*
X0149170Y0287210D01*
X0151568Y0289609D02*
X0203724Y0289609D01*
X0203724Y0292007D02*
X0153967Y0292007D01*
X0156365Y0294406D02*
X0203724Y0294406D01*
X0203724Y0296804D02*
X0158764Y0296804D01*
X0161162Y0299203D02*
X0203724Y0299203D01*
X0203724Y0301601D02*
X0163561Y0301601D01*
X0165959Y0304000D02*
X0203724Y0304000D01*
X0203724Y0306398D02*
X0168358Y0306398D01*
X0169173Y0308797D02*
X0203724Y0308797D01*
X0203724Y0311195D02*
X0169173Y0311195D01*
X0169173Y0313594D02*
X0203724Y0313594D01*
X0203724Y0315992D02*
X0169173Y0315992D01*
X0169173Y0318391D02*
X0203724Y0318391D01*
X0203724Y0320789D02*
X0169173Y0320789D01*
X0169173Y0323188D02*
X0203724Y0323188D01*
X0203724Y0325586D02*
X0169173Y0325586D01*
X0169173Y0327985D02*
X0203724Y0327985D01*
X0203724Y0330384D02*
X0169173Y0330384D01*
X0169173Y0332782D02*
X0177742Y0332782D01*
X0177673Y0332811D02*
X0179355Y0332114D01*
X0181175Y0332114D01*
X0182856Y0332811D01*
X0184143Y0334098D01*
X0184839Y0335779D01*
X0184839Y0337599D01*
X0184143Y0339280D01*
X0182856Y0340567D01*
X0181175Y0341264D01*
X0179355Y0341264D01*
X0177673Y0340567D01*
X0176386Y0339280D01*
X0175690Y0337599D01*
X0175690Y0335779D01*
X0176386Y0334098D01*
X0177673Y0332811D01*
X0175938Y0335181D02*
X0169173Y0335181D01*
X0169173Y0337579D02*
X0175690Y0337579D01*
X0177083Y0339978D02*
X0169173Y0339978D01*
X0169173Y0342376D02*
X0178722Y0342376D01*
X0179355Y0342114D02*
X0177673Y0342811D01*
X0176386Y0344098D01*
X0175690Y0345779D01*
X0175690Y0347599D01*
X0176386Y0349280D01*
X0177673Y0350567D01*
X0179355Y0351264D01*
X0181175Y0351264D01*
X0182856Y0350567D01*
X0184143Y0349280D01*
X0184839Y0347599D01*
X0184839Y0345779D01*
X0184143Y0344098D01*
X0182856Y0342811D01*
X0181175Y0342114D01*
X0179355Y0342114D01*
X0181807Y0342376D02*
X0203724Y0342376D01*
X0203724Y0339978D02*
X0183446Y0339978D01*
X0184839Y0337579D02*
X0203724Y0337579D01*
X0203724Y0335181D02*
X0184591Y0335181D01*
X0182787Y0332782D02*
X0203724Y0332782D01*
X0203724Y0344775D02*
X0184423Y0344775D01*
X0184839Y0347173D02*
X0203724Y0347173D01*
X0203724Y0349572D02*
X0183852Y0349572D01*
X0184255Y0354369D02*
X0203724Y0354369D01*
X0203724Y0356767D02*
X0184839Y0356767D01*
X0176339Y0359166D02*
X0148349Y0359166D01*
X0148283Y0359324D02*
X0146876Y0360731D01*
X0145039Y0361492D01*
X0143050Y0361492D01*
X0141212Y0360731D01*
X0139805Y0359324D01*
X0139044Y0357487D01*
X0139044Y0355498D01*
X0139805Y0353660D01*
X0141212Y0352253D01*
X0143050Y0351492D01*
X0145039Y0351492D01*
X0146876Y0352253D01*
X0148283Y0353660D01*
X0149044Y0355498D01*
X0149044Y0357487D01*
X0148283Y0359324D01*
X0149044Y0356767D02*
X0175690Y0356767D01*
X0176274Y0354369D02*
X0148576Y0354369D01*
X0146193Y0351970D02*
X0203724Y0351970D01*
X0180265Y0366689D02*
X0177902Y0366689D01*
X0152981Y0391610D01*
X0170845Y0392745D02*
X0203724Y0392745D01*
X0203724Y0395143D02*
X0171335Y0395143D01*
X0177959Y0371158D02*
X0179100Y0371158D01*
X0176677Y0349572D02*
X0164870Y0349572D01*
X0162352Y0349572D02*
X0103852Y0349572D01*
X0104839Y0347173D02*
X0159231Y0347173D01*
X0158611Y0344775D02*
X0104423Y0344775D01*
X0101807Y0342376D02*
X0159154Y0342376D01*
X0161901Y0339978D02*
X0120622Y0339978D01*
X0121406Y0337579D02*
X0162773Y0337579D01*
X0162773Y0335181D02*
X0121014Y0335181D01*
X0118994Y0332782D02*
X0162773Y0332782D01*
X0165973Y0342319D02*
X0163611Y0344681D01*
X0165973Y0342319D02*
X0165973Y0308539D01*
X0138414Y0280980D01*
X0117942Y0280980D01*
X0102784Y0265823D01*
X0102784Y0249917D01*
X0098377Y0251233D02*
X0077631Y0251233D01*
X0077635Y0253631D02*
X0099584Y0253631D01*
X0099584Y0256030D02*
X0076055Y0256030D01*
X0080454Y0258428D02*
X0099584Y0258428D01*
X0099584Y0260827D02*
X0082463Y0260827D01*
X0082753Y0263225D02*
X0099584Y0263225D01*
X0099584Y0265624D02*
X0081461Y0265624D01*
X0079474Y0268022D02*
X0100458Y0268022D01*
X0102857Y0270421D02*
X0082295Y0270421D01*
X0079088Y0277862D02*
X0080769Y0278559D01*
X0082056Y0279846D01*
X0082753Y0281527D01*
X0082753Y0283347D01*
X0082056Y0285028D01*
X0080769Y0286315D01*
X0079088Y0287012D01*
X0077268Y0287012D01*
X0075587Y0286315D01*
X0074300Y0285028D01*
X0073603Y0283347D01*
X0073603Y0281527D01*
X0074300Y0279846D01*
X0075587Y0278559D01*
X0077268Y0277862D01*
X0079088Y0277862D01*
X0082126Y0280015D02*
X0083110Y0280015D01*
X0082753Y0282413D02*
X0098800Y0282413D01*
X0099227Y0284812D02*
X0082146Y0284812D01*
X0074210Y0284812D02*
X0069961Y0284812D01*
X0069961Y0282413D02*
X0073603Y0282413D01*
X0074230Y0280015D02*
X0069961Y0280015D01*
X0063561Y0280015D02*
X0057756Y0280015D01*
X0057756Y0282413D02*
X0063561Y0282413D01*
X0063561Y0284812D02*
X0057756Y0284812D01*
X0059800Y0287210D02*
X0063561Y0287210D01*
X0063561Y0289609D02*
X0062198Y0289609D01*
X0057944Y0294406D02*
X0036617Y0294406D01*
X0039079Y0296804D02*
X0060343Y0296804D01*
X0055546Y0292007D02*
X0022753Y0292007D01*
X0022753Y0291527D02*
X0022056Y0289846D01*
X0020769Y0288559D01*
X0019088Y0287862D01*
X0017268Y0287862D01*
X0015587Y0288559D01*
X0014300Y0289846D01*
X0013603Y0291527D01*
X0013603Y0293347D01*
X0014300Y0295028D01*
X0015587Y0296315D01*
X0017268Y0297012D01*
X0019088Y0297012D01*
X0020769Y0296315D01*
X0022056Y0295028D01*
X0022753Y0293347D01*
X0022753Y0291527D01*
X0021820Y0289609D02*
X0053147Y0289609D01*
X0050857Y0301601D02*
X0043876Y0301601D01*
X0045551Y0304000D02*
X0049587Y0304000D01*
X0049987Y0306398D02*
X0045551Y0306398D01*
X0039151Y0313594D02*
X0022650Y0313594D01*
X0021092Y0315992D02*
X0039151Y0315992D01*
X0039151Y0318391D02*
X0020364Y0318391D01*
X0020769Y0318559D02*
X0022056Y0319846D01*
X0022753Y0321527D01*
X0022753Y0323347D01*
X0022056Y0325028D01*
X0020769Y0326315D01*
X0019088Y0327012D01*
X0017268Y0327012D01*
X0015587Y0326315D01*
X0014300Y0325028D01*
X0013603Y0323347D01*
X0013603Y0321527D01*
X0014300Y0319846D01*
X0015587Y0318559D01*
X0017268Y0317862D01*
X0019088Y0317862D01*
X0020769Y0318559D01*
X0022447Y0320789D02*
X0039151Y0320789D01*
X0039151Y0323188D02*
X0022753Y0323188D01*
X0021498Y0325586D02*
X0039151Y0325586D01*
X0039151Y0327985D02*
X0019384Y0327985D01*
X0019088Y0327862D02*
X0020769Y0328559D01*
X0022056Y0329846D01*
X0022753Y0331527D01*
X0022753Y0333347D01*
X0022056Y0335028D01*
X0020769Y0336315D01*
X0019088Y0337012D01*
X0017268Y0337012D01*
X0015587Y0336315D01*
X0014300Y0335028D01*
X0013603Y0333347D01*
X0013603Y0331527D01*
X0014300Y0329846D01*
X0015587Y0328559D01*
X0017268Y0327862D01*
X0019088Y0327862D01*
X0016971Y0327985D02*
X0004600Y0327985D01*
X0004600Y0330384D02*
X0014077Y0330384D01*
X0013603Y0332782D02*
X0004600Y0332782D01*
X0004600Y0335181D02*
X0014452Y0335181D01*
X0015587Y0338559D02*
X0017268Y0337862D01*
X0019088Y0337862D01*
X0020769Y0338559D01*
X0022056Y0339846D01*
X0022753Y0341527D01*
X0022753Y0343347D01*
X0022056Y0345028D01*
X0020769Y0346315D01*
X0019088Y0347012D01*
X0017268Y0347012D01*
X0015587Y0346315D01*
X0014300Y0345028D01*
X0013603Y0343347D01*
X0013603Y0341527D01*
X0014300Y0339846D01*
X0015587Y0338559D01*
X0014245Y0339978D02*
X0004600Y0339978D01*
X0004600Y0342376D02*
X0013603Y0342376D01*
X0014194Y0344775D02*
X0004600Y0344775D01*
X0004600Y0347173D02*
X0028603Y0347173D01*
X0028603Y0346527D02*
X0028603Y0348347D01*
X0029300Y0350028D01*
X0030587Y0351315D01*
X0032268Y0352012D01*
X0034088Y0352012D01*
X0035769Y0351315D01*
X0037056Y0350028D01*
X0037753Y0348347D01*
X0037753Y0346527D01*
X0037056Y0344846D01*
X0035769Y0343559D01*
X0034088Y0342862D01*
X0032268Y0342862D01*
X0030587Y0343559D01*
X0029300Y0344846D01*
X0028603Y0346527D01*
X0029371Y0344775D02*
X0022161Y0344775D01*
X0022753Y0342376D02*
X0039151Y0342376D01*
X0039151Y0339978D02*
X0037077Y0339978D01*
X0037056Y0340028D02*
X0035769Y0341315D01*
X0034088Y0342012D01*
X0032268Y0342012D01*
X0030587Y0341315D01*
X0029300Y0340028D01*
X0028603Y0338347D01*
X0028603Y0336527D01*
X0029300Y0334846D01*
X0030587Y0333559D01*
X0032268Y0332862D01*
X0034088Y0332862D01*
X0035769Y0333559D01*
X0037056Y0334846D01*
X0037753Y0336527D01*
X0037753Y0338347D01*
X0037056Y0340028D01*
X0037753Y0337579D02*
X0039151Y0337579D01*
X0039151Y0335181D02*
X0037195Y0335181D01*
X0039151Y0332782D02*
X0022753Y0332782D01*
X0022279Y0330384D02*
X0039151Y0330384D01*
X0029161Y0335181D02*
X0021904Y0335181D01*
X0022111Y0339978D02*
X0029279Y0339978D01*
X0028603Y0337579D02*
X0004600Y0337579D01*
X0004600Y0349572D02*
X0014574Y0349572D01*
X0014300Y0349846D02*
X0015587Y0348559D01*
X0017268Y0347862D01*
X0019088Y0347862D01*
X0020769Y0348559D01*
X0022056Y0349846D01*
X0022753Y0351527D01*
X0022753Y0353347D01*
X0022056Y0355028D01*
X0020769Y0356315D01*
X0019088Y0357012D01*
X0017268Y0357012D01*
X0015587Y0356315D01*
X0014300Y0355028D01*
X0013603Y0353347D01*
X0013603Y0351527D01*
X0014300Y0349846D01*
X0013603Y0351970D02*
X0004600Y0351970D01*
X0004600Y0354369D02*
X0014026Y0354369D01*
X0016677Y0356767D02*
X0004600Y0356767D01*
X0004600Y0359166D02*
X0014980Y0359166D01*
X0015587Y0358559D02*
X0017268Y0357862D01*
X0019088Y0357862D01*
X0020769Y0358559D01*
X0022056Y0359846D01*
X0022753Y0361527D01*
X0022753Y0363347D01*
X0022056Y0365028D01*
X0020769Y0366315D01*
X0019088Y0367012D01*
X0017268Y0367012D01*
X0015587Y0366315D01*
X0014300Y0365028D01*
X0013603Y0363347D01*
X0013603Y0361527D01*
X0014300Y0359846D01*
X0015587Y0358559D01*
X0013603Y0361564D02*
X0004600Y0361564D01*
X0004600Y0363963D02*
X0013858Y0363963D01*
X0015697Y0366361D02*
X0004600Y0366361D01*
X0004600Y0368760D02*
X0015386Y0368760D01*
X0015587Y0368559D02*
X0017268Y0367862D01*
X0019088Y0367862D01*
X0020769Y0368559D01*
X0022056Y0369846D01*
X0022753Y0371527D01*
X0022753Y0373347D01*
X0022056Y0375028D01*
X0020769Y0376315D01*
X0019088Y0377012D01*
X0017268Y0377012D01*
X0015587Y0376315D01*
X0014300Y0375028D01*
X0013603Y0373347D01*
X0013603Y0371527D01*
X0014300Y0369846D01*
X0015587Y0368559D01*
X0013756Y0371158D02*
X0004600Y0371158D01*
X0004600Y0373557D02*
X0013690Y0373557D01*
X0015226Y0375955D02*
X0004600Y0375955D01*
X0021129Y0375955D02*
X0032065Y0375955D01*
X0032065Y0373557D02*
X0022666Y0373557D01*
X0022600Y0371158D02*
X0032065Y0371158D01*
X0032065Y0368760D02*
X0020970Y0368760D01*
X0020659Y0366361D02*
X0032065Y0366361D01*
X0032065Y0363963D02*
X0022498Y0363963D01*
X0022753Y0361564D02*
X0033620Y0361564D01*
X0031651Y0359166D02*
X0021376Y0359166D01*
X0019679Y0356767D02*
X0031083Y0356767D01*
X0031948Y0354369D02*
X0022330Y0354369D01*
X0022753Y0351970D02*
X0032167Y0351970D01*
X0034189Y0351970D02*
X0039151Y0351970D01*
X0039151Y0349572D02*
X0037245Y0349572D01*
X0037753Y0347173D02*
X0039151Y0347173D01*
X0039151Y0344775D02*
X0036985Y0344775D01*
X0029110Y0349572D02*
X0021782Y0349572D01*
X0038582Y0354369D02*
X0039151Y0354369D01*
X0052290Y0363963D02*
X0057123Y0363963D01*
X0079679Y0356767D02*
X0086841Y0356767D01*
X0084442Y0354369D02*
X0082330Y0354369D01*
X0082753Y0351970D02*
X0083246Y0351970D01*
X0083246Y0349572D02*
X0081782Y0349572D01*
X0081376Y0359166D02*
X0089239Y0359166D01*
X0091638Y0361564D02*
X0082753Y0361564D01*
X0082498Y0363963D02*
X0094036Y0363963D01*
X0095690Y0366361D02*
X0089738Y0366361D01*
X0092136Y0368760D02*
X0096171Y0368760D01*
X0094535Y0371158D02*
X0099100Y0371158D01*
X0096927Y0373557D02*
X0095157Y0373557D01*
X0095157Y0375955D02*
X0095690Y0375955D01*
X0096002Y0378354D02*
X0095157Y0378354D01*
X0096274Y0354369D02*
X0093493Y0354369D01*
X0118829Y0359166D02*
X0139740Y0359166D01*
X0139044Y0356767D02*
X0120823Y0356767D01*
X0121209Y0354369D02*
X0139512Y0354369D01*
X0141896Y0351970D02*
X0120412Y0351970D01*
X0088108Y0311195D02*
X0162773Y0311195D01*
X0161705Y0308797D02*
X0090375Y0308797D01*
X0090574Y0306398D02*
X0159307Y0306398D01*
X0156908Y0304000D02*
X0089000Y0304000D01*
X0073607Y0320789D02*
X0064942Y0320789D01*
X0067637Y0323188D02*
X0071209Y0323188D01*
X0068810Y0325586D02*
X0068580Y0325586D01*
X0028603Y0296804D02*
X0019589Y0296804D01*
X0016767Y0296804D02*
X0004600Y0296804D01*
X0004600Y0294406D02*
X0014042Y0294406D01*
X0013603Y0292007D02*
X0004600Y0292007D01*
X0004600Y0289609D02*
X0014536Y0289609D01*
X0022314Y0294406D02*
X0029739Y0294406D01*
X0014942Y0299203D02*
X0004600Y0299203D01*
X0004600Y0301601D02*
X0013603Y0301601D01*
X0013874Y0304000D02*
X0004600Y0304000D01*
X0004600Y0306398D02*
X0015787Y0306398D01*
X0015348Y0308797D02*
X0004600Y0308797D01*
X0004600Y0311195D02*
X0013740Y0311195D01*
X0013705Y0313594D02*
X0004600Y0313594D01*
X0004600Y0315992D02*
X0015264Y0315992D01*
X0015991Y0318391D02*
X0004600Y0318391D01*
X0004600Y0320789D02*
X0013909Y0320789D01*
X0013603Y0323188D02*
X0004600Y0323188D01*
X0004600Y0325586D02*
X0014858Y0325586D01*
X0021461Y0265624D02*
X0045491Y0265624D01*
X0044076Y0263225D02*
X0022753Y0263225D01*
X0022463Y0260827D02*
X0044414Y0260827D01*
X0044088Y0257012D02*
X0042268Y0257012D01*
X0040587Y0256315D01*
X0039300Y0255028D01*
X0038603Y0253347D01*
X0038603Y0251527D01*
X0039300Y0249846D01*
X0040587Y0248559D01*
X0042268Y0247862D01*
X0044088Y0247862D01*
X0045769Y0248559D01*
X0047056Y0249846D01*
X0047753Y0251527D01*
X0047753Y0253347D01*
X0047056Y0255028D01*
X0045769Y0256315D01*
X0044088Y0257012D01*
X0046055Y0256030D02*
X0050301Y0256030D01*
X0048721Y0253631D02*
X0047635Y0253631D01*
X0047631Y0251233D02*
X0048725Y0251233D01*
X0050311Y0248834D02*
X0046045Y0248834D01*
X0041565Y0246735D02*
X0040389Y0247911D01*
X0038852Y0248547D01*
X0037189Y0248547D01*
X0035652Y0247911D01*
X0034476Y0246735D01*
X0033839Y0245198D01*
X0033839Y0243534D01*
X0034476Y0241998D01*
X0035652Y0240822D01*
X0037189Y0240185D01*
X0038852Y0240185D01*
X0040389Y0240822D01*
X0041565Y0241998D01*
X0042202Y0243534D01*
X0042202Y0245198D01*
X0041565Y0246735D01*
X0041689Y0246436D02*
X0064742Y0246436D01*
X0064742Y0244037D02*
X0042202Y0244037D01*
X0041206Y0241639D02*
X0065356Y0241639D01*
X0067755Y0239240D02*
X0004600Y0239240D01*
X0004600Y0236842D02*
X0133475Y0236842D01*
X0137054Y0236842D02*
X0203724Y0236842D01*
X0203724Y0239240D02*
X0139216Y0239240D01*
X0139371Y0241639D02*
X0155504Y0241639D01*
X0153839Y0244037D02*
X0141287Y0244037D01*
X0155540Y0253631D02*
X0160028Y0253631D01*
X0158377Y0251233D02*
X0157191Y0251233D01*
X0161966Y0244037D02*
X0203724Y0244037D01*
X0203724Y0241639D02*
X0160300Y0241639D01*
X0165772Y0246436D02*
X0169796Y0246436D01*
X0170193Y0246039D02*
X0171874Y0245343D01*
X0173694Y0245343D01*
X0175376Y0246039D01*
X0176663Y0247326D01*
X0177359Y0249007D01*
X0177359Y0250827D01*
X0176663Y0252509D01*
X0175376Y0253796D01*
X0173694Y0254492D01*
X0171874Y0254492D01*
X0170193Y0253796D01*
X0168906Y0252509D01*
X0168209Y0250827D01*
X0168209Y0249007D01*
X0168906Y0247326D01*
X0170193Y0246039D01*
X0168281Y0248834D02*
X0167287Y0248834D01*
X0167191Y0251233D02*
X0168377Y0251233D01*
X0170028Y0253631D02*
X0165540Y0253631D01*
X0175540Y0253631D02*
X0180028Y0253631D01*
X0180193Y0253796D02*
X0178906Y0252509D01*
X0178209Y0250827D01*
X0178209Y0249007D01*
X0178906Y0247326D01*
X0180193Y0246039D01*
X0181874Y0245343D01*
X0183694Y0245343D01*
X0185376Y0246039D01*
X0186663Y0247326D01*
X0187359Y0249007D01*
X0187359Y0250827D01*
X0186663Y0252509D01*
X0185376Y0253796D01*
X0183694Y0254492D01*
X0181874Y0254492D01*
X0180193Y0253796D01*
X0178377Y0251233D02*
X0177191Y0251233D01*
X0177287Y0248834D02*
X0178281Y0248834D01*
X0179796Y0246436D02*
X0175772Y0246436D01*
X0185772Y0246436D02*
X0189796Y0246436D01*
X0190193Y0246039D02*
X0191874Y0245343D01*
X0193694Y0245343D01*
X0195376Y0246039D01*
X0196663Y0247326D01*
X0197359Y0249007D01*
X0197359Y0250827D01*
X0196663Y0252509D01*
X0195376Y0253796D01*
X0193694Y0254492D01*
X0191874Y0254492D01*
X0190193Y0253796D01*
X0188906Y0252509D01*
X0188209Y0250827D01*
X0188209Y0249007D01*
X0188906Y0247326D01*
X0190193Y0246039D01*
X0188281Y0248834D02*
X0187287Y0248834D01*
X0187191Y0251233D02*
X0188377Y0251233D01*
X0190028Y0253631D02*
X0185540Y0253631D01*
X0195540Y0253631D02*
X0203724Y0253631D01*
X0203724Y0251233D02*
X0197191Y0251233D01*
X0197287Y0248834D02*
X0203724Y0248834D01*
X0203724Y0246436D02*
X0195772Y0246436D01*
X0203724Y0234443D02*
X0004600Y0234443D01*
X0004600Y0232045D02*
X0203724Y0232045D01*
X0203724Y0229646D02*
X0004600Y0229646D01*
X0004600Y0227248D02*
X0017611Y0227248D01*
X0017788Y0227675D02*
X0017301Y0226499D01*
X0017301Y0122863D01*
X0017438Y0122533D01*
X0017438Y0122514D01*
X0017451Y0122501D01*
X0017788Y0121687D01*
X0018688Y0120787D01*
X0019864Y0120300D01*
X0021137Y0120300D01*
X0188263Y0120300D01*
X0189439Y0120787D01*
X0190340Y0121687D01*
X0190649Y0122434D01*
X0190729Y0122514D01*
X0190729Y0122628D01*
X0190827Y0122863D01*
X0190827Y0226499D01*
X0190340Y0227675D01*
X0189439Y0228575D01*
X0188263Y0229062D01*
X0019864Y0229062D01*
X0018688Y0228575D01*
X0017788Y0227675D01*
X0017301Y0224849D02*
X0004600Y0224849D01*
X0004600Y0222451D02*
X0017301Y0222451D01*
X0017301Y0220052D02*
X0004600Y0220052D01*
X0004600Y0217653D02*
X0017301Y0217653D01*
X0017301Y0215255D02*
X0004600Y0215255D01*
X0004600Y0212856D02*
X0017301Y0212856D01*
X0017301Y0210458D02*
X0004600Y0210458D01*
X0004600Y0208059D02*
X0017301Y0208059D01*
X0017301Y0205661D02*
X0004600Y0205661D01*
X0004600Y0203262D02*
X0017301Y0203262D01*
X0017301Y0200864D02*
X0004600Y0200864D01*
X0004600Y0198465D02*
X0017301Y0198465D01*
X0017301Y0196067D02*
X0004600Y0196067D01*
X0004600Y0193668D02*
X0017301Y0193668D01*
X0017301Y0191270D02*
X0004600Y0191270D01*
X0004600Y0188871D02*
X0017301Y0188871D01*
X0017301Y0186473D02*
X0004600Y0186473D01*
X0004600Y0184074D02*
X0017301Y0184074D01*
X0017301Y0181676D02*
X0004600Y0181676D01*
X0004600Y0179277D02*
X0017301Y0179277D01*
X0017301Y0176879D02*
X0004600Y0176879D01*
X0004600Y0174480D02*
X0017301Y0174480D01*
X0017301Y0172082D02*
X0004600Y0172082D01*
X0004600Y0169683D02*
X0017301Y0169683D01*
X0017301Y0167285D02*
X0004600Y0167285D01*
X0004600Y0164886D02*
X0017301Y0164886D01*
X0017301Y0162488D02*
X0004600Y0162488D01*
X0004600Y0160089D02*
X0017301Y0160089D01*
X0017301Y0157691D02*
X0004600Y0157691D01*
X0004600Y0155292D02*
X0017301Y0155292D01*
X0017301Y0152894D02*
X0004600Y0152894D01*
X0004600Y0150495D02*
X0017301Y0150495D01*
X0017301Y0148097D02*
X0004600Y0148097D01*
X0004600Y0145698D02*
X0017301Y0145698D01*
X0017301Y0143300D02*
X0004600Y0143300D01*
X0004600Y0140901D02*
X0017301Y0140901D01*
X0017301Y0138503D02*
X0004600Y0138503D01*
X0004600Y0136104D02*
X0017301Y0136104D01*
X0017301Y0133706D02*
X0004600Y0133706D01*
X0004600Y0131307D02*
X0017301Y0131307D01*
X0017301Y0128909D02*
X0004600Y0128909D01*
X0004600Y0126510D02*
X0017301Y0126510D01*
X0017301Y0124112D02*
X0004600Y0124112D01*
X0004600Y0121713D02*
X0017777Y0121713D01*
X0020501Y0123500D02*
X0020501Y0225862D01*
X0187627Y0225862D01*
X0187627Y0123500D01*
X0020501Y0123500D01*
X0004600Y0119315D02*
X0203724Y0119315D01*
X0203724Y0121713D02*
X0190350Y0121713D01*
X0190827Y0124112D02*
X0203724Y0124112D01*
X0203724Y0126510D02*
X0190827Y0126510D01*
X0190827Y0128909D02*
X0203724Y0128909D01*
X0203724Y0131307D02*
X0190827Y0131307D01*
X0190827Y0133706D02*
X0203724Y0133706D01*
X0203724Y0136104D02*
X0190827Y0136104D01*
X0190827Y0138503D02*
X0203724Y0138503D01*
X0203724Y0140901D02*
X0190827Y0140901D01*
X0190827Y0143300D02*
X0203724Y0143300D01*
X0203724Y0145698D02*
X0190827Y0145698D01*
X0190827Y0148097D02*
X0203724Y0148097D01*
X0203724Y0150495D02*
X0190827Y0150495D01*
X0190827Y0152894D02*
X0203724Y0152894D01*
X0203724Y0155292D02*
X0190827Y0155292D01*
X0190827Y0157691D02*
X0203724Y0157691D01*
X0203724Y0160089D02*
X0190827Y0160089D01*
X0190827Y0162488D02*
X0203724Y0162488D01*
X0203724Y0164886D02*
X0190827Y0164886D01*
X0190827Y0167285D02*
X0203724Y0167285D01*
X0203724Y0169683D02*
X0190827Y0169683D01*
X0190827Y0172082D02*
X0203724Y0172082D01*
X0203724Y0174480D02*
X0190827Y0174480D01*
X0190827Y0176879D02*
X0203724Y0176879D01*
X0203724Y0179277D02*
X0190827Y0179277D01*
X0190827Y0181676D02*
X0203724Y0181676D01*
X0203724Y0184074D02*
X0190827Y0184074D01*
X0190827Y0186473D02*
X0203724Y0186473D01*
X0203724Y0188871D02*
X0190827Y0188871D01*
X0190827Y0191270D02*
X0203724Y0191270D01*
X0203724Y0193668D02*
X0190827Y0193668D01*
X0190827Y0196067D02*
X0203724Y0196067D01*
X0203724Y0198465D02*
X0190827Y0198465D01*
X0190827Y0200864D02*
X0203724Y0200864D01*
X0203724Y0203262D02*
X0190827Y0203262D01*
X0190827Y0205661D02*
X0203724Y0205661D01*
X0203724Y0208059D02*
X0190827Y0208059D01*
X0190827Y0210458D02*
X0203724Y0210458D01*
X0203724Y0212856D02*
X0190827Y0212856D01*
X0190827Y0215255D02*
X0203724Y0215255D01*
X0203724Y0217653D02*
X0190827Y0217653D01*
X0190827Y0220052D02*
X0203724Y0220052D01*
X0203724Y0222451D02*
X0190827Y0222451D01*
X0190827Y0224849D02*
X0203724Y0224849D01*
X0203724Y0227248D02*
X0190517Y0227248D01*
X0118331Y0265624D02*
X0116564Y0265624D01*
X0098281Y0248834D02*
X0086354Y0248834D01*
X0084175Y0248834D02*
X0076045Y0248834D01*
X0071142Y0246436D02*
X0081433Y0246436D01*
X0079795Y0244037D02*
X0072009Y0244037D01*
X0084871Y0245154D02*
X0085068Y0244957D01*
X0085265Y0244760D01*
X0090052Y0275218D02*
X0093863Y0275218D01*
X0093288Y0277616D02*
X0090627Y0277616D01*
X0089781Y0280015D02*
X0094134Y0280015D01*
X0040301Y0256030D02*
X0036055Y0256030D01*
X0035769Y0256315D02*
X0034088Y0257012D01*
X0032268Y0257012D01*
X0030587Y0256315D01*
X0029300Y0255028D01*
X0028603Y0253347D01*
X0028603Y0251527D01*
X0029300Y0249846D01*
X0030587Y0248559D01*
X0032268Y0247862D01*
X0034088Y0247862D01*
X0035769Y0248559D01*
X0037056Y0249846D01*
X0037753Y0251527D01*
X0037753Y0253347D01*
X0037056Y0255028D01*
X0035769Y0256315D01*
X0037635Y0253631D02*
X0038721Y0253631D01*
X0038725Y0251233D02*
X0037631Y0251233D01*
X0036045Y0248834D02*
X0040311Y0248834D01*
X0034352Y0246436D02*
X0004600Y0246436D01*
X0004600Y0248834D02*
X0020311Y0248834D01*
X0018725Y0251233D02*
X0004600Y0251233D01*
X0004600Y0253631D02*
X0018721Y0253631D01*
X0026055Y0256030D02*
X0030301Y0256030D01*
X0028721Y0253631D02*
X0027635Y0253631D01*
X0027631Y0251233D02*
X0028725Y0251233D01*
X0030311Y0248834D02*
X0026045Y0248834D01*
X0033839Y0244037D02*
X0004600Y0244037D01*
X0004600Y0241639D02*
X0034835Y0241639D01*
X0004600Y0116916D02*
X0203724Y0116916D01*
X0203724Y0114517D02*
X0004600Y0114517D01*
X0168611Y0344775D02*
X0176106Y0344775D01*
X0175690Y0347173D02*
X0167991Y0347173D01*
X0160087Y0462302D02*
X0148918Y0462302D01*
X0145233Y0462302D02*
X0121466Y0462302D01*
X0123496Y0464700D02*
X0158057Y0464700D01*
X0157958Y0467099D02*
X0123595Y0467099D01*
X0121952Y0469497D02*
X0159601Y0469497D01*
X0159069Y0479091D02*
X0135399Y0479091D01*
X0131721Y0477043D02*
X0086446Y0477043D01*
X0081721Y0481768D01*
X0077540Y0481490D02*
X0022165Y0481490D01*
X0022989Y0483888D02*
X0078074Y0483888D01*
X0083831Y0486287D02*
X0022505Y0486287D01*
X0030389Y0471896D02*
X0033053Y0471896D01*
X0031921Y0469497D02*
X0031521Y0469497D01*
X0031222Y0467099D02*
X0032220Y0467099D01*
X0034017Y0464700D02*
X0029425Y0464700D01*
X0017894Y0443114D02*
X0016490Y0443114D01*
X0018410Y0440715D02*
X0014449Y0440715D01*
X0014449Y0426324D02*
X0014753Y0426324D01*
X0090506Y0481490D02*
X0143874Y0481490D01*
X0143288Y0483888D02*
X0091808Y0483888D01*
X0091422Y0486287D02*
X0144107Y0486287D01*
D16*
X0144200Y0225469D02*
X0144200Y0123500D01*
X0145800Y0123500D02*
X0145800Y0225469D01*
X0147400Y0225469D02*
X0147400Y0123500D01*
X0149000Y0123500D02*
X0149000Y0225469D01*
X0150600Y0225469D02*
X0150600Y0123500D01*
X0152200Y0123500D02*
X0152200Y0225469D01*
X0153800Y0225469D02*
X0153800Y0123500D01*
X0155400Y0123500D02*
X0155400Y0225469D01*
X0157000Y0225469D02*
X0157000Y0123500D01*
X0158600Y0123500D02*
X0158600Y0225469D01*
X0160200Y0225469D02*
X0160200Y0123500D01*
X0161800Y0123500D02*
X0161800Y0225469D01*
X0163400Y0225469D02*
X0163400Y0123500D01*
X0165000Y0123500D02*
X0165000Y0225469D01*
X0166600Y0225469D02*
X0166600Y0123500D01*
X0168200Y0123500D02*
X0168200Y0225469D01*
X0169800Y0225469D02*
X0169800Y0123500D01*
X0171400Y0123500D02*
X0171400Y0225469D01*
X0173000Y0225469D02*
X0173000Y0123500D01*
X0174600Y0123500D02*
X0174600Y0225469D01*
X0176200Y0225469D02*
X0176200Y0123500D01*
X0177800Y0123500D02*
X0177800Y0225469D01*
X0179400Y0225469D02*
X0179400Y0123500D01*
X0181000Y0123500D02*
X0181000Y0225469D01*
X0182600Y0225469D02*
X0182600Y0123500D01*
X0184200Y0123500D02*
X0184200Y0225469D01*
X0185800Y0225469D02*
X0185800Y0123500D01*
X0187400Y0123500D02*
X0187400Y0225469D01*
X0187627Y0225469D02*
X0019910Y0225469D01*
X0019910Y0124681D01*
X0075816Y0180587D01*
X0075816Y0190035D01*
X0141564Y0190035D01*
X0141564Y0180587D01*
X0076997Y0180587D01*
X0020501Y0123500D01*
X0187824Y0123500D01*
X0187627Y0225469D01*
X0187628Y0224920D02*
X0019910Y0224920D01*
X0021000Y0225469D02*
X0021000Y0125771D01*
X0020950Y0125720D02*
X0019910Y0125720D01*
X0019910Y0127320D02*
X0022550Y0127320D01*
X0022600Y0127371D02*
X0022600Y0225469D01*
X0024200Y0225469D02*
X0024200Y0128971D01*
X0024150Y0128920D02*
X0019910Y0128920D01*
X0019910Y0130520D02*
X0025750Y0130520D01*
X0025800Y0130571D02*
X0025800Y0225469D01*
X0027400Y0225469D02*
X0027400Y0132171D01*
X0027350Y0132120D02*
X0019910Y0132120D01*
X0019910Y0133720D02*
X0028950Y0133720D01*
X0029000Y0133771D02*
X0029000Y0225469D01*
X0030600Y0225469D02*
X0030600Y0135371D01*
X0030550Y0135320D02*
X0019910Y0135320D01*
X0019910Y0136920D02*
X0032150Y0136920D01*
X0032200Y0136971D02*
X0032200Y0225469D01*
X0033800Y0225469D02*
X0033800Y0138571D01*
X0033750Y0138520D02*
X0019910Y0138520D01*
X0019910Y0140120D02*
X0035350Y0140120D01*
X0035400Y0140171D02*
X0035400Y0225469D01*
X0037000Y0225469D02*
X0037000Y0141771D01*
X0036950Y0141720D02*
X0019910Y0141720D01*
X0019910Y0143320D02*
X0038550Y0143320D01*
X0038600Y0143371D02*
X0038600Y0225469D01*
X0040200Y0225469D02*
X0040200Y0144971D01*
X0040150Y0144920D02*
X0019910Y0144920D01*
X0019910Y0146520D02*
X0041750Y0146520D01*
X0041800Y0146571D02*
X0041800Y0225469D01*
X0043400Y0225469D02*
X0043400Y0148171D01*
X0043350Y0148120D02*
X0019910Y0148120D01*
X0019910Y0149720D02*
X0044950Y0149720D01*
X0045000Y0149771D02*
X0045000Y0225469D01*
X0046600Y0225469D02*
X0046600Y0151371D01*
X0046550Y0151320D02*
X0019910Y0151320D01*
X0019910Y0152920D02*
X0048150Y0152920D01*
X0048200Y0152971D02*
X0048200Y0225469D01*
X0049800Y0225469D02*
X0049800Y0154571D01*
X0049750Y0154520D02*
X0019910Y0154520D01*
X0019910Y0156120D02*
X0051350Y0156120D01*
X0051400Y0156171D02*
X0051400Y0225469D01*
X0053000Y0225469D02*
X0053000Y0157771D01*
X0052950Y0157720D02*
X0019910Y0157720D01*
X0019910Y0159320D02*
X0054550Y0159320D01*
X0054600Y0159371D02*
X0054600Y0225469D01*
X0056200Y0225469D02*
X0056200Y0160971D01*
X0056150Y0160920D02*
X0019910Y0160920D01*
X0019910Y0162520D02*
X0057750Y0162520D01*
X0057800Y0162571D02*
X0057800Y0225469D01*
X0059400Y0225469D02*
X0059400Y0164171D01*
X0059350Y0164120D02*
X0019910Y0164120D01*
X0019910Y0165720D02*
X0060950Y0165720D01*
X0061000Y0165771D02*
X0061000Y0225469D01*
X0062600Y0225469D02*
X0062600Y0167371D01*
X0062550Y0167320D02*
X0019910Y0167320D01*
X0019910Y0168920D02*
X0064150Y0168920D01*
X0064200Y0168971D02*
X0064200Y0225469D01*
X0065800Y0225469D02*
X0065800Y0170571D01*
X0065750Y0170520D02*
X0019910Y0170520D01*
X0019910Y0172120D02*
X0067350Y0172120D01*
X0067400Y0172171D02*
X0067400Y0225469D01*
X0069000Y0225469D02*
X0069000Y0173771D01*
X0068950Y0173720D02*
X0019910Y0173720D01*
X0019910Y0175320D02*
X0070550Y0175320D01*
X0070600Y0175371D02*
X0070600Y0225469D01*
X0072200Y0225469D02*
X0072200Y0176971D01*
X0072150Y0176920D02*
X0019910Y0176920D01*
X0019910Y0178520D02*
X0073750Y0178520D01*
X0073800Y0178571D02*
X0073800Y0225469D01*
X0075400Y0225469D02*
X0075400Y0180171D01*
X0075350Y0180120D02*
X0019910Y0180120D01*
X0019910Y0181720D02*
X0075816Y0181720D01*
X0075816Y0183320D02*
X0019910Y0183320D01*
X0019910Y0184920D02*
X0075816Y0184920D01*
X0075816Y0186520D02*
X0019910Y0186520D01*
X0019910Y0188120D02*
X0075816Y0188120D01*
X0075816Y0189720D02*
X0019910Y0189720D01*
X0019910Y0191320D02*
X0187693Y0191320D01*
X0187696Y0189720D02*
X0141564Y0189720D01*
X0141000Y0190035D02*
X0141000Y0225469D01*
X0139400Y0225469D02*
X0139400Y0190035D01*
X0137800Y0190035D02*
X0137800Y0225469D01*
X0136200Y0225469D02*
X0136200Y0190035D01*
X0134600Y0190035D02*
X0134600Y0225469D01*
X0133000Y0225469D02*
X0133000Y0190035D01*
X0131400Y0190035D02*
X0131400Y0225469D01*
X0129800Y0225469D02*
X0129800Y0190035D01*
X0128200Y0190035D02*
X0128200Y0225469D01*
X0126600Y0225469D02*
X0126600Y0190035D01*
X0125000Y0190035D02*
X0125000Y0225469D01*
X0123400Y0225469D02*
X0123400Y0190035D01*
X0121800Y0190035D02*
X0121800Y0225469D01*
X0120200Y0225469D02*
X0120200Y0190035D01*
X0118600Y0190035D02*
X0118600Y0225469D01*
X0117000Y0225469D02*
X0117000Y0190035D01*
X0115400Y0190035D02*
X0115400Y0225469D01*
X0113800Y0225469D02*
X0113800Y0190035D01*
X0112200Y0190035D02*
X0112200Y0225469D01*
X0110600Y0225469D02*
X0110600Y0190035D01*
X0109000Y0190035D02*
X0109000Y0225469D01*
X0107400Y0225469D02*
X0107400Y0190035D01*
X0105800Y0190035D02*
X0105800Y0225469D01*
X0104200Y0225469D02*
X0104200Y0190035D01*
X0102600Y0190035D02*
X0102600Y0225469D01*
X0101000Y0225469D02*
X0101000Y0190035D01*
X0099400Y0190035D02*
X0099400Y0225469D01*
X0097800Y0225469D02*
X0097800Y0190035D01*
X0096200Y0190035D02*
X0096200Y0225469D01*
X0094600Y0225469D02*
X0094600Y0190035D01*
X0093000Y0190035D02*
X0093000Y0225469D01*
X0091400Y0225469D02*
X0091400Y0190035D01*
X0089800Y0190035D02*
X0089800Y0225469D01*
X0088200Y0225469D02*
X0088200Y0190035D01*
X0086600Y0190035D02*
X0086600Y0225469D01*
X0085000Y0225469D02*
X0085000Y0190035D01*
X0083400Y0190035D02*
X0083400Y0225469D01*
X0081800Y0225469D02*
X0081800Y0190035D01*
X0080200Y0190035D02*
X0080200Y0225469D01*
X0078600Y0225469D02*
X0078600Y0190035D01*
X0077000Y0190035D02*
X0077000Y0225469D01*
X0077000Y0180587D02*
X0077000Y0123500D01*
X0078600Y0123500D02*
X0078600Y0180587D01*
X0080200Y0180587D02*
X0080200Y0123500D01*
X0081800Y0123500D02*
X0081800Y0180587D01*
X0083400Y0180587D02*
X0083400Y0123500D01*
X0085000Y0123500D02*
X0085000Y0180587D01*
X0086600Y0180587D02*
X0086600Y0123500D01*
X0088200Y0123500D02*
X0088200Y0180587D01*
X0089800Y0180587D02*
X0089800Y0123500D01*
X0091400Y0123500D02*
X0091400Y0180587D01*
X0093000Y0180587D02*
X0093000Y0123500D01*
X0094600Y0123500D02*
X0094600Y0180587D01*
X0096200Y0180587D02*
X0096200Y0123500D01*
X0097800Y0123500D02*
X0097800Y0180587D01*
X0099400Y0180587D02*
X0099400Y0123500D01*
X0101000Y0123500D02*
X0101000Y0180587D01*
X0102600Y0180587D02*
X0102600Y0123500D01*
X0104200Y0123500D02*
X0104200Y0180587D01*
X0105800Y0180587D02*
X0105800Y0123500D01*
X0107400Y0123500D02*
X0107400Y0180587D01*
X0109000Y0180587D02*
X0109000Y0123500D01*
X0110600Y0123500D02*
X0110600Y0180587D01*
X0112200Y0180587D02*
X0112200Y0123500D01*
X0113800Y0123500D02*
X0113800Y0180587D01*
X0115400Y0180587D02*
X0115400Y0123500D01*
X0117000Y0123500D02*
X0117000Y0180587D01*
X0118600Y0180587D02*
X0118600Y0123500D01*
X0120200Y0123500D02*
X0120200Y0180587D01*
X0121800Y0180587D02*
X0121800Y0123500D01*
X0123400Y0123500D02*
X0123400Y0180587D01*
X0125000Y0180587D02*
X0125000Y0123500D01*
X0126600Y0123500D02*
X0126600Y0180587D01*
X0128200Y0180587D02*
X0128200Y0123500D01*
X0129800Y0123500D02*
X0129800Y0180587D01*
X0131400Y0180587D02*
X0131400Y0123500D01*
X0133000Y0123500D02*
X0133000Y0180587D01*
X0134600Y0180587D02*
X0134600Y0123500D01*
X0136200Y0123500D02*
X0136200Y0180587D01*
X0137800Y0180587D02*
X0137800Y0123500D01*
X0139400Y0123500D02*
X0139400Y0180587D01*
X0141000Y0180587D02*
X0141000Y0123500D01*
X0142600Y0123500D02*
X0142600Y0225469D01*
X0141564Y0188120D02*
X0187699Y0188120D01*
X0187702Y0186520D02*
X0141564Y0186520D01*
X0141564Y0184920D02*
X0187705Y0184920D01*
X0187708Y0183320D02*
X0141564Y0183320D01*
X0141564Y0181720D02*
X0187711Y0181720D01*
X0187714Y0180120D02*
X0076536Y0180120D01*
X0075400Y0178973D02*
X0075400Y0123500D01*
X0073800Y0123500D02*
X0073800Y0177356D01*
X0073369Y0176920D02*
X0187720Y0176920D01*
X0187724Y0175320D02*
X0071785Y0175320D01*
X0072200Y0175740D02*
X0072200Y0123500D01*
X0070600Y0123500D02*
X0070600Y0174123D01*
X0070202Y0173720D02*
X0187727Y0173720D01*
X0187730Y0172120D02*
X0068618Y0172120D01*
X0069000Y0172506D02*
X0069000Y0123500D01*
X0067400Y0123500D02*
X0067400Y0170889D01*
X0067035Y0170520D02*
X0187733Y0170520D01*
X0187736Y0168920D02*
X0065451Y0168920D01*
X0065800Y0169273D02*
X0065800Y0123500D01*
X0064200Y0123500D02*
X0064200Y0167656D01*
X0063868Y0167320D02*
X0187739Y0167320D01*
X0187742Y0165720D02*
X0062284Y0165720D01*
X0062600Y0166039D02*
X0062600Y0123500D01*
X0061000Y0123500D02*
X0061000Y0164423D01*
X0060701Y0164120D02*
X0187745Y0164120D01*
X0187748Y0162520D02*
X0059118Y0162520D01*
X0059400Y0162806D02*
X0059400Y0123500D01*
X0057800Y0123500D02*
X0057800Y0161189D01*
X0057534Y0160920D02*
X0187751Y0160920D01*
X0187754Y0159320D02*
X0055951Y0159320D01*
X0056200Y0159572D02*
X0056200Y0123500D01*
X0054600Y0123500D02*
X0054600Y0157956D01*
X0054367Y0157720D02*
X0187758Y0157720D01*
X0187761Y0156120D02*
X0052784Y0156120D01*
X0053000Y0156339D02*
X0053000Y0123500D01*
X0051400Y0123500D02*
X0051400Y0154722D01*
X0051200Y0154520D02*
X0187764Y0154520D01*
X0187767Y0152920D02*
X0049617Y0152920D01*
X0049800Y0153105D02*
X0049800Y0123500D01*
X0048200Y0123500D02*
X0048200Y0151489D01*
X0048033Y0151320D02*
X0187770Y0151320D01*
X0187773Y0149720D02*
X0046450Y0149720D01*
X0046600Y0149872D02*
X0046600Y0123500D01*
X0045000Y0123500D02*
X0045000Y0148255D01*
X0044867Y0148120D02*
X0187776Y0148120D01*
X0187779Y0146520D02*
X0043283Y0146520D01*
X0043400Y0146639D02*
X0043400Y0123500D01*
X0041800Y0123500D02*
X0041800Y0145022D01*
X0041700Y0144920D02*
X0187782Y0144920D01*
X0187785Y0143320D02*
X0040116Y0143320D01*
X0040200Y0143405D02*
X0040200Y0123500D01*
X0038600Y0123500D02*
X0038600Y0141788D01*
X0038533Y0141720D02*
X0187788Y0141720D01*
X0187792Y0140120D02*
X0036949Y0140120D01*
X0037000Y0140172D02*
X0037000Y0123500D01*
X0035400Y0123500D02*
X0035400Y0138555D01*
X0035366Y0138520D02*
X0187795Y0138520D01*
X0187798Y0136920D02*
X0033782Y0136920D01*
X0033800Y0136938D02*
X0033800Y0123500D01*
X0032200Y0123500D02*
X0032200Y0135322D01*
X0032199Y0135320D02*
X0187801Y0135320D01*
X0187804Y0133720D02*
X0030616Y0133720D01*
X0030600Y0133705D02*
X0030600Y0123500D01*
X0029000Y0123500D02*
X0029000Y0132088D01*
X0029032Y0132120D02*
X0187807Y0132120D01*
X0187810Y0130520D02*
X0027449Y0130520D01*
X0027400Y0130471D02*
X0027400Y0123500D01*
X0025800Y0123500D02*
X0025800Y0128855D01*
X0025865Y0128920D02*
X0187813Y0128920D01*
X0187816Y0127320D02*
X0024282Y0127320D01*
X0024200Y0127238D02*
X0024200Y0123500D01*
X0022600Y0123500D02*
X0022600Y0125621D01*
X0022698Y0125720D02*
X0187819Y0125720D01*
X0187822Y0124120D02*
X0021115Y0124120D01*
X0021000Y0124004D02*
X0021000Y0123500D01*
X0074952Y0178520D02*
X0187717Y0178520D01*
X0187690Y0192920D02*
X0019910Y0192920D01*
X0019910Y0194520D02*
X0187687Y0194520D01*
X0187683Y0196120D02*
X0019910Y0196120D01*
X0019910Y0197720D02*
X0187680Y0197720D01*
X0187677Y0199320D02*
X0019910Y0199320D01*
X0019910Y0200920D02*
X0187674Y0200920D01*
X0187671Y0202520D02*
X0019910Y0202520D01*
X0019910Y0204120D02*
X0187668Y0204120D01*
X0187665Y0205720D02*
X0019910Y0205720D01*
X0019910Y0207320D02*
X0187662Y0207320D01*
X0187659Y0208920D02*
X0019910Y0208920D01*
X0019910Y0210520D02*
X0187656Y0210520D01*
X0187653Y0212120D02*
X0019910Y0212120D01*
X0019910Y0213720D02*
X0187649Y0213720D01*
X0187646Y0215320D02*
X0019910Y0215320D01*
X0019910Y0216920D02*
X0187643Y0216920D01*
X0187640Y0218520D02*
X0019910Y0218520D01*
X0019910Y0220120D02*
X0187637Y0220120D01*
X0187634Y0221720D02*
X0019910Y0221720D01*
X0019910Y0223320D02*
X0187631Y0223320D01*
D17*
X0182784Y0249917D03*
X0172784Y0249917D03*
X0162784Y0249917D03*
X0152784Y0249917D03*
X0142784Y0249917D03*
X0132784Y0249917D03*
X0122784Y0249917D03*
X0112784Y0249917D03*
X0102784Y0249917D03*
X0078178Y0262437D03*
X0078178Y0272437D03*
X0078178Y0282437D03*
X0078178Y0292437D03*
X0078178Y0302437D03*
X0078178Y0312437D03*
X0078178Y0322437D03*
X0078178Y0332437D03*
X0078178Y0342437D03*
X0078178Y0352437D03*
X0078178Y0362437D03*
X0078178Y0372437D03*
X0100265Y0376689D03*
X0100265Y0386689D03*
X0100265Y0396689D03*
X0100265Y0366689D03*
X0100265Y0356689D03*
X0100265Y0346689D03*
X0033178Y0347437D03*
X0033178Y0337437D03*
X0018178Y0332437D03*
X0018178Y0322437D03*
X0018178Y0312437D03*
X0018178Y0302437D03*
X0018178Y0292437D03*
X0018178Y0282437D03*
X0018178Y0272437D03*
X0018178Y0262437D03*
X0023178Y0252437D03*
X0033178Y0252437D03*
X0043178Y0252437D03*
X0053178Y0252437D03*
X0063178Y0252437D03*
X0073178Y0252437D03*
X0033178Y0297437D03*
X0033178Y0307437D03*
X0018178Y0342437D03*
X0018178Y0352437D03*
X0018178Y0362437D03*
X0018178Y0372437D03*
X0018414Y0484209D03*
X0018414Y0492083D03*
X0180265Y0386689D03*
X0180265Y0376689D03*
X0180265Y0366689D03*
X0180265Y0356689D03*
X0180265Y0346689D03*
X0180265Y0336689D03*
X0192784Y0249917D03*
X0265973Y0222004D03*
X0275973Y0222004D03*
X0285973Y0222004D03*
X0295973Y0222004D03*
X0305973Y0222004D03*
X0315973Y0222004D03*
X0325973Y0222004D03*
X0337351Y0260783D03*
X0337351Y0270783D03*
X0337351Y0280783D03*
X0337351Y0290783D03*
D18*
X0019910Y0429130D03*
X0019910Y0454720D03*
D19*
X0026721Y0468776D03*
X0036721Y0468776D03*
X0044320Y0395508D03*
X0054320Y0395508D03*
X0064320Y0395508D03*
X0074320Y0395508D03*
X0084320Y0395508D03*
X0084320Y0385508D03*
X0074320Y0385508D03*
X0064320Y0385508D03*
X0054320Y0385508D03*
X0044320Y0385508D03*
D20*
X0060737Y0442791D03*
X0060737Y0452791D03*
X0060737Y0462791D03*
D21*
X0116643Y0390272D03*
X0116682Y0372870D03*
X0116209Y0354839D03*
X0116406Y0337122D03*
X0144044Y0356492D03*
X0160737Y0368618D03*
X0148217Y0384051D03*
X0163611Y0344681D03*
X0288296Y0270193D03*
X0303847Y0289563D03*
X0310737Y0247358D03*
X0334359Y0233579D03*
X0331682Y0494917D03*
X0304556Y0494917D03*
X0281367Y0494917D03*
X0255540Y0494602D03*
D22*
X0322666Y0482949D03*
X0336839Y0468382D03*
X0314398Y0401846D03*
X0319517Y0392004D03*
X0320698Y0373894D03*
X0306918Y0374287D03*
X0284083Y0396335D03*
X0275028Y0399091D03*
X0264792Y0381768D03*
X0276997Y0373106D03*
X0257706Y0347909D03*
X0315973Y0340823D03*
X0319517Y0331374D03*
X0323060Y0323500D03*
X0340383Y0340429D03*
X0262036Y0273894D03*
X0178178Y0242398D03*
X0157902Y0245154D03*
X0143139Y0240823D03*
X0135265Y0240626D03*
X0138020Y0262476D03*
X0137627Y0272319D03*
X0121879Y0263264D03*
X0111643Y0266020D03*
X0109280Y0257752D03*
X0097469Y0277437D03*
X0102981Y0282949D03*
X0097469Y0295154D03*
X0086839Y0287280D03*
X0086446Y0277437D03*
X0067942Y0260508D03*
X0060068Y0268382D03*
X0054556Y0262476D03*
X0048257Y0262476D03*
X0042745Y0280193D03*
X0053769Y0304602D03*
X0064398Y0325862D03*
X0087233Y0332555D03*
X0097076Y0332161D03*
X0086446Y0307358D03*
X0064792Y0350469D03*
X0049438Y0360902D03*
X0059280Y0367594D03*
X0054162Y0377831D03*
X0043926Y0402240D03*
X0042745Y0411689D03*
X0044713Y0417988D03*
X0061249Y0425075D03*
X0069910Y0419957D03*
X0086446Y0419760D03*
X0092154Y0419366D03*
X0100225Y0419169D03*
X0114398Y0418776D03*
X0133690Y0419169D03*
X0149438Y0432555D03*
X0152587Y0426650D03*
X0168335Y0429799D03*
X0164792Y0443579D03*
X0167548Y0455587D03*
X0162036Y0466020D03*
X0161249Y0475469D03*
X0147469Y0483736D03*
X0131721Y0477043D03*
X0124831Y0476453D03*
X0119517Y0466020D03*
X0099044Y0451453D03*
X0106131Y0442004D03*
X0124241Y0442791D03*
X0147469Y0443185D03*
X0147076Y0458539D03*
X0195107Y0401059D03*
X0167154Y0394760D03*
X0127391Y0373500D03*
X0125422Y0392398D03*
X0086839Y0377043D03*
X0086446Y0431374D03*
X0079359Y0446335D03*
X0084477Y0452634D03*
X0068335Y0442004D03*
X0049398Y0441965D03*
X0041957Y0454209D03*
X0022076Y0442791D03*
X0028965Y0393185D03*
X0020304Y0384524D03*
X0035265Y0356965D03*
X0069123Y0467201D03*
X0081721Y0481768D03*
X0087627Y0484524D03*
X0065186Y0494366D03*
X0085265Y0244760D03*
X0038020Y0244366D03*
M02*
