G75*
%MOIN*%
%OFA0B0*%
%FSLAX25Y25*%
%IPPOS*%
%LPD*%
%AMOC8*
5,1,8,0,0,1.08239X$1,22.5*
%
%ADD10C,0.01600*%
%ADD11C,0.00000*%
%ADD12C,0.00600*%
%ADD13C,0.00394*%
%ADD14C,0.00300*%
%ADD15C,0.02400*%
%ADD16C,0.01000*%
%ADD17C,0.25000*%
%ADD18R,0.12598X0.12598*%
%ADD19C,0.05600*%
%ADD20R,0.05512X0.06299*%
%ADD21R,0.02756X0.03543*%
%ADD22R,0.06299X0.05512*%
%ADD23R,0.05118X0.05906*%
%ADD24R,0.09843X0.04724*%
%ADD25C,0.10000*%
%ADD26R,0.05787X0.05000*%
%ADD27R,0.03150X0.03937*%
%ADD28C,0.06000*%
%ADD29OC8,0.06000*%
%ADD30R,0.21654X0.08465*%
%ADD31R,0.03150X0.03150*%
%ADD32R,0.04724X0.04724*%
%ADD33C,0.06600*%
%ADD34OC8,0.08500*%
%ADD35R,0.03150X0.03543*%
%ADD36R,0.03937X0.05512*%
%ADD37R,0.03543X0.02756*%
%ADD38R,0.04331X0.05512*%
%ADD39R,0.05512X0.04331*%
%ADD40R,0.02500X0.05000*%
%ADD41C,0.05550*%
%ADD42R,0.03937X0.07874*%
%ADD43R,0.07874X0.03937*%
%ADD44C,0.05550*%
%ADD45R,0.05550X0.05550*%
%ADD46OC8,0.05550*%
%ADD47R,0.03346X0.08661*%
%ADD48R,0.03937X0.04134*%
%ADD49R,0.02165X0.04724*%
%ADD50R,0.04724X0.02165*%
%ADD51C,0.04362*%
D10*
X0001800Y0109720D02*
X0001800Y0503421D01*
X0206524Y0503421D01*
X0238020Y0503421D01*
X0352194Y0503421D01*
X0352194Y0109720D01*
X0238020Y0109720D01*
X0206524Y0109720D01*
X0206524Y0503421D01*
X0238020Y0503421D02*
X0238020Y0109720D01*
X0206524Y0109720D02*
X0001800Y0109720D01*
X0069517Y0266413D02*
X0069517Y0388461D01*
X0070304Y0389248D01*
X0071485Y0390429D01*
X0079359Y0390429D01*
X0084320Y0395390D01*
X0069517Y0393185D02*
X0064320Y0387988D01*
X0069517Y0393185D02*
X0069517Y0397909D01*
X0062036Y0405390D01*
X0062036Y0414327D01*
X0057587Y0406374D02*
X0059280Y0404681D01*
X0059280Y0367594D01*
X0049044Y0390626D02*
X0034477Y0390429D01*
X0026209Y0382161D01*
X0021485Y0382161D01*
X0020304Y0383343D01*
X0020304Y0384524D01*
X0049044Y0390626D02*
X0054320Y0395508D01*
X0051879Y0441965D02*
X0049398Y0441965D01*
X0051879Y0441965D02*
X0057706Y0447791D01*
X0077902Y0447791D01*
X0079359Y0446335D01*
X0121288Y0479996D02*
X0121288Y0483736D01*
X0121288Y0479996D02*
X0124831Y0476453D01*
D11*
X0184477Y0495547D02*
X0184479Y0495705D01*
X0184485Y0495863D01*
X0184495Y0496021D01*
X0184509Y0496179D01*
X0184527Y0496336D01*
X0184548Y0496493D01*
X0184574Y0496649D01*
X0184604Y0496805D01*
X0184637Y0496960D01*
X0184675Y0497113D01*
X0184716Y0497266D01*
X0184761Y0497418D01*
X0184810Y0497569D01*
X0184863Y0497718D01*
X0184919Y0497866D01*
X0184979Y0498012D01*
X0185043Y0498157D01*
X0185111Y0498300D01*
X0185182Y0498442D01*
X0185256Y0498582D01*
X0185334Y0498719D01*
X0185416Y0498855D01*
X0185500Y0498989D01*
X0185589Y0499120D01*
X0185680Y0499249D01*
X0185775Y0499376D01*
X0185872Y0499501D01*
X0185973Y0499623D01*
X0186077Y0499742D01*
X0186184Y0499859D01*
X0186294Y0499973D01*
X0186407Y0500084D01*
X0186522Y0500193D01*
X0186640Y0500298D01*
X0186761Y0500400D01*
X0186884Y0500500D01*
X0187010Y0500596D01*
X0187138Y0500689D01*
X0187268Y0500779D01*
X0187401Y0500865D01*
X0187536Y0500949D01*
X0187672Y0501028D01*
X0187811Y0501105D01*
X0187952Y0501177D01*
X0188094Y0501247D01*
X0188238Y0501312D01*
X0188384Y0501374D01*
X0188531Y0501432D01*
X0188680Y0501487D01*
X0188830Y0501538D01*
X0188981Y0501585D01*
X0189133Y0501628D01*
X0189286Y0501667D01*
X0189441Y0501703D01*
X0189596Y0501734D01*
X0189752Y0501762D01*
X0189908Y0501786D01*
X0190065Y0501806D01*
X0190223Y0501822D01*
X0190380Y0501834D01*
X0190539Y0501842D01*
X0190697Y0501846D01*
X0190855Y0501846D01*
X0191013Y0501842D01*
X0191172Y0501834D01*
X0191329Y0501822D01*
X0191487Y0501806D01*
X0191644Y0501786D01*
X0191800Y0501762D01*
X0191956Y0501734D01*
X0192111Y0501703D01*
X0192266Y0501667D01*
X0192419Y0501628D01*
X0192571Y0501585D01*
X0192722Y0501538D01*
X0192872Y0501487D01*
X0193021Y0501432D01*
X0193168Y0501374D01*
X0193314Y0501312D01*
X0193458Y0501247D01*
X0193600Y0501177D01*
X0193741Y0501105D01*
X0193880Y0501028D01*
X0194016Y0500949D01*
X0194151Y0500865D01*
X0194284Y0500779D01*
X0194414Y0500689D01*
X0194542Y0500596D01*
X0194668Y0500500D01*
X0194791Y0500400D01*
X0194912Y0500298D01*
X0195030Y0500193D01*
X0195145Y0500084D01*
X0195258Y0499973D01*
X0195368Y0499859D01*
X0195475Y0499742D01*
X0195579Y0499623D01*
X0195680Y0499501D01*
X0195777Y0499376D01*
X0195872Y0499249D01*
X0195963Y0499120D01*
X0196052Y0498989D01*
X0196136Y0498855D01*
X0196218Y0498719D01*
X0196296Y0498582D01*
X0196370Y0498442D01*
X0196441Y0498300D01*
X0196509Y0498157D01*
X0196573Y0498012D01*
X0196633Y0497866D01*
X0196689Y0497718D01*
X0196742Y0497569D01*
X0196791Y0497418D01*
X0196836Y0497266D01*
X0196877Y0497113D01*
X0196915Y0496960D01*
X0196948Y0496805D01*
X0196978Y0496649D01*
X0197004Y0496493D01*
X0197025Y0496336D01*
X0197043Y0496179D01*
X0197057Y0496021D01*
X0197067Y0495863D01*
X0197073Y0495705D01*
X0197075Y0495547D01*
X0197073Y0495389D01*
X0197067Y0495231D01*
X0197057Y0495073D01*
X0197043Y0494915D01*
X0197025Y0494758D01*
X0197004Y0494601D01*
X0196978Y0494445D01*
X0196948Y0494289D01*
X0196915Y0494134D01*
X0196877Y0493981D01*
X0196836Y0493828D01*
X0196791Y0493676D01*
X0196742Y0493525D01*
X0196689Y0493376D01*
X0196633Y0493228D01*
X0196573Y0493082D01*
X0196509Y0492937D01*
X0196441Y0492794D01*
X0196370Y0492652D01*
X0196296Y0492512D01*
X0196218Y0492375D01*
X0196136Y0492239D01*
X0196052Y0492105D01*
X0195963Y0491974D01*
X0195872Y0491845D01*
X0195777Y0491718D01*
X0195680Y0491593D01*
X0195579Y0491471D01*
X0195475Y0491352D01*
X0195368Y0491235D01*
X0195258Y0491121D01*
X0195145Y0491010D01*
X0195030Y0490901D01*
X0194912Y0490796D01*
X0194791Y0490694D01*
X0194668Y0490594D01*
X0194542Y0490498D01*
X0194414Y0490405D01*
X0194284Y0490315D01*
X0194151Y0490229D01*
X0194016Y0490145D01*
X0193880Y0490066D01*
X0193741Y0489989D01*
X0193600Y0489917D01*
X0193458Y0489847D01*
X0193314Y0489782D01*
X0193168Y0489720D01*
X0193021Y0489662D01*
X0192872Y0489607D01*
X0192722Y0489556D01*
X0192571Y0489509D01*
X0192419Y0489466D01*
X0192266Y0489427D01*
X0192111Y0489391D01*
X0191956Y0489360D01*
X0191800Y0489332D01*
X0191644Y0489308D01*
X0191487Y0489288D01*
X0191329Y0489272D01*
X0191172Y0489260D01*
X0191013Y0489252D01*
X0190855Y0489248D01*
X0190697Y0489248D01*
X0190539Y0489252D01*
X0190380Y0489260D01*
X0190223Y0489272D01*
X0190065Y0489288D01*
X0189908Y0489308D01*
X0189752Y0489332D01*
X0189596Y0489360D01*
X0189441Y0489391D01*
X0189286Y0489427D01*
X0189133Y0489466D01*
X0188981Y0489509D01*
X0188830Y0489556D01*
X0188680Y0489607D01*
X0188531Y0489662D01*
X0188384Y0489720D01*
X0188238Y0489782D01*
X0188094Y0489847D01*
X0187952Y0489917D01*
X0187811Y0489989D01*
X0187672Y0490066D01*
X0187536Y0490145D01*
X0187401Y0490229D01*
X0187268Y0490315D01*
X0187138Y0490405D01*
X0187010Y0490498D01*
X0186884Y0490594D01*
X0186761Y0490694D01*
X0186640Y0490796D01*
X0186522Y0490901D01*
X0186407Y0491010D01*
X0186294Y0491121D01*
X0186184Y0491235D01*
X0186077Y0491352D01*
X0185973Y0491471D01*
X0185872Y0491593D01*
X0185775Y0491718D01*
X0185680Y0491845D01*
X0185589Y0491974D01*
X0185500Y0492105D01*
X0185416Y0492239D01*
X0185334Y0492375D01*
X0185256Y0492512D01*
X0185182Y0492652D01*
X0185111Y0492794D01*
X0185043Y0492937D01*
X0184979Y0493082D01*
X0184919Y0493228D01*
X0184863Y0493376D01*
X0184810Y0493525D01*
X0184761Y0493676D01*
X0184716Y0493828D01*
X0184675Y0493981D01*
X0184637Y0494134D01*
X0184604Y0494289D01*
X0184574Y0494445D01*
X0184548Y0494601D01*
X0184527Y0494758D01*
X0184509Y0494915D01*
X0184495Y0495073D01*
X0184485Y0495231D01*
X0184479Y0495389D01*
X0184477Y0495547D01*
X0286918Y0445980D02*
X0286920Y0446133D01*
X0286926Y0446287D01*
X0286936Y0446440D01*
X0286950Y0446592D01*
X0286968Y0446745D01*
X0286990Y0446896D01*
X0287015Y0447047D01*
X0287045Y0447198D01*
X0287079Y0447348D01*
X0287116Y0447496D01*
X0287157Y0447644D01*
X0287202Y0447790D01*
X0287251Y0447936D01*
X0287304Y0448080D01*
X0287360Y0448222D01*
X0287420Y0448363D01*
X0287484Y0448503D01*
X0287551Y0448641D01*
X0287622Y0448777D01*
X0287697Y0448911D01*
X0287774Y0449043D01*
X0287856Y0449173D01*
X0287940Y0449301D01*
X0288028Y0449427D01*
X0288119Y0449550D01*
X0288213Y0449671D01*
X0288311Y0449789D01*
X0288411Y0449905D01*
X0288515Y0450018D01*
X0288621Y0450129D01*
X0288730Y0450237D01*
X0288842Y0450342D01*
X0288956Y0450443D01*
X0289074Y0450542D01*
X0289193Y0450638D01*
X0289315Y0450731D01*
X0289440Y0450820D01*
X0289567Y0450907D01*
X0289696Y0450989D01*
X0289827Y0451069D01*
X0289960Y0451145D01*
X0290095Y0451218D01*
X0290232Y0451287D01*
X0290371Y0451352D01*
X0290511Y0451414D01*
X0290653Y0451472D01*
X0290796Y0451527D01*
X0290941Y0451578D01*
X0291087Y0451625D01*
X0291234Y0451668D01*
X0291382Y0451707D01*
X0291531Y0451743D01*
X0291681Y0451774D01*
X0291832Y0451802D01*
X0291983Y0451826D01*
X0292136Y0451846D01*
X0292288Y0451862D01*
X0292441Y0451874D01*
X0292594Y0451882D01*
X0292747Y0451886D01*
X0292901Y0451886D01*
X0293054Y0451882D01*
X0293207Y0451874D01*
X0293360Y0451862D01*
X0293512Y0451846D01*
X0293665Y0451826D01*
X0293816Y0451802D01*
X0293967Y0451774D01*
X0294117Y0451743D01*
X0294266Y0451707D01*
X0294414Y0451668D01*
X0294561Y0451625D01*
X0294707Y0451578D01*
X0294852Y0451527D01*
X0294995Y0451472D01*
X0295137Y0451414D01*
X0295277Y0451352D01*
X0295416Y0451287D01*
X0295553Y0451218D01*
X0295688Y0451145D01*
X0295821Y0451069D01*
X0295952Y0450989D01*
X0296081Y0450907D01*
X0296208Y0450820D01*
X0296333Y0450731D01*
X0296455Y0450638D01*
X0296574Y0450542D01*
X0296692Y0450443D01*
X0296806Y0450342D01*
X0296918Y0450237D01*
X0297027Y0450129D01*
X0297133Y0450018D01*
X0297237Y0449905D01*
X0297337Y0449789D01*
X0297435Y0449671D01*
X0297529Y0449550D01*
X0297620Y0449427D01*
X0297708Y0449301D01*
X0297792Y0449173D01*
X0297874Y0449043D01*
X0297951Y0448911D01*
X0298026Y0448777D01*
X0298097Y0448641D01*
X0298164Y0448503D01*
X0298228Y0448363D01*
X0298288Y0448222D01*
X0298344Y0448080D01*
X0298397Y0447936D01*
X0298446Y0447790D01*
X0298491Y0447644D01*
X0298532Y0447496D01*
X0298569Y0447348D01*
X0298603Y0447198D01*
X0298633Y0447047D01*
X0298658Y0446896D01*
X0298680Y0446745D01*
X0298698Y0446592D01*
X0298712Y0446440D01*
X0298722Y0446287D01*
X0298728Y0446133D01*
X0298730Y0445980D01*
X0298728Y0445827D01*
X0298722Y0445673D01*
X0298712Y0445520D01*
X0298698Y0445368D01*
X0298680Y0445215D01*
X0298658Y0445064D01*
X0298633Y0444913D01*
X0298603Y0444762D01*
X0298569Y0444612D01*
X0298532Y0444464D01*
X0298491Y0444316D01*
X0298446Y0444170D01*
X0298397Y0444024D01*
X0298344Y0443880D01*
X0298288Y0443738D01*
X0298228Y0443597D01*
X0298164Y0443457D01*
X0298097Y0443319D01*
X0298026Y0443183D01*
X0297951Y0443049D01*
X0297874Y0442917D01*
X0297792Y0442787D01*
X0297708Y0442659D01*
X0297620Y0442533D01*
X0297529Y0442410D01*
X0297435Y0442289D01*
X0297337Y0442171D01*
X0297237Y0442055D01*
X0297133Y0441942D01*
X0297027Y0441831D01*
X0296918Y0441723D01*
X0296806Y0441618D01*
X0296692Y0441517D01*
X0296574Y0441418D01*
X0296455Y0441322D01*
X0296333Y0441229D01*
X0296208Y0441140D01*
X0296081Y0441053D01*
X0295952Y0440971D01*
X0295821Y0440891D01*
X0295688Y0440815D01*
X0295553Y0440742D01*
X0295416Y0440673D01*
X0295277Y0440608D01*
X0295137Y0440546D01*
X0294995Y0440488D01*
X0294852Y0440433D01*
X0294707Y0440382D01*
X0294561Y0440335D01*
X0294414Y0440292D01*
X0294266Y0440253D01*
X0294117Y0440217D01*
X0293967Y0440186D01*
X0293816Y0440158D01*
X0293665Y0440134D01*
X0293512Y0440114D01*
X0293360Y0440098D01*
X0293207Y0440086D01*
X0293054Y0440078D01*
X0292901Y0440074D01*
X0292747Y0440074D01*
X0292594Y0440078D01*
X0292441Y0440086D01*
X0292288Y0440098D01*
X0292136Y0440114D01*
X0291983Y0440134D01*
X0291832Y0440158D01*
X0291681Y0440186D01*
X0291531Y0440217D01*
X0291382Y0440253D01*
X0291234Y0440292D01*
X0291087Y0440335D01*
X0290941Y0440382D01*
X0290796Y0440433D01*
X0290653Y0440488D01*
X0290511Y0440546D01*
X0290371Y0440608D01*
X0290232Y0440673D01*
X0290095Y0440742D01*
X0289960Y0440815D01*
X0289827Y0440891D01*
X0289696Y0440971D01*
X0289567Y0441053D01*
X0289440Y0441140D01*
X0289315Y0441229D01*
X0289193Y0441322D01*
X0289074Y0441418D01*
X0288956Y0441517D01*
X0288842Y0441618D01*
X0288730Y0441723D01*
X0288621Y0441831D01*
X0288515Y0441942D01*
X0288411Y0442055D01*
X0288311Y0442171D01*
X0288213Y0442289D01*
X0288119Y0442410D01*
X0288028Y0442533D01*
X0287940Y0442659D01*
X0287856Y0442787D01*
X0287774Y0442917D01*
X0287697Y0443049D01*
X0287622Y0443183D01*
X0287551Y0443319D01*
X0287484Y0443457D01*
X0287420Y0443597D01*
X0287360Y0443738D01*
X0287304Y0443880D01*
X0287251Y0444024D01*
X0287202Y0444170D01*
X0287157Y0444316D01*
X0287116Y0444464D01*
X0287079Y0444612D01*
X0287045Y0444762D01*
X0287015Y0444913D01*
X0286990Y0445064D01*
X0286968Y0445215D01*
X0286950Y0445368D01*
X0286936Y0445520D01*
X0286926Y0445673D01*
X0286920Y0445827D01*
X0286918Y0445980D01*
X0188729Y0225705D02*
X0019438Y0225705D01*
X0019438Y0123343D01*
X0188729Y0123343D01*
X0188729Y0225705D01*
D12*
X0144661Y0188473D02*
X0140391Y0188473D01*
X0142526Y0188473D02*
X0142526Y0182068D01*
X0138216Y0183135D02*
X0138216Y0188473D01*
X0133945Y0188473D02*
X0133945Y0183135D01*
X0135013Y0182068D01*
X0137148Y0182068D01*
X0138216Y0183135D01*
X0131770Y0183135D02*
X0131770Y0187406D01*
X0130702Y0188473D01*
X0128567Y0188473D01*
X0127500Y0187406D01*
X0127500Y0183135D01*
X0128567Y0182068D01*
X0130702Y0182068D01*
X0131770Y0183135D01*
X0125325Y0188473D02*
X0121054Y0188473D01*
X0123189Y0188473D02*
X0123189Y0182068D01*
X0118879Y0183135D02*
X0118879Y0188473D01*
X0114609Y0188473D02*
X0114609Y0183135D01*
X0115676Y0182068D01*
X0117811Y0182068D01*
X0118879Y0183135D01*
X0112434Y0183135D02*
X0111366Y0182068D01*
X0109231Y0182068D01*
X0108163Y0183135D01*
X0108163Y0187406D01*
X0109231Y0188473D01*
X0111366Y0188473D01*
X0112434Y0187406D01*
X0099543Y0187406D02*
X0099543Y0185270D01*
X0098475Y0184203D01*
X0095272Y0184203D01*
X0095272Y0182068D02*
X0095272Y0188473D01*
X0098475Y0188473D01*
X0099543Y0187406D01*
X0093110Y0188473D02*
X0090975Y0188473D01*
X0092043Y0188473D02*
X0092043Y0182068D01*
X0093110Y0182068D02*
X0090975Y0182068D01*
X0088800Y0182068D02*
X0088800Y0188473D01*
X0088800Y0185270D02*
X0084530Y0185270D01*
X0082355Y0183135D02*
X0081287Y0182068D01*
X0079152Y0182068D01*
X0078084Y0183135D01*
X0078084Y0187406D01*
X0079152Y0188473D01*
X0081287Y0188473D01*
X0082355Y0187406D01*
X0084530Y0188473D02*
X0084530Y0182068D01*
D13*
X0207312Y0181720D02*
X0237233Y0181720D01*
X0237233Y0180720D02*
X0207312Y0180720D01*
X0207312Y0179720D02*
X0237233Y0179720D01*
X0237233Y0178720D02*
X0207312Y0178720D01*
X0207312Y0177720D02*
X0237233Y0177720D01*
X0237233Y0176720D02*
X0207312Y0176720D01*
X0207312Y0175720D02*
X0237233Y0175720D01*
X0237233Y0174720D02*
X0207312Y0174720D01*
X0207312Y0173720D02*
X0237233Y0173720D01*
X0237233Y0172720D02*
X0207312Y0172720D01*
X0207312Y0171720D02*
X0237233Y0171720D01*
X0237233Y0170720D02*
X0207312Y0170720D01*
X0207312Y0169720D02*
X0237233Y0169720D01*
X0237233Y0168720D02*
X0207312Y0168720D01*
X0207312Y0167720D02*
X0237233Y0167720D01*
X0237233Y0166720D02*
X0207312Y0166720D01*
X0207312Y0165720D02*
X0237233Y0165720D01*
X0237233Y0164720D02*
X0207312Y0164720D01*
X0207312Y0163720D02*
X0237233Y0163720D01*
X0237233Y0162720D02*
X0207312Y0162720D01*
X0207312Y0161720D02*
X0237233Y0161720D01*
X0237233Y0160720D02*
X0207312Y0160720D01*
X0207312Y0159720D02*
X0237233Y0159720D01*
X0237233Y0158720D02*
X0207312Y0158720D01*
X0207312Y0157720D02*
X0237233Y0157720D01*
X0237233Y0156720D02*
X0207312Y0156720D01*
X0207312Y0155720D02*
X0237233Y0155720D01*
X0237233Y0154720D02*
X0207312Y0154720D01*
X0207312Y0153720D02*
X0237233Y0153720D01*
X0237233Y0152720D02*
X0207312Y0152720D01*
X0207312Y0151720D02*
X0237233Y0151720D01*
X0237233Y0150720D02*
X0207312Y0150720D01*
X0207312Y0149720D02*
X0237233Y0149720D01*
X0237233Y0148720D02*
X0207312Y0148720D01*
X0207312Y0147720D02*
X0237233Y0147720D01*
X0237233Y0146720D02*
X0207312Y0146720D01*
X0207312Y0145720D02*
X0237233Y0145720D01*
X0237233Y0144720D02*
X0207312Y0144720D01*
X0207312Y0143720D02*
X0237233Y0143720D01*
X0237233Y0142720D02*
X0207312Y0142720D01*
X0207312Y0141720D02*
X0237233Y0141720D01*
X0237233Y0140720D02*
X0207312Y0140720D01*
X0207312Y0139720D02*
X0237233Y0139720D01*
X0237233Y0138720D02*
X0207312Y0138720D01*
X0207312Y0137720D02*
X0237233Y0137720D01*
X0237233Y0136720D02*
X0207312Y0136720D01*
X0207312Y0135720D02*
X0237233Y0135720D01*
X0237233Y0134720D02*
X0207312Y0134720D01*
X0207312Y0133720D02*
X0237233Y0133720D01*
X0237233Y0132720D02*
X0207312Y0132720D01*
X0207312Y0131720D02*
X0237233Y0131720D01*
X0237233Y0130720D02*
X0207312Y0130720D01*
X0207312Y0129720D02*
X0237233Y0129720D01*
X0237233Y0128720D02*
X0207312Y0128720D01*
X0207312Y0127720D02*
X0237233Y0127720D01*
X0237233Y0126720D02*
X0207312Y0126720D01*
X0207312Y0125720D02*
X0237233Y0125720D01*
X0237233Y0124720D02*
X0207312Y0124720D01*
X0207312Y0123720D02*
X0237233Y0123720D01*
X0237233Y0122720D02*
X0207312Y0122720D01*
X0207312Y0121720D02*
X0237233Y0121720D01*
X0237233Y0120720D02*
X0207312Y0120720D01*
X0207312Y0119720D02*
X0237233Y0119720D01*
X0237233Y0118720D02*
X0207312Y0118720D01*
X0207312Y0117720D02*
X0237233Y0117720D01*
X0237233Y0116720D02*
X0207312Y0116720D01*
X0207312Y0115720D02*
X0237233Y0115720D01*
X0237233Y0114720D02*
X0207312Y0114720D01*
X0207312Y0113720D02*
X0237233Y0113720D01*
X0237233Y0112720D02*
X0207312Y0112720D01*
X0207312Y0111720D02*
X0237233Y0111720D01*
X0237233Y0110720D02*
X0207312Y0110720D01*
X0207312Y0110508D02*
X0207312Y0502634D01*
X0207312Y0508146D01*
X0207312Y0502634D02*
X0237233Y0502634D01*
X0237233Y0110508D01*
X0207312Y0110508D01*
X0207800Y0110508D02*
X0207800Y0502634D01*
X0208800Y0502634D02*
X0208800Y0110508D01*
X0209800Y0110508D02*
X0209800Y0502634D01*
X0210800Y0502634D02*
X0210800Y0110508D01*
X0211800Y0110508D02*
X0211800Y0502634D01*
X0212800Y0502634D02*
X0212800Y0110508D01*
X0213800Y0110508D02*
X0213800Y0502634D01*
X0214800Y0502634D02*
X0214800Y0110508D01*
X0215800Y0110508D02*
X0215800Y0502634D01*
X0216800Y0502634D02*
X0216800Y0110508D01*
X0217800Y0110508D02*
X0217800Y0502634D01*
X0218800Y0502634D02*
X0218800Y0110508D01*
X0219800Y0110508D02*
X0219800Y0502634D01*
X0220800Y0502634D02*
X0220800Y0110508D01*
X0221800Y0110508D02*
X0221800Y0502634D01*
X0222800Y0502634D02*
X0222800Y0110508D01*
X0223800Y0110508D02*
X0223800Y0502634D01*
X0224800Y0502634D02*
X0224800Y0110508D01*
X0225800Y0110508D02*
X0225800Y0502634D01*
X0226800Y0502634D02*
X0226800Y0110508D01*
X0227800Y0110508D02*
X0227800Y0502634D01*
X0228800Y0502634D02*
X0228800Y0110508D01*
X0229800Y0110508D02*
X0229800Y0502634D01*
X0230800Y0502634D02*
X0230800Y0110508D01*
X0231800Y0110508D02*
X0231800Y0502634D01*
X0232800Y0502634D02*
X0232800Y0110508D01*
X0233800Y0110508D02*
X0233800Y0502634D01*
X0234800Y0502634D02*
X0234800Y0110508D01*
X0235800Y0110508D02*
X0235800Y0502634D01*
X0236800Y0502634D02*
X0236800Y0110508D01*
X0237233Y0182720D02*
X0207312Y0182720D01*
X0207312Y0183720D02*
X0237233Y0183720D01*
X0237233Y0184720D02*
X0207312Y0184720D01*
X0207312Y0185720D02*
X0237233Y0185720D01*
X0237233Y0186720D02*
X0207312Y0186720D01*
X0207312Y0187720D02*
X0237233Y0187720D01*
X0237233Y0188720D02*
X0207312Y0188720D01*
X0207312Y0189720D02*
X0237233Y0189720D01*
X0237233Y0190720D02*
X0207312Y0190720D01*
X0207312Y0191720D02*
X0237233Y0191720D01*
X0237233Y0192720D02*
X0207312Y0192720D01*
X0207312Y0193720D02*
X0237233Y0193720D01*
X0237233Y0194720D02*
X0207312Y0194720D01*
X0207312Y0195720D02*
X0237233Y0195720D01*
X0237233Y0196720D02*
X0207312Y0196720D01*
X0207312Y0197720D02*
X0237233Y0197720D01*
X0237233Y0198720D02*
X0207312Y0198720D01*
X0207312Y0199720D02*
X0237233Y0199720D01*
X0237233Y0200720D02*
X0207312Y0200720D01*
X0207312Y0201720D02*
X0237233Y0201720D01*
X0237233Y0202720D02*
X0207312Y0202720D01*
X0207312Y0203720D02*
X0237233Y0203720D01*
X0237233Y0204720D02*
X0207312Y0204720D01*
X0207312Y0205720D02*
X0237233Y0205720D01*
X0237233Y0206720D02*
X0207312Y0206720D01*
X0207312Y0207720D02*
X0237233Y0207720D01*
X0237233Y0208720D02*
X0207312Y0208720D01*
X0207312Y0209720D02*
X0237233Y0209720D01*
X0237233Y0210720D02*
X0207312Y0210720D01*
X0207312Y0211720D02*
X0237233Y0211720D01*
X0237233Y0212720D02*
X0207312Y0212720D01*
X0207312Y0213720D02*
X0237233Y0213720D01*
X0237233Y0214720D02*
X0207312Y0214720D01*
X0207312Y0215720D02*
X0237233Y0215720D01*
X0237233Y0216720D02*
X0207312Y0216720D01*
X0207312Y0217720D02*
X0237233Y0217720D01*
X0237233Y0218720D02*
X0207312Y0218720D01*
X0207312Y0219720D02*
X0237233Y0219720D01*
X0237233Y0220720D02*
X0207312Y0220720D01*
X0207312Y0221720D02*
X0237233Y0221720D01*
X0237233Y0222720D02*
X0207312Y0222720D01*
X0207312Y0223720D02*
X0237233Y0223720D01*
X0237233Y0224720D02*
X0207312Y0224720D01*
X0207312Y0225720D02*
X0237233Y0225720D01*
X0237233Y0226720D02*
X0207312Y0226720D01*
X0207312Y0227720D02*
X0237233Y0227720D01*
X0237233Y0228720D02*
X0207312Y0228720D01*
X0207312Y0229720D02*
X0237233Y0229720D01*
X0237233Y0230720D02*
X0207312Y0230720D01*
X0207312Y0231720D02*
X0237233Y0231720D01*
X0237233Y0232720D02*
X0207312Y0232720D01*
X0207312Y0233720D02*
X0237233Y0233720D01*
X0237233Y0234720D02*
X0207312Y0234720D01*
X0207312Y0235720D02*
X0237233Y0235720D01*
X0237233Y0236720D02*
X0207312Y0236720D01*
X0207312Y0237720D02*
X0237233Y0237720D01*
X0237233Y0238720D02*
X0207312Y0238720D01*
X0207312Y0239720D02*
X0237233Y0239720D01*
X0237233Y0240720D02*
X0207312Y0240720D01*
X0207312Y0241720D02*
X0237233Y0241720D01*
X0237233Y0242720D02*
X0207312Y0242720D01*
X0207312Y0243720D02*
X0237233Y0243720D01*
X0237233Y0244720D02*
X0207312Y0244720D01*
X0207312Y0245720D02*
X0237233Y0245720D01*
X0237233Y0246720D02*
X0207312Y0246720D01*
X0207312Y0247720D02*
X0237233Y0247720D01*
X0237233Y0248720D02*
X0207312Y0248720D01*
X0207312Y0249720D02*
X0237233Y0249720D01*
X0237233Y0250720D02*
X0207312Y0250720D01*
X0207312Y0251720D02*
X0237233Y0251720D01*
X0237233Y0252720D02*
X0207312Y0252720D01*
X0207312Y0253720D02*
X0237233Y0253720D01*
X0237233Y0254720D02*
X0207312Y0254720D01*
X0207312Y0255720D02*
X0237233Y0255720D01*
X0237233Y0256720D02*
X0207312Y0256720D01*
X0207312Y0257720D02*
X0237233Y0257720D01*
X0237233Y0258720D02*
X0207312Y0258720D01*
X0207312Y0259720D02*
X0237233Y0259720D01*
X0237233Y0260720D02*
X0207312Y0260720D01*
X0207312Y0261720D02*
X0237233Y0261720D01*
X0237233Y0262720D02*
X0207312Y0262720D01*
X0207312Y0263720D02*
X0237233Y0263720D01*
X0237233Y0264720D02*
X0207312Y0264720D01*
X0207312Y0265720D02*
X0237233Y0265720D01*
X0237233Y0266720D02*
X0207312Y0266720D01*
X0207312Y0267720D02*
X0237233Y0267720D01*
X0237233Y0268720D02*
X0207312Y0268720D01*
X0207312Y0269720D02*
X0237233Y0269720D01*
X0237233Y0270720D02*
X0207312Y0270720D01*
X0207312Y0271720D02*
X0237233Y0271720D01*
X0237233Y0272720D02*
X0207312Y0272720D01*
X0207312Y0273720D02*
X0237233Y0273720D01*
X0237233Y0274720D02*
X0207312Y0274720D01*
X0207312Y0275720D02*
X0237233Y0275720D01*
X0237233Y0276720D02*
X0207312Y0276720D01*
X0207312Y0277720D02*
X0237233Y0277720D01*
X0237233Y0278720D02*
X0207312Y0278720D01*
X0207312Y0279720D02*
X0237233Y0279720D01*
X0237233Y0280720D02*
X0207312Y0280720D01*
X0207312Y0281720D02*
X0237233Y0281720D01*
X0237233Y0282720D02*
X0207312Y0282720D01*
X0207312Y0283720D02*
X0237233Y0283720D01*
X0237233Y0284720D02*
X0207312Y0284720D01*
X0207312Y0285720D02*
X0237233Y0285720D01*
X0237233Y0286720D02*
X0207312Y0286720D01*
X0207312Y0287720D02*
X0237233Y0287720D01*
X0237233Y0288720D02*
X0207312Y0288720D01*
X0207312Y0289720D02*
X0237233Y0289720D01*
X0237233Y0290720D02*
X0207312Y0290720D01*
X0207312Y0291720D02*
X0237233Y0291720D01*
X0237233Y0292720D02*
X0207312Y0292720D01*
X0207312Y0293720D02*
X0237233Y0293720D01*
X0237233Y0294720D02*
X0207312Y0294720D01*
X0207312Y0295720D02*
X0237233Y0295720D01*
X0237233Y0296720D02*
X0207312Y0296720D01*
X0207312Y0297720D02*
X0237233Y0297720D01*
X0237233Y0298720D02*
X0207312Y0298720D01*
X0207312Y0299720D02*
X0237233Y0299720D01*
X0237233Y0300720D02*
X0207312Y0300720D01*
X0207312Y0301720D02*
X0237233Y0301720D01*
X0237233Y0302720D02*
X0207312Y0302720D01*
X0207312Y0303720D02*
X0237233Y0303720D01*
X0237233Y0304720D02*
X0207312Y0304720D01*
X0207312Y0305720D02*
X0237233Y0305720D01*
X0237233Y0306720D02*
X0207312Y0306720D01*
X0207312Y0307720D02*
X0237233Y0307720D01*
X0237233Y0308720D02*
X0207312Y0308720D01*
X0207312Y0309720D02*
X0237233Y0309720D01*
X0237233Y0310720D02*
X0207312Y0310720D01*
X0207312Y0311720D02*
X0237233Y0311720D01*
X0237233Y0312720D02*
X0207312Y0312720D01*
X0207312Y0313720D02*
X0237233Y0313720D01*
X0237233Y0314720D02*
X0207312Y0314720D01*
X0207312Y0315720D02*
X0237233Y0315720D01*
X0237233Y0316720D02*
X0207312Y0316720D01*
X0207312Y0317720D02*
X0237233Y0317720D01*
X0237233Y0318720D02*
X0207312Y0318720D01*
X0207312Y0319720D02*
X0237233Y0319720D01*
X0237233Y0320720D02*
X0207312Y0320720D01*
X0207312Y0321720D02*
X0237233Y0321720D01*
X0237233Y0322720D02*
X0207312Y0322720D01*
X0207312Y0323720D02*
X0237233Y0323720D01*
X0237233Y0324720D02*
X0207312Y0324720D01*
X0207312Y0325720D02*
X0237233Y0325720D01*
X0237233Y0326720D02*
X0207312Y0326720D01*
X0207312Y0327720D02*
X0237233Y0327720D01*
X0237233Y0328720D02*
X0207312Y0328720D01*
X0207312Y0329720D02*
X0237233Y0329720D01*
X0237233Y0330720D02*
X0207312Y0330720D01*
X0207312Y0331720D02*
X0237233Y0331720D01*
X0237233Y0332720D02*
X0207312Y0332720D01*
X0207312Y0333720D02*
X0237233Y0333720D01*
X0237233Y0334720D02*
X0207312Y0334720D01*
X0207312Y0335720D02*
X0237233Y0335720D01*
X0237233Y0336720D02*
X0207312Y0336720D01*
X0207312Y0337720D02*
X0237233Y0337720D01*
X0237233Y0338720D02*
X0207312Y0338720D01*
X0207312Y0339720D02*
X0237233Y0339720D01*
X0237233Y0340720D02*
X0207312Y0340720D01*
X0207312Y0341720D02*
X0237233Y0341720D01*
X0237233Y0342720D02*
X0207312Y0342720D01*
X0207312Y0343720D02*
X0237233Y0343720D01*
X0237233Y0344720D02*
X0207312Y0344720D01*
X0207312Y0345720D02*
X0237233Y0345720D01*
X0237233Y0346720D02*
X0207312Y0346720D01*
X0207312Y0347720D02*
X0237233Y0347720D01*
X0237233Y0348720D02*
X0207312Y0348720D01*
X0207312Y0349720D02*
X0237233Y0349720D01*
X0237233Y0350720D02*
X0207312Y0350720D01*
X0207312Y0351720D02*
X0237233Y0351720D01*
X0237233Y0352720D02*
X0207312Y0352720D01*
X0207312Y0353720D02*
X0237233Y0353720D01*
X0237233Y0354720D02*
X0207312Y0354720D01*
X0207312Y0355720D02*
X0237233Y0355720D01*
X0237233Y0356720D02*
X0207312Y0356720D01*
X0207312Y0357720D02*
X0237233Y0357720D01*
X0237233Y0358720D02*
X0207312Y0358720D01*
X0207312Y0359720D02*
X0237233Y0359720D01*
X0237233Y0360720D02*
X0207312Y0360720D01*
X0207312Y0361720D02*
X0237233Y0361720D01*
X0237233Y0362720D02*
X0207312Y0362720D01*
X0207312Y0363720D02*
X0237233Y0363720D01*
X0237233Y0364720D02*
X0207312Y0364720D01*
X0207312Y0365720D02*
X0237233Y0365720D01*
X0237233Y0366720D02*
X0207312Y0366720D01*
X0207312Y0367720D02*
X0237233Y0367720D01*
X0237233Y0368720D02*
X0207312Y0368720D01*
X0207312Y0369720D02*
X0237233Y0369720D01*
X0237233Y0370720D02*
X0207312Y0370720D01*
X0207312Y0371720D02*
X0237233Y0371720D01*
X0237233Y0372720D02*
X0207312Y0372720D01*
X0207312Y0373720D02*
X0237233Y0373720D01*
X0237233Y0374720D02*
X0207312Y0374720D01*
X0207312Y0375720D02*
X0237233Y0375720D01*
X0237233Y0376720D02*
X0207312Y0376720D01*
X0207312Y0377720D02*
X0237233Y0377720D01*
X0237233Y0378720D02*
X0207312Y0378720D01*
X0207312Y0379720D02*
X0237233Y0379720D01*
X0237233Y0380720D02*
X0207312Y0380720D01*
X0207312Y0381720D02*
X0237233Y0381720D01*
X0237233Y0382720D02*
X0207312Y0382720D01*
X0207312Y0383720D02*
X0237233Y0383720D01*
X0237233Y0384720D02*
X0207312Y0384720D01*
X0207312Y0385720D02*
X0237233Y0385720D01*
X0237233Y0386720D02*
X0207312Y0386720D01*
X0207312Y0387720D02*
X0237233Y0387720D01*
X0237233Y0388720D02*
X0207312Y0388720D01*
X0207312Y0389720D02*
X0237233Y0389720D01*
X0237233Y0390720D02*
X0207312Y0390720D01*
X0207312Y0391720D02*
X0237233Y0391720D01*
X0237233Y0392720D02*
X0207312Y0392720D01*
X0207312Y0393720D02*
X0237233Y0393720D01*
X0237233Y0394720D02*
X0207312Y0394720D01*
X0207312Y0395720D02*
X0237233Y0395720D01*
X0237233Y0396720D02*
X0207312Y0396720D01*
X0207312Y0397720D02*
X0237233Y0397720D01*
X0237233Y0398720D02*
X0207312Y0398720D01*
X0207312Y0399720D02*
X0237233Y0399720D01*
X0237233Y0400720D02*
X0207312Y0400720D01*
X0207312Y0401720D02*
X0237233Y0401720D01*
X0237233Y0402720D02*
X0207312Y0402720D01*
X0207312Y0403720D02*
X0237233Y0403720D01*
X0237233Y0404720D02*
X0207312Y0404720D01*
X0207312Y0405720D02*
X0237233Y0405720D01*
X0237233Y0406720D02*
X0207312Y0406720D01*
X0207312Y0407720D02*
X0237233Y0407720D01*
X0237233Y0408720D02*
X0207312Y0408720D01*
X0207312Y0409720D02*
X0237233Y0409720D01*
X0237233Y0410720D02*
X0207312Y0410720D01*
X0207312Y0411720D02*
X0237233Y0411720D01*
X0237233Y0412720D02*
X0207312Y0412720D01*
X0207312Y0413720D02*
X0237233Y0413720D01*
X0237233Y0414720D02*
X0207312Y0414720D01*
X0207312Y0415720D02*
X0237233Y0415720D01*
X0237233Y0416720D02*
X0207312Y0416720D01*
X0207312Y0417720D02*
X0237233Y0417720D01*
X0237233Y0418720D02*
X0207312Y0418720D01*
X0207312Y0419720D02*
X0237233Y0419720D01*
X0237233Y0420720D02*
X0207312Y0420720D01*
X0207312Y0421720D02*
X0237233Y0421720D01*
X0237233Y0422720D02*
X0207312Y0422720D01*
X0207312Y0423720D02*
X0237233Y0423720D01*
X0237233Y0424720D02*
X0207312Y0424720D01*
X0207312Y0425720D02*
X0237233Y0425720D01*
X0237233Y0426720D02*
X0207312Y0426720D01*
X0207312Y0427720D02*
X0237233Y0427720D01*
X0237233Y0428720D02*
X0207312Y0428720D01*
X0207312Y0429720D02*
X0237233Y0429720D01*
X0237233Y0430720D02*
X0207312Y0430720D01*
X0207312Y0431720D02*
X0237233Y0431720D01*
X0237233Y0432720D02*
X0207312Y0432720D01*
X0207312Y0433720D02*
X0237233Y0433720D01*
X0237233Y0434720D02*
X0207312Y0434720D01*
X0207312Y0435720D02*
X0237233Y0435720D01*
X0237233Y0436720D02*
X0207312Y0436720D01*
X0207312Y0437720D02*
X0237233Y0437720D01*
X0237233Y0438720D02*
X0207312Y0438720D01*
X0207312Y0439720D02*
X0237233Y0439720D01*
X0237233Y0440720D02*
X0207312Y0440720D01*
X0207312Y0441720D02*
X0237233Y0441720D01*
X0237233Y0442720D02*
X0207312Y0442720D01*
X0207312Y0443720D02*
X0237233Y0443720D01*
X0237233Y0444720D02*
X0207312Y0444720D01*
X0207312Y0445720D02*
X0237233Y0445720D01*
X0237233Y0446720D02*
X0207312Y0446720D01*
X0207312Y0447720D02*
X0237233Y0447720D01*
X0237233Y0448720D02*
X0207312Y0448720D01*
X0207312Y0449720D02*
X0237233Y0449720D01*
X0237233Y0450720D02*
X0207312Y0450720D01*
X0207312Y0451720D02*
X0237233Y0451720D01*
X0237233Y0452720D02*
X0207312Y0452720D01*
X0207312Y0453720D02*
X0237233Y0453720D01*
X0237233Y0454720D02*
X0207312Y0454720D01*
X0207312Y0455720D02*
X0237233Y0455720D01*
X0237233Y0456720D02*
X0207312Y0456720D01*
X0207312Y0457720D02*
X0237233Y0457720D01*
X0237233Y0458720D02*
X0207312Y0458720D01*
X0207312Y0459720D02*
X0237233Y0459720D01*
X0237233Y0460720D02*
X0207312Y0460720D01*
X0207312Y0461720D02*
X0237233Y0461720D01*
X0237233Y0462720D02*
X0207312Y0462720D01*
X0207312Y0463720D02*
X0237233Y0463720D01*
X0237233Y0464720D02*
X0207312Y0464720D01*
X0207312Y0465720D02*
X0237233Y0465720D01*
X0237233Y0466720D02*
X0207312Y0466720D01*
X0207312Y0467720D02*
X0237233Y0467720D01*
X0237233Y0468720D02*
X0207312Y0468720D01*
X0207312Y0469720D02*
X0237233Y0469720D01*
X0237233Y0470720D02*
X0207312Y0470720D01*
X0207312Y0471720D02*
X0237233Y0471720D01*
X0237233Y0472720D02*
X0207312Y0472720D01*
X0207312Y0473720D02*
X0237233Y0473720D01*
X0237233Y0474720D02*
X0207312Y0474720D01*
X0207312Y0475720D02*
X0237233Y0475720D01*
X0237233Y0476720D02*
X0207312Y0476720D01*
X0207312Y0477720D02*
X0237233Y0477720D01*
X0237233Y0478720D02*
X0207312Y0478720D01*
X0207312Y0479720D02*
X0237233Y0479720D01*
X0237233Y0480720D02*
X0207312Y0480720D01*
X0207312Y0481720D02*
X0237233Y0481720D01*
X0237233Y0482720D02*
X0207312Y0482720D01*
X0207312Y0483720D02*
X0237233Y0483720D01*
X0237233Y0484720D02*
X0207312Y0484720D01*
X0207312Y0485720D02*
X0237233Y0485720D01*
X0237233Y0486720D02*
X0207312Y0486720D01*
X0207312Y0487720D02*
X0237233Y0487720D01*
X0237233Y0488720D02*
X0207312Y0488720D01*
X0207312Y0489720D02*
X0237233Y0489720D01*
X0237233Y0490720D02*
X0207312Y0490720D01*
X0207312Y0491720D02*
X0237233Y0491720D01*
X0237233Y0492720D02*
X0207312Y0492720D01*
X0207312Y0493720D02*
X0237233Y0493720D01*
X0237233Y0494720D02*
X0207312Y0494720D01*
X0207312Y0495720D02*
X0237233Y0495720D01*
X0237233Y0496720D02*
X0207312Y0496720D01*
X0207312Y0497720D02*
X0237233Y0497720D01*
X0237233Y0498720D02*
X0207312Y0498720D01*
X0207312Y0499720D02*
X0237233Y0499720D01*
X0237233Y0500720D02*
X0207312Y0500720D01*
X0207312Y0501720D02*
X0237233Y0501720D01*
X0237233Y0504209D02*
X0237233Y0508146D01*
D14*
X0236512Y0507655D02*
X0234577Y0507655D01*
X0235545Y0507655D02*
X0235545Y0504752D01*
X0233566Y0505236D02*
X0233082Y0504752D01*
X0232114Y0504752D01*
X0231631Y0505236D01*
X0231631Y0507655D01*
X0230619Y0507171D02*
X0230135Y0507655D01*
X0229168Y0507655D01*
X0228684Y0507171D01*
X0228684Y0505236D01*
X0229168Y0504752D01*
X0230135Y0504752D01*
X0230619Y0505236D01*
X0233566Y0505236D02*
X0233566Y0507655D01*
X0224726Y0507171D02*
X0224242Y0507655D01*
X0222791Y0507655D01*
X0222791Y0504752D01*
X0224242Y0504752D01*
X0224726Y0505236D01*
X0224726Y0507171D01*
X0221780Y0507171D02*
X0221780Y0506204D01*
X0221296Y0505720D01*
X0219845Y0505720D01*
X0220812Y0505720D02*
X0221780Y0504752D01*
X0219845Y0504752D02*
X0219845Y0507655D01*
X0221296Y0507655D01*
X0221780Y0507171D01*
X0218833Y0506687D02*
X0218833Y0504752D01*
X0218833Y0506204D02*
X0216898Y0506204D01*
X0216898Y0506687D02*
X0217866Y0507655D01*
X0218833Y0506687D01*
X0216898Y0506687D02*
X0216898Y0504752D01*
X0215887Y0505236D02*
X0215887Y0507171D01*
X0215403Y0507655D01*
X0214435Y0507655D01*
X0213952Y0507171D01*
X0213952Y0505236D01*
X0214435Y0504752D01*
X0215403Y0504752D01*
X0215887Y0505236D01*
X0212940Y0505236D02*
X0212456Y0504752D01*
X0211005Y0504752D01*
X0211005Y0507655D01*
X0212456Y0507655D01*
X0212940Y0507171D01*
X0212940Y0506687D01*
X0212456Y0506204D01*
X0211005Y0506204D01*
X0212456Y0506204D02*
X0212940Y0505720D01*
X0212940Y0505236D01*
D15*
X0240820Y0500621D02*
X0252720Y0500621D01*
X0249290Y0497191D01*
X0249290Y0492014D01*
X0252951Y0488352D01*
X0258129Y0488352D01*
X0260943Y0491166D01*
X0262286Y0491166D01*
X0265778Y0487673D01*
X0250775Y0472670D01*
X0249875Y0471769D01*
X0249387Y0470593D01*
X0249387Y0394123D01*
X0249875Y0392947D01*
X0257355Y0385467D01*
X0258255Y0384567D01*
X0259431Y0384080D01*
X0261224Y0384080D01*
X0260611Y0382599D01*
X0260611Y0382112D01*
X0255893Y0377394D01*
X0254993Y0376494D01*
X0254506Y0375318D01*
X0254506Y0350622D01*
X0254161Y0350278D01*
X0253524Y0348741D01*
X0253524Y0347078D01*
X0254161Y0345541D01*
X0255337Y0344365D01*
X0256874Y0343728D01*
X0258537Y0343728D01*
X0260074Y0344365D01*
X0261250Y0345541D01*
X0261887Y0347078D01*
X0261887Y0348741D01*
X0261250Y0350278D01*
X0260905Y0350622D01*
X0260905Y0373356D01*
X0265137Y0377587D01*
X0265624Y0377587D01*
X0267161Y0378223D01*
X0268337Y0379399D01*
X0268973Y0380936D01*
X0268973Y0381329D01*
X0273797Y0376505D01*
X0273797Y0375819D01*
X0273452Y0375475D01*
X0272816Y0373938D01*
X0272816Y0372275D01*
X0273452Y0370738D01*
X0274628Y0369562D01*
X0276165Y0368925D01*
X0277829Y0368925D01*
X0279365Y0369562D01*
X0280541Y0370738D01*
X0281178Y0372275D01*
X0281178Y0373938D01*
X0280541Y0375475D01*
X0280197Y0375819D01*
X0280197Y0376089D01*
X0294584Y0361702D01*
X0294584Y0355146D01*
X0294397Y0355146D01*
X0293225Y0353974D01*
X0293225Y0346412D01*
X0294397Y0345240D01*
X0294584Y0345240D01*
X0294584Y0341052D01*
X0295071Y0339876D01*
X0295972Y0338976D01*
X0297162Y0337786D01*
X0297162Y0333971D01*
X0298334Y0332799D01*
X0300962Y0332799D01*
X0300962Y0326957D01*
X0300775Y0326957D01*
X0299603Y0325785D01*
X0299603Y0320899D01*
X0299531Y0321130D01*
X0299439Y0321634D01*
X0299356Y0321691D01*
X0298756Y0323618D01*
X0298791Y0323712D01*
X0298581Y0324179D01*
X0298428Y0324669D01*
X0298340Y0324716D01*
X0297511Y0326556D01*
X0297535Y0326653D01*
X0297270Y0327092D01*
X0297059Y0327560D01*
X0296966Y0327596D01*
X0295922Y0329323D01*
X0295934Y0329422D01*
X0295617Y0329826D01*
X0295352Y0330265D01*
X0295255Y0330289D01*
X0294010Y0331878D01*
X0294010Y0331978D01*
X0293647Y0332341D01*
X0293331Y0332744D01*
X0293231Y0332756D01*
X0291804Y0334183D01*
X0291792Y0334283D01*
X0291389Y0334599D01*
X0291026Y0334962D01*
X0290926Y0334962D01*
X0289337Y0336207D01*
X0289313Y0336304D01*
X0288874Y0336569D01*
X0288470Y0336886D01*
X0288371Y0336874D01*
X0286644Y0337918D01*
X0286608Y0338011D01*
X0286140Y0338222D01*
X0285701Y0338487D01*
X0285604Y0338463D01*
X0283764Y0339292D01*
X0283717Y0339380D01*
X0283227Y0339533D01*
X0282760Y0339743D01*
X0282666Y0339708D01*
X0282005Y0339914D01*
X0282146Y0340055D01*
X0282146Y0354310D01*
X0280975Y0355482D01*
X0266720Y0355482D01*
X0265548Y0354310D01*
X0265548Y0340055D01*
X0265689Y0339914D01*
X0265028Y0339708D01*
X0264935Y0339743D01*
X0264467Y0339533D01*
X0263977Y0339380D01*
X0263931Y0339291D01*
X0262090Y0338463D01*
X0261993Y0338487D01*
X0261554Y0338222D01*
X0261086Y0338011D01*
X0261051Y0337918D01*
X0259324Y0336874D01*
X0259224Y0336886D01*
X0258820Y0336569D01*
X0258381Y0336304D01*
X0258357Y0336207D01*
X0256769Y0334962D01*
X0256669Y0334962D01*
X0256306Y0334599D01*
X0255902Y0334283D01*
X0255890Y0334183D01*
X0254463Y0332756D01*
X0254363Y0332744D01*
X0254047Y0332341D01*
X0253684Y0331978D01*
X0253684Y0331878D01*
X0252440Y0330289D01*
X0252342Y0330265D01*
X0252077Y0329826D01*
X0251761Y0329422D01*
X0251773Y0329323D01*
X0250729Y0327596D01*
X0250635Y0327560D01*
X0250425Y0327092D01*
X0250159Y0326653D01*
X0250183Y0326556D01*
X0249355Y0324716D01*
X0249266Y0324669D01*
X0249114Y0324179D01*
X0248903Y0323712D01*
X0248939Y0323618D01*
X0248338Y0321691D01*
X0248256Y0321634D01*
X0248163Y0321130D01*
X0248011Y0320640D01*
X0248057Y0320551D01*
X0247693Y0318566D01*
X0247618Y0318500D01*
X0247587Y0317988D01*
X0247495Y0317483D01*
X0247552Y0317401D01*
X0247430Y0315386D01*
X0247364Y0315311D01*
X0247395Y0314799D01*
X0247364Y0314287D01*
X0247430Y0314212D01*
X0247552Y0312198D01*
X0247495Y0312115D01*
X0247587Y0311611D01*
X0247618Y0311099D01*
X0247693Y0311032D01*
X0248057Y0309047D01*
X0248011Y0308958D01*
X0248163Y0308469D01*
X0248256Y0307964D01*
X0248338Y0307907D01*
X0248939Y0305980D01*
X0248903Y0305887D01*
X0249114Y0305419D01*
X0249266Y0304929D01*
X0249355Y0304883D01*
X0250183Y0303042D01*
X0250159Y0302945D01*
X0250425Y0302506D01*
X0250635Y0302038D01*
X0250729Y0302003D01*
X0251773Y0300276D01*
X0251761Y0300176D01*
X0252077Y0299772D01*
X0252342Y0299333D01*
X0252440Y0299309D01*
X0253684Y0297721D01*
X0253684Y0297621D01*
X0254047Y0297258D01*
X0254363Y0296854D01*
X0254463Y0296842D01*
X0255890Y0295415D01*
X0255902Y0295315D01*
X0256306Y0294999D01*
X0256669Y0294636D01*
X0256769Y0294636D01*
X0258357Y0293392D01*
X0258381Y0293294D01*
X0258820Y0293029D01*
X0259224Y0292713D01*
X0259324Y0292725D01*
X0261051Y0291681D01*
X0261086Y0291587D01*
X0261554Y0291377D01*
X0261993Y0291111D01*
X0262090Y0291135D01*
X0263931Y0290307D01*
X0263977Y0290218D01*
X0264467Y0290066D01*
X0264935Y0289855D01*
X0265028Y0289891D01*
X0265689Y0289685D01*
X0265548Y0289543D01*
X0265548Y0278642D01*
X0264362Y0277456D01*
X0262868Y0278075D01*
X0261205Y0278075D01*
X0259668Y0277438D01*
X0258492Y0276262D01*
X0257855Y0274725D01*
X0257855Y0273062D01*
X0258492Y0271525D01*
X0259668Y0270349D01*
X0261205Y0269713D01*
X0262868Y0269713D01*
X0264405Y0270349D01*
X0264749Y0270694D01*
X0265962Y0270694D01*
X0267138Y0271181D01*
X0270074Y0274117D01*
X0280975Y0274117D01*
X0282146Y0275288D01*
X0282146Y0289543D01*
X0282005Y0289685D01*
X0282666Y0289891D01*
X0282760Y0289855D01*
X0283228Y0290066D01*
X0283717Y0290218D01*
X0283764Y0290307D01*
X0285604Y0291135D01*
X0285701Y0291111D01*
X0286140Y0291377D01*
X0286608Y0291587D01*
X0286644Y0291681D01*
X0288371Y0292725D01*
X0288470Y0292713D01*
X0288874Y0293029D01*
X0289313Y0293294D01*
X0289337Y0293392D01*
X0290926Y0294636D01*
X0291026Y0294636D01*
X0291389Y0294999D01*
X0291792Y0295315D01*
X0291804Y0295415D01*
X0293232Y0296842D01*
X0293331Y0296854D01*
X0293647Y0297258D01*
X0294010Y0297621D01*
X0294010Y0297721D01*
X0295255Y0299309D01*
X0295352Y0299333D01*
X0295617Y0299772D01*
X0295934Y0300176D01*
X0295922Y0300276D01*
X0296966Y0302003D01*
X0297059Y0302038D01*
X0297270Y0302506D01*
X0297535Y0302945D01*
X0297511Y0303042D01*
X0298340Y0304883D01*
X0298428Y0304929D01*
X0298581Y0305419D01*
X0298791Y0305887D01*
X0298756Y0305980D01*
X0299356Y0307907D01*
X0299439Y0307964D01*
X0299531Y0308469D01*
X0299684Y0308958D01*
X0299637Y0309047D01*
X0300001Y0311032D01*
X0300076Y0311099D01*
X0300107Y0311611D01*
X0300184Y0312032D01*
X0307555Y0312032D01*
X0308731Y0312519D01*
X0313262Y0317051D01*
X0315030Y0317051D01*
X0316202Y0318223D01*
X0316202Y0322038D01*
X0319150Y0324986D01*
X0318879Y0324332D01*
X0318879Y0322668D01*
X0319515Y0321132D01*
X0320691Y0319955D01*
X0322228Y0319319D01*
X0323892Y0319319D01*
X0325428Y0319955D01*
X0325773Y0320300D01*
X0327837Y0320300D01*
X0328658Y0319478D01*
X0328658Y0315664D01*
X0329830Y0314492D01*
X0336605Y0314492D01*
X0336957Y0314845D01*
X0337310Y0314492D01*
X0344085Y0314492D01*
X0345257Y0315664D01*
X0345257Y0319124D01*
X0349394Y0323261D01*
X0349394Y0112520D01*
X0240820Y0112520D01*
X0240820Y0500621D01*
X0240820Y0498279D02*
X0250378Y0498279D01*
X0249290Y0495881D02*
X0240820Y0495881D01*
X0240820Y0493482D02*
X0249290Y0493482D01*
X0250220Y0491084D02*
X0240820Y0491084D01*
X0240820Y0488685D02*
X0252618Y0488685D01*
X0258462Y0488685D02*
X0264766Y0488685D01*
X0264392Y0486287D02*
X0240820Y0486287D01*
X0240820Y0483888D02*
X0261993Y0483888D01*
X0259595Y0481490D02*
X0240820Y0481490D01*
X0240820Y0479091D02*
X0257196Y0479091D01*
X0254798Y0476693D02*
X0240820Y0476693D01*
X0240820Y0474294D02*
X0252399Y0474294D01*
X0250001Y0471896D02*
X0240820Y0471896D01*
X0240820Y0469497D02*
X0249387Y0469497D01*
X0249387Y0467099D02*
X0240820Y0467099D01*
X0240820Y0464700D02*
X0249387Y0464700D01*
X0249387Y0462302D02*
X0240820Y0462302D01*
X0240820Y0459903D02*
X0249387Y0459903D01*
X0249387Y0457505D02*
X0240820Y0457505D01*
X0240820Y0455106D02*
X0249387Y0455106D01*
X0249387Y0452708D02*
X0240820Y0452708D01*
X0240820Y0450309D02*
X0249387Y0450309D01*
X0249387Y0447911D02*
X0240820Y0447911D01*
X0240820Y0445512D02*
X0249387Y0445512D01*
X0249387Y0443114D02*
X0240820Y0443114D01*
X0240820Y0440715D02*
X0249387Y0440715D01*
X0249387Y0438317D02*
X0240820Y0438317D01*
X0240820Y0435918D02*
X0249387Y0435918D01*
X0249387Y0433520D02*
X0240820Y0433520D01*
X0240820Y0431121D02*
X0249387Y0431121D01*
X0249387Y0428722D02*
X0240820Y0428722D01*
X0240820Y0426324D02*
X0249387Y0426324D01*
X0249387Y0423925D02*
X0240820Y0423925D01*
X0240820Y0421527D02*
X0249387Y0421527D01*
X0249387Y0419128D02*
X0240820Y0419128D01*
X0240820Y0416730D02*
X0249387Y0416730D01*
X0249387Y0414331D02*
X0240820Y0414331D01*
X0240820Y0411933D02*
X0249387Y0411933D01*
X0249387Y0409534D02*
X0240820Y0409534D01*
X0240820Y0407136D02*
X0249387Y0407136D01*
X0249387Y0404737D02*
X0240820Y0404737D01*
X0240820Y0402339D02*
X0249387Y0402339D01*
X0249387Y0399940D02*
X0240820Y0399940D01*
X0240820Y0397542D02*
X0249387Y0397542D01*
X0249387Y0395143D02*
X0240820Y0395143D01*
X0240820Y0392745D02*
X0250077Y0392745D01*
X0252587Y0394760D02*
X0260068Y0387280D01*
X0267548Y0387280D01*
X0276997Y0377831D01*
X0276997Y0373106D01*
X0280716Y0371158D02*
X0285128Y0371158D01*
X0287527Y0368760D02*
X0260905Y0368760D01*
X0260905Y0371158D02*
X0273278Y0371158D01*
X0272816Y0373557D02*
X0261107Y0373557D01*
X0263505Y0375955D02*
X0273797Y0375955D01*
X0271948Y0378354D02*
X0267291Y0378354D01*
X0268897Y0380752D02*
X0269550Y0380752D01*
X0264792Y0381768D02*
X0257706Y0374681D01*
X0257706Y0347909D01*
X0261543Y0349572D02*
X0265548Y0349572D01*
X0265548Y0351970D02*
X0260905Y0351970D01*
X0260905Y0354369D02*
X0265606Y0354369D01*
X0260905Y0356767D02*
X0294584Y0356767D01*
X0294584Y0359166D02*
X0260905Y0359166D01*
X0260905Y0361564D02*
X0294584Y0361564D01*
X0292324Y0363963D02*
X0260905Y0363963D01*
X0260905Y0366361D02*
X0289925Y0366361D01*
X0297784Y0363028D02*
X0269595Y0391217D01*
X0269595Y0414484D01*
X0281406Y0414484D02*
X0281406Y0403500D01*
X0276997Y0399091D01*
X0275028Y0399091D01*
X0284083Y0396335D02*
X0287233Y0399484D01*
X0287233Y0414406D01*
X0287312Y0414484D01*
X0293217Y0414484D02*
X0293729Y0413972D01*
X0293729Y0404760D01*
X0293729Y0396492D02*
X0296603Y0393618D01*
X0296603Y0386374D01*
X0304083Y0386374D02*
X0309280Y0386374D01*
X0309280Y0412831D01*
X0310934Y0414484D01*
X0316839Y0414484D02*
X0316839Y0404287D01*
X0314398Y0401846D01*
X0322745Y0395232D02*
X0319517Y0392004D01*
X0322745Y0395232D02*
X0322745Y0414484D01*
X0332076Y0423815D01*
X0332076Y0440154D01*
X0332076Y0448028D02*
X0332076Y0494524D01*
X0331682Y0494917D01*
X0322666Y0482949D02*
X0322666Y0473618D01*
X0322745Y0473539D01*
X0316839Y0473539D02*
X0316761Y0473618D01*
X0316761Y0479799D01*
X0308887Y0487673D01*
X0270304Y0487673D01*
X0252587Y0469957D01*
X0252587Y0394760D01*
X0252475Y0390346D02*
X0240820Y0390346D01*
X0240820Y0387948D02*
X0254874Y0387948D01*
X0257272Y0385549D02*
X0240820Y0385549D01*
X0240820Y0383151D02*
X0260839Y0383151D01*
X0259251Y0380752D02*
X0240820Y0380752D01*
X0240820Y0378354D02*
X0256853Y0378354D01*
X0254770Y0375955D02*
X0240820Y0375955D01*
X0240820Y0373557D02*
X0254506Y0373557D01*
X0254506Y0371158D02*
X0240820Y0371158D01*
X0240820Y0368760D02*
X0254506Y0368760D01*
X0254506Y0366361D02*
X0240820Y0366361D01*
X0240820Y0363963D02*
X0254506Y0363963D01*
X0254506Y0361564D02*
X0240820Y0361564D01*
X0240820Y0359166D02*
X0254506Y0359166D01*
X0254506Y0356767D02*
X0240820Y0356767D01*
X0240820Y0354369D02*
X0254506Y0354369D01*
X0254506Y0351970D02*
X0240820Y0351970D01*
X0240820Y0349572D02*
X0253868Y0349572D01*
X0253524Y0347173D02*
X0240820Y0347173D01*
X0240820Y0344775D02*
X0254927Y0344775D01*
X0260484Y0344775D02*
X0265548Y0344775D01*
X0265548Y0347173D02*
X0261887Y0347173D01*
X0265548Y0342376D02*
X0240820Y0342376D01*
X0240820Y0339978D02*
X0265626Y0339978D01*
X0260491Y0337579D02*
X0240820Y0337579D01*
X0240820Y0335181D02*
X0257048Y0335181D01*
X0254489Y0332782D02*
X0240820Y0332782D01*
X0240820Y0330384D02*
X0252514Y0330384D01*
X0250964Y0327985D02*
X0240820Y0327985D01*
X0240820Y0325586D02*
X0249747Y0325586D01*
X0248805Y0323188D02*
X0240820Y0323188D01*
X0240820Y0320789D02*
X0248057Y0320789D01*
X0247612Y0318391D02*
X0240820Y0318391D01*
X0240820Y0315992D02*
X0247467Y0315992D01*
X0247467Y0313594D02*
X0240820Y0313594D01*
X0240820Y0311195D02*
X0247613Y0311195D01*
X0248061Y0308797D02*
X0240820Y0308797D01*
X0240820Y0306398D02*
X0248808Y0306398D01*
X0249752Y0304000D02*
X0240820Y0304000D01*
X0240820Y0301601D02*
X0250971Y0301601D01*
X0252523Y0299203D02*
X0240820Y0299203D01*
X0240820Y0296804D02*
X0254501Y0296804D01*
X0257063Y0294406D02*
X0240820Y0294406D01*
X0240820Y0292007D02*
X0260511Y0292007D01*
X0265613Y0289609D02*
X0240820Y0289609D01*
X0240820Y0287210D02*
X0265548Y0287210D01*
X0265548Y0284812D02*
X0240820Y0284812D01*
X0240820Y0282413D02*
X0265548Y0282413D01*
X0265548Y0280015D02*
X0240820Y0280015D01*
X0240820Y0277616D02*
X0260098Y0277616D01*
X0258059Y0275218D02*
X0240820Y0275218D01*
X0240820Y0272819D02*
X0257956Y0272819D01*
X0259596Y0270421D02*
X0240820Y0270421D01*
X0240820Y0268022D02*
X0281600Y0268022D01*
X0282046Y0268468D02*
X0274161Y0260583D01*
X0273260Y0259683D01*
X0272773Y0258507D01*
X0272773Y0225557D01*
X0271925Y0224709D01*
X0271198Y0222954D01*
X0271198Y0221054D01*
X0271925Y0219299D01*
X0273269Y0217956D01*
X0275023Y0217229D01*
X0276923Y0217229D01*
X0278678Y0217956D01*
X0280021Y0219299D01*
X0280748Y0221054D01*
X0280748Y0222954D01*
X0280021Y0224709D01*
X0279173Y0225557D01*
X0279173Y0256545D01*
X0286572Y0263943D01*
X0290885Y0263943D01*
X0293935Y0266993D01*
X0331614Y0266993D01*
X0331872Y0266736D01*
X0333627Y0266009D01*
X0341076Y0266009D01*
X0342831Y0266736D01*
X0344174Y0268079D01*
X0344901Y0269834D01*
X0344901Y0271733D01*
X0344174Y0273488D01*
X0342831Y0274831D01*
X0341076Y0275558D01*
X0333627Y0275558D01*
X0331872Y0274831D01*
X0330528Y0273488D01*
X0330489Y0273393D01*
X0293935Y0273393D01*
X0290885Y0276443D01*
X0285707Y0276443D01*
X0282046Y0272782D01*
X0282046Y0268468D01*
X0282046Y0270421D02*
X0264476Y0270421D01*
X0265325Y0273894D02*
X0273847Y0282416D01*
X0282146Y0282413D02*
X0330083Y0282413D01*
X0329802Y0281733D02*
X0330528Y0283488D01*
X0331872Y0284831D01*
X0333627Y0285558D01*
X0341076Y0285558D01*
X0342831Y0284831D01*
X0344174Y0283488D01*
X0344901Y0281733D01*
X0344901Y0279834D01*
X0344174Y0278079D01*
X0342831Y0276736D01*
X0341076Y0276009D01*
X0333627Y0276009D01*
X0331872Y0276736D01*
X0330528Y0278079D01*
X0329802Y0279834D01*
X0329802Y0281733D01*
X0329802Y0280015D02*
X0282146Y0280015D01*
X0282146Y0277616D02*
X0330991Y0277616D01*
X0332805Y0275218D02*
X0292110Y0275218D01*
X0288296Y0270193D02*
X0275973Y0257870D01*
X0275973Y0222004D01*
X0271614Y0220052D02*
X0270748Y0220052D01*
X0270748Y0220026D02*
X0267951Y0217229D01*
X0263995Y0217229D01*
X0261198Y0220026D01*
X0261198Y0223982D01*
X0263995Y0226779D01*
X0267951Y0226779D01*
X0270748Y0223982D01*
X0270748Y0220026D01*
X0270748Y0222451D02*
X0271198Y0222451D01*
X0272066Y0224849D02*
X0269881Y0224849D01*
X0272773Y0227248D02*
X0240820Y0227248D01*
X0240820Y0229646D02*
X0272773Y0229646D01*
X0272773Y0232045D02*
X0240820Y0232045D01*
X0240820Y0234443D02*
X0272773Y0234443D01*
X0272773Y0236842D02*
X0240820Y0236842D01*
X0240820Y0239240D02*
X0272773Y0239240D01*
X0272773Y0241639D02*
X0240820Y0241639D01*
X0240820Y0244037D02*
X0272773Y0244037D01*
X0272773Y0246436D02*
X0240820Y0246436D01*
X0240820Y0248834D02*
X0272773Y0248834D01*
X0272773Y0251233D02*
X0240820Y0251233D01*
X0240820Y0253631D02*
X0272773Y0253631D01*
X0272773Y0256030D02*
X0240820Y0256030D01*
X0240820Y0258428D02*
X0272773Y0258428D01*
X0274404Y0260827D02*
X0240820Y0260827D01*
X0240820Y0263225D02*
X0276803Y0263225D01*
X0279201Y0265624D02*
X0240820Y0265624D01*
X0262036Y0273894D02*
X0265325Y0273894D01*
X0268776Y0272819D02*
X0282084Y0272819D01*
X0282076Y0275218D02*
X0284482Y0275218D01*
X0288296Y0270193D02*
X0336761Y0270193D01*
X0337351Y0270783D01*
X0341898Y0275218D02*
X0349394Y0275218D01*
X0349394Y0277616D02*
X0343711Y0277616D01*
X0344901Y0280015D02*
X0349394Y0280015D01*
X0349394Y0282413D02*
X0344619Y0282413D01*
X0342850Y0284812D02*
X0349394Y0284812D01*
X0349394Y0287210D02*
X0343588Y0287210D01*
X0343367Y0286989D02*
X0343921Y0287543D01*
X0344381Y0288176D01*
X0344736Y0288874D01*
X0344978Y0289619D01*
X0345101Y0290392D01*
X0345101Y0290783D01*
X0337351Y0290783D01*
X0337351Y0290783D01*
X0337351Y0285809D01*
X0334185Y0285809D01*
X0333411Y0285931D01*
X0332667Y0286173D01*
X0331969Y0286529D01*
X0331336Y0286989D01*
X0330782Y0287543D01*
X0330322Y0288176D01*
X0329966Y0288874D01*
X0329724Y0289619D01*
X0329602Y0290392D01*
X0329602Y0290783D01*
X0337351Y0290783D01*
X0337351Y0290784D01*
X0337351Y0295758D01*
X0334185Y0295758D01*
X0333411Y0295636D01*
X0332667Y0295394D01*
X0331969Y0295038D01*
X0331336Y0294578D01*
X0330782Y0294024D01*
X0330322Y0293391D01*
X0329966Y0292693D01*
X0329724Y0291948D01*
X0329602Y0291175D01*
X0329602Y0290784D01*
X0337351Y0290784D01*
X0337351Y0290784D01*
X0337351Y0295758D01*
X0340518Y0295758D01*
X0341291Y0295636D01*
X0342036Y0295394D01*
X0342733Y0295038D01*
X0343367Y0294578D01*
X0343921Y0294024D01*
X0344381Y0293391D01*
X0344736Y0292693D01*
X0344978Y0291948D01*
X0345101Y0291175D01*
X0345101Y0290784D01*
X0337351Y0290784D01*
X0337351Y0290783D01*
X0337351Y0285809D01*
X0340518Y0285809D01*
X0341291Y0285931D01*
X0342036Y0286173D01*
X0342733Y0286529D01*
X0343367Y0286989D01*
X0344975Y0289609D02*
X0349394Y0289609D01*
X0349394Y0292007D02*
X0344959Y0292007D01*
X0343539Y0294406D02*
X0349394Y0294406D01*
X0349394Y0296804D02*
X0293194Y0296804D01*
X0295171Y0299203D02*
X0349394Y0299203D01*
X0349394Y0301601D02*
X0296723Y0301601D01*
X0297942Y0304000D02*
X0349394Y0304000D01*
X0349394Y0306398D02*
X0298886Y0306398D01*
X0299634Y0308797D02*
X0349394Y0308797D01*
X0349394Y0311195D02*
X0300082Y0311195D01*
X0306918Y0315232D02*
X0311643Y0319957D01*
X0311643Y0322004D01*
X0319517Y0329878D01*
X0319517Y0331374D01*
X0319517Y0336098D01*
X0324635Y0341217D01*
X0324635Y0348696D01*
X0328375Y0348696D02*
X0331918Y0345154D01*
X0344713Y0345154D01*
X0346682Y0343185D01*
X0346682Y0325075D01*
X0341052Y0319445D01*
X0340698Y0319445D01*
X0345257Y0318391D02*
X0349394Y0318391D01*
X0349394Y0320789D02*
X0346922Y0320789D01*
X0349321Y0323188D02*
X0349394Y0323188D01*
X0349394Y0315992D02*
X0345257Y0315992D01*
X0349394Y0313594D02*
X0309805Y0313594D01*
X0306918Y0315232D02*
X0274280Y0315232D01*
X0273847Y0314799D01*
X0287184Y0292007D02*
X0297397Y0292007D01*
X0297397Y0292235D02*
X0297397Y0289563D01*
X0303847Y0289563D01*
X0303847Y0289563D01*
X0297397Y0289563D01*
X0297397Y0286891D01*
X0301176Y0283113D01*
X0303847Y0283113D01*
X0303847Y0289563D01*
X0303847Y0296013D01*
X0301176Y0296013D01*
X0297397Y0292235D01*
X0297397Y0289609D02*
X0282081Y0289609D01*
X0282146Y0287210D02*
X0297397Y0287210D01*
X0299477Y0284812D02*
X0282146Y0284812D01*
X0290631Y0294406D02*
X0299568Y0294406D01*
X0303847Y0294406D02*
X0303847Y0294406D01*
X0303847Y0296013D02*
X0303847Y0289563D01*
X0303847Y0289563D01*
X0303847Y0289563D01*
X0303847Y0283113D01*
X0306519Y0283113D01*
X0310297Y0286891D01*
X0310297Y0289563D01*
X0310297Y0292235D01*
X0306519Y0296013D01*
X0303847Y0296013D01*
X0303847Y0292007D02*
X0303847Y0292007D01*
X0303847Y0289609D02*
X0303847Y0289609D01*
X0303847Y0289563D02*
X0310297Y0289563D01*
X0303847Y0289563D01*
X0303847Y0289563D01*
X0303847Y0287210D02*
X0303847Y0287210D01*
X0303847Y0284812D02*
X0303847Y0284812D01*
X0308218Y0284812D02*
X0331852Y0284812D01*
X0331114Y0287210D02*
X0310297Y0287210D01*
X0310297Y0289609D02*
X0329727Y0289609D01*
X0329743Y0292007D02*
X0310297Y0292007D01*
X0308126Y0294406D02*
X0331163Y0294406D01*
X0337351Y0294406D02*
X0337351Y0294406D01*
X0337351Y0292007D02*
X0337351Y0292007D01*
X0337351Y0289609D02*
X0337351Y0289609D01*
X0337351Y0287210D02*
X0337351Y0287210D01*
X0344451Y0272819D02*
X0349394Y0272819D01*
X0349394Y0270421D02*
X0344901Y0270421D01*
X0344117Y0268022D02*
X0349394Y0268022D01*
X0349394Y0265624D02*
X0292566Y0265624D01*
X0285854Y0263225D02*
X0330420Y0263225D01*
X0330528Y0263488D02*
X0329802Y0261733D01*
X0329802Y0259834D01*
X0330528Y0258079D01*
X0331159Y0257448D01*
X0331159Y0239218D01*
X0328109Y0236168D01*
X0328109Y0231854D01*
X0324161Y0227906D01*
X0323260Y0227006D01*
X0323166Y0226779D01*
X0322370Y0226779D01*
X0321198Y0225607D01*
X0321198Y0218401D01*
X0322370Y0217229D01*
X0329576Y0217229D01*
X0330748Y0218401D01*
X0330748Y0225442D01*
X0332635Y0227329D01*
X0336948Y0227329D01*
X0340609Y0230990D01*
X0340609Y0236168D01*
X0337559Y0239218D01*
X0337559Y0256009D01*
X0341076Y0256009D01*
X0342831Y0256736D01*
X0344174Y0258079D01*
X0344901Y0259834D01*
X0344901Y0261733D01*
X0344174Y0263488D01*
X0342831Y0264831D01*
X0341076Y0265558D01*
X0333627Y0265558D01*
X0331872Y0264831D01*
X0330528Y0263488D01*
X0329802Y0260827D02*
X0283455Y0260827D01*
X0281057Y0258428D02*
X0330384Y0258428D01*
X0331159Y0256030D02*
X0279173Y0256030D01*
X0279173Y0253631D02*
X0331159Y0253631D01*
X0331159Y0251233D02*
X0315701Y0251233D01*
X0316987Y0249947D02*
X0313326Y0253608D01*
X0308148Y0253608D01*
X0304487Y0249947D01*
X0304487Y0245634D01*
X0294161Y0235307D01*
X0293260Y0234407D01*
X0292773Y0233231D01*
X0292773Y0225557D01*
X0291925Y0224709D01*
X0291198Y0222954D01*
X0291198Y0221054D01*
X0291925Y0219299D01*
X0293269Y0217956D01*
X0295023Y0217229D01*
X0296923Y0217229D01*
X0298678Y0217956D01*
X0300021Y0219299D01*
X0300748Y0221054D01*
X0300748Y0222954D01*
X0300021Y0224709D01*
X0299173Y0225557D01*
X0299173Y0231269D01*
X0309012Y0241108D01*
X0313326Y0241108D01*
X0316987Y0244769D01*
X0316987Y0249947D01*
X0316987Y0248834D02*
X0331159Y0248834D01*
X0331159Y0246436D02*
X0316987Y0246436D01*
X0316255Y0244037D02*
X0331159Y0244037D01*
X0331159Y0241639D02*
X0313856Y0241639D01*
X0310737Y0247358D02*
X0295973Y0232594D01*
X0295973Y0222004D01*
X0291614Y0220052D02*
X0290748Y0220052D01*
X0290748Y0220026D02*
X0287951Y0217229D01*
X0283995Y0217229D01*
X0281198Y0220026D01*
X0281198Y0223982D01*
X0283995Y0226779D01*
X0287951Y0226779D01*
X0290748Y0223982D01*
X0290748Y0220026D01*
X0290748Y0222451D02*
X0291198Y0222451D01*
X0292066Y0224849D02*
X0289881Y0224849D01*
X0292773Y0227248D02*
X0279173Y0227248D01*
X0279173Y0229646D02*
X0292773Y0229646D01*
X0292773Y0232045D02*
X0279173Y0232045D01*
X0279173Y0234443D02*
X0293296Y0234443D01*
X0295695Y0236842D02*
X0279173Y0236842D01*
X0279173Y0239240D02*
X0298093Y0239240D01*
X0300492Y0241639D02*
X0279173Y0241639D01*
X0279173Y0244037D02*
X0302890Y0244037D01*
X0304487Y0246436D02*
X0279173Y0246436D01*
X0279173Y0248834D02*
X0304487Y0248834D01*
X0305773Y0251233D02*
X0279173Y0251233D01*
X0299949Y0232045D02*
X0328109Y0232045D01*
X0328109Y0234443D02*
X0302347Y0234443D01*
X0304746Y0236842D02*
X0328783Y0236842D01*
X0331159Y0239240D02*
X0307144Y0239240D01*
X0306365Y0226979D02*
X0305973Y0226979D01*
X0305582Y0226979D01*
X0304808Y0226856D01*
X0304064Y0226614D01*
X0303366Y0226259D01*
X0302732Y0225798D01*
X0302179Y0225245D01*
X0301718Y0224611D01*
X0301363Y0223914D01*
X0301121Y0223169D01*
X0300998Y0222395D01*
X0300998Y0222004D01*
X0305973Y0222004D01*
X0305973Y0222004D01*
X0300998Y0222004D01*
X0300998Y0221612D01*
X0301121Y0220839D01*
X0301363Y0220094D01*
X0301718Y0219397D01*
X0302179Y0218763D01*
X0302732Y0218209D01*
X0303366Y0217749D01*
X0304064Y0217394D01*
X0304808Y0217152D01*
X0305582Y0217029D01*
X0305973Y0217029D01*
X0305973Y0222004D01*
X0305973Y0226979D01*
X0305973Y0222004D01*
X0305973Y0222004D01*
X0305973Y0222004D01*
X0305973Y0217029D01*
X0306365Y0217029D01*
X0307138Y0217152D01*
X0307883Y0217394D01*
X0308581Y0217749D01*
X0309214Y0218209D01*
X0309768Y0218763D01*
X0310228Y0219397D01*
X0310584Y0220094D01*
X0310826Y0220839D01*
X0310948Y0221612D01*
X0310948Y0222004D01*
X0310948Y0222395D01*
X0310826Y0223169D01*
X0310584Y0223914D01*
X0310228Y0224611D01*
X0309768Y0225245D01*
X0309214Y0225798D01*
X0308581Y0226259D01*
X0307883Y0226614D01*
X0307138Y0226856D01*
X0306365Y0226979D01*
X0305973Y0224849D02*
X0305973Y0224849D01*
X0305973Y0222451D02*
X0305973Y0222451D01*
X0305973Y0222004D02*
X0310948Y0222004D01*
X0305973Y0222004D01*
X0305973Y0222004D01*
X0305973Y0220052D02*
X0305973Y0220052D01*
X0305973Y0217653D02*
X0305973Y0217653D01*
X0303554Y0217653D02*
X0297947Y0217653D01*
X0300333Y0220052D02*
X0301384Y0220052D01*
X0301007Y0222451D02*
X0300748Y0222451D01*
X0299881Y0224849D02*
X0301891Y0224849D01*
X0299173Y0227248D02*
X0323502Y0227248D01*
X0325973Y0225193D02*
X0325973Y0222004D01*
X0325973Y0225193D02*
X0334359Y0233579D01*
X0334359Y0257791D01*
X0337351Y0260783D01*
X0341126Y0256030D02*
X0349394Y0256030D01*
X0349394Y0258428D02*
X0344319Y0258428D01*
X0344901Y0260827D02*
X0349394Y0260827D01*
X0349394Y0263225D02*
X0344283Y0263225D01*
X0349394Y0253631D02*
X0337559Y0253631D01*
X0337559Y0251233D02*
X0349394Y0251233D01*
X0349394Y0248834D02*
X0337559Y0248834D01*
X0337559Y0246436D02*
X0349394Y0246436D01*
X0349394Y0244037D02*
X0337559Y0244037D01*
X0337559Y0241639D02*
X0349394Y0241639D01*
X0349394Y0239240D02*
X0337559Y0239240D01*
X0339935Y0236842D02*
X0349394Y0236842D01*
X0349394Y0234443D02*
X0340609Y0234443D01*
X0340609Y0232045D02*
X0349394Y0232045D01*
X0349394Y0229646D02*
X0339265Y0229646D01*
X0332553Y0227248D02*
X0349394Y0227248D01*
X0349394Y0224849D02*
X0330748Y0224849D01*
X0330748Y0222451D02*
X0349394Y0222451D01*
X0349394Y0220052D02*
X0330748Y0220052D01*
X0330001Y0217653D02*
X0349394Y0217653D01*
X0349394Y0215255D02*
X0240820Y0215255D01*
X0240820Y0217653D02*
X0263571Y0217653D01*
X0261198Y0220052D02*
X0240820Y0220052D01*
X0240820Y0222451D02*
X0261198Y0222451D01*
X0262066Y0224849D02*
X0240820Y0224849D01*
X0240820Y0212856D02*
X0349394Y0212856D01*
X0349394Y0210458D02*
X0240820Y0210458D01*
X0240820Y0208059D02*
X0349394Y0208059D01*
X0349394Y0205661D02*
X0240820Y0205661D01*
X0240820Y0203262D02*
X0349394Y0203262D01*
X0349394Y0200864D02*
X0240820Y0200864D01*
X0240820Y0198465D02*
X0349394Y0198465D01*
X0349394Y0196067D02*
X0240820Y0196067D01*
X0240820Y0193668D02*
X0349394Y0193668D01*
X0349394Y0191270D02*
X0240820Y0191270D01*
X0240820Y0188871D02*
X0349394Y0188871D01*
X0349394Y0186473D02*
X0240820Y0186473D01*
X0240820Y0184074D02*
X0349394Y0184074D01*
X0349394Y0181676D02*
X0240820Y0181676D01*
X0240820Y0179277D02*
X0349394Y0179277D01*
X0349394Y0176879D02*
X0240820Y0176879D01*
X0240820Y0174480D02*
X0349394Y0174480D01*
X0349394Y0172082D02*
X0240820Y0172082D01*
X0240820Y0169683D02*
X0349394Y0169683D01*
X0349394Y0167285D02*
X0240820Y0167285D01*
X0240820Y0164886D02*
X0349394Y0164886D01*
X0349394Y0162488D02*
X0240820Y0162488D01*
X0240820Y0160089D02*
X0349394Y0160089D01*
X0349394Y0157691D02*
X0240820Y0157691D01*
X0240820Y0155292D02*
X0349394Y0155292D01*
X0349394Y0152894D02*
X0240820Y0152894D01*
X0240820Y0150495D02*
X0349394Y0150495D01*
X0349394Y0148097D02*
X0240820Y0148097D01*
X0240820Y0145698D02*
X0349394Y0145698D01*
X0349394Y0143300D02*
X0240820Y0143300D01*
X0240820Y0140901D02*
X0349394Y0140901D01*
X0349394Y0138503D02*
X0240820Y0138503D01*
X0240820Y0136104D02*
X0349394Y0136104D01*
X0349394Y0133706D02*
X0240820Y0133706D01*
X0240820Y0131307D02*
X0349394Y0131307D01*
X0349394Y0128909D02*
X0240820Y0128909D01*
X0240820Y0126510D02*
X0349394Y0126510D01*
X0349394Y0124112D02*
X0240820Y0124112D01*
X0240820Y0121713D02*
X0349394Y0121713D01*
X0349394Y0119315D02*
X0240820Y0119315D01*
X0240820Y0116916D02*
X0349394Y0116916D01*
X0349394Y0114517D02*
X0240820Y0114517D01*
X0203724Y0114517D02*
X0004600Y0114517D01*
X0004600Y0112520D02*
X0004600Y0296257D01*
X0004993Y0295309D01*
X0009678Y0290624D01*
X0010578Y0289724D01*
X0011754Y0289237D01*
X0011851Y0289237D01*
X0012698Y0288389D01*
X0014453Y0287662D01*
X0021903Y0287662D01*
X0023657Y0288389D01*
X0025001Y0289732D01*
X0025728Y0291487D01*
X0025728Y0293387D01*
X0025001Y0295142D01*
X0023657Y0296485D01*
X0021903Y0297212D01*
X0014453Y0297212D01*
X0012818Y0296535D01*
X0010905Y0298448D01*
X0010905Y0300818D01*
X0011355Y0299732D01*
X0012698Y0298389D01*
X0014453Y0297662D01*
X0021903Y0297662D01*
X0023657Y0298389D01*
X0025001Y0299732D01*
X0025728Y0301487D01*
X0025728Y0303387D01*
X0025001Y0305142D01*
X0023657Y0306485D01*
X0021903Y0307212D01*
X0014453Y0307212D01*
X0012698Y0306485D01*
X0011355Y0305142D01*
X0010905Y0304056D01*
X0010905Y0310818D01*
X0011355Y0309732D01*
X0012698Y0308389D01*
X0014453Y0307662D01*
X0021903Y0307662D01*
X0023657Y0308389D01*
X0025001Y0309732D01*
X0025728Y0311487D01*
X0025728Y0313387D01*
X0025001Y0315142D01*
X0023657Y0316485D01*
X0021903Y0317212D01*
X0014453Y0317212D01*
X0012698Y0316485D01*
X0011355Y0315142D01*
X0010905Y0314056D01*
X0010905Y0320818D01*
X0011355Y0319732D01*
X0012698Y0318389D01*
X0014453Y0317662D01*
X0021903Y0317662D01*
X0023657Y0318389D01*
X0025001Y0319732D01*
X0025728Y0321487D01*
X0025728Y0323387D01*
X0025001Y0325142D01*
X0023657Y0326485D01*
X0021903Y0327212D01*
X0014453Y0327212D01*
X0012698Y0326485D01*
X0011355Y0325142D01*
X0010905Y0324056D01*
X0010905Y0330818D01*
X0011355Y0329732D01*
X0012698Y0328389D01*
X0014453Y0327662D01*
X0021903Y0327662D01*
X0023657Y0328389D01*
X0025001Y0329732D01*
X0025728Y0331487D01*
X0025728Y0333387D01*
X0025001Y0335142D01*
X0023657Y0336485D01*
X0021903Y0337212D01*
X0014453Y0337212D01*
X0012698Y0336485D01*
X0011355Y0335142D01*
X0010905Y0334056D01*
X0010905Y0340818D01*
X0011355Y0339732D01*
X0012698Y0338389D01*
X0014453Y0337662D01*
X0021903Y0337662D01*
X0023657Y0338389D01*
X0025001Y0339732D01*
X0025728Y0341487D01*
X0025728Y0343387D01*
X0025001Y0345142D01*
X0023657Y0346485D01*
X0021903Y0347212D01*
X0014453Y0347212D01*
X0012698Y0346485D01*
X0011355Y0345142D01*
X0010905Y0344056D01*
X0010905Y0350818D01*
X0011355Y0349732D01*
X0012698Y0348389D01*
X0014453Y0347662D01*
X0021903Y0347662D01*
X0023657Y0348389D01*
X0025001Y0349732D01*
X0025728Y0351487D01*
X0025728Y0353387D01*
X0025001Y0355142D01*
X0023657Y0356485D01*
X0021903Y0357212D01*
X0014453Y0357212D01*
X0012698Y0356485D01*
X0011355Y0355142D01*
X0010905Y0354056D01*
X0010905Y0360818D01*
X0011355Y0359732D01*
X0012698Y0358389D01*
X0014453Y0357662D01*
X0021903Y0357662D01*
X0023657Y0358389D01*
X0025001Y0359732D01*
X0025728Y0361487D01*
X0025728Y0363387D01*
X0025001Y0365142D01*
X0023657Y0366485D01*
X0021903Y0367212D01*
X0014453Y0367212D01*
X0012698Y0366485D01*
X0011355Y0365142D01*
X0010905Y0364056D01*
X0010905Y0370818D01*
X0011355Y0369732D01*
X0012698Y0368389D01*
X0014453Y0367662D01*
X0021903Y0367662D01*
X0023657Y0368389D01*
X0025001Y0369732D01*
X0025728Y0371487D01*
X0025728Y0373387D01*
X0025001Y0375142D01*
X0024724Y0375418D01*
X0050662Y0375418D01*
X0051794Y0374286D01*
X0053331Y0373650D01*
X0054994Y0373650D01*
X0056480Y0374265D01*
X0056480Y0370707D01*
X0055736Y0369963D01*
X0055561Y0369540D01*
X0054794Y0370307D01*
X0053618Y0370794D01*
X0045258Y0370794D01*
X0044082Y0370307D01*
X0043182Y0369407D01*
X0034920Y0361146D01*
X0034433Y0361146D01*
X0032896Y0360509D01*
X0031720Y0359333D01*
X0031083Y0357796D01*
X0031083Y0356133D01*
X0031720Y0354596D01*
X0032896Y0353420D01*
X0034433Y0352783D01*
X0036096Y0352783D01*
X0037633Y0353420D01*
X0038809Y0354596D01*
X0039446Y0356133D01*
X0039446Y0356620D01*
X0045750Y0362925D01*
X0045257Y0361733D01*
X0045257Y0360070D01*
X0045893Y0358533D01*
X0046238Y0358189D01*
X0046238Y0325022D01*
X0033427Y0312212D01*
X0029453Y0312212D01*
X0027698Y0311485D01*
X0026355Y0310142D01*
X0025628Y0308387D01*
X0025628Y0306487D01*
X0026355Y0304732D01*
X0027698Y0303389D01*
X0029453Y0302662D01*
X0033878Y0302662D01*
X0033427Y0302212D01*
X0029453Y0302212D01*
X0027698Y0301485D01*
X0026355Y0300142D01*
X0025628Y0298387D01*
X0025628Y0296487D01*
X0026355Y0294732D01*
X0027698Y0293389D01*
X0029453Y0292662D01*
X0036903Y0292662D01*
X0038657Y0293389D01*
X0040001Y0294732D01*
X0040728Y0296487D01*
X0040728Y0298387D01*
X0040120Y0299854D01*
X0041669Y0301402D01*
X0051056Y0301402D01*
X0051400Y0301058D01*
X0052937Y0300421D01*
X0054511Y0300421D01*
X0044175Y0290086D01*
X0036597Y0290086D01*
X0035420Y0289599D01*
X0034520Y0288698D01*
X0022702Y0276881D01*
X0021903Y0277212D01*
X0014453Y0277212D01*
X0012698Y0276485D01*
X0011355Y0275142D01*
X0010628Y0273387D01*
X0010628Y0271487D01*
X0011355Y0269732D01*
X0012698Y0268389D01*
X0014453Y0267662D01*
X0021903Y0267662D01*
X0023657Y0268389D01*
X0025001Y0269732D01*
X0025280Y0270408D01*
X0038559Y0283686D01*
X0040325Y0283686D01*
X0039200Y0282561D01*
X0038564Y0281025D01*
X0038564Y0279361D01*
X0039200Y0277825D01*
X0040376Y0276648D01*
X0041913Y0276012D01*
X0043577Y0276012D01*
X0045113Y0276648D01*
X0045458Y0276993D01*
X0055986Y0276993D01*
X0062380Y0270600D01*
X0062380Y0261446D01*
X0062867Y0260270D01*
X0063150Y0259987D01*
X0062228Y0259987D01*
X0060473Y0259260D01*
X0059130Y0257917D01*
X0058403Y0256162D01*
X0058403Y0248712D01*
X0058491Y0248499D01*
X0057953Y0249038D01*
X0057953Y0256162D01*
X0057226Y0257917D01*
X0056420Y0258723D01*
X0056924Y0258932D01*
X0058100Y0260108D01*
X0058737Y0261645D01*
X0058737Y0263308D01*
X0058100Y0264845D01*
X0056924Y0266021D01*
X0055388Y0266657D01*
X0053724Y0266657D01*
X0052187Y0266021D01*
X0051406Y0265240D01*
X0050625Y0266021D01*
X0049088Y0266657D01*
X0047425Y0266657D01*
X0045888Y0266021D01*
X0044712Y0264845D01*
X0044076Y0263308D01*
X0044076Y0261645D01*
X0044712Y0260108D01*
X0045057Y0259763D01*
X0045057Y0259602D01*
X0044128Y0259987D01*
X0042228Y0259987D01*
X0040473Y0259260D01*
X0039130Y0257917D01*
X0038403Y0256162D01*
X0038403Y0248712D01*
X0038472Y0248547D01*
X0037884Y0248547D01*
X0037953Y0248712D01*
X0037953Y0256162D01*
X0037226Y0257917D01*
X0035883Y0259260D01*
X0034128Y0259987D01*
X0032228Y0259987D01*
X0030473Y0259260D01*
X0029130Y0257917D01*
X0028403Y0256162D01*
X0028403Y0248712D01*
X0029130Y0246957D01*
X0030473Y0245614D01*
X0032228Y0244887D01*
X0033839Y0244887D01*
X0033839Y0243534D01*
X0034476Y0241998D01*
X0035652Y0240822D01*
X0037189Y0240185D01*
X0037691Y0240185D01*
X0038366Y0239516D01*
X0035302Y0239516D01*
X0034131Y0238344D01*
X0034131Y0229062D01*
X0032068Y0229062D01*
X0032068Y0238344D01*
X0030896Y0239516D01*
X0025302Y0239516D01*
X0024131Y0238344D01*
X0024131Y0229062D01*
X0019864Y0229062D01*
X0018688Y0228575D01*
X0017788Y0227675D01*
X0017301Y0226499D01*
X0017301Y0225936D01*
X0014517Y0225936D01*
X0014517Y0221768D01*
X0014516Y0221768D01*
X0014516Y0221768D01*
X0008380Y0221768D01*
X0008380Y0224026D01*
X0008529Y0224585D01*
X0008819Y0225087D01*
X0009229Y0225497D01*
X0009730Y0225786D01*
X0010290Y0225936D01*
X0014516Y0225936D01*
X0014516Y0221768D01*
X0008380Y0221768D01*
X0008380Y0219510D01*
X0008529Y0218950D01*
X0008819Y0218448D01*
X0009229Y0218039D01*
X0009730Y0217749D01*
X0010290Y0217599D01*
X0014516Y0217599D01*
X0014516Y0221768D01*
X0014517Y0221768D02*
X0014517Y0231492D01*
X0028178Y0245154D01*
X0028178Y0264051D01*
X0032509Y0268382D01*
X0060068Y0268382D01*
X0062380Y0268022D02*
X0022772Y0268022D01*
X0021903Y0267212D02*
X0014453Y0267212D01*
X0012698Y0266485D01*
X0011355Y0265142D01*
X0010628Y0263387D01*
X0010628Y0261487D01*
X0011355Y0259732D01*
X0012698Y0258389D01*
X0014453Y0257662D01*
X0019025Y0257662D01*
X0018403Y0256162D01*
X0018403Y0248712D01*
X0019130Y0246957D01*
X0020473Y0245614D01*
X0022228Y0244887D01*
X0024128Y0244887D01*
X0025883Y0245614D01*
X0027226Y0246957D01*
X0027953Y0248712D01*
X0027953Y0256162D01*
X0027226Y0257917D01*
X0025883Y0259260D01*
X0024925Y0259656D01*
X0025001Y0259732D01*
X0025728Y0261487D01*
X0025728Y0263387D01*
X0025001Y0265142D01*
X0023657Y0266485D01*
X0021903Y0267212D01*
X0024519Y0265624D02*
X0045491Y0265624D01*
X0044076Y0263225D02*
X0025728Y0263225D01*
X0025454Y0260827D02*
X0044414Y0260827D01*
X0048257Y0262476D02*
X0048257Y0243421D01*
X0058099Y0233579D01*
X0059674Y0242791D02*
X0053178Y0249287D01*
X0053178Y0252437D01*
X0057953Y0253631D02*
X0058403Y0253631D01*
X0058403Y0251233D02*
X0057953Y0251233D01*
X0058157Y0248834D02*
X0058403Y0248834D01*
X0059674Y0242791D02*
X0075028Y0243185D01*
X0081761Y0249917D01*
X0102784Y0249917D01*
X0104506Y0254692D02*
X0099181Y0254692D01*
X0098009Y0253521D01*
X0098009Y0253117D01*
X0081124Y0253117D01*
X0079948Y0252630D01*
X0077953Y0250635D01*
X0077953Y0256162D01*
X0077331Y0257662D01*
X0081903Y0257662D01*
X0083657Y0258389D01*
X0085001Y0259732D01*
X0085728Y0261487D01*
X0085728Y0263387D01*
X0085001Y0265142D01*
X0083657Y0266485D01*
X0081903Y0267212D01*
X0074453Y0267212D01*
X0073598Y0266857D01*
X0072317Y0268139D01*
X0072317Y0268771D01*
X0072698Y0268389D01*
X0074453Y0267662D01*
X0081903Y0267662D01*
X0083657Y0268389D01*
X0085001Y0269732D01*
X0085728Y0271487D01*
X0085728Y0273256D01*
X0087277Y0273256D01*
X0088814Y0273892D01*
X0089159Y0274237D01*
X0094756Y0274237D01*
X0095101Y0273892D01*
X0096638Y0273256D01*
X0098301Y0273256D01*
X0099838Y0273892D01*
X0101014Y0275069D01*
X0101650Y0276605D01*
X0101650Y0278269D01*
X0101298Y0279121D01*
X0102149Y0278768D01*
X0102637Y0278768D01*
X0108443Y0272962D01*
X0108443Y0268733D01*
X0108098Y0268388D01*
X0107461Y0266851D01*
X0107461Y0265188D01*
X0108098Y0263651D01*
X0109274Y0262475D01*
X0110811Y0261839D01*
X0112474Y0261839D01*
X0114011Y0262475D01*
X0115187Y0263651D01*
X0115824Y0265188D01*
X0115824Y0266851D01*
X0115187Y0268388D01*
X0114843Y0268733D01*
X0114843Y0274924D01*
X0114355Y0276100D01*
X0107162Y0283293D01*
X0107162Y0283780D01*
X0106526Y0285317D01*
X0105349Y0286493D01*
X0103813Y0287130D01*
X0102149Y0287130D01*
X0100613Y0286493D01*
X0099437Y0285317D01*
X0098800Y0283780D01*
X0098800Y0282117D01*
X0099153Y0281265D01*
X0098301Y0281618D01*
X0096638Y0281618D01*
X0095101Y0280982D01*
X0094756Y0280637D01*
X0089159Y0280637D01*
X0088814Y0280982D01*
X0087277Y0281618D01*
X0085728Y0281618D01*
X0085728Y0283387D01*
X0085001Y0285142D01*
X0083657Y0286485D01*
X0081903Y0287212D01*
X0074453Y0287212D01*
X0072698Y0286485D01*
X0072317Y0286103D01*
X0072317Y0288771D01*
X0072698Y0288389D01*
X0074453Y0287662D01*
X0081903Y0287662D01*
X0083657Y0288389D01*
X0085001Y0289732D01*
X0085728Y0291487D01*
X0085728Y0293387D01*
X0085001Y0295142D01*
X0083657Y0296485D01*
X0081903Y0297212D01*
X0074453Y0297212D01*
X0072698Y0296485D01*
X0072317Y0296103D01*
X0072317Y0298771D01*
X0072698Y0298389D01*
X0074453Y0297662D01*
X0081903Y0297662D01*
X0083657Y0298389D01*
X0085001Y0299732D01*
X0085728Y0301487D01*
X0085728Y0303177D01*
X0087277Y0303177D01*
X0088814Y0303814D01*
X0089159Y0304158D01*
X0093782Y0304158D01*
X0098820Y0299119D01*
X0098301Y0299335D01*
X0096638Y0299335D01*
X0095101Y0298698D01*
X0093925Y0297522D01*
X0093288Y0295985D01*
X0093288Y0294322D01*
X0093925Y0292785D01*
X0095101Y0291609D01*
X0096638Y0290972D01*
X0098301Y0290972D01*
X0099838Y0291609D01*
X0101014Y0292785D01*
X0101650Y0294322D01*
X0101650Y0295985D01*
X0101435Y0296505D01*
X0128915Y0269025D01*
X0128915Y0266171D01*
X0129402Y0264994D01*
X0133733Y0260664D01*
X0133733Y0260664D01*
X0134633Y0259764D01*
X0134953Y0259631D01*
X0135652Y0258932D01*
X0137189Y0258295D01*
X0138852Y0258295D01*
X0140389Y0258932D01*
X0141565Y0260108D01*
X0142202Y0261645D01*
X0142202Y0263308D01*
X0141565Y0264845D01*
X0140389Y0266021D01*
X0138852Y0266657D01*
X0137189Y0266657D01*
X0136907Y0266541D01*
X0135315Y0268133D01*
X0135315Y0268751D01*
X0136795Y0268138D01*
X0138458Y0268138D01*
X0139995Y0268774D01*
X0141171Y0269950D01*
X0141808Y0271487D01*
X0141808Y0271975D01*
X0190227Y0320393D01*
X0191127Y0321294D01*
X0191614Y0322470D01*
X0191614Y0347365D01*
X0191127Y0348541D01*
X0190971Y0348697D01*
X0202432Y0360157D01*
X0203332Y0361057D01*
X0203724Y0362005D01*
X0203724Y0112520D01*
X0004600Y0112520D01*
X0004600Y0116916D02*
X0203724Y0116916D01*
X0203724Y0119315D02*
X0004600Y0119315D01*
X0004600Y0121713D02*
X0017777Y0121713D01*
X0017788Y0121687D02*
X0018688Y0120787D01*
X0019864Y0120300D01*
X0188263Y0120300D01*
X0189439Y0120787D01*
X0190340Y0121687D01*
X0190649Y0122434D01*
X0190729Y0122514D01*
X0190729Y0122628D01*
X0190827Y0122863D01*
X0190827Y0123111D01*
X0193650Y0123111D01*
X0193650Y0127279D01*
X0193650Y0127279D01*
X0193650Y0123111D01*
X0197877Y0123111D01*
X0198437Y0123261D01*
X0198938Y0123551D01*
X0199348Y0123960D01*
X0199637Y0124462D01*
X0199787Y0125021D01*
X0199787Y0127279D01*
X0193651Y0127279D01*
X0193651Y0127280D01*
X0199787Y0127280D01*
X0199787Y0129538D01*
X0199637Y0130097D01*
X0199348Y0130599D01*
X0198938Y0131008D01*
X0198437Y0131298D01*
X0197877Y0131448D01*
X0193650Y0131448D01*
X0190827Y0131448D01*
X0190827Y0226499D01*
X0190340Y0227675D01*
X0189439Y0228575D01*
X0188263Y0229062D01*
X0182190Y0229062D01*
X0182268Y0229352D01*
X0182268Y0233579D01*
X0182268Y0237805D01*
X0182118Y0238365D01*
X0181828Y0238867D01*
X0181419Y0239276D01*
X0180917Y0239566D01*
X0180357Y0239716D01*
X0178099Y0239716D01*
X0175841Y0239716D01*
X0175282Y0239566D01*
X0174780Y0239276D01*
X0174370Y0238867D01*
X0174081Y0238365D01*
X0173931Y0237805D01*
X0173931Y0233579D01*
X0178099Y0233579D01*
X0178099Y0239716D01*
X0178099Y0233579D01*
X0178099Y0233579D01*
X0178099Y0233579D01*
X0173931Y0233579D01*
X0173931Y0229352D01*
X0174008Y0229062D01*
X0172068Y0229062D01*
X0172068Y0238344D01*
X0171299Y0239113D01*
X0171299Y0240121D01*
X0170812Y0241297D01*
X0165864Y0246245D01*
X0166832Y0247213D01*
X0167559Y0248968D01*
X0167559Y0250867D01*
X0166832Y0252622D01*
X0165489Y0253965D01*
X0163734Y0254692D01*
X0161834Y0254692D01*
X0160080Y0253965D01*
X0158736Y0252622D01*
X0158009Y0250867D01*
X0158009Y0249335D01*
X0157559Y0249335D01*
X0157559Y0250867D01*
X0156832Y0252622D01*
X0155489Y0253965D01*
X0153734Y0254692D01*
X0151834Y0254692D01*
X0150080Y0253965D01*
X0148736Y0252622D01*
X0148009Y0250867D01*
X0148009Y0248968D01*
X0148736Y0247213D01*
X0150080Y0245869D01*
X0151834Y0245143D01*
X0153721Y0245143D01*
X0153721Y0244322D01*
X0154358Y0242785D01*
X0155534Y0241609D01*
X0157071Y0240972D01*
X0158734Y0240972D01*
X0160271Y0241609D01*
X0160405Y0241743D01*
X0161394Y0241664D01*
X0164422Y0238636D01*
X0164131Y0238344D01*
X0164131Y0229062D01*
X0162068Y0229062D01*
X0162068Y0238344D01*
X0160896Y0239516D01*
X0155302Y0239516D01*
X0154131Y0238344D01*
X0154131Y0229062D01*
X0152068Y0229062D01*
X0152068Y0238344D01*
X0150896Y0239516D01*
X0145302Y0239516D01*
X0144131Y0238344D01*
X0144131Y0229062D01*
X0142068Y0229062D01*
X0142068Y0238344D01*
X0140896Y0239516D01*
X0140703Y0239516D01*
X0140400Y0239819D01*
X0139446Y0240840D01*
X0139446Y0241458D01*
X0138809Y0242994D01*
X0137633Y0244171D01*
X0136096Y0244807D01*
X0134433Y0244807D01*
X0132896Y0244171D01*
X0131720Y0242994D01*
X0131083Y0241458D01*
X0131083Y0239794D01*
X0131260Y0239368D01*
X0130917Y0239566D01*
X0130357Y0239716D01*
X0128099Y0239716D01*
X0125841Y0239716D01*
X0125282Y0239566D01*
X0124780Y0239276D01*
X0124370Y0238867D01*
X0124081Y0238365D01*
X0123931Y0237805D01*
X0123931Y0233579D01*
X0128099Y0233579D01*
X0128099Y0239716D01*
X0128099Y0233579D01*
X0128099Y0233579D01*
X0128099Y0233579D01*
X0123931Y0233579D01*
X0123931Y0229352D01*
X0124008Y0229062D01*
X0122068Y0229062D01*
X0122068Y0238344D01*
X0120896Y0239516D01*
X0118562Y0239516D01*
X0119754Y0240708D01*
X0120655Y0241609D01*
X0121142Y0242785D01*
X0121142Y0245429D01*
X0121834Y0245143D01*
X0123734Y0245143D01*
X0125489Y0245869D01*
X0126832Y0247213D01*
X0127559Y0248968D01*
X0127559Y0250867D01*
X0126832Y0252622D01*
X0125489Y0253965D01*
X0123734Y0254692D01*
X0122557Y0254692D01*
X0123691Y0255827D01*
X0124592Y0256727D01*
X0125079Y0257903D01*
X0125079Y0260551D01*
X0125423Y0260895D01*
X0126060Y0262432D01*
X0126060Y0264095D01*
X0125423Y0265632D01*
X0124247Y0266808D01*
X0122710Y0267445D01*
X0121047Y0267445D01*
X0119510Y0266808D01*
X0118334Y0265632D01*
X0117698Y0264095D01*
X0117698Y0262432D01*
X0118334Y0260895D01*
X0118679Y0260551D01*
X0118679Y0259865D01*
X0115229Y0256415D01*
X0114742Y0255239D01*
X0114742Y0254275D01*
X0113734Y0254692D01*
X0112133Y0254692D01*
X0112825Y0255384D01*
X0113461Y0256920D01*
X0113461Y0258584D01*
X0112825Y0260120D01*
X0111649Y0261297D01*
X0110112Y0261933D01*
X0108449Y0261933D01*
X0106912Y0261297D01*
X0105736Y0260120D01*
X0105099Y0258584D01*
X0105099Y0258096D01*
X0104993Y0257990D01*
X0104506Y0256814D01*
X0104506Y0254692D01*
X0104506Y0256030D02*
X0077953Y0256030D01*
X0077953Y0253631D02*
X0098120Y0253631D01*
X0105099Y0258428D02*
X0083697Y0258428D01*
X0085454Y0260827D02*
X0106442Y0260827D01*
X0108524Y0263225D02*
X0085728Y0263225D01*
X0084519Y0265624D02*
X0107461Y0265624D01*
X0107946Y0268022D02*
X0082772Y0268022D01*
X0085286Y0270421D02*
X0108443Y0270421D01*
X0108443Y0272819D02*
X0085728Y0272819D01*
X0086446Y0277437D02*
X0097469Y0277437D01*
X0101650Y0277616D02*
X0103788Y0277616D01*
X0106187Y0275218D02*
X0101076Y0275218D01*
X0098800Y0282413D02*
X0085728Y0282413D01*
X0085137Y0284812D02*
X0099227Y0284812D01*
X0102981Y0282949D02*
X0111643Y0274287D01*
X0111643Y0266020D01*
X0114761Y0263225D02*
X0117698Y0263225D01*
X0118331Y0265624D02*
X0115824Y0265624D01*
X0115339Y0268022D02*
X0128915Y0268022D01*
X0129141Y0265624D02*
X0125427Y0265624D01*
X0126060Y0263225D02*
X0131171Y0263225D01*
X0130146Y0263854D02*
X0108099Y0287280D01*
X0086839Y0287280D01*
X0084877Y0289609D02*
X0108331Y0289609D01*
X0105933Y0292007D02*
X0100236Y0292007D01*
X0101650Y0294406D02*
X0103534Y0294406D01*
X0098737Y0299203D02*
X0098619Y0299203D01*
X0096320Y0299203D02*
X0084471Y0299203D01*
X0085728Y0301601D02*
X0096338Y0301601D01*
X0093940Y0304000D02*
X0089000Y0304000D01*
X0086446Y0307358D02*
X0095107Y0307358D01*
X0117154Y0329406D01*
X0128572Y0329406D01*
X0160737Y0361571D01*
X0160737Y0368618D01*
X0144044Y0366531D02*
X0164202Y0386689D01*
X0150619Y0400272D01*
X0128178Y0400272D01*
X0120304Y0408146D01*
X0120304Y0420744D01*
X0116367Y0424681D01*
X0114005Y0424681D01*
X0084280Y0425075D01*
X0078178Y0431177D01*
X0086446Y0431374D02*
X0086446Y0431374D01*
X0092548Y0431374D01*
X0096288Y0431374D01*
X0100028Y0438657D02*
X0100028Y0441611D01*
X0099044Y0442595D01*
X0099044Y0451453D01*
X0092548Y0452752D02*
X0092548Y0441611D01*
X0100028Y0438657D02*
X0114005Y0424681D01*
X0114398Y0418776D02*
X0109083Y0418776D01*
X0105540Y0418776D02*
X0103965Y0419169D01*
X0100225Y0419169D01*
X0092154Y0419366D02*
X0091957Y0412673D01*
X0091957Y0406965D01*
X0110855Y0406965D01*
X0125422Y0392398D01*
X0116643Y0390272D02*
X0127391Y0379524D01*
X0127391Y0373500D01*
X0116682Y0372870D02*
X0108887Y0380665D01*
X0108887Y0398697D01*
X0105737Y0401846D01*
X0097076Y0401846D01*
X0092351Y0397122D01*
X0092351Y0382555D01*
X0086839Y0377043D01*
X0084320Y0395390D02*
X0084320Y0395508D01*
X0074320Y0395508D02*
X0074320Y0404130D01*
X0065580Y0412870D01*
X0065580Y0439248D01*
X0068335Y0442004D01*
X0055422Y0430902D02*
X0061249Y0425075D01*
X0061328Y0424996D01*
X0061328Y0415035D01*
X0062036Y0414327D01*
X0053847Y0415035D02*
X0051406Y0417476D01*
X0051288Y0417594D01*
X0044713Y0417988D01*
X0039989Y0414445D02*
X0042745Y0411689D01*
X0039989Y0414445D02*
X0031013Y0414445D01*
X0031013Y0420665D01*
X0036406Y0426059D01*
X0032666Y0434720D02*
X0034635Y0436689D01*
X0034635Y0446728D01*
X0027784Y0446728D01*
X0022076Y0442791D01*
X0019910Y0454720D02*
X0034635Y0454720D01*
X0042706Y0462791D01*
X0060737Y0462791D01*
X0061052Y0462476D01*
X0080540Y0462476D01*
X0080540Y0456571D01*
X0084477Y0452634D01*
X0092548Y0452752D02*
X0100225Y0460429D01*
X0104438Y0460429D01*
X0112036Y0452831D01*
X0106131Y0442004D02*
X0106131Y0441807D01*
X0112036Y0435902D01*
X0126603Y0421335D01*
X0126603Y0409327D01*
X0131328Y0404602D01*
X0152587Y0404602D01*
X0162430Y0394760D01*
X0167154Y0394760D01*
X0172469Y0401059D02*
X0172469Y0408933D01*
X0171288Y0410114D01*
X0171288Y0416807D01*
X0155146Y0416807D01*
X0143335Y0428618D01*
X0143335Y0435311D01*
X0142154Y0436492D01*
X0142154Y0462673D01*
X0150422Y0470941D01*
X0173650Y0470941D01*
X0180540Y0464051D01*
X0184084Y0460507D01*
X0184084Y0452043D01*
X0173847Y0452043D02*
X0171682Y0452043D01*
X0167548Y0455587D01*
X0167154Y0461689D02*
X0162430Y0461689D01*
X0162430Y0451059D01*
X0165580Y0448303D01*
X0173847Y0448303D01*
X0173847Y0444563D02*
X0173847Y0440233D01*
X0178965Y0435114D01*
X0179162Y0434917D01*
X0182509Y0434917D01*
X0200619Y0416807D01*
X0200619Y0362870D01*
X0186446Y0348697D01*
X0182272Y0348697D01*
X0180265Y0346689D01*
X0186446Y0348697D02*
X0188414Y0346728D01*
X0188414Y0323106D01*
X0137627Y0272319D01*
X0141366Y0270421D02*
X0203724Y0270421D01*
X0203724Y0272819D02*
X0142653Y0272819D01*
X0145051Y0275218D02*
X0203724Y0275218D01*
X0203724Y0277616D02*
X0147450Y0277616D01*
X0149848Y0280015D02*
X0203724Y0280015D01*
X0203724Y0282413D02*
X0152247Y0282413D01*
X0154645Y0284812D02*
X0203724Y0284812D01*
X0203724Y0287210D02*
X0157044Y0287210D01*
X0159442Y0289609D02*
X0203724Y0289609D01*
X0203724Y0292007D02*
X0161841Y0292007D01*
X0164239Y0294406D02*
X0203724Y0294406D01*
X0203724Y0296804D02*
X0166638Y0296804D01*
X0169036Y0299203D02*
X0203724Y0299203D01*
X0203724Y0301601D02*
X0171435Y0301601D01*
X0173833Y0304000D02*
X0203724Y0304000D01*
X0203724Y0306398D02*
X0176232Y0306398D01*
X0178630Y0308797D02*
X0203724Y0308797D01*
X0203724Y0311195D02*
X0181029Y0311195D01*
X0183427Y0313594D02*
X0203724Y0313594D01*
X0203724Y0315992D02*
X0185826Y0315992D01*
X0188224Y0318391D02*
X0203724Y0318391D01*
X0203724Y0320789D02*
X0190623Y0320789D01*
X0191614Y0323188D02*
X0203724Y0323188D01*
X0203724Y0325586D02*
X0191614Y0325586D01*
X0191614Y0327985D02*
X0203724Y0327985D01*
X0203724Y0330384D02*
X0191614Y0330384D01*
X0191614Y0332782D02*
X0203724Y0332782D01*
X0203724Y0335181D02*
X0191614Y0335181D01*
X0191614Y0337579D02*
X0203724Y0337579D01*
X0203724Y0339978D02*
X0191614Y0339978D01*
X0191614Y0342376D02*
X0203724Y0342376D01*
X0203724Y0344775D02*
X0191614Y0344775D01*
X0191614Y0347173D02*
X0203724Y0347173D01*
X0203724Y0349572D02*
X0191846Y0349572D01*
X0194244Y0351970D02*
X0203724Y0351970D01*
X0203724Y0354369D02*
X0196643Y0354369D01*
X0199041Y0356767D02*
X0203724Y0356767D01*
X0203724Y0359166D02*
X0201440Y0359166D01*
X0203542Y0361564D02*
X0203724Y0361564D01*
X0180265Y0386689D02*
X0164202Y0386689D01*
X0177587Y0401059D02*
X0183887Y0401059D01*
X0189792Y0401059D02*
X0182902Y0408933D01*
X0177587Y0408933D01*
X0178769Y0410114D01*
X0178769Y0416807D01*
X0175028Y0425075D02*
X0170304Y0429799D01*
X0168335Y0429799D01*
X0175028Y0426059D02*
X0175028Y0425075D01*
X0175028Y0426059D02*
X0178965Y0429996D01*
X0173847Y0444563D02*
X0165776Y0444563D01*
X0164792Y0443579D01*
X0159280Y0438067D01*
X0159280Y0430980D01*
X0157706Y0432555D01*
X0149438Y0432555D01*
X0152587Y0426650D02*
X0152587Y0424681D01*
X0154950Y0422319D01*
X0159083Y0422319D01*
X0159280Y0422122D01*
X0159280Y0427240D02*
X0159280Y0430980D01*
X0164792Y0443579D02*
X0157706Y0450665D01*
X0155343Y0450665D01*
X0147076Y0443579D02*
X0147076Y0458539D01*
X0142154Y0462673D02*
X0134477Y0470350D01*
X0131918Y0470350D01*
X0131721Y0470547D01*
X0124044Y0470547D01*
X0110068Y0484524D01*
X0087627Y0484524D01*
X0080540Y0473500D02*
X0074241Y0467201D01*
X0069123Y0467201D01*
X0080540Y0473500D02*
X0098178Y0473500D01*
X0100225Y0475547D01*
X0119517Y0466020D02*
X0119517Y0433343D01*
X0133690Y0419169D01*
X0134871Y0420350D01*
X0139595Y0420350D01*
X0135855Y0428618D02*
X0137036Y0429799D01*
X0137036Y0436492D01*
X0136643Y0436492D01*
X0131721Y0441413D01*
X0125619Y0441413D01*
X0124241Y0442791D01*
X0131721Y0447319D02*
X0131721Y0465429D01*
X0131721Y0477043D02*
X0138020Y0477043D01*
X0142351Y0481374D01*
X0142351Y0483539D01*
X0142548Y0483736D01*
X0147469Y0483736D01*
X0160658Y0483736D01*
X0160658Y0476846D01*
X0161643Y0475862D01*
X0161249Y0475469D01*
X0161643Y0475862D02*
X0168532Y0475862D01*
X0173650Y0475862D02*
X0173650Y0470941D01*
X0173650Y0475862D02*
X0177587Y0479799D01*
X0177587Y0483736D01*
X0172469Y0483736D02*
X0166564Y0483736D01*
X0162036Y0466020D02*
X0162036Y0462083D01*
X0162430Y0461689D01*
X0155343Y0461689D01*
X0167154Y0461689D02*
X0169517Y0464051D01*
X0147469Y0443185D02*
X0147076Y0443579D01*
X0136643Y0483736D02*
X0126406Y0483736D01*
X0086446Y0419760D02*
X0079950Y0418185D01*
X0078178Y0418185D01*
X0057587Y0406374D02*
X0056997Y0406965D01*
X0034871Y0406965D01*
X0031328Y0403421D01*
X0033296Y0397516D02*
X0028965Y0393185D01*
X0033296Y0397516D02*
X0035658Y0397516D01*
X0040383Y0402240D01*
X0043926Y0402240D01*
X0051406Y0417476D02*
X0051406Y0423028D01*
X0051406Y0430902D02*
X0047587Y0434720D01*
X0040146Y0434720D01*
X0040146Y0444366D01*
X0042509Y0446728D01*
X0042509Y0453657D01*
X0041957Y0454209D01*
X0042706Y0462791D02*
X0036721Y0468776D01*
X0026721Y0468776D02*
X0026721Y0476768D01*
X0044320Y0494366D01*
X0065186Y0494366D01*
X0055422Y0430902D02*
X0051406Y0430902D01*
X0023454Y0414130D02*
X0023454Y0403421D01*
X0023454Y0390823D01*
X0018335Y0390823D01*
X0012036Y0384524D01*
X0012036Y0378618D01*
X0053375Y0378618D01*
X0054162Y0377831D01*
X0056480Y0373557D02*
X0025657Y0373557D01*
X0025591Y0371158D02*
X0056480Y0371158D01*
X0052981Y0367594D02*
X0045894Y0367594D01*
X0035265Y0356965D01*
X0031083Y0356767D02*
X0022976Y0356767D01*
X0024434Y0359166D02*
X0031651Y0359166D01*
X0035339Y0361564D02*
X0025728Y0361564D01*
X0025489Y0363963D02*
X0037737Y0363963D01*
X0040136Y0366361D02*
X0023781Y0366361D01*
X0024028Y0368760D02*
X0042534Y0368760D01*
X0044390Y0361564D02*
X0045257Y0361564D01*
X0045631Y0359166D02*
X0041991Y0359166D01*
X0039593Y0356767D02*
X0046238Y0356767D01*
X0046238Y0354369D02*
X0038582Y0354369D01*
X0037486Y0351970D02*
X0046238Y0351970D01*
X0046238Y0349572D02*
X0040237Y0349572D01*
X0040001Y0350142D02*
X0038657Y0351485D01*
X0036903Y0352212D01*
X0029453Y0352212D01*
X0027698Y0351485D01*
X0026355Y0350142D01*
X0025628Y0348387D01*
X0025628Y0346487D01*
X0026355Y0344732D01*
X0027698Y0343389D01*
X0029453Y0342662D01*
X0036903Y0342662D01*
X0038657Y0343389D01*
X0040001Y0344732D01*
X0040728Y0346487D01*
X0040728Y0348387D01*
X0040001Y0350142D01*
X0040728Y0347173D02*
X0046238Y0347173D01*
X0046238Y0344775D02*
X0040018Y0344775D01*
X0038657Y0341485D02*
X0036903Y0342212D01*
X0029453Y0342212D01*
X0027698Y0341485D01*
X0026355Y0340142D01*
X0025628Y0338387D01*
X0025628Y0336487D01*
X0026355Y0334732D01*
X0027698Y0333389D01*
X0029453Y0332662D01*
X0036903Y0332662D01*
X0038657Y0333389D01*
X0040001Y0334732D01*
X0040728Y0336487D01*
X0040728Y0338387D01*
X0040001Y0340142D01*
X0038657Y0341485D01*
X0040069Y0339978D02*
X0046238Y0339978D01*
X0046238Y0342376D02*
X0025728Y0342376D01*
X0026287Y0339978D02*
X0025102Y0339978D01*
X0025628Y0337579D02*
X0010905Y0337579D01*
X0010905Y0335181D02*
X0011394Y0335181D01*
X0011254Y0339978D02*
X0010905Y0339978D01*
X0010905Y0344775D02*
X0011203Y0344775D01*
X0010905Y0347173D02*
X0014360Y0347173D01*
X0011516Y0349572D02*
X0010905Y0349572D01*
X0010905Y0354369D02*
X0011035Y0354369D01*
X0010905Y0356767D02*
X0013380Y0356767D01*
X0011922Y0359166D02*
X0010905Y0359166D01*
X0010905Y0366361D02*
X0012575Y0366361D01*
X0012328Y0368760D02*
X0010905Y0368760D01*
X0025321Y0354369D02*
X0031948Y0354369D01*
X0028870Y0351970D02*
X0025728Y0351970D01*
X0026119Y0349572D02*
X0024840Y0349572D01*
X0025628Y0347173D02*
X0021996Y0347173D01*
X0025153Y0344775D02*
X0026338Y0344775D01*
X0026170Y0335181D02*
X0024962Y0335181D01*
X0025728Y0332782D02*
X0029164Y0332782D01*
X0025270Y0330384D02*
X0046238Y0330384D01*
X0046238Y0332782D02*
X0037192Y0332782D01*
X0040186Y0335181D02*
X0046238Y0335181D01*
X0046238Y0337579D02*
X0040728Y0337579D01*
X0046238Y0327985D02*
X0022682Y0327985D01*
X0024556Y0325586D02*
X0046238Y0325586D01*
X0044403Y0323188D02*
X0025728Y0323188D01*
X0025439Y0320789D02*
X0042005Y0320789D01*
X0039606Y0318391D02*
X0023659Y0318391D01*
X0024150Y0315992D02*
X0037208Y0315992D01*
X0034809Y0313594D02*
X0025642Y0313594D01*
X0025607Y0311195D02*
X0027409Y0311195D01*
X0025798Y0308797D02*
X0024065Y0308797D01*
X0023744Y0306398D02*
X0025665Y0306398D01*
X0025474Y0304000D02*
X0027088Y0304000D01*
X0027980Y0301601D02*
X0025728Y0301601D01*
X0025966Y0299203D02*
X0024471Y0299203D01*
X0025628Y0296804D02*
X0022886Y0296804D01*
X0025305Y0294406D02*
X0026682Y0294406D01*
X0025728Y0292007D02*
X0046097Y0292007D01*
X0048495Y0294406D02*
X0039674Y0294406D01*
X0040728Y0296804D02*
X0050894Y0296804D01*
X0053292Y0299203D02*
X0040390Y0299203D01*
X0040343Y0304602D02*
X0053769Y0304602D01*
X0059674Y0301059D02*
X0059674Y0321138D01*
X0064398Y0325862D01*
X0049438Y0323697D02*
X0033178Y0307437D01*
X0040343Y0304602D02*
X0033178Y0297437D01*
X0035445Y0289609D02*
X0024877Y0289609D01*
X0023657Y0286485D02*
X0021903Y0287212D01*
X0014453Y0287212D01*
X0012698Y0286485D01*
X0011355Y0285142D01*
X0010628Y0283387D01*
X0010628Y0281487D01*
X0011355Y0279732D01*
X0012698Y0278389D01*
X0014453Y0277662D01*
X0021903Y0277662D01*
X0023657Y0278389D01*
X0025001Y0279732D01*
X0025728Y0281487D01*
X0025728Y0283387D01*
X0025001Y0285142D01*
X0023657Y0286485D01*
X0021906Y0287210D02*
X0033032Y0287210D01*
X0030634Y0284812D02*
X0025137Y0284812D01*
X0025728Y0282413D02*
X0028235Y0282413D01*
X0025837Y0280015D02*
X0025118Y0280015D01*
X0023438Y0277616D02*
X0004600Y0277616D01*
X0004600Y0275218D02*
X0011431Y0275218D01*
X0010628Y0272819D02*
X0004600Y0272819D01*
X0004600Y0270421D02*
X0011070Y0270421D01*
X0013584Y0268022D02*
X0004600Y0268022D01*
X0004600Y0265624D02*
X0011837Y0265624D01*
X0010628Y0263225D02*
X0004600Y0263225D01*
X0004600Y0260827D02*
X0010902Y0260827D01*
X0012659Y0258428D02*
X0004600Y0258428D01*
X0004600Y0256030D02*
X0018403Y0256030D01*
X0018403Y0253631D02*
X0004600Y0253631D01*
X0004600Y0251233D02*
X0018403Y0251233D01*
X0018403Y0248834D02*
X0004600Y0248834D01*
X0004600Y0246436D02*
X0019652Y0246436D01*
X0026704Y0246436D02*
X0029652Y0246436D01*
X0028403Y0248834D02*
X0027953Y0248834D01*
X0027953Y0251233D02*
X0028403Y0251233D01*
X0028403Y0253631D02*
X0027953Y0253631D01*
X0027953Y0256030D02*
X0028403Y0256030D01*
X0029642Y0258428D02*
X0026714Y0258428D01*
X0036714Y0258428D02*
X0039642Y0258428D01*
X0038403Y0256030D02*
X0037953Y0256030D01*
X0037953Y0253631D02*
X0038403Y0253631D01*
X0038403Y0251233D02*
X0037953Y0251233D01*
X0037953Y0248834D02*
X0038403Y0248834D01*
X0038020Y0244366D02*
X0048099Y0234366D01*
X0048099Y0233579D01*
X0034131Y0234443D02*
X0032068Y0234443D01*
X0032068Y0232045D02*
X0034131Y0232045D01*
X0034131Y0229646D02*
X0032068Y0229646D01*
X0032068Y0236842D02*
X0034131Y0236842D01*
X0035027Y0239240D02*
X0031172Y0239240D01*
X0034835Y0241639D02*
X0004600Y0241639D01*
X0004600Y0244037D02*
X0033839Y0244037D01*
X0025027Y0239240D02*
X0004600Y0239240D01*
X0004600Y0236842D02*
X0024131Y0236842D01*
X0024131Y0234443D02*
X0004600Y0234443D01*
X0004600Y0232045D02*
X0024131Y0232045D01*
X0024131Y0229646D02*
X0004600Y0229646D01*
X0004600Y0227248D02*
X0017611Y0227248D01*
X0020501Y0225862D02*
X0020501Y0123500D01*
X0187627Y0123500D01*
X0187627Y0225862D01*
X0020501Y0225862D01*
X0014517Y0224849D02*
X0014516Y0224849D01*
X0014516Y0222451D02*
X0014517Y0222451D01*
X0014517Y0221768D02*
X0014517Y0217599D01*
X0017301Y0217599D01*
X0017301Y0131248D01*
X0009751Y0131248D01*
X0008580Y0130076D01*
X0008580Y0124483D01*
X0009751Y0123311D01*
X0017301Y0123311D01*
X0017301Y0122863D01*
X0017438Y0122533D01*
X0017438Y0122514D01*
X0017451Y0122501D01*
X0017788Y0121687D01*
X0008951Y0124112D02*
X0004600Y0124112D01*
X0004600Y0126510D02*
X0008580Y0126510D01*
X0008580Y0128909D02*
X0004600Y0128909D01*
X0004600Y0131307D02*
X0017301Y0131307D01*
X0017301Y0133706D02*
X0004600Y0133706D01*
X0004600Y0136104D02*
X0017301Y0136104D01*
X0017301Y0138503D02*
X0004600Y0138503D01*
X0004600Y0140901D02*
X0017301Y0140901D01*
X0017301Y0143300D02*
X0004600Y0143300D01*
X0004600Y0145698D02*
X0017301Y0145698D01*
X0017301Y0148097D02*
X0004600Y0148097D01*
X0004600Y0150495D02*
X0017301Y0150495D01*
X0017301Y0152894D02*
X0004600Y0152894D01*
X0004600Y0155292D02*
X0017301Y0155292D01*
X0017301Y0157691D02*
X0004600Y0157691D01*
X0004600Y0160089D02*
X0017301Y0160089D01*
X0017301Y0162488D02*
X0004600Y0162488D01*
X0004600Y0164886D02*
X0017301Y0164886D01*
X0017301Y0167285D02*
X0004600Y0167285D01*
X0004600Y0169683D02*
X0017301Y0169683D01*
X0017301Y0172082D02*
X0004600Y0172082D01*
X0004600Y0174480D02*
X0017301Y0174480D01*
X0017301Y0176879D02*
X0004600Y0176879D01*
X0004600Y0179277D02*
X0017301Y0179277D01*
X0017301Y0181676D02*
X0004600Y0181676D01*
X0004600Y0184074D02*
X0017301Y0184074D01*
X0017301Y0186473D02*
X0004600Y0186473D01*
X0004600Y0188871D02*
X0017301Y0188871D01*
X0017301Y0191270D02*
X0004600Y0191270D01*
X0004600Y0193668D02*
X0017301Y0193668D01*
X0017301Y0196067D02*
X0004600Y0196067D01*
X0004600Y0198465D02*
X0017301Y0198465D01*
X0017301Y0200864D02*
X0004600Y0200864D01*
X0004600Y0203262D02*
X0017301Y0203262D01*
X0017301Y0205661D02*
X0004600Y0205661D01*
X0004600Y0208059D02*
X0017301Y0208059D01*
X0017301Y0210458D02*
X0004600Y0210458D01*
X0004600Y0212856D02*
X0017301Y0212856D01*
X0017301Y0215255D02*
X0004600Y0215255D01*
X0004600Y0217653D02*
X0010087Y0217653D01*
X0008380Y0220052D02*
X0004600Y0220052D01*
X0004600Y0222451D02*
X0008380Y0222451D01*
X0008682Y0224849D02*
X0004600Y0224849D01*
X0014516Y0221768D02*
X0014517Y0221768D01*
X0014516Y0220052D02*
X0014517Y0220052D01*
X0014516Y0217653D02*
X0014517Y0217653D01*
X0057953Y0256030D02*
X0058403Y0256030D01*
X0059642Y0258428D02*
X0056714Y0258428D01*
X0058398Y0260827D02*
X0062636Y0260827D01*
X0062380Y0263225D02*
X0058737Y0263225D01*
X0057322Y0265624D02*
X0062380Y0265624D01*
X0065580Y0262083D02*
X0067154Y0260508D01*
X0067942Y0260508D01*
X0065580Y0262083D02*
X0065580Y0271925D01*
X0057312Y0280193D01*
X0042745Y0280193D01*
X0038564Y0280015D02*
X0034887Y0280015D01*
X0032489Y0277616D02*
X0039409Y0277616D01*
X0039139Y0282413D02*
X0037286Y0282413D01*
X0037233Y0286886D02*
X0045501Y0286886D01*
X0059674Y0301059D01*
X0072317Y0296804D02*
X0073470Y0296804D01*
X0082886Y0296804D02*
X0093627Y0296804D01*
X0093288Y0294406D02*
X0085305Y0294406D01*
X0085728Y0292007D02*
X0094703Y0292007D01*
X0106735Y0284812D02*
X0113128Y0284812D01*
X0110730Y0287210D02*
X0081906Y0287210D01*
X0074450Y0287210D02*
X0072317Y0287210D01*
X0060160Y0272819D02*
X0027692Y0272819D01*
X0025293Y0270421D02*
X0062380Y0270421D01*
X0057761Y0275218D02*
X0030090Y0275218D01*
X0022784Y0272437D02*
X0037233Y0286886D01*
X0022784Y0272437D02*
X0018178Y0272437D01*
X0011238Y0280015D02*
X0004600Y0280015D01*
X0004600Y0282413D02*
X0010628Y0282413D01*
X0011219Y0284812D02*
X0004600Y0284812D01*
X0004600Y0287210D02*
X0014450Y0287210D01*
X0010856Y0289609D02*
X0004600Y0289609D01*
X0004600Y0292007D02*
X0008295Y0292007D01*
X0005896Y0294406D02*
X0004600Y0294406D01*
X0007706Y0297122D02*
X0012391Y0292437D01*
X0018178Y0292437D01*
X0013470Y0296804D02*
X0012549Y0296804D01*
X0011885Y0299203D02*
X0010905Y0299203D01*
X0007706Y0297122D02*
X0007706Y0387673D01*
X0023454Y0403421D01*
X0023454Y0414130D02*
X0023139Y0414445D01*
X0064320Y0387988D02*
X0064320Y0385508D01*
X0052981Y0367594D02*
X0054556Y0366020D01*
X0054556Y0360508D01*
X0064595Y0350469D01*
X0064792Y0350469D01*
X0049438Y0360902D02*
X0049438Y0323697D01*
X0078178Y0312437D02*
X0097076Y0331335D01*
X0097076Y0332161D01*
X0091800Y0337122D02*
X0116406Y0337122D01*
X0091800Y0337122D02*
X0087233Y0332555D01*
X0095107Y0307358D02*
X0132115Y0270350D01*
X0132115Y0266807D01*
X0136446Y0262476D01*
X0138020Y0262476D01*
X0141863Y0260827D02*
X0203724Y0260827D01*
X0203724Y0263225D02*
X0142202Y0263225D01*
X0140786Y0265624D02*
X0203724Y0265624D01*
X0203724Y0268022D02*
X0135425Y0268022D01*
X0130146Y0263854D02*
X0130934Y0258736D01*
X0131524Y0258736D01*
X0133296Y0256965D01*
X0134280Y0256965D01*
X0137824Y0253421D01*
X0137824Y0245941D01*
X0138414Y0245154D01*
X0143139Y0240823D01*
X0145027Y0239240D02*
X0141172Y0239240D01*
X0142068Y0236842D02*
X0144131Y0236842D01*
X0144131Y0234443D02*
X0142068Y0234443D01*
X0142068Y0232045D02*
X0144131Y0232045D01*
X0144131Y0229646D02*
X0142068Y0229646D01*
X0138099Y0233579D02*
X0138099Y0237594D01*
X0135265Y0240626D01*
X0132268Y0237710D02*
X0132896Y0237081D01*
X0134131Y0236570D01*
X0134131Y0229062D01*
X0132190Y0229062D01*
X0132268Y0229352D01*
X0132268Y0233579D01*
X0132268Y0237710D01*
X0132268Y0236842D02*
X0133475Y0236842D01*
X0134131Y0234443D02*
X0132268Y0234443D01*
X0132268Y0233579D02*
X0128099Y0233579D01*
X0128099Y0241531D01*
X0131721Y0244957D01*
X0138414Y0245154D01*
X0137766Y0244037D02*
X0153839Y0244037D01*
X0155504Y0241639D02*
X0139371Y0241639D01*
X0141834Y0245143D02*
X0140080Y0245869D01*
X0138736Y0247213D01*
X0138009Y0248968D01*
X0138009Y0250867D01*
X0138736Y0252622D01*
X0140080Y0253965D01*
X0141834Y0254692D01*
X0143734Y0254692D01*
X0145489Y0253965D01*
X0146832Y0252622D01*
X0147559Y0250867D01*
X0147559Y0248968D01*
X0146832Y0247213D01*
X0145489Y0245869D01*
X0143734Y0245143D01*
X0141834Y0245143D01*
X0139513Y0246436D02*
X0136055Y0246436D01*
X0135489Y0245869D02*
X0136832Y0247213D01*
X0137559Y0248968D01*
X0137559Y0250867D01*
X0136832Y0252622D01*
X0135489Y0253965D01*
X0133734Y0254692D01*
X0131834Y0254692D01*
X0130080Y0253965D01*
X0128736Y0252622D01*
X0128009Y0250867D01*
X0128009Y0248968D01*
X0128736Y0247213D01*
X0130080Y0245869D01*
X0131834Y0245143D01*
X0133734Y0245143D01*
X0135489Y0245869D01*
X0132763Y0244037D02*
X0121142Y0244037D01*
X0120667Y0241639D02*
X0131158Y0241639D01*
X0128099Y0239240D02*
X0128099Y0239240D01*
X0128099Y0236842D02*
X0128099Y0236842D01*
X0128099Y0234443D02*
X0128099Y0234443D01*
X0128099Y0233579D02*
X0128099Y0233579D01*
X0132268Y0233579D01*
X0132268Y0232045D02*
X0134131Y0232045D01*
X0134131Y0229646D02*
X0132268Y0229646D01*
X0123931Y0229646D02*
X0122068Y0229646D01*
X0122068Y0232045D02*
X0123931Y0232045D01*
X0123931Y0234443D02*
X0122068Y0234443D01*
X0122068Y0236842D02*
X0123931Y0236842D01*
X0124744Y0239240D02*
X0121172Y0239240D01*
X0117942Y0243421D02*
X0117942Y0254602D01*
X0121879Y0258539D01*
X0121879Y0263264D01*
X0125355Y0260827D02*
X0133570Y0260827D01*
X0136868Y0258428D02*
X0125079Y0258428D01*
X0123895Y0256030D02*
X0203724Y0256030D01*
X0203724Y0258428D02*
X0139173Y0258428D01*
X0139745Y0253631D02*
X0135823Y0253631D01*
X0137408Y0251233D02*
X0138161Y0251233D01*
X0138065Y0248834D02*
X0137504Y0248834D01*
X0146055Y0246436D02*
X0149513Y0246436D01*
X0148065Y0248834D02*
X0147504Y0248834D01*
X0147408Y0251233D02*
X0148161Y0251233D01*
X0149745Y0253631D02*
X0145823Y0253631D01*
X0155823Y0253631D02*
X0159745Y0253631D01*
X0158161Y0251233D02*
X0157408Y0251233D01*
X0157902Y0245154D02*
X0162824Y0244760D01*
X0168099Y0239484D01*
X0168099Y0233579D01*
X0164131Y0234443D02*
X0162068Y0234443D01*
X0162068Y0232045D02*
X0164131Y0232045D01*
X0164131Y0229646D02*
X0162068Y0229646D01*
X0162068Y0236842D02*
X0164131Y0236842D01*
X0163818Y0239240D02*
X0161172Y0239240D01*
X0161419Y0241639D02*
X0160300Y0241639D01*
X0166055Y0246436D02*
X0169513Y0246436D01*
X0170080Y0245869D02*
X0168736Y0247213D01*
X0168009Y0248968D01*
X0168009Y0250867D01*
X0168736Y0252622D01*
X0170080Y0253965D01*
X0171834Y0254692D01*
X0173734Y0254692D01*
X0175489Y0253965D01*
X0176832Y0252622D01*
X0177559Y0250867D01*
X0177559Y0248968D01*
X0176832Y0247213D01*
X0175489Y0245869D01*
X0173734Y0245143D01*
X0171834Y0245143D01*
X0170080Y0245869D01*
X0168072Y0244037D02*
X0203724Y0244037D01*
X0203724Y0241639D02*
X0170470Y0241639D01*
X0171299Y0239240D02*
X0174744Y0239240D01*
X0173931Y0236842D02*
X0172068Y0236842D01*
X0172068Y0234443D02*
X0173931Y0234443D01*
X0173931Y0232045D02*
X0172068Y0232045D01*
X0172068Y0229646D02*
X0173931Y0229646D01*
X0178099Y0233579D02*
X0178178Y0233657D01*
X0178178Y0242398D01*
X0178099Y0239240D02*
X0178099Y0239240D01*
X0178099Y0236842D02*
X0178099Y0236842D01*
X0178099Y0234443D02*
X0178099Y0234443D01*
X0178099Y0233579D02*
X0182268Y0233579D01*
X0178099Y0233579D01*
X0178335Y0233343D01*
X0188808Y0233343D01*
X0193650Y0228500D01*
X0193650Y0127280D01*
X0193650Y0131448D01*
X0193650Y0127280D01*
X0193650Y0127280D01*
X0193650Y0126510D02*
X0193650Y0126510D01*
X0193650Y0124112D02*
X0193650Y0124112D01*
X0190350Y0121713D02*
X0203724Y0121713D01*
X0203724Y0124112D02*
X0199435Y0124112D01*
X0199787Y0126510D02*
X0203724Y0126510D01*
X0203724Y0128909D02*
X0199787Y0128909D01*
X0198403Y0131307D02*
X0203724Y0131307D01*
X0203724Y0133706D02*
X0190827Y0133706D01*
X0190827Y0136104D02*
X0203724Y0136104D01*
X0203724Y0138503D02*
X0190827Y0138503D01*
X0190827Y0140901D02*
X0203724Y0140901D01*
X0203724Y0143300D02*
X0190827Y0143300D01*
X0190827Y0145698D02*
X0203724Y0145698D01*
X0203724Y0148097D02*
X0190827Y0148097D01*
X0190827Y0150495D02*
X0203724Y0150495D01*
X0203724Y0152894D02*
X0190827Y0152894D01*
X0190827Y0155292D02*
X0203724Y0155292D01*
X0203724Y0157691D02*
X0190827Y0157691D01*
X0190827Y0160089D02*
X0203724Y0160089D01*
X0203724Y0162488D02*
X0190827Y0162488D01*
X0190827Y0164886D02*
X0203724Y0164886D01*
X0203724Y0167285D02*
X0190827Y0167285D01*
X0190827Y0169683D02*
X0203724Y0169683D01*
X0203724Y0172082D02*
X0190827Y0172082D01*
X0190827Y0174480D02*
X0203724Y0174480D01*
X0203724Y0176879D02*
X0190827Y0176879D01*
X0190827Y0179277D02*
X0203724Y0179277D01*
X0203724Y0181676D02*
X0190827Y0181676D01*
X0190827Y0184074D02*
X0203724Y0184074D01*
X0203724Y0186473D02*
X0190827Y0186473D01*
X0190827Y0188871D02*
X0203724Y0188871D01*
X0203724Y0191270D02*
X0190827Y0191270D01*
X0190827Y0193668D02*
X0203724Y0193668D01*
X0203724Y0196067D02*
X0190827Y0196067D01*
X0190827Y0198465D02*
X0203724Y0198465D01*
X0203724Y0200864D02*
X0190827Y0200864D01*
X0190827Y0203262D02*
X0203724Y0203262D01*
X0203724Y0205661D02*
X0190827Y0205661D01*
X0190827Y0208059D02*
X0203724Y0208059D01*
X0203724Y0210458D02*
X0190827Y0210458D01*
X0190827Y0212856D02*
X0203724Y0212856D01*
X0203724Y0215255D02*
X0190827Y0215255D01*
X0190827Y0217653D02*
X0203724Y0217653D01*
X0203724Y0220052D02*
X0190827Y0220052D01*
X0190827Y0222451D02*
X0203724Y0222451D01*
X0203724Y0224849D02*
X0190827Y0224849D01*
X0190517Y0227248D02*
X0203724Y0227248D01*
X0203724Y0229646D02*
X0182268Y0229646D01*
X0182268Y0232045D02*
X0203724Y0232045D01*
X0203724Y0234443D02*
X0182268Y0234443D01*
X0182268Y0236842D02*
X0203724Y0236842D01*
X0203724Y0239240D02*
X0181455Y0239240D01*
X0178099Y0233579D02*
X0178099Y0233579D01*
X0181834Y0245143D02*
X0183734Y0245143D01*
X0185489Y0245869D01*
X0186832Y0247213D01*
X0187559Y0248968D01*
X0187559Y0250867D01*
X0186832Y0252622D01*
X0185489Y0253965D01*
X0183734Y0254692D01*
X0181834Y0254692D01*
X0180080Y0253965D01*
X0178736Y0252622D01*
X0178009Y0250867D01*
X0178009Y0248968D01*
X0178736Y0247213D01*
X0180080Y0245869D01*
X0181834Y0245143D01*
X0179513Y0246436D02*
X0176055Y0246436D01*
X0177504Y0248834D02*
X0178065Y0248834D01*
X0178161Y0251233D02*
X0177408Y0251233D01*
X0175823Y0253631D02*
X0179745Y0253631D01*
X0185823Y0253631D02*
X0189745Y0253631D01*
X0190080Y0253965D02*
X0188736Y0252622D01*
X0188009Y0250867D01*
X0188009Y0248968D01*
X0188736Y0247213D01*
X0190080Y0245869D01*
X0191834Y0245143D01*
X0193734Y0245143D01*
X0195489Y0245869D01*
X0196832Y0247213D01*
X0197559Y0248968D01*
X0197559Y0250867D01*
X0196832Y0252622D01*
X0195489Y0253965D01*
X0193734Y0254692D01*
X0191834Y0254692D01*
X0190080Y0253965D01*
X0188161Y0251233D02*
X0187408Y0251233D01*
X0187504Y0248834D02*
X0188065Y0248834D01*
X0189513Y0246436D02*
X0186055Y0246436D01*
X0196055Y0246436D02*
X0203724Y0246436D01*
X0203724Y0248834D02*
X0197504Y0248834D01*
X0197408Y0251233D02*
X0203724Y0251233D01*
X0203724Y0253631D02*
X0195823Y0253631D01*
X0169745Y0253631D02*
X0165823Y0253631D01*
X0167408Y0251233D02*
X0168161Y0251233D01*
X0168065Y0248834D02*
X0167504Y0248834D01*
X0155027Y0239240D02*
X0151172Y0239240D01*
X0152068Y0236842D02*
X0154131Y0236842D01*
X0154131Y0234443D02*
X0152068Y0234443D01*
X0152068Y0232045D02*
X0154131Y0232045D01*
X0154131Y0229646D02*
X0152068Y0229646D01*
X0129513Y0246436D02*
X0126055Y0246436D01*
X0127504Y0248834D02*
X0128065Y0248834D01*
X0128161Y0251233D02*
X0127408Y0251233D01*
X0125823Y0253631D02*
X0129745Y0253631D01*
X0118403Y0260827D02*
X0112119Y0260827D01*
X0113461Y0258428D02*
X0117242Y0258428D01*
X0115069Y0256030D02*
X0113092Y0256030D01*
X0109280Y0257752D02*
X0107706Y0256177D01*
X0107706Y0244760D01*
X0102981Y0240035D01*
X0084083Y0240035D01*
X0078099Y0234051D01*
X0078099Y0233579D01*
X0077784Y0239642D02*
X0074162Y0239642D01*
X0068099Y0233579D01*
X0077784Y0239642D02*
X0082902Y0244760D01*
X0085265Y0244760D01*
X0078550Y0251233D02*
X0077953Y0251233D01*
X0078178Y0262437D02*
X0073493Y0262437D01*
X0069517Y0266413D01*
X0072433Y0268022D02*
X0073584Y0268022D01*
X0051790Y0265624D02*
X0051022Y0265624D01*
X0012612Y0306398D02*
X0010905Y0306398D01*
X0010905Y0308797D02*
X0012291Y0308797D01*
X0012206Y0315992D02*
X0010905Y0315992D01*
X0010905Y0318391D02*
X0012697Y0318391D01*
X0010917Y0320789D02*
X0010905Y0320789D01*
X0010905Y0325586D02*
X0011800Y0325586D01*
X0010905Y0327985D02*
X0013674Y0327985D01*
X0011086Y0330384D02*
X0010905Y0330384D01*
X0108042Y0282413D02*
X0115527Y0282413D01*
X0117925Y0280015D02*
X0110441Y0280015D01*
X0112839Y0277616D02*
X0120324Y0277616D01*
X0122722Y0275218D02*
X0114721Y0275218D01*
X0114843Y0272819D02*
X0125121Y0272819D01*
X0127519Y0270421D02*
X0114843Y0270421D01*
X0117942Y0243421D02*
X0108099Y0233579D01*
X0193650Y0131307D02*
X0193650Y0131307D01*
X0193650Y0128909D02*
X0193650Y0128909D01*
X0268375Y0217653D02*
X0273999Y0217653D01*
X0277947Y0217653D02*
X0283571Y0217653D01*
X0281198Y0220052D02*
X0280333Y0220052D01*
X0280748Y0222451D02*
X0281198Y0222451D01*
X0282066Y0224849D02*
X0279881Y0224849D01*
X0288375Y0217653D02*
X0293999Y0217653D01*
X0299173Y0229646D02*
X0325901Y0229646D01*
X0321198Y0224849D02*
X0319881Y0224849D01*
X0320021Y0224709D02*
X0318678Y0226052D01*
X0316923Y0226779D01*
X0315023Y0226779D01*
X0313269Y0226052D01*
X0311925Y0224709D01*
X0311198Y0222954D01*
X0311198Y0221054D01*
X0311925Y0219299D01*
X0313269Y0217956D01*
X0315023Y0217229D01*
X0316923Y0217229D01*
X0318678Y0217956D01*
X0320021Y0219299D01*
X0320748Y0221054D01*
X0320748Y0222954D01*
X0320021Y0224709D01*
X0320748Y0222451D02*
X0321198Y0222451D01*
X0321198Y0220052D02*
X0320333Y0220052D01*
X0321946Y0217653D02*
X0317947Y0217653D01*
X0313999Y0217653D02*
X0308393Y0217653D01*
X0310562Y0220052D02*
X0311614Y0220052D01*
X0311198Y0222451D02*
X0310939Y0222451D01*
X0310055Y0224849D02*
X0312066Y0224849D01*
X0264522Y0277616D02*
X0263975Y0277616D01*
X0298890Y0323188D02*
X0299603Y0323188D01*
X0299603Y0325586D02*
X0297948Y0325586D01*
X0296730Y0327985D02*
X0300962Y0327985D01*
X0300962Y0330384D02*
X0295181Y0330384D01*
X0293206Y0332782D02*
X0300962Y0332782D01*
X0304162Y0335311D02*
X0301721Y0337752D01*
X0297784Y0341689D01*
X0297784Y0350193D01*
X0297784Y0363028D01*
X0299320Y0364563D01*
X0306800Y0364563D02*
X0306918Y0364681D01*
X0306918Y0374287D01*
X0315580Y0379012D02*
X0315580Y0384524D01*
X0315698Y0384406D01*
X0326662Y0384406D01*
X0332076Y0390409D02*
X0332076Y0413224D01*
X0339595Y0420744D01*
X0339595Y0465626D01*
X0336839Y0468382D01*
X0275501Y0473539D02*
X0275501Y0482476D01*
X0270304Y0487673D01*
X0263611Y0494366D01*
X0255776Y0494366D01*
X0255540Y0494602D01*
X0260860Y0491084D02*
X0262368Y0491084D01*
X0195107Y0401059D02*
X0189792Y0401059D01*
X0144044Y0366531D02*
X0144044Y0356492D01*
X0280197Y0375955D02*
X0280331Y0375955D01*
X0281178Y0373557D02*
X0282730Y0373557D01*
X0282088Y0354369D02*
X0293620Y0354369D01*
X0293225Y0351970D02*
X0282146Y0351970D01*
X0282146Y0349572D02*
X0293225Y0349572D01*
X0293225Y0347173D02*
X0282146Y0347173D01*
X0282146Y0344775D02*
X0294584Y0344775D01*
X0294584Y0342376D02*
X0282146Y0342376D01*
X0282069Y0339978D02*
X0295029Y0339978D01*
X0297162Y0337579D02*
X0287204Y0337579D01*
X0290647Y0335181D02*
X0297162Y0335181D01*
X0304162Y0335311D02*
X0304162Y0322004D01*
X0309202Y0324445D02*
X0309202Y0337752D01*
X0315973Y0340823D02*
X0315973Y0343775D01*
X0320894Y0348696D01*
X0320894Y0358933D02*
X0314005Y0358933D01*
X0305265Y0350193D01*
X0309202Y0324445D02*
X0311643Y0322004D01*
X0316202Y0320789D02*
X0319857Y0320789D01*
X0318879Y0323188D02*
X0317352Y0323188D01*
X0316202Y0318391D02*
X0328658Y0318391D01*
X0328658Y0315992D02*
X0312204Y0315992D01*
X0323060Y0323500D02*
X0329162Y0323500D01*
X0333217Y0319445D01*
X0329635Y0329130D02*
X0328690Y0329130D01*
X0323060Y0323500D01*
X0337115Y0329130D02*
X0337115Y0337161D01*
X0340383Y0340429D01*
X0335265Y0367988D02*
X0326603Y0367988D01*
X0320698Y0373894D01*
X0315580Y0379012D01*
X0315580Y0384524D02*
X0313729Y0386374D01*
X0309280Y0386374D01*
X0337489Y0384406D02*
X0339989Y0381906D01*
X0339989Y0372713D01*
X0335265Y0367988D01*
D16*
X0187627Y0225469D02*
X0019910Y0225469D01*
X0019910Y0124681D01*
X0075816Y0180587D01*
X0075816Y0190035D01*
X0141564Y0190035D01*
X0141564Y0180587D01*
X0076997Y0180587D01*
X0020501Y0123500D01*
X0187824Y0123500D01*
X0187627Y0225469D01*
X0187400Y0225469D02*
X0187400Y0123500D01*
X0187822Y0124120D02*
X0021115Y0124120D01*
X0021000Y0124004D02*
X0021000Y0123500D01*
X0022600Y0123500D02*
X0022600Y0125621D01*
X0022698Y0125720D02*
X0187819Y0125720D01*
X0187816Y0127320D02*
X0024282Y0127320D01*
X0024200Y0127238D02*
X0024200Y0123500D01*
X0025800Y0123500D02*
X0025800Y0128855D01*
X0025865Y0128920D02*
X0187813Y0128920D01*
X0187810Y0130520D02*
X0027449Y0130520D01*
X0027400Y0130471D02*
X0027400Y0123500D01*
X0029000Y0123500D02*
X0029000Y0132088D01*
X0029032Y0132120D02*
X0187807Y0132120D01*
X0187804Y0133720D02*
X0030616Y0133720D01*
X0030600Y0133705D02*
X0030600Y0123500D01*
X0032200Y0123500D02*
X0032200Y0135322D01*
X0032199Y0135320D02*
X0187801Y0135320D01*
X0187798Y0136920D02*
X0033782Y0136920D01*
X0033800Y0136938D02*
X0033800Y0123500D01*
X0035400Y0123500D02*
X0035400Y0138555D01*
X0035366Y0138520D02*
X0187795Y0138520D01*
X0187792Y0140120D02*
X0036949Y0140120D01*
X0037000Y0140172D02*
X0037000Y0123500D01*
X0038600Y0123500D02*
X0038600Y0141788D01*
X0038533Y0141720D02*
X0187788Y0141720D01*
X0187785Y0143320D02*
X0040116Y0143320D01*
X0040200Y0143405D02*
X0040200Y0123500D01*
X0041800Y0123500D02*
X0041800Y0145022D01*
X0041700Y0144920D02*
X0187782Y0144920D01*
X0187779Y0146520D02*
X0043283Y0146520D01*
X0043400Y0146639D02*
X0043400Y0123500D01*
X0045000Y0123500D02*
X0045000Y0148255D01*
X0044867Y0148120D02*
X0187776Y0148120D01*
X0187773Y0149720D02*
X0046450Y0149720D01*
X0046600Y0149872D02*
X0046600Y0123500D01*
X0048200Y0123500D02*
X0048200Y0151489D01*
X0048033Y0151320D02*
X0187770Y0151320D01*
X0187767Y0152920D02*
X0049617Y0152920D01*
X0049800Y0153105D02*
X0049800Y0123500D01*
X0051400Y0123500D02*
X0051400Y0154722D01*
X0051200Y0154520D02*
X0187764Y0154520D01*
X0187761Y0156120D02*
X0052784Y0156120D01*
X0053000Y0156339D02*
X0053000Y0123500D01*
X0054600Y0123500D02*
X0054600Y0157956D01*
X0054367Y0157720D02*
X0187758Y0157720D01*
X0187754Y0159320D02*
X0055951Y0159320D01*
X0056200Y0159572D02*
X0056200Y0123500D01*
X0057800Y0123500D02*
X0057800Y0161189D01*
X0057534Y0160920D02*
X0187751Y0160920D01*
X0187748Y0162520D02*
X0059118Y0162520D01*
X0059400Y0162806D02*
X0059400Y0123500D01*
X0061000Y0123500D02*
X0061000Y0164423D01*
X0060701Y0164120D02*
X0187745Y0164120D01*
X0187742Y0165720D02*
X0062284Y0165720D01*
X0062600Y0166039D02*
X0062600Y0123500D01*
X0064200Y0123500D02*
X0064200Y0167656D01*
X0063868Y0167320D02*
X0187739Y0167320D01*
X0187736Y0168920D02*
X0065451Y0168920D01*
X0065800Y0169273D02*
X0065800Y0123500D01*
X0067400Y0123500D02*
X0067400Y0170889D01*
X0067035Y0170520D02*
X0187733Y0170520D01*
X0187730Y0172120D02*
X0068618Y0172120D01*
X0069000Y0172506D02*
X0069000Y0123500D01*
X0070600Y0123500D02*
X0070600Y0174123D01*
X0070202Y0173720D02*
X0187727Y0173720D01*
X0187724Y0175320D02*
X0071785Y0175320D01*
X0072200Y0175740D02*
X0072200Y0123500D01*
X0073800Y0123500D02*
X0073800Y0177356D01*
X0073369Y0176920D02*
X0187720Y0176920D01*
X0187717Y0178520D02*
X0074952Y0178520D01*
X0075400Y0178973D02*
X0075400Y0123500D01*
X0077000Y0123500D02*
X0077000Y0180587D01*
X0076536Y0180120D02*
X0187714Y0180120D01*
X0187711Y0181720D02*
X0141564Y0181720D01*
X0141000Y0180587D02*
X0141000Y0123500D01*
X0139400Y0123500D02*
X0139400Y0180587D01*
X0137800Y0180587D02*
X0137800Y0123500D01*
X0136200Y0123500D02*
X0136200Y0180587D01*
X0134600Y0180587D02*
X0134600Y0123500D01*
X0133000Y0123500D02*
X0133000Y0180587D01*
X0131400Y0180587D02*
X0131400Y0123500D01*
X0129800Y0123500D02*
X0129800Y0180587D01*
X0128200Y0180587D02*
X0128200Y0123500D01*
X0126600Y0123500D02*
X0126600Y0180587D01*
X0125000Y0180587D02*
X0125000Y0123500D01*
X0123400Y0123500D02*
X0123400Y0180587D01*
X0121800Y0180587D02*
X0121800Y0123500D01*
X0120200Y0123500D02*
X0120200Y0180587D01*
X0118600Y0180587D02*
X0118600Y0123500D01*
X0117000Y0123500D02*
X0117000Y0180587D01*
X0115400Y0180587D02*
X0115400Y0123500D01*
X0113800Y0123500D02*
X0113800Y0180587D01*
X0112200Y0180587D02*
X0112200Y0123500D01*
X0110600Y0123500D02*
X0110600Y0180587D01*
X0109000Y0180587D02*
X0109000Y0123500D01*
X0107400Y0123500D02*
X0107400Y0180587D01*
X0105800Y0180587D02*
X0105800Y0123500D01*
X0104200Y0123500D02*
X0104200Y0180587D01*
X0102600Y0180587D02*
X0102600Y0123500D01*
X0101000Y0123500D02*
X0101000Y0180587D01*
X0099400Y0180587D02*
X0099400Y0123500D01*
X0097800Y0123500D02*
X0097800Y0180587D01*
X0096200Y0180587D02*
X0096200Y0123500D01*
X0094600Y0123500D02*
X0094600Y0180587D01*
X0093000Y0180587D02*
X0093000Y0123500D01*
X0091400Y0123500D02*
X0091400Y0180587D01*
X0089800Y0180587D02*
X0089800Y0123500D01*
X0088200Y0123500D02*
X0088200Y0180587D01*
X0086600Y0180587D02*
X0086600Y0123500D01*
X0085000Y0123500D02*
X0085000Y0180587D01*
X0083400Y0180587D02*
X0083400Y0123500D01*
X0081800Y0123500D02*
X0081800Y0180587D01*
X0080200Y0180587D02*
X0080200Y0123500D01*
X0078600Y0123500D02*
X0078600Y0180587D01*
X0075816Y0181720D02*
X0019910Y0181720D01*
X0019910Y0180120D02*
X0075350Y0180120D01*
X0075400Y0180171D02*
X0075400Y0225469D01*
X0073800Y0225469D02*
X0073800Y0178571D01*
X0073750Y0178520D02*
X0019910Y0178520D01*
X0019910Y0176920D02*
X0072150Y0176920D01*
X0072200Y0176971D02*
X0072200Y0225469D01*
X0070600Y0225469D02*
X0070600Y0175371D01*
X0070550Y0175320D02*
X0019910Y0175320D01*
X0019910Y0173720D02*
X0068950Y0173720D01*
X0069000Y0173771D02*
X0069000Y0225469D01*
X0067400Y0225469D02*
X0067400Y0172171D01*
X0067350Y0172120D02*
X0019910Y0172120D01*
X0019910Y0170520D02*
X0065750Y0170520D01*
X0065800Y0170571D02*
X0065800Y0225469D01*
X0064200Y0225469D02*
X0064200Y0168971D01*
X0064150Y0168920D02*
X0019910Y0168920D01*
X0019910Y0167320D02*
X0062550Y0167320D01*
X0062600Y0167371D02*
X0062600Y0225469D01*
X0061000Y0225469D02*
X0061000Y0165771D01*
X0060950Y0165720D02*
X0019910Y0165720D01*
X0019910Y0164120D02*
X0059350Y0164120D01*
X0059400Y0164171D02*
X0059400Y0225469D01*
X0057800Y0225469D02*
X0057800Y0162571D01*
X0057750Y0162520D02*
X0019910Y0162520D01*
X0019910Y0160920D02*
X0056150Y0160920D01*
X0056200Y0160971D02*
X0056200Y0225469D01*
X0054600Y0225469D02*
X0054600Y0159371D01*
X0054550Y0159320D02*
X0019910Y0159320D01*
X0019910Y0157720D02*
X0052950Y0157720D01*
X0053000Y0157771D02*
X0053000Y0225469D01*
X0051400Y0225469D02*
X0051400Y0156171D01*
X0051350Y0156120D02*
X0019910Y0156120D01*
X0019910Y0154520D02*
X0049750Y0154520D01*
X0049800Y0154571D02*
X0049800Y0225469D01*
X0048200Y0225469D02*
X0048200Y0152971D01*
X0048150Y0152920D02*
X0019910Y0152920D01*
X0019910Y0151320D02*
X0046550Y0151320D01*
X0046600Y0151371D02*
X0046600Y0225469D01*
X0045000Y0225469D02*
X0045000Y0149771D01*
X0044950Y0149720D02*
X0019910Y0149720D01*
X0019910Y0148120D02*
X0043350Y0148120D01*
X0043400Y0148171D02*
X0043400Y0225469D01*
X0041800Y0225469D02*
X0041800Y0146571D01*
X0041750Y0146520D02*
X0019910Y0146520D01*
X0019910Y0144920D02*
X0040150Y0144920D01*
X0040200Y0144971D02*
X0040200Y0225469D01*
X0038600Y0225469D02*
X0038600Y0143371D01*
X0038550Y0143320D02*
X0019910Y0143320D01*
X0019910Y0141720D02*
X0036950Y0141720D01*
X0037000Y0141771D02*
X0037000Y0225469D01*
X0035400Y0225469D02*
X0035400Y0140171D01*
X0035350Y0140120D02*
X0019910Y0140120D01*
X0019910Y0138520D02*
X0033750Y0138520D01*
X0033800Y0138571D02*
X0033800Y0225469D01*
X0032200Y0225469D02*
X0032200Y0136971D01*
X0032150Y0136920D02*
X0019910Y0136920D01*
X0019910Y0135320D02*
X0030550Y0135320D01*
X0030600Y0135371D02*
X0030600Y0225469D01*
X0029000Y0225469D02*
X0029000Y0133771D01*
X0028950Y0133720D02*
X0019910Y0133720D01*
X0019910Y0132120D02*
X0027350Y0132120D01*
X0027400Y0132171D02*
X0027400Y0225469D01*
X0025800Y0225469D02*
X0025800Y0130571D01*
X0025750Y0130520D02*
X0019910Y0130520D01*
X0019910Y0128920D02*
X0024150Y0128920D01*
X0024200Y0128971D02*
X0024200Y0225469D01*
X0022600Y0225469D02*
X0022600Y0127371D01*
X0022550Y0127320D02*
X0019910Y0127320D01*
X0019910Y0125720D02*
X0020950Y0125720D01*
X0021000Y0125771D02*
X0021000Y0225469D01*
X0019910Y0224920D02*
X0187628Y0224920D01*
X0187631Y0223320D02*
X0019910Y0223320D01*
X0019910Y0221720D02*
X0187634Y0221720D01*
X0187637Y0220120D02*
X0019910Y0220120D01*
X0019910Y0218520D02*
X0187640Y0218520D01*
X0187643Y0216920D02*
X0019910Y0216920D01*
X0019910Y0215320D02*
X0187646Y0215320D01*
X0187649Y0213720D02*
X0019910Y0213720D01*
X0019910Y0212120D02*
X0187653Y0212120D01*
X0187656Y0210520D02*
X0019910Y0210520D01*
X0019910Y0208920D02*
X0187659Y0208920D01*
X0187662Y0207320D02*
X0019910Y0207320D01*
X0019910Y0205720D02*
X0187665Y0205720D01*
X0187668Y0204120D02*
X0019910Y0204120D01*
X0019910Y0202520D02*
X0187671Y0202520D01*
X0187674Y0200920D02*
X0019910Y0200920D01*
X0019910Y0199320D02*
X0187677Y0199320D01*
X0187680Y0197720D02*
X0019910Y0197720D01*
X0019910Y0196120D02*
X0187683Y0196120D01*
X0187687Y0194520D02*
X0019910Y0194520D01*
X0019910Y0192920D02*
X0187690Y0192920D01*
X0187693Y0191320D02*
X0019910Y0191320D01*
X0019910Y0189720D02*
X0075816Y0189720D01*
X0077000Y0190035D02*
X0077000Y0225469D01*
X0078600Y0225469D02*
X0078600Y0190035D01*
X0080200Y0190035D02*
X0080200Y0225469D01*
X0081800Y0225469D02*
X0081800Y0190035D01*
X0083400Y0190035D02*
X0083400Y0225469D01*
X0085000Y0225469D02*
X0085000Y0190035D01*
X0086600Y0190035D02*
X0086600Y0225469D01*
X0088200Y0225469D02*
X0088200Y0190035D01*
X0089800Y0190035D02*
X0089800Y0225469D01*
X0091400Y0225469D02*
X0091400Y0190035D01*
X0093000Y0190035D02*
X0093000Y0225469D01*
X0094600Y0225469D02*
X0094600Y0190035D01*
X0096200Y0190035D02*
X0096200Y0225469D01*
X0097800Y0225469D02*
X0097800Y0190035D01*
X0099400Y0190035D02*
X0099400Y0225469D01*
X0101000Y0225469D02*
X0101000Y0190035D01*
X0102600Y0190035D02*
X0102600Y0225469D01*
X0104200Y0225469D02*
X0104200Y0190035D01*
X0105800Y0190035D02*
X0105800Y0225469D01*
X0107400Y0225469D02*
X0107400Y0190035D01*
X0109000Y0190035D02*
X0109000Y0225469D01*
X0110600Y0225469D02*
X0110600Y0190035D01*
X0112200Y0190035D02*
X0112200Y0225469D01*
X0113800Y0225469D02*
X0113800Y0190035D01*
X0115400Y0190035D02*
X0115400Y0225469D01*
X0117000Y0225469D02*
X0117000Y0190035D01*
X0118600Y0190035D02*
X0118600Y0225469D01*
X0120200Y0225469D02*
X0120200Y0190035D01*
X0121800Y0190035D02*
X0121800Y0225469D01*
X0123400Y0225469D02*
X0123400Y0190035D01*
X0125000Y0190035D02*
X0125000Y0225469D01*
X0126600Y0225469D02*
X0126600Y0190035D01*
X0128200Y0190035D02*
X0128200Y0225469D01*
X0129800Y0225469D02*
X0129800Y0190035D01*
X0131400Y0190035D02*
X0131400Y0225469D01*
X0133000Y0225469D02*
X0133000Y0190035D01*
X0134600Y0190035D02*
X0134600Y0225469D01*
X0136200Y0225469D02*
X0136200Y0190035D01*
X0137800Y0190035D02*
X0137800Y0225469D01*
X0139400Y0225469D02*
X0139400Y0190035D01*
X0141000Y0190035D02*
X0141000Y0225469D01*
X0142600Y0225469D02*
X0142600Y0123500D01*
X0144200Y0123500D02*
X0144200Y0225469D01*
X0145800Y0225469D02*
X0145800Y0123500D01*
X0147400Y0123500D02*
X0147400Y0225469D01*
X0149000Y0225469D02*
X0149000Y0123500D01*
X0150600Y0123500D02*
X0150600Y0225469D01*
X0152200Y0225469D02*
X0152200Y0123500D01*
X0153800Y0123500D02*
X0153800Y0225469D01*
X0155400Y0225469D02*
X0155400Y0123500D01*
X0157000Y0123500D02*
X0157000Y0225469D01*
X0158600Y0225469D02*
X0158600Y0123500D01*
X0160200Y0123500D02*
X0160200Y0225469D01*
X0161800Y0225469D02*
X0161800Y0123500D01*
X0163400Y0123500D02*
X0163400Y0225469D01*
X0165000Y0225469D02*
X0165000Y0123500D01*
X0166600Y0123500D02*
X0166600Y0225469D01*
X0168200Y0225469D02*
X0168200Y0123500D01*
X0169800Y0123500D02*
X0169800Y0225469D01*
X0171400Y0225469D02*
X0171400Y0123500D01*
X0173000Y0123500D02*
X0173000Y0225469D01*
X0174600Y0225469D02*
X0174600Y0123500D01*
X0176200Y0123500D02*
X0176200Y0225469D01*
X0177800Y0225469D02*
X0177800Y0123500D01*
X0179400Y0123500D02*
X0179400Y0225469D01*
X0181000Y0225469D02*
X0181000Y0123500D01*
X0182600Y0123500D02*
X0182600Y0225469D01*
X0184200Y0225469D02*
X0184200Y0123500D01*
X0185800Y0123500D02*
X0185800Y0225469D01*
X0187696Y0189720D02*
X0141564Y0189720D01*
X0141564Y0188120D02*
X0187699Y0188120D01*
X0187702Y0186520D02*
X0141564Y0186520D01*
X0141564Y0184920D02*
X0187705Y0184920D01*
X0187708Y0183320D02*
X0141564Y0183320D01*
X0075816Y0183320D02*
X0019910Y0183320D01*
X0019910Y0184920D02*
X0075816Y0184920D01*
X0075816Y0186520D02*
X0019910Y0186520D01*
X0019910Y0188120D02*
X0075816Y0188120D01*
D17*
X0273847Y0314799D03*
D18*
X0273847Y0282416D03*
X0273847Y0347183D03*
D19*
X0018414Y0484209D03*
X0018414Y0492083D03*
D20*
X0169517Y0464051D03*
X0180540Y0464051D03*
D21*
X0173650Y0475862D03*
X0168532Y0475862D03*
X0172469Y0483736D03*
X0177587Y0483736D03*
X0142154Y0436492D03*
X0137036Y0436492D03*
X0172469Y0408933D03*
X0177587Y0408933D03*
X0177587Y0401059D03*
X0172469Y0401059D03*
X0126406Y0483736D03*
X0121288Y0483736D03*
D22*
X0155343Y0461689D03*
X0155343Y0450665D03*
X0080540Y0462476D03*
X0080540Y0473500D03*
D23*
X0296603Y0386374D03*
X0304083Y0386374D03*
X0306800Y0364563D03*
X0299320Y0364563D03*
X0297784Y0350193D03*
X0305265Y0350193D03*
X0301721Y0337752D03*
X0309202Y0337752D03*
X0311643Y0322004D03*
X0304162Y0322004D03*
X0329635Y0329130D03*
X0337115Y0329130D03*
X0340698Y0319445D03*
X0333217Y0319445D03*
D24*
X0078178Y0418185D03*
X0078178Y0431177D03*
D25*
X0019910Y0429130D03*
X0019910Y0454720D03*
D26*
X0112036Y0452831D03*
X0112036Y0435902D03*
D27*
X0332076Y0440154D03*
X0332076Y0448028D03*
D28*
X0036721Y0465776D02*
X0036721Y0471776D01*
X0026721Y0471776D02*
X0026721Y0465776D01*
D29*
X0044320Y0395508D03*
X0054320Y0395508D03*
X0064320Y0395508D03*
X0074320Y0395508D03*
X0084320Y0395508D03*
X0084320Y0385508D03*
X0074320Y0385508D03*
X0064320Y0385508D03*
X0054320Y0385508D03*
X0044320Y0385508D03*
D30*
X0100225Y0460429D03*
X0100225Y0475547D03*
D31*
X0131721Y0447319D03*
X0131721Y0441413D03*
X0136643Y0483736D03*
X0142548Y0483736D03*
X0160658Y0483736D03*
X0166564Y0483736D03*
X0183887Y0401059D03*
X0189792Y0401059D03*
D32*
X0293729Y0404760D03*
X0293729Y0396492D03*
D33*
X0060737Y0442791D03*
X0060737Y0452791D03*
X0060737Y0462791D03*
D34*
X0116643Y0390272D03*
X0116682Y0372870D03*
X0116209Y0354839D03*
X0116406Y0337122D03*
X0144044Y0356492D03*
X0160737Y0368618D03*
X0148217Y0384051D03*
X0163611Y0344681D03*
X0288296Y0270193D03*
X0303847Y0289563D03*
X0310737Y0247358D03*
X0334359Y0233579D03*
X0331682Y0494917D03*
X0304556Y0494917D03*
X0281367Y0494917D03*
X0255540Y0494602D03*
D35*
X0175028Y0425075D03*
X0171288Y0416807D03*
X0178769Y0416807D03*
X0143335Y0428618D03*
X0135855Y0428618D03*
X0139595Y0420350D03*
D36*
X0061328Y0415035D03*
X0053847Y0415035D03*
X0057587Y0406374D03*
X0036406Y0426059D03*
X0032666Y0434720D03*
X0040146Y0434720D03*
D37*
X0131721Y0465429D03*
X0131721Y0470547D03*
X0159280Y0427240D03*
X0159280Y0422122D03*
X0178965Y0429996D03*
X0178965Y0435114D03*
D38*
X0042509Y0446728D03*
X0034635Y0446728D03*
X0031013Y0414445D03*
X0023139Y0414445D03*
X0023454Y0403421D03*
X0031328Y0403421D03*
D39*
X0051406Y0423028D03*
X0051406Y0430902D03*
D40*
X0105540Y0418776D03*
X0109083Y0418776D03*
D41*
X0080953Y0372437D02*
X0075403Y0372437D01*
X0075403Y0362437D02*
X0080953Y0362437D01*
X0080953Y0352437D02*
X0075403Y0352437D01*
X0075403Y0342437D02*
X0080953Y0342437D01*
X0080953Y0332437D02*
X0075403Y0332437D01*
X0075403Y0322437D02*
X0080953Y0322437D01*
X0080953Y0312437D02*
X0075403Y0312437D01*
X0075403Y0302437D02*
X0080953Y0302437D01*
X0080953Y0292437D02*
X0075403Y0292437D01*
X0075403Y0282437D02*
X0080953Y0282437D01*
X0080953Y0272437D02*
X0075403Y0272437D01*
X0075403Y0262437D02*
X0080953Y0262437D01*
X0073178Y0255212D02*
X0073178Y0249662D01*
X0063178Y0249662D02*
X0063178Y0255212D01*
X0053178Y0255212D02*
X0053178Y0249662D01*
X0043178Y0249662D02*
X0043178Y0255212D01*
X0033178Y0255212D02*
X0033178Y0249662D01*
X0023178Y0249662D02*
X0023178Y0255212D01*
X0020953Y0262437D02*
X0015403Y0262437D01*
X0015403Y0272437D02*
X0020953Y0272437D01*
X0020953Y0282437D02*
X0015403Y0282437D01*
X0015403Y0292437D02*
X0020953Y0292437D01*
X0020953Y0302437D02*
X0015403Y0302437D01*
X0015403Y0312437D02*
X0020953Y0312437D01*
X0020953Y0322437D02*
X0015403Y0322437D01*
X0015403Y0332437D02*
X0020953Y0332437D01*
X0020953Y0342437D02*
X0015403Y0342437D01*
X0015403Y0352437D02*
X0020953Y0352437D01*
X0020953Y0362437D02*
X0015403Y0362437D01*
X0015403Y0372437D02*
X0020953Y0372437D01*
X0030403Y0347437D02*
X0035953Y0347437D01*
X0035953Y0337437D02*
X0030403Y0337437D01*
X0030403Y0307437D02*
X0035953Y0307437D01*
X0035953Y0297437D02*
X0030403Y0297437D01*
X0334576Y0290783D02*
X0340126Y0290783D01*
X0340126Y0280783D02*
X0334576Y0280783D01*
X0334576Y0270783D02*
X0340126Y0270783D01*
X0340126Y0260783D02*
X0334576Y0260783D01*
D42*
X0322745Y0414484D03*
X0316839Y0414484D03*
X0310934Y0414484D03*
X0305028Y0414484D03*
X0299123Y0414484D03*
X0293217Y0414484D03*
X0287312Y0414484D03*
X0281406Y0414484D03*
X0275501Y0414484D03*
X0269595Y0414484D03*
X0269595Y0473539D03*
X0275501Y0473539D03*
X0281406Y0473539D03*
X0287312Y0473539D03*
X0293217Y0473539D03*
X0299123Y0473539D03*
X0305028Y0473539D03*
X0310934Y0473539D03*
X0316839Y0473539D03*
X0322745Y0473539D03*
X0178099Y0233579D03*
X0168099Y0233579D03*
X0158099Y0233579D03*
X0148099Y0233579D03*
X0138099Y0233579D03*
X0128099Y0233579D03*
X0118099Y0233579D03*
X0108099Y0233579D03*
X0098099Y0233579D03*
X0088099Y0233579D03*
X0078099Y0233579D03*
X0068099Y0233579D03*
X0058099Y0233579D03*
X0048099Y0233579D03*
X0038099Y0233579D03*
X0028099Y0233579D03*
D43*
X0014517Y0221768D03*
X0014517Y0127280D03*
X0193650Y0127280D03*
D44*
X0275973Y0222004D03*
X0295973Y0222004D03*
X0305973Y0222004D03*
X0315973Y0222004D03*
X0192784Y0249917D03*
X0182784Y0249917D03*
X0172784Y0249917D03*
X0162784Y0249917D03*
X0152784Y0249917D03*
X0142784Y0249917D03*
X0132784Y0249917D03*
X0122784Y0249917D03*
X0112784Y0249917D03*
X0180265Y0346689D03*
X0180265Y0356689D03*
X0180265Y0366689D03*
X0180265Y0376689D03*
X0180265Y0386689D03*
X0100265Y0386689D03*
X0100265Y0396689D03*
X0100265Y0376689D03*
X0100265Y0366689D03*
X0100265Y0356689D03*
D45*
X0100265Y0346689D03*
X0180265Y0336689D03*
X0102784Y0249917D03*
X0325973Y0222004D03*
D46*
X0285973Y0222004D03*
X0265973Y0222004D03*
D47*
X0326662Y0384406D03*
X0337489Y0384406D03*
D48*
X0332076Y0390409D03*
X0332076Y0378402D03*
D49*
X0328375Y0358933D03*
X0320894Y0358933D03*
X0320894Y0348696D03*
X0324635Y0348696D03*
X0328375Y0348696D03*
X0100028Y0431374D03*
X0096288Y0431374D03*
X0092548Y0431374D03*
X0092548Y0441611D03*
X0100028Y0441611D03*
D50*
X0173847Y0444563D03*
X0173847Y0448303D03*
X0173847Y0452043D03*
X0184084Y0452043D03*
X0184084Y0444563D03*
D51*
X0167548Y0455587D03*
X0162036Y0466020D03*
X0161249Y0475469D03*
X0147469Y0483736D03*
X0131721Y0477043D03*
X0124831Y0476453D03*
X0119517Y0466020D03*
X0099044Y0451453D03*
X0106131Y0442004D03*
X0124241Y0442791D03*
X0133690Y0419169D03*
X0149438Y0432555D03*
X0152587Y0426650D03*
X0168335Y0429799D03*
X0164792Y0443579D03*
X0147469Y0443185D03*
X0147076Y0458539D03*
X0114398Y0418776D03*
X0100225Y0419169D03*
X0092154Y0419366D03*
X0086446Y0419760D03*
X0086446Y0431374D03*
X0079359Y0446335D03*
X0084477Y0452634D03*
X0068335Y0442004D03*
X0061249Y0425075D03*
X0069910Y0419957D03*
X0049398Y0441965D03*
X0041957Y0454209D03*
X0022076Y0442791D03*
X0044713Y0417988D03*
X0042745Y0411689D03*
X0043926Y0402240D03*
X0028965Y0393185D03*
X0020304Y0384524D03*
X0035265Y0356965D03*
X0049438Y0360902D03*
X0059280Y0367594D03*
X0054162Y0377831D03*
X0064792Y0350469D03*
X0064398Y0325862D03*
X0053769Y0304602D03*
X0042745Y0280193D03*
X0048257Y0262476D03*
X0054556Y0262476D03*
X0060068Y0268382D03*
X0067942Y0260508D03*
X0085265Y0244760D03*
X0109280Y0257752D03*
X0111643Y0266020D03*
X0121879Y0263264D03*
X0138020Y0262476D03*
X0137627Y0272319D03*
X0157902Y0245154D03*
X0143139Y0240823D03*
X0135265Y0240626D03*
X0097469Y0277437D03*
X0102981Y0282949D03*
X0097469Y0295154D03*
X0086839Y0287280D03*
X0086446Y0277437D03*
X0086446Y0307358D03*
X0087233Y0332555D03*
X0097076Y0332161D03*
X0086839Y0377043D03*
X0125422Y0392398D03*
X0127391Y0373500D03*
X0167154Y0394760D03*
X0195107Y0401059D03*
X0257706Y0347909D03*
X0276997Y0373106D03*
X0264792Y0381768D03*
X0275028Y0399091D03*
X0284083Y0396335D03*
X0306918Y0374287D03*
X0320698Y0373894D03*
X0319517Y0392004D03*
X0314398Y0401846D03*
X0315973Y0340823D03*
X0319517Y0331374D03*
X0323060Y0323500D03*
X0340383Y0340429D03*
X0262036Y0273894D03*
X0178178Y0242398D03*
X0038020Y0244366D03*
X0069123Y0467201D03*
X0081721Y0481768D03*
X0087627Y0484524D03*
X0065186Y0494366D03*
X0322666Y0482949D03*
X0336839Y0468382D03*
M02*
