G75*
%MOIN*%
%OFA0B0*%
%FSLAX25Y25*%
%IPPOS*%
%LPD*%
%AMOC8*
5,1,8,0,0,1.08239X$1,22.5*
%
%ADD10R,0.07874X3.93701*%
%ADD11C,0.00300*%
%ADD12C,0.00400*%
%ADD13C,0.01000*%
%ADD14C,0.00600*%
D10*
X0005737Y0306571D03*
X0202587Y0306571D03*
X0241957Y0306571D03*
X0348257Y0306571D03*
D11*
X0195418Y0459106D02*
X0194935Y0458622D01*
X0192516Y0458622D01*
X0192796Y0458622D02*
X0192312Y0459106D01*
X0192312Y0460073D01*
X0192796Y0460557D01*
X0193764Y0460557D01*
X0193764Y0459589D01*
X0194731Y0458622D02*
X0195215Y0459106D01*
X0195215Y0460073D01*
X0194731Y0460557D01*
X0194935Y0460557D02*
X0192516Y0460557D01*
X0192516Y0461568D02*
X0195418Y0461568D01*
X0195215Y0461568D02*
X0192312Y0461568D01*
X0193280Y0462536D01*
X0192312Y0463503D01*
X0195215Y0463503D01*
X0195418Y0463503D02*
X0193967Y0462052D01*
X0194451Y0461568D02*
X0192516Y0463503D01*
X0192796Y0464515D02*
X0192312Y0464999D01*
X0192312Y0465966D01*
X0192796Y0466450D01*
X0194731Y0466450D02*
X0195215Y0465966D01*
X0195215Y0464999D01*
X0194731Y0464515D01*
X0192796Y0464515D01*
X0190618Y0464999D02*
X0190618Y0465966D01*
X0190135Y0466450D01*
X0190618Y0464999D02*
X0190135Y0464515D01*
X0188200Y0464515D01*
X0187716Y0464999D01*
X0187716Y0465966D01*
X0188200Y0466450D01*
X0187716Y0463503D02*
X0190618Y0463503D01*
X0189651Y0462536D01*
X0190618Y0461568D01*
X0187716Y0461568D01*
X0187512Y0461568D02*
X0190415Y0461568D01*
X0190415Y0460557D02*
X0187996Y0460557D01*
X0187512Y0460073D01*
X0187512Y0459106D01*
X0187996Y0458622D01*
X0190415Y0458622D01*
X0190135Y0458622D02*
X0190618Y0459106D01*
X0190618Y0460073D01*
X0190135Y0460557D01*
X0189167Y0460557D01*
X0189167Y0459589D01*
X0188200Y0458622D02*
X0190135Y0458622D01*
X0188200Y0458622D02*
X0187716Y0459106D01*
X0187716Y0460073D01*
X0188200Y0460557D01*
X0188480Y0461568D02*
X0190415Y0463503D01*
X0188964Y0462052D02*
X0187512Y0463503D01*
X0192796Y0458622D02*
X0194731Y0458622D01*
X0195418Y0459106D02*
X0195418Y0460073D01*
X0194935Y0460557D01*
X0194731Y0470408D02*
X0192796Y0470408D01*
X0192312Y0470892D01*
X0192312Y0471859D01*
X0192796Y0472343D01*
X0192312Y0473354D02*
X0194247Y0473354D01*
X0195215Y0474322D01*
X0194247Y0475289D01*
X0192312Y0475289D01*
X0192312Y0476301D02*
X0195215Y0476301D01*
X0192312Y0478236D01*
X0195215Y0478236D01*
X0194731Y0479247D02*
X0194247Y0479247D01*
X0193764Y0479731D01*
X0193764Y0480699D01*
X0193280Y0481182D01*
X0192796Y0481182D01*
X0192312Y0480699D01*
X0192312Y0479731D01*
X0192796Y0479247D01*
X0192516Y0479247D02*
X0194451Y0479247D01*
X0195418Y0480215D01*
X0194451Y0481182D01*
X0192516Y0481182D01*
X0192516Y0482194D02*
X0193967Y0482194D01*
X0193483Y0483161D01*
X0193483Y0483645D01*
X0193967Y0484129D01*
X0194935Y0484129D01*
X0195418Y0483645D01*
X0195418Y0482678D01*
X0194935Y0482194D01*
X0194247Y0482194D02*
X0195215Y0483161D01*
X0194247Y0484129D01*
X0192312Y0484129D01*
X0192516Y0484129D02*
X0192516Y0482194D01*
X0192312Y0482194D02*
X0194247Y0482194D01*
X0193764Y0482194D02*
X0193764Y0484129D01*
X0195215Y0485140D02*
X0195215Y0487075D01*
X0195215Y0486108D02*
X0192312Y0486108D01*
X0190618Y0486108D02*
X0187716Y0486108D01*
X0187716Y0487075D02*
X0187716Y0485140D01*
X0187996Y0484129D02*
X0187512Y0483645D01*
X0187512Y0482678D01*
X0187996Y0482194D01*
X0188683Y0482194D02*
X0187716Y0483161D01*
X0188683Y0484129D01*
X0190618Y0484129D01*
X0190415Y0484129D02*
X0190415Y0482194D01*
X0188964Y0482194D01*
X0189447Y0483161D01*
X0189447Y0483645D01*
X0188964Y0484129D01*
X0187996Y0484129D01*
X0189167Y0484129D02*
X0189167Y0482194D01*
X0188683Y0482194D02*
X0190618Y0482194D01*
X0190415Y0481182D02*
X0188480Y0481182D01*
X0187512Y0480215D01*
X0188480Y0479247D01*
X0190415Y0479247D01*
X0190135Y0479247D02*
X0190618Y0479731D01*
X0190618Y0480699D01*
X0190135Y0481182D01*
X0189651Y0481182D01*
X0189167Y0480699D01*
X0189167Y0479731D01*
X0188683Y0479247D01*
X0188200Y0479247D01*
X0187716Y0479731D01*
X0187716Y0480699D01*
X0188200Y0481182D01*
X0187716Y0478236D02*
X0190618Y0478236D01*
X0187716Y0476301D01*
X0190618Y0476301D01*
X0190618Y0475289D02*
X0188683Y0475289D01*
X0187716Y0474322D01*
X0188683Y0473354D01*
X0190618Y0473354D01*
X0190135Y0472343D02*
X0190618Y0471859D01*
X0190618Y0470892D01*
X0190135Y0470408D01*
X0188200Y0470408D01*
X0187716Y0470892D01*
X0187716Y0471859D01*
X0188200Y0472343D01*
X0189167Y0473354D02*
X0189167Y0475289D01*
X0193764Y0475289D02*
X0193764Y0473354D01*
X0194731Y0472343D02*
X0195215Y0471859D01*
X0195215Y0470892D01*
X0194731Y0470408D01*
X0194731Y0479247D02*
X0195215Y0479731D01*
X0195215Y0480699D01*
X0194731Y0481182D01*
D12*
X0250323Y0238050D02*
X0251090Y0237283D01*
X0254159Y0237283D01*
X0254927Y0238050D01*
X0254927Y0239585D01*
X0254159Y0240352D01*
X0252625Y0240352D01*
X0252625Y0238817D01*
X0251090Y0240352D02*
X0250323Y0239585D01*
X0250323Y0238050D01*
X0250323Y0241887D02*
X0254927Y0241887D01*
X0253392Y0243421D01*
X0254927Y0244956D01*
X0250323Y0244956D01*
X0251090Y0246491D02*
X0254159Y0246491D01*
X0254927Y0247258D01*
X0254927Y0248792D01*
X0254159Y0249560D01*
X0251090Y0249560D02*
X0250323Y0248792D01*
X0250323Y0247258D01*
X0251090Y0246491D01*
X0257823Y0244956D02*
X0260892Y0241887D01*
X0260125Y0242654D02*
X0262427Y0244956D01*
X0262427Y0241887D02*
X0257823Y0241887D01*
X0257823Y0240352D02*
X0261659Y0240352D01*
X0262427Y0239585D01*
X0262427Y0238050D01*
X0261659Y0237283D01*
X0257823Y0237283D01*
X0254159Y0255698D02*
X0254927Y0256466D01*
X0254927Y0258000D01*
X0254159Y0258768D01*
X0254927Y0260302D02*
X0251857Y0260302D01*
X0250323Y0261837D01*
X0251857Y0263372D01*
X0254927Y0263372D01*
X0254927Y0264906D02*
X0250323Y0264906D01*
X0254927Y0267976D01*
X0250323Y0267976D01*
X0251090Y0269510D02*
X0251857Y0269510D01*
X0252625Y0270277D01*
X0252625Y0271812D01*
X0253392Y0272579D01*
X0254159Y0272579D01*
X0254927Y0271812D01*
X0254927Y0270277D01*
X0254159Y0269510D01*
X0251090Y0269510D02*
X0250323Y0270277D01*
X0250323Y0271812D01*
X0251090Y0272579D01*
X0251857Y0274114D02*
X0250323Y0275649D01*
X0251857Y0277183D01*
X0254927Y0277183D01*
X0252625Y0277183D02*
X0252625Y0274114D01*
X0251857Y0274114D02*
X0254927Y0274114D01*
X0257823Y0274114D02*
X0260125Y0274114D01*
X0259357Y0275649D01*
X0259357Y0276416D01*
X0260125Y0277183D01*
X0261659Y0277183D01*
X0262427Y0276416D01*
X0262427Y0274881D01*
X0261659Y0274114D01*
X0260892Y0272579D02*
X0257823Y0272579D01*
X0257823Y0274114D02*
X0257823Y0277183D01*
X0254927Y0280253D02*
X0250323Y0280253D01*
X0250323Y0281787D02*
X0250323Y0278718D01*
X0257823Y0269510D02*
X0260892Y0269510D01*
X0262427Y0271045D01*
X0260892Y0272579D01*
X0252625Y0263372D02*
X0252625Y0260302D01*
X0251090Y0258768D02*
X0250323Y0258000D01*
X0250323Y0256466D01*
X0251090Y0255698D01*
X0254159Y0255698D01*
D13*
X0255343Y0158933D02*
X0339202Y0158933D01*
X0339202Y0114445D01*
X0255343Y0114445D01*
X0255343Y0158933D01*
D14*
X0280053Y0138079D02*
X0282188Y0138079D01*
X0280053Y0138079D02*
X0280053Y0131674D01*
X0282188Y0131674D01*
X0284350Y0131674D02*
X0288620Y0131674D01*
X0290795Y0132742D02*
X0291863Y0131674D01*
X0293998Y0131674D01*
X0295066Y0132742D01*
X0295066Y0137012D01*
X0293998Y0138079D01*
X0291863Y0138079D01*
X0290795Y0137012D01*
X0290795Y0132742D01*
X0284350Y0131674D02*
X0284350Y0138079D01*
X0297241Y0137012D02*
X0297241Y0132742D01*
X0298308Y0131674D01*
X0300443Y0131674D01*
X0301511Y0132742D01*
X0301511Y0134877D01*
X0299376Y0134877D01*
X0301511Y0137012D02*
X0300443Y0138079D01*
X0298308Y0138079D01*
X0297241Y0137012D01*
X0303686Y0137012D02*
X0304754Y0138079D01*
X0306889Y0138079D01*
X0307957Y0137012D01*
X0307957Y0132742D01*
X0306889Y0131674D01*
X0304754Y0131674D01*
X0303686Y0132742D01*
X0303686Y0137012D01*
X0310132Y0138079D02*
X0312267Y0138079D01*
X0312267Y0131674D01*
X0310132Y0131674D01*
M02*
