**ABCDEFGHIJKLMNOPQRSTUVWXYZabcdefghijklmnopqrstuvwxyz**************************
**PARASOLID !"#$%&'()*+,-./:;<=>?@[\]^_`{|}~0123456789**************************
**PART1;
MC=AMD64;
MC_MODEL=Intel64 Family 6 Model 69 Stepping 1, GenuineIntel;
MC_ID=unknown;
OS=Windows_NT;
OS_RELEASE=unknown;
FRU=Parasolid Version 27.0, build 207,  1-23-2015;
APPL=SOLIDWORKS 2015-2015313;
SITE=;
USER=unknown;
FORMAT=text;
GUISE=transmit;
KEY=New internal frame top without holes;
FILE=New internal frame top without holes.x_t;
DATE=Wed Nov 23 11:11:44 2016;
**PART2;
SCH=SCH_2700207_26105;
USFLD_SIZE=0;
**PART3;
**END_OF_HEADER*****************************************************************
T51 : TRANSMIT FILE created by modeller version 270020723 SCH_2700207_26105_1300
6196 0 12 30 CCCCCCCCCCCCCDI5 owner1040 0 CCCCCCCCCA13 boundary_mesh1006 0 A16 i
ndex_map_offset0 0 1 dA9 index_map82 0 A17 node_id_index_map82 0 A20 schema_embe
dding_map82 0 A5 child12 0 A14 lowest_node_id0 0 1 dZ1 1890 2 3 0 0 0 0 1e3 1e-8
 0 4 0 1 0 1 1 5 6 7 8 9 10 11 0 0 0 0 0 0 0 81 255 2 2 1006 12 1 0 0 0 0 13 0 7
0 11 CI9 list_type0 0 1 uI10 notransmit0 0 1 lCCCDCCDI12 finger_index0 0 1 dI12
 finger_block1012 0 CZ3 0 4 T1 0 0 3 20 1 14 14 13 255 5 461 0 1 0 15 0 0 16 0 5
1 255 6 450 0 17 18 0 0 -.01440147737193766 .0015875 -.01191412126503336 0 -1 0
 .00127 0 0 -1 31 255 7 1499 0 19 20 0 0 +.00509269553400337 .02940469167395695
 -.0170758074123729 -.866025403784438 0 -.5 -.5 0 .866025403784438 .001 29 255 8
 827 0 11 21 0 .04180641844154045 .0015875 -.0238351894711443 19 8 CCCCCCCA5 own
er12 0 Z9 129 0 1 16 0 22 V0 16 255 10 371 0 ?23 0 24 25 0 0 1 18 255 11 825 0 2
6 0 27 8 ?1 17 255 26 0 28 29 30 11 31 32 0 33 -18 27 822 0 30 11 34 21 ?1 17 30
 0 28 26 35 27 36 37 0 31 -18 34 614 0 38 27 39 40 ?1 29 21 824 0 27 40 8 .04946
0038325339 .0015875 -.01057873097058594 29 40 616 0 34 41 21 .03302 .0015875 .01
774037873496665 29 41 352 0 42 43 40 .0508 0 0 18 42 322 0 44 45 46 41 ?1 29 43
 353 0 46 47 41 .03302 0 0 18 46 323 0 48 42 49 43 ?1 29 47 354 0 49 50 43 .0330
2 0 .01932787873496665 18 49 324 0 51 46 52 47 ?1 29 50 355 0 52 53 47 .01778 0
 .01932787873496665 18 52 325 0 54 49 55 50 ?1 29 53 356 0 55 56 50 .01778 0 0 1
8 55 326 0 57 52 58 53 ?1 29 56 357 0 58 59 53 0 0 0 18 58 327 0 60 55 61 56 ?1
 29 59 358 0 61 62 56 0 0 -.01143 18 61 328 0 63 58 64 59 ?1 29 62 359 0 64 65 5
9 .00762 0 -.02462822715367485 18 64 329 0 66 61 67 62 ?1 29 65 360 0 67 68 62 .
04318 0 -.02462822715367485 18 67 330 0 69 64 70 65 ?1 29 68 361 0 70 71 65 .050
8 0 -.01143 18 70 331 0 72 67 73 68 ?1 29 71 126 0 39 74 68 .0508 .0015875 0 18
 39 124 0 75 34 76 71 ?1 29 74 123 0 76 77 71 .03302 .0015875 0 18 76 121 0 78 3
9 79 74 ?1 29 77 114 0 79 80 74 .01778 .0015875 0 18 79 112 0 81 76 82 77 ?1 29
 80 111 0 82 83 77 0 .0015875 0 18 82 109 0 84 79 85 80 ?1 29 83 105 0 85 86 80
 .00762 .0015875 -.02462822715367485 18 85 103 0 87 82 45 83 ?1 29 86 99 0 45 88
 83 .0508 .0015875 -.01143 18 45 97 0 35 85 42 86 ?1 29 88 704 0 89 90 86 .01778
 .0015875 .01774037873496665 18 89 652 0 91 92 93 88 ?1 29 90 706 0 73 94 88 .03
302 .0498475 .01932787873496665 18 73 658 0 95 70 96 90 ?1 29 94 707 0 96 97 90
 .01778 .0498475 .01932787873496665 18 96 657 0 98 73 99 94 ?1 29 97 708 0 99 10
0 94 .01778 .0498475 .01774037873496665 18 99 656 0 101 96 92 97 ?1 29 100 709 0
 92 102 97 .03302 .0498475 .01774037873496665 18 92 653 0 103 99 89 100 ?1 29 10
2 810 0 104 105 100 0 .0015875 -.01143 18 104 763 0 106 107 108 102 ?1 29 105 81
2 0 108 109 102 .00899481532850781 .0015875 -.02383447715367485 18 108 760 0 110
 104 111 105 ?1 29 109 813 0 111 112 105 .001374815328507796 .0015875 -.01063625
 18 111 767 0 113 108 114 109 ?1 29 112 814 0 93 115 109 0 .0498475 -.01143 18 9
3 766 0 116 89 117 112 ?1 29 115 815 0 117 118 112 .00762 .0498475 -.02462822715
367485 18 117 765 0 119 93 120 115 ?1 29 118 816 0 120 121 115 .0089948153285078
1 .0498475 -.02383447715367485 18 120 764 0 122 117 107 118 ?1 29 121 817 0 107
 123 118 .001374815328507796 .0498475 -.01063625 18 107 761 0 124 120 104 121 ?1
 29 123 919 0 125 126 121 .04318 .0015875 -.02462822715367485 18 125 867 0 127 1
28 0 123 ?1 29 126 921 0 114 129 123 .049460038325339 .0498475 -.010578730970585
94 18 114 873 0 130 111 131 126 ?1 29 129 922 0 131 132 126 .04180641844154045 .
0498475 -.0238351894711443 18 131 872 0 133 114 134 129 ?1 29 132 923 0 134 135
 129 .04318 .0498475 -.02462822715367485 18 134 871 0 136 131 128 132 ?1 29 135
 924 0 128 0 132 .0508 .0498475 -.01143 18 128 868 0 137 134 125 135 ?1 17 137 0
 138 139 140 128 136 141 0 142 -15 255 138 424 0 143 144 0 17 139 0 138 23 137 4
5 145 146 0 36 +17 140 0 138 137 147 134 148 149 0 150 -17 136 0 151 133 142 134
 137 141 0 140 +16 141 858 0 ?136 152 153 154 0 0 1 17 142 0 151 136 130 128 155
 153 0 145 +15 151 893 0 142 156 0 17 130 0 151 142 133 114 157 158 0 159 +17 15
5 0 160 161 145 114 142 153 0 0 -16 153 855 0 ?142 141 32 162 0 0 1 17 145 0 160
 155 36 128 139 146 0 0 -15 160 878 0 36 163 0 17 36 0 160 145 161 45 30 37 0 0
 +16 146 846 0 ?139 164 149 165 0 0 1 16 164 732 0 ?166 167 146 168 0 0 1 16 149
 850 0 ?148 146 169 170 0 0 1 30 255 165 905 0 146 170 171 0 +.0508 .0498475 -.0
1143 0 -1 0 30 170 906 0 149 172 165 0 +.04318 .0498475 -.02462822715367485 0 -1
 0 30 171 809 0 173 165 174 0 +.001374815328507796 .0498475 -.01063625 .86602540
3784438 0 .5 16 173 748 0 ?175 176 177 171 0 0 1 30 174 808 0 176 171 178 0 +.00
899481532850781 .0498475 -.02383447715367485 .5 0 -.866025403784438 16 176 751 0
 ?122 179 173 174 0 0 1 30 178 807 0 179 174 180 0 +.00762 .0498475 -.0246282271
5367485 -.866025403784438 0 -.5 16 179 754 0 ?119 181 176 178 0 0 1 30 180 806 0
 181 178 168 0 +0 .0498475 -.01143 -.5 0 .866025403784438 16 181 757 0 ?116 182
 179 180 0 0 1 30 168 805 0 164 180 183 0 +.001374815328507796 .0015875 -.010636
25 .866025403784438 0 .5 30 183 804 0 167 168 184 0 +.00899481532850781 .0015875
 -.02383447715367485 .5 0 -.866025403784438 16 167 736 0 ?110 177 164 183 0 0 1
 30 184 803 0 177 183 185 0 +.00762 .0015875 -.02462822715367485 -.8660254037844
38 0 -.5 16 177 740 0 ?186 173 167 184 0 0 1 30 185 801 0 182 184 187 0 +0 .0498
475 -.01143 0 -1 0 16 182 735 0 ?106 188 181 185 0 0 1 30 187 800 0 188 185 189
 0 +.00762 .0498475 -.02462822715367485 0 -1 0 16 188 747 0 ?87 190 182 187 0 0
 1 30 189 799 0 190 187 191 0 +.00899481532850781 .0498475 -.02383447715367485 0
 -1 0 16 190 743 0 ?192 193 188 189 0 0 1 30 191 798 0 193 189 194 0 +.001374815
328507796 .0498475 -.01063625 0 -1 0 16 193 739 0 ?113 195 190 191 0 0 1 30 194
 701 0 196 191 197 0 +.03302 .0498475 .01932787873496665 0 0 -1 16 196 640 0 ?19
8 199 195 194 0 0 1 30 197 700 0 199 194 200 0 +.03302 .0498475 .017740378734966
65 -1 0 0 16 199 643 0 ?101 201 196 197 0 0 1 30 200 699 0 201 197 202 0 +.01778
 .0498475 .01932787873496665 0 0 1 16 201 646 0 ?203 204 199 200 0 0 1 30 202 69
8 0 204 200 205 0 +.03302 .0498475 .01932787873496665 1 0 0 16 204 649 0 ?206 20
7 201 202 0 0 1 30 205 696 0 195 202 208 0 +.03302 .0015875 .01774037873496665 -
1 0 0 16 195 628 0 ?209 196 193 205 0 0 1 30 208 691 0 207 205 210 0 +.01778 .04
98475 .01774037873496665 0 -1 0 16 207 635 0 ?211 212 204 208 0 0 1 30 210 690 0
 212 208 213 0 +.03302 .0498475 .01774037873496665 0 -1 0 16 212 631 0 ?214 215
 207 210 0 0 1 31 213 15 0 216 210 217 0 +.01440147737193766 .0015875 -.01191412
126503336 0 1 0 0 0 1 .00127 16 216 14 0 ?218 219 220 213 0 0 1 30 217 20 0 219
 213 221 0 +.0508 .0015875 0 0 0 -1 16 219 19 0 ?35 222 216 217 0 0 1 30 221 28
 0 222 217 223 0 +2402877604902655e-33 .0015875 -.02462822715367485 1 0 97565999
7737238e-31 16 222 27 0 ?127 224 219 221 0 0 1 30 223 36 0 224 221 225 0 +0 .001
5875 0 0 0 -1 16 224 35 0 ?226 227 222 223 0 0 1 30 225 40 0 227 223 228 0 +0 .0
015875 0 1 0 0 16 227 39 0 ?81 229 224 225 230 230 1 30 228 45 0 229 225 231 0 +
.01778 .0015875 -3191595293597115e-33 179504797165192e-30 0 1 16 229 44 0 ?91 23
2 227 228 0 0 1 30 231 53 0 232 228 233 0 +.03302 .0015875 0 0 0 1 16 232 52 0 ?
234 230 229 231 0 0 1 31 233 61 0 235 231 236 0 +.0363985226280624 .0015875 -.01
191412126503338 0 1 0 0 0 1 .00127 16 235 60 0 ?237 238 230 233 0 0 1 31 236 66
 0 238 233 239 0 +.0254 .0015875 -.01826412126503335 0 1 0 0 0 1 .00127 16 238 6
5 0 ?240 241 235 236 0 0 1 31 239 70 0 241 236 242 0 +.01040911357683742 .001587
5 -.0142191135768374 0 1 0 0 0 1 .00127 16 241 69 0 ?243 244 238 239 0 0 1 31 24
2 74 0 244 239 245 0 +.00710955678841872 .0015875 -.0161241135768374 0 1 0 0 0 1
 .00127 16 244 73 0 ?246 247 241 242 0 0 1 31 245 78 0 247 242 248 0 +.040390886
42316255 .0015875 -.0142191135768374 0 1 0 0 0 1 .00127 16 247 77 0 ?249 250 244
 245 0 0 1 31 248 82 0 250 245 251 0 +.04369044321158125 .0015875 -.016124113576
8374 0 1 0 0 0 1 .00127 16 250 81 0 ?252 253 247 248 0 0 1 31 251 86 0 253 248 2
54 0 +.0254 .0015875 .00713587873496665 0 1 0 0 0 1 .00127 16 253 85 0 ?255 256
 250 251 0 0 1 31 254 90 0 256 251 257 0 +.0254 .0015875 .01170787873496664 0 1
 0 0 0 1 .00127 16 256 89 0 ?258 259 253 254 0 0 1 31 257 94 0 259 254 260 0 +.0
254 .0015875 .01551787873496665 0 1 0 0 0 1 .00127 16 259 93 0 ?261 262 256 257
 0 0 1 31 260 351 0 215 257 263 0 +.01440147737193766 0 -.01191412126503336 0 1
 0 0 0 1 .00127 16 215 316 0 ?264 265 212 260 0 0 1 30 263 350 0 265 260 266 0 +
.0508 0 0 0 0 -1 16 265 311 0 ?267 268 215 263 0 0 1 30 266 349 0 268 263 269 0
 +.043049335182628 0 -.0248545452561248 -.5 0 -.866025403784438 16 268 306 0 ?14
3 270 265 266 0 0 1 30 269 348 0 270 266 271 0 +2402877604902655e-33 0 -.0246282
2715367485 1 0 975659997737238e-31 16 270 301 0 ?272 273 268 269 0 0 1 30 271 34
7 0 273 269 274 0 +-.00494933518262807 0 -.0028575 .5 0 -.866025403784438 16 273
 296 0 ?275 276 270 271 0 0 1 30 274 346 0 276 271 277 0 +0 0 0 0 0 -1 16 276 29
1 0 ?278 279 273 274 0 0 1 30 277 345 0 279 274 280 0 +0 0 0 1 0 0 16 279 285 0
 ?57 281 276 277 282 282 1 30 280 344 0 281 277 283 0 +.01778 0 -319159529359711
5e-33 179504797165192e-30 0 1 16 281 280 0 ?54 284 279 280 0 0 1 30 283 343 0 28
4 280 285 0 +0 0 .01932787873496665 1 0 0 16 284 275 0 ?286 287 281 283 0 0 1 30
 285 342 0 287 283 288 0 +.03302 0 0 0 0 1 16 287 270 0 ?289 282 284 285 0 0 1 3
1 288 341 0 290 285 291 0 +.0363985226280624 0 -.01191412126503338 0 1 0 0 0 1 .
00127 16 290 258 0 ?292 293 282 288 0 0 1 31 291 340 0 293 288 294 0 +.0254 0 -.
01826412126503335 0 1 0 0 0 1 .00127 16 293 253 0 ?295 296 290 291 0 0 1 31 294
 339 0 296 291 297 0 +.01040911357683742 0 -.0142191135768374 0 1 0 0 0 1 .00127
 16 296 248 0 ?298 299 293 294 0 0 1 31 297 338 0 299 294 300 0 +.00710955678841
872 0 -.0161241135768374 0 1 0 0 0 1 .00127 16 299 243 0 ?301 302 296 297 0 0 1
 31 300 337 0 302 297 303 0 +.04039088642316255 0 -.0142191135768374 0 1 0 0 0 1
 .00127 16 302 238 0 ?304 305 299 300 0 0 1 31 303 336 0 305 300 306 0 +.0436904
4321158125 0 -.0161241135768374 0 1 0 0 0 1 .00127 16 305 233 0 ?307 308 302 303
 0 0 1 31 306 335 0 308 303 309 0 +.0254 0 .00713587873496665 0 1 0 0 0 1 .00127
 16 308 228 0 ?310 311 305 306 0 0 1 31 309 334 0 311 306 312 0 +.0254 0 .011707
87873496664 0 1 0 0 0 1 .00127 16 311 223 0 ?313 220 308 309 0 0 1 31 312 333 0
 220 309 314 0 +.0254 0 .01551787873496665 0 1 0 0 0 1 .00127 16 220 218 0 ?315
 216 311 312 0 0 1 30 314 451 0 262 312 316 0 +.0508 .0015875 0 0 -1 0 16 262 36
2 0 ?317 318 259 314 0 0 1 30 316 452 0 318 314 319 0 +.03302 .0015875 0 0 -1 0
 16 318 363 0 ?48 320 262 316 0 0 1 30 319 453 0 320 316 321 0 +.03302 .0015875
 .01932787873496665 0 -1 0 16 320 364 0 ?51 322 318 319 0 0 1 30 321 454 0 322 3
19 323 0 +.01778 .0015875 .01932787873496665 0 -1 0 16 322 365 0 ?324 325 320 32
1 0 0 1 30 323 455 0 325 321 326 0 +.01778 .0015875 0 0 -1 0 16 325 366 0 ?327 3
28 322 323 0 0 1 30 326 456 0 328 323 329 0 +0 .0015875 0 0 -1 0 16 328 367 0 ?6
0 330 325 326 0 0 1 30 329 457 0 330 326 331 0 +0 .0015875 -.01143 0 -1 0 16 330
 368 0 ?63 332 328 329 0 0 1 30 331 458 0 332 329 333 0 +.00762 .0015875 -.02462
822715367485 0 -1 0 16 332 369 0 ?66 24 330 331 0 0 1 30 333 459 0 24 331 25 0 +
.04318 .0015875 -.02462822715367485 0 -1 0 16 24 370 0 ?69 10 332 333 0 0 1 30 2
5 460 0 10 333 334 0 +.0508 .0015875 -.01143 0 -1 0 31 334 1230 0 335 25 336 0 +
.0254 .0421025 .01774037873496665 0 0 1 1 0 0 .001 16 335 1243 0 ?337 37 338 334
 0 0 1 31 336 1277 0 339 334 340 0 +.0254 .0294025 .01774037873496665 0 0 1 1 0
 0 .001 16 339 1290 0 ?341 338 342 336 0 0 1 31 340 1341 0 343 336 344 0 +.04561
64184415405 .0421025 -.0172360758943069 .866025403784439 0 -.5 -.5 0 -.866025403
784439 .001 16 343 1354 0 ?345 342 346 340 0 0 1 31 344 1388 0 347 340 20 0 +.04
56164184415405 .0294025 -.0172360758943069 .866025403784439 0 -.5 -.5 0 -.866025
403784439 .001 16 347 1401 0 ?348 346 349 344 0 0 1 31 20 1452 0 350 344 7 0 +.0
0509269553400337 .04210469167395695 -.0170758074123729 -.866025403784438 0 -.5 -
.5 0 .866025403784438 .001 16 350 1465 0 ?351 349 352 20 0 0 1 17 351 0 353 351
 351 0 354 350 0 0 +16 349 1405 0 ?355 347 350 356 0 0 1 16 352 1469 0 ?357 350
 19 358 0 0 1 17 357 0 359 357 357 0 360 352 0 0 +16 19 1512 0 ?361 352 362 7 0
 0 1 31 358 1493 0 352 363 356 0 +.003717880205495565 .04210469167395695 -.01786
955741237295 -.866025403784438 0 -.5 -.5 0 .866025403784438 .001 31 363 1540 0 3
62 0 358 0 +.003717880205495565 .02940469167395695 -.01786955741237295 -.8660254
03784438 0 -.5 -.5 0 .866025403784438 .001 31 356 1429 0 349 358 364 0 +.04699 .
0294025 -.0180291135768374 .866025403784438 0 -.5 -.5 0 -.866025403784438 .001 3
1 364 1382 0 346 356 365 0 +.04699 .0421025 -.0180291135768374 .866025403784438
 0 -.5 -.5 0 -.866025403784438 .001 16 346 1358 0 ?366 343 347 364 0 0 1 31 365
 1318 0 342 364 367 0 +.0254 .0294025 .01932787873496665 0 0 1 1 0 0 .001 16 342
 1294 0 ?368 339 343 365 0 0 1 31 367 1271 0 338 365 162 0 +.0254 .0421025 .0193
2787873496665 0 0 1 1 0 0 .001 16 338 1247 0 ?369 335 339 367 0 0 1 30 162 916 0
 153 367 154 0 +.049460038325339 .0498475 -.01057873097058594 .84407034624318 0
 -.536232459473425 30 154 915 0 141 162 370 0 +.0508 .0498475 -.01143 -.5 0 -.86
6025403784438 30 370 914 0 152 154 371 0 +.04318 .0498475 -.02462822715367485 -.
866025403784439 0 .5 16 152 861 0 ?133 158 141 370 0 0 1 30 371 913 0 158 370 37
2 0 +.04180641844154045 .0498475 -.0238351894711443 .5 0 .866025403784439 16 158
 864 0 ?130 373 152 371 0 0 1 30 372 912 0 37 371 374 0 +.049460038325339 .00158
75 -.01057873097058594 .84407034624318 0 -.536232459473425 16 37 839 0 ?36 375 3
35 372 0 0 1 30 374 910 0 375 372 376 0 +.04318 .0015875 -.02462822715367485 -.8
66025403784439 0 .5 16 375 847 0 ?33 32 37 374 0 0 1 30 376 909 0 32 374 377 0 +
.04180641844154045 .0015875 -.0238351894711443 .5 0 .866025403784439 16 32 851 0
 ?31 153 375 376 0 0 1 30 377 908 0 373 376 172 0 +.049460038325339 .0498475 -.0
1057873097058594 0 -1 0 16 373 842 0 ?161 169 158 377 0 0 1 30 172 907 0 169 377
 170 0 +.04180641844154045 .0498475 -.0238351894711443 0 -1 0 16 169 854 0 ?378
 149 373 172 0 0 1 17 378 0 379 31 157 11 380 169 0 0 +15 379 890 0 31 381 0 17
 31 0 379 159 378 27 26 32 0 161 +17 157 0 379 378 159 131 130 158 0 0 -17 380 0
 382 150 33 131 378 169 0 157 -15 382 886 0 33 383 0 17 150 0 382 148 380 134 13
3 152 0 0 -17 33 0 382 380 148 11 29 375 0 378 +17 148 0 382 33 150 125 140 149
 0 0 +17 29 0 28 384 26 125 33 375 0 148 -15 28 823 0 35 15 0 17 384 0 28 385 29
 85 127 222 0 0 -17 385 0 28 386 384 108 186 177 0 0 -17 127 0 387 69 388 125 38
4 222 0 147 +15 387 422 0 389 390 0 17 69 0 387 389 127 67 147 24 0 143 +17 388
 0 387 127 389 85 66 332 0 384 -17 147 0 138 140 143 125 69 24 0 29 -17 143 0 13
8 147 23 67 72 268 0 272 +17 23 0 138 143 139 70 391 10 0 267 +17 72 0 392 393 2
72 70 143 268 0 23 -17 272 0 392 72 275 67 389 270 0 0 +15 392 208 0 393 394 395
 17 275 0 392 272 278 64 396 273 0 0 +17 389 0 387 388 69 64 272 270 0 275 -17 2
78 0 392 275 397 61 398 276 0 0 +17 396 0 399 400 66 61 275 273 0 278 -15 399 42
0 0 396 401 0 17 400 0 399 402 396 104 63 330 0 226 -17 66 0 399 396 87 64 388 3
32 0 389 +17 87 0 399 66 403 85 404 188 0 186 +17 403 0 399 87 402 117 116 181 0
 0 -17 404 0 405 406 186 117 87 188 0 403 -17 186 0 405 404 192 85 385 177 0 388
 +15 405 779 0 186 407 0 17 192 0 405 186 406 108 408 190 0 385 +17 406 0 405 19
2 404 120 119 179 0 0 -17 408 0 409 124 110 120 192 190 0 406 -15 409 775 0 110
 410 0 17 124 0 409 113 408 107 122 176 0 175 -17 110 0 409 408 113 108 386 167
 0 192 +17 113 0 409 110 124 111 411 193 0 166 +17 386 0 28 412 385 111 110 167
 0 0 -17 412 0 28 413 386 104 166 164 0 400 -17 413 0 28 81 412 82 226 224 0 0 -
17 166 0 414 411 106 111 412 164 0 386 +15 414 771 0 166 415 0 17 411 0 414 416
 166 107 113 193 0 0 -17 106 0 414 166 416 104 402 182 0 412 +17 416 0 414 106 4
11 93 175 173 0 0 -17 402 0 399 403 400 93 106 182 0 416 -17 175 0 417 122 116 1
07 416 173 0 411 +15 417 786 0 175 418 0 17 122 0 417 119 175 120 124 176 0 408
 +17 116 0 417 175 119 93 403 181 0 402 +17 119 0 417 116 122 117 406 179 0 404
 +14 255 418 784 419 ?163 407 417 5 420 -0 0 163 407 22 81 1 419 1853 421 418 42
2 0 0 423 424 14 163 875 423 ?383 418 160 5 425 -0 0 383 418 22 14 407 776 426 ?
418 410 405 5 427 -0 0 418 410 22 50 255 420 797 0 418 425 427 0 +0 .0498475 0 0
 -1 0 0 0 -1 13 22 130 0 0 0 0 0 0 9 15 14 15 834 428 ?429 0 430 5 431 +0 0 429
 0 22 81 1 428 1856 421 15 432 0 426 433 434 14 429 427 433 ?144 15 435 5 18 -0
 0 144 15 22 15 430 3 0 436 15 437 50 431 2 0 15 438 439 0 +0 .0015875 0 0 1 0 0
 0 1 50 438 685 0 440 441 431 0 +.03302 .0498475 .01774037873496665 0 0 1 1 0 0
 50 439 332 0 394 431 442 0 +0 0 0 0 1 0 0 0 1 14 394 206 443 ?440 444 445 5 439
 -0 0 440 444 22 51 442 432 0 444 439 446 0 -.0254 .0015875 .01551787873496665 0
 -1 0 .00127 0 0 -1 14 444 373 447 ?394 17 448 5 442 +0 0 394 17 22 51 446 433 0
 449 442 450 0 -.0254 .0015875 .01170787873496664 0 -1 0 .00127 0 0 -1 14 449 37
7 451 ?452 453 454 5 446 +0 0 452 453 22 51 450 434 0 452 446 455 0 -.0254 .0015
875 .00713587873496665 0 -1 0 .00127 0 0 -1 14 452 381 456 ?457 449 458 5 450 +0
 0 457 449 22 51 455 435 0 457 450 459 0 -.04369044321158125 .0015875 -.01612411
35768374 0 -1 0 .00127 0 0 -1 14 457 385 460 ?461 452 462 5 455 +0 0 461 452 22
 51 459 436 0 461 455 463 0 -.04039088642316255 .0015875 -.0142191135768374 0 -1
 0 .00127 0 0 -1 14 461 389 464 ?465 457 466 5 459 +0 0 465 457 22 51 463 437 0
 465 459 467 0 -.00710955678841872 .0015875 -.0161241135768374 0 -1 0 .00127 0 0
 -1 14 465 393 468 ?469 461 470 5 463 +0 0 469 461 22 51 467 438 0 469 463 471 0
 -.01040911357683742 .0015875 -.0142191135768374 0 -1 0 .00127 0 0 -1 14 469 397
 472 ?473 465 474 5 467 +0 0 473 465 22 51 471 439 0 473 467 475 0 -.0254 .00158
75 -.01826412126503335 0 -1 0 .00127 0 0 -1 14 473 401 476 ?477 469 478 5 471 +0
 0 477 469 22 51 475 440 0 477 471 479 0 -.0363985226280624 .0015875 -.011914121
26503338 0 -1 0 .00127 0 0 -1 14 477 405 480 ?481 473 482 5 475 +0 0 481 473 22
 50 479 441 0 481 475 483 0 +0 .0015875 0 0 0 -1 -1 0 0 14 481 409 484 ?17 477 4
85 5 479 -486 486 17 477 22 50 483 442 0 453 479 487 0 +.03302 .0015875 0 1 0 0
 0 0 -1 14 453 411 488 ?449 489 490 5 483 +0 0 449 489 22 50 487 443 0 489 483 4
91 0 +0 .0015875 .01932787873496665 0 0 -1 -1 0 0 14 489 413 492 ?453 493 494 5
 487 -0 0 453 493 22 50 491 444 0 493 487 495 0 +.01778 .0015875 -31915952935971
15e-33 1 0 -179504797165192e-30 -179504797165192e-30 0 -1 14 493 415 496 ?489 48
6 497 5 491 -0 0 489 486 22 50 495 445 0 498 491 499 0 +0 .0015875 0 -1 0 0 0 0
 1 14 498 419 500 ?486 401 501 5 495 +0 0 486 401 22 50 499 446 0 401 495 502 0
 +-.00494933518262807 .0015875 -.0028575 -.866025403784438 0 -.5 -.5 0 .86602540
3784438 14 401 421 503 ?498 390 504 5 499 +0 0 498 390 22 50 502 447 0 390 499 5
05 0 +2402877604902655e-33 .0015875 -.02462822715367485 975659997737238e-31 0 -1
 -1 0 -975659997737238e-31 14 390 423 506 ?401 144 387 5 502 +0 0 401 144 22 50
 505 448 0 144 502 18 0 +.043049335182628 .0015875 -.0248545452561248 -.86602540
3784438 0 .5 .5 0 .866025403784438 14 144 425 507 ?390 429 508 5 505 -0 0 390 42
9 22 50 18 449 0 429 505 6 0 +.0508 .0015875 0 -1 0 0 0 0 1 81 1 507 1875 421 14
4 509 0 506 510 511 15 508 1393 0 512 144 513 17 512 0 508 512 512 0 355 349 0 0
 -15 513 1346 0 514 144 138 17 514 0 513 514 514 0 366 346 0 0 -17 366 0 515 366
 366 0 514 346 0 0 +15 515 1364 0 366 516 517 14 516 1361 510 ?518 519 515 5 520
 -0 0 518 519 22 15 517 1365 0 521 516 0 17 521 0 517 521 521 0 345 343 0 0 -17
 345 0 522 345 345 0 521 343 0 0 +15 522 1339 0 345 381 379 14 381 887 523 ?156
 383 524 5 525 -0 0 156 383 22 81 1 523 1877 421 381 526 0 510 527 528 14 156 89
1 527 ?529 381 151 5 530 +0 0 529 381 22 14 383 883 531 ?381 163 382 5 532 -0 0
 381 163 22 15 524 1386 0 348 381 522 50 525 902 0 381 530 532 0 +.0418064184415
4045 .0498475 -.0238351894711443 .866025403784439 0 -.5 -.5 0 -.866025403784439
 50 530 904 0 156 533 525 0 +0 .0498475 0 0 1 0 0 0 1 50 532 901 0 383 525 425 0
 +.04318 .0498475 -.02462822715367485 .5 0 .866025403784439 .866025403784439 0 -
.5 50 425 899 0 163 532 420 0 +.049460038325339 .0498475 -.01057873097058594 -.5
36232459473425 0 -.84407034624318 -.84407034624318 0 .536232459473425 51 533 126
8 0 529 534 530 0 +.0254 .0421025 .01678787873496665 0 0 1 .001 1 0 0 14 529 125
0 535 ?519 156 536 5 533 -0 0 519 156 22 51 534 1315 0 519 520 533 0 +.0254 .029
4025 .01678787873496665 0 0 1 .001 1 0 0 14 519 1297 537 ?516 529 538 5 534 -0 0
 516 529 22 51 520 1379 0 516 539 534 0 +.04479029547438755 .0421025 -.016759113
5768374 .866025403784438 0 -.5 .001 -.5 0 -.866025403784438 51 539 1426 0 518 54
0 520 0 +.04479029547438755 .0294025 -.0167591135768374 .866025403784438 0 -.5 .
001 -.5 0 -.866025403784438 14 518 1408 541 ?542 516 543 5 539 -0 0 542 516 22 5
1 540 1490 0 542 544 539 0 +.00591758473110804 .04210469167395695 -.016599557412
3729 -.866025403784438 0 -.5 .001 -.5 0 .866025403784438 14 542 1472 545 ?546 51
8 359 5 540 -0 0 546 518 22 51 544 1537 0 546 0 540 0 +.00591758473110804 .02940
469167395695 -.0165995574123729 -.866025403784438 0 -.5 .001 -.5 0 .866025403784
438 14 546 1519 547 ?0 542 548 5 544 -0 0 0 542 22 81 1 547 1884 421 546 549 0 5
45 550 551 15 548 1522 0 552 546 553 17 552 0 548 552 552 0 554 362 0 0 +15 553
 1523 0 555 546 0 17 555 0 553 555 555 0 361 19 0 0 -17 361 0 556 361 361 0 555
 19 0 0 +15 556 1497 0 361 410 353 14 410 772 550 ?407 415 556 5 557 -0 0 407 41
5 22 15 353 1450 0 351 410 409 81 1 550 1885 421 410 558 0 547 559 560 14 415 76
8 559 ?410 561 414 5 562 -0 0 410 561 22 50 557 793 0 410 427 562 0 +.0089948153
2850781 .0498475 -.02383447715367485 -.866025403784438 0 -.5 -.5 0 .866025403784
438 50 427 794 0 407 420 557 0 +.00762 .0498475 -.02462822715367485 -.5 0 .86602
5403784438 .866025403784438 0 .5 50 562 792 0 415 557 441 0 +.001374815328507796
 .0498475 -.01063625 .5 0 -.866025403784438 -.866025403784438 0 -.5 50 441 689 0
 561 562 438 0 +0 .0498475 0 0 1 0 0 0 1 14 561 676 563 ?415 440 564 5 441 +0 0
 415 440 22 81 1 563 1887 421 561 565 0 559 566 567 14 440 664 566 ?561 394 568
 5 438 -0 0 561 394 22 15 564 678 0 198 561 0 17 198 0 564 101 206 92 569 196 0
 570 +17 101 0 564 203 198 99 103 199 0 571 +17 206 0 564 198 203 73 572 204 0 5
69 +17 569 0 490 51 570 73 198 196 0 0 -17 570 0 490 569 234 92 214 212 0 0 -15
 490 410 0 573 453 0 17 234 0 490 570 78 34 574 232 0 214 +17 214 0 575 209 103
 34 570 212 0 0 +15 575 667 0 209 440 0 17 209 0 575 571 214 89 38 195 0 211 +17
 103 0 575 214 571 92 101 199 0 198 -17 571 0 575 103 209 99 211 207 0 576 -17 2
11 0 497 577 576 89 571 207 0 0 +17 576 0 497 211 98 99 203 201 0 0 -15 497 414
 0 54 493 0 17 98 0 497 576 54 96 324 322 0 203 -17 203 0 564 206 101 96 576 201
 0 572 +17 572 0 578 324 95 96 206 204 0 0 -15 578 412 0 286 489 0 17 324 0 578
 286 572 52 98 322 0 579 +17 95 0 578 572 286 73 51 320 0 206 -17 286 0 578 95 3
24 49 579 284 0 289 +17 51 0 490 573 569 49 95 320 0 286 +17 573 0 490 78 51 46
 289 287 0 0 -17 78 0 490 234 573 76 48 318 0 580 -17 289 0 392 579 581 49 573 2
87 0 0 +17 579 0 392 582 289 52 286 284 0 0 -17 581 0 392 289 393 46 44 282 0 57
3 -17 393 0 392 581 72 42 267 265 0 0 -17 44 0 485 583 48 42 581 282 0 317 +16 2
82 264 0 ?44 290 287 277 279 279 1 15 485 408 0 44 481 0 17 583 0 485 580 44 39
 317 262 0 584 -17 48 0 485 44 580 46 78 318 0 581 +17 317 0 435 267 584 42 583
 262 0 393 +15 435 426 0 267 429 0 17 267 0 435 391 317 70 393 265 0 0 +17 584 0
 435 317 391 39 35 219 0 0 -17 391 0 435 584 267 45 23 10 0 139 -17 35 0 28 30 7
5 45 584 219 0 391 +17 75 0 28 35 574 39 580 230 0 583 +17 574 0 28 75 38 76 234
 232 0 0 -17 580 0 485 48 583 76 75 230 0 574 -16 230 56 0 ?75 235 232 225 227 2
27 1 17 38 0 28 574 91 34 209 195 0 234 -17 91 0 28 38 81 89 577 229 0 209 +17 8
1 0 28 91 413 79 585 227 0 586 +17 577 0 497 327 211 79 91 229 0 0 -17 327 0 497
 54 577 55 586 325 0 582 +17 54 0 497 98 327 52 582 281 0 324 +17 586 0 587 585
 57 79 327 325 0 577 -17 582 0 392 397 579 55 54 281 0 0 -17 397 0 392 278 582 5
8 57 279 0 398 -17 57 0 587 586 60 55 397 279 0 327 +17 398 0 501 84 63 58 278 2
76 0 0 -15 501 418 0 398 498 0 17 84 0 501 226 398 82 60 328 0 585 -17 63 0 501
 398 226 61 400 330 0 396 +17 226 0 501 63 84 104 413 224 0 0 +17 60 0 587 57 58
5 58 84 328 0 397 +17 585 0 587 60 586 82 81 227 0 413 -15 587 416 0 57 486 0 14
 486 417 588 ?493 498 587 5 479 -481 481 493 498 22 81 1 588 1889 421 486 589 0
 566 590 591 80 255 1 421 592 593 9000 1 1 1 1 1 1 1 1 0 FFFFTFTFFFFFFF1 81 1 58
9 1732 594 486 0 588 595 596 597 81 1 566 1888 421 440 598 0 563 588 599 81 1 59
0 1890 421 17 600 0 588 0 601 82 255 1 591 -1503723403 14 17 429 590 ?444 481 60
2 5 6 +0 0 444 481 22 81 1 600 1745 594 17 0 590 603 604 605 82 1 601 -150241268
3 80 1 594 0 606 8001 0 0 0 0 3 5 0 0 0 FFFFTFTFFFFFFF2 81 1 603 1744 594 481 0
 484 607 600 608 81 1 604 1746 594 444 0 447 600 609 610 83 255 3 605 .792156862
745098 .819607843137255 .933333333333333 81 1 447 1859 421 444 604 0 443 451 611
 81 1 609 1747 594 394 0 443 604 598 612 83 3 610 .792156862745098 .819607843137
255 .933333333333333 81 1 443 1858 421 394 609 0 433 447 613 81 1 598 1748 594 4
40 0 566 609 565 614 83 3 612 .792156862745098 .819607843137255 .933333333333333
 81 1 565 1749 594 561 0 563 598 615 616 83 3 614 .792156862745098 .819607843137
255 .933333333333333 81 1 615 1750 594 415 0 559 565 558 617 83 3 616 .792156862
745098 .819607843137255 .933333333333333 81 1 559 1886 421 415 615 0 550 563 618
 81 1 558 1751 594 410 0 550 615 619 620 83 3 617 .792156862745098 .819607843137
255 .933333333333333 81 1 619 1752 594 407 0 426 558 422 621 83 3 620 .792156862
745098 .819607843137255 .933333333333333 81 1 426 1855 421 407 619 0 423 428 622
 81 1 422 1753 594 418 0 419 619 623 624 83 3 621 .792156862745098 .819607843137
255 .933333333333333 81 1 623 1754 594 163 0 423 422 625 626 83 3 624 .792156862
745098 .819607843137255 .933333333333333 81 1 423 1854 421 163 623 0 419 426 627
 81 1 625 1755 594 383 0 531 623 526 628 83 3 626 .792156862745098 .819607843137
255 .933333333333333 81 1 531 1879 421 383 625 0 527 535 629 81 1 526 1756 594 3
81 0 523 625 630 631 83 3 628 .792156862745098 .819607843137255 .933333333333333
 81 1 630 1757 594 156 0 527 526 632 633 83 3 631 .792156862745098 .819607843137
255 .933333333333333 81 1 527 1878 421 156 630 0 523 531 634 81 1 632 1758 594 5
29 0 535 630 635 636 83 3 633 .792156862745098 .819607843137255 .933333333333333
 81 1 535 1880 421 529 632 0 531 537 637 81 1 635 1759 594 519 0 537 632 638 639
 83 3 636 .792156862745098 .819607843137255 .933333333333333 81 1 537 1881 421 5
19 635 0 535 541 640 81 1 638 1760 594 516 0 510 635 641 642 83 3 639 .792156862
745098 .819607843137255 .933333333333333 81 1 510 1876 421 516 638 0 507 523 643
 81 1 641 1761 594 518 0 541 638 644 645 83 3 642 .792156862745098 .819607843137
255 .933333333333333 81 1 541 1882 421 518 641 0 537 545 646 81 1 644 1762 594 5
42 0 545 641 549 647 83 3 645 .792156862745098 .819607843137255 .933333333333333
 81 1 545 1883 421 542 644 0 541 547 648 81 1 549 1763 594 546 0 547 644 0 649 8
3 3 647 .792156862745098 .819607843137255 .933333333333333 83 3 649 .79215686274
5098 .819607843137255 .933333333333333 82 1 648 578683010 82 1 646 1388904575 82
 1 643 1387069567 82 1 640 212664444 82 1 637 210829436 82 1 634 -1416822665 82
 1 629 -1410006921 82 1 627 -1409482633 82 1 622 -1421672329 82 1 618 -142114804
1 81 1 433 1857 421 429 650 0 428 443 651 82 1 613 -1517551499 81 1 650 1727 594
 429 0 433 432 509 652 82 1 651 -1502674825 81 1 432 1726 594 15 0 428 0 650 653
 81 1 509 1728 594 144 0 507 650 654 655 83 3 652 .792156862745098 .819607843137
255 .933333333333333 81 1 654 1729 594 390 0 506 509 656 657 83 3 655 .792156862
745098 .819607843137255 .933333333333333 81 1 506 1874 421 390 654 0 503 507 658
 81 1 656 1730 594 401 0 503 654 595 659 83 3 657 .792156862745098 .819607843137
255 .933333333333333 81 1 503 1873 421 401 656 0 500 506 660 81 1 595 1731 594 4
98 0 500 656 589 661 83 3 659 .792156862745098 .819607843137255 .933333333333333
 81 1 500 1872 421 498 595 0 496 503 662 83 3 661 .792156862745098 .819607843137
255 .933333333333333 81 1 496 1871 421 493 596 0 492 500 663 82 1 662 -150346125
7 81 1 596 1733 594 493 0 496 589 664 665 81 1 492 1870 421 489 664 0 488 496 66
6 82 1 663 -1503985545 81 1 664 1734 594 489 0 492 596 667 668 81 1 488 1869 421
 453 667 0 484 492 669 82 1 666 159645820 81 1 667 1735 594 453 0 488 664 670 67
1 81 1 484 1868 421 481 603 0 480 488 672 82 1 669 -1504509833 81 1 480 1867 421
 477 607 0 476 484 673 82 1 672 -1504771979 81 1 607 1743 594 477 0 480 674 603
 675 81 1 476 1866 421 473 674 0 472 480 676 82 1 673 -1505034123 81 1 674 1742
 594 473 0 476 677 607 678 81 1 472 1865 421 469 677 0 468 476 679 82 1 676 -150
5296267 81 1 677 1741 594 469 0 472 680 674 681 81 1 468 1864 421 465 680 0 464
 472 682 82 1 679 -1505558411 81 1 680 1740 594 465 0 468 683 677 684 81 1 464 1
863 421 461 683 0 460 468 685 82 1 682 -1505820555 81 1 683 1739 594 461 0 464 6
86 680 687 81 1 460 1862 421 457 686 0 456 464 688 82 1 685 -1506082699 81 1 686
 1738 594 457 0 460 689 683 690 81 1 456 1861 421 452 689 0 451 460 691 82 1 688
 -1506344843 81 1 689 1737 594 452 0 456 670 686 692 81 1 451 1860 421 449 670 0
 447 456 693 82 1 691 -1506606987 81 1 670 1736 594 449 0 451 667 689 694 82 1 6
93 -1506869131 83 3 694 .792156862745098 .819607843137255 .933333333333333 83 3
 692 .792156862745098 .819607843137255 .933333333333333 83 3 690 .79215686274509
8 .819607843137255 .933333333333333 83 3 687 .792156862745098 .819607843137255 .
933333333333333 83 3 684 .792156862745098 .819607843137255 .933333333333333 83 3
 681 .792156862745098 .819607843137255 .933333333333333 83 3 678 .79215686274509
8 .819607843137255 .933333333333333 83 3 675 .792156862745098 .819607843137255 .
933333333333333 83 3 671 .792156862745098 .819607843137255 .933333333333333 83 3
 668 .792156862745098 .819607843137255 .933333333333333 83 3 665 .79215686274509
8 .819607843137255 .933333333333333 82 1 660 160039042 82 1 658 -1503133577 83 3
 653 .792156862745098 .819607843137255 .933333333333333 82 1 611 -1507131275 83
 3 608 .792156862745098 .819607843137255 .933333333333333 79 255 15 606 SDL/TYSA
_COLOUR15 602 428 0 218 17 695 17 218 0 602 218 218 0 436 216 0 0 +15 695 430 0
 696 17 0 17 696 0 695 696 696 0 264 215 0 0 -17 264 0 445 264 264 0 696 215 0 0
 +15 445 207 0 264 394 392 17 436 0 430 436 436 0 218 216 0 0 -82 1 599 16331583
6 83 3 597 .792156862745098 .819607843137255 .933333333333333 79 14 593 SWEntUnc
hanged15 568 1275 0 341 440 697 17 341 0 568 341 341 0 698 339 0 0 +15 697 1228
 0 337 440 575 17 337 0 697 337 337 0 699 335 0 0 +17 699 0 700 699 699 0 337 33
5 0 0 -15 700 1254 0 699 529 0 17 698 0 701 698 698 0 341 339 0 0 -15 701 1301 0
 698 519 0 82 1 567 -1440219017 82 1 560 163905666 17 554 0 504 554 554 0 552 36
2 0 0 -16 362 1516 0 ?552 19 0 363 0 0 1 15 504 1505 0 554 401 702 15 702 1458 0
 360 401 399 17 360 0 702 360 360 0 357 352 0 0 -82 1 551 580518018 15 359 1475
 0 357 542 703 15 703 1476 0 354 542 0 17 354 0 703 354 354 0 351 350 0 0 -15 54
3 1411 0 355 518 704 17 355 0 543 355 355 0 512 349 0 0 +15 704 1412 0 705 518 0
 17 705 0 704 705 705 0 348 347 0 0 -17 348 0 524 348 348 0 705 347 0 0 +15 538
 1300 0 368 519 701 17 368 0 538 368 368 0 706 342 0 0 +17 706 0 494 706 706 0 3
68 342 0 0 -15 494 1282 0 706 489 707 15 707 1235 0 708 489 578 17 708 0 707 708
 708 0 369 338 0 0 -17 369 0 536 369 369 0 708 338 0 0 +15 536 1253 0 369 529 70
0 82 1 528 157220991 82 1 511 160301183 15 482 404 0 237 477 709 17 237 0 482 23
7 237 0 710 235 0 0 +15 709 406 0 711 477 0 17 711 0 709 711 711 0 292 290 0 0 -
17 292 0 395 292 292 0 711 290 0 0 +15 395 209 0 292 394 712 15 712 210 0 295 39
4 713 17 295 0 712 295 295 0 714 293 0 0 +15 713 211 0 298 394 715 17 298 0 713
 298 298 0 716 296 0 0 +15 715 212 0 301 394 717 17 301 0 715 301 301 0 718 299
 0 0 +15 717 213 0 304 394 719 17 304 0 717 304 304 0 720 302 0 0 +15 719 214 0
 307 394 721 17 307 0 719 307 307 0 722 305 0 0 +15 721 215 0 310 394 723 17 310
 0 721 310 310 0 724 308 0 0 +15 723 216 0 313 394 725 17 313 0 723 313 313 0 72
6 311 0 0 +15 725 217 0 315 394 0 17 315 0 725 315 315 0 727 220 0 0 +17 727 0 7
28 727 727 0 315 220 0 0 -15 728 374 0 727 444 0 17 726 0 729 726 726 0 313 311
 0 0 -15 729 378 0 726 449 0 17 724 0 730 724 724 0 310 308 0 0 -15 730 382 0 72
4 452 0 17 722 0 731 722 722 0 307 305 0 0 -15 731 386 0 722 457 0 17 720 0 732
 720 720 0 304 302 0 0 -15 732 390 0 720 461 0 17 718 0 733 718 718 0 301 299 0
 0 -15 733 394 0 718 465 0 17 716 0 734 716 716 0 298 296 0 0 -15 734 398 0 716
 469 0 17 714 0 735 714 714 0 295 293 0 0 -15 735 402 0 714 473 0 17 710 0 437 7
10 710 0 237 235 0 0 -15 437 5 0 710 15 736 15 736 6 0 737 15 738 17 737 0 736 7
37 737 0 240 238 0 0 -15 738 7 0 739 15 740 17 739 0 738 739 739 0 243 241 0 0 -
15 740 8 0 741 15 742 17 741 0 740 741 741 0 246 244 0 0 -15 742 9 0 743 15 744
 17 743 0 742 743 743 0 249 247 0 0 -15 744 10 0 745 15 746 17 745 0 744 745 745
 0 252 250 0 0 -15 746 11 0 747 15 748 17 747 0 746 747 747 0 255 253 0 0 -15 74
8 12 0 749 15 750 17 749 0 748 749 749 0 258 256 0 0 -15 750 13 0 751 15 28 17 7
51 0 750 751 751 0 261 259 0 0 -17 261 0 448 261 261 0 751 259 0 0 +15 448 372 0
 261 444 728 17 258 0 454 258 258 0 749 256 0 0 +15 454 376 0 258 449 729 17 255
 0 458 255 255 0 747 253 0 0 +15 458 380 0 255 452 730 17 252 0 462 252 252 0 74
5 250 0 0 +15 462 384 0 252 457 731 17 249 0 466 249 249 0 743 247 0 0 +15 466 3
88 0 249 461 732 17 246 0 470 246 246 0 741 244 0 0 +15 470 392 0 246 465 733 17
 243 0 474 243 243 0 739 241 0 0 +15 474 396 0 243 469 734 17 240 0 478 240 240
 0 737 238 0 0 +15 478 400 0 240 473 735 82 1 434 -1400504201 82 1 424 -14284880
73 17 133 0 151 130 136 131 150 152 0 380 +17 159 0 379 157 31 114 161 373 0 155
 -17 161 0 160 36 155 27 159 373 0 0 +19 16 462 0 1 0 9 5 S0 74 4 CI16 index_map
_offset0 0 1 dCCZ20 14 3 0 0 590 2 549 0 0 0 0 0 0 0 0 0 0 0 0 0 0 0 0 0 80 2 12
 752 753 8004 0 0 0 0 3 5 0 0 0 FFTFFFFFFFFFFF2 3 83 1 13 1e3 79 16 753 SDL/TYSA
_DENSITY1 0 
